<svg width="357" height="357" viewBox="0 0 357 357" fill="none" xmlns="http://www.w3.org/2000/svg">
<path d="M173.432 55.7739L183.425 93.4907C196.987 108.025 210.675 112.658 227.98 118.878L230.82 105.74C225.569 99.8376 214.006 91.0154 201.666 81.5743C201.755 70.1612 200.617 58.7717 198.271 47.6022C192.862 20.0882 164.121 26.1337 173.432 55.7739Z" fill="#191919" stroke="white" stroke-width="0.3" stroke-linecap="round" stroke-linejoin="round"/>
<path d="M173.686 268.158C173.686 268.158 172.259 275.949 172.972 279.266C173.686 282.582 182.489 284.772 182.489 284.772C182.489 284.772 194.941 296.498 205.489 295.688C211.723 295.212 213.832 293.562 214.8 291.722C215.767 289.881 214.8 287.564 213.642 285.851C212.484 284.137 199.493 278.663 196.194 273.506C194.608 270.999 191.991 265.715 191.991 265.715L190.912 255.877L173.781 255.163L174.622 266.794L173.686 268.158Z" fill="#191919" stroke="white" stroke-width="0.3" stroke-linecap="round" stroke-linejoin="round"/>
<path d="M158.617 145.012L169.514 199.834C165.485 221.699 166.342 244.532 171.909 268.254C175.272 277.266 187.232 274.743 194.687 268.254C192.466 250.451 192.101 229.823 192.53 207.958L194.687 193.677C194.687 193.677 196.463 186.346 196.273 158.626C196.273 144.345 188.136 113.341 188.136 113.341L158.617 145.012Z" fill="#191919" stroke="white" stroke-width="0.3" stroke-linecap="round" stroke-linejoin="round"/>
<path d="M135.951 287.342C134.65 289.802 134.65 293.975 134.523 300.036C135.891 303.245 138.467 305.788 141.693 307.113C143.42 310.912 146.176 314.151 149.65 316.462C153.124 318.773 157.176 320.064 161.346 320.188C174.939 320.521 174.844 315.015 174.765 315.031C174.664 313.903 174.331 312.808 173.785 311.817C173.238 310.825 172.492 309.958 171.592 309.271C169.641 307.684 159.601 299.608 157.808 297.291C156.525 295.42 155.461 293.407 154.636 291.293L154.018 281.471H135.697L135.951 287.342Z" fill="#191919" stroke="white" stroke-width="0.3" stroke-linecap="round" stroke-linejoin="round"/>
<path d="M167.706 156.801C167.706 184.569 168.721 200.992 161.361 215.05C160.542 221.352 159.344 227.6 157.777 233.758C155.619 241.136 155.984 273.426 156.857 292.547C153.082 298.798 144.167 299.782 138.251 295.72C135.865 294.091 134.125 291.677 133.334 288.897C131.89 279.805 130.558 271.3 129.781 263.224C127.909 244.659 128.813 228.442 137.093 213.019C133.286 193.614 133.746 174.557 134.936 153.485C134.48 149.663 134.332 145.811 134.492 141.965C134.634 137.528 135.3 133.124 136.474 128.843C137.114 126.453 137.93 124.114 138.917 121.845C139.839 119.665 140.898 117.545 142.089 115.499L192.292 125.019C187.168 142.806 177.461 154.627 167.706 156.801Z" fill="#191919" stroke="white" stroke-width="0.3" stroke-linecap="round" stroke-linejoin="round"/>
<path d="M197.114 132.588C184.171 140.521 172.623 145.282 164.217 147.17C164.122 147.163 164.026 147.163 163.931 147.17H163.614L162.615 147.376L161.98 147.487C161.251 147.614 160.394 147.725 159.284 147.805H158.602H157.555C155.683 147.805 153.922 147.805 152.257 147.567H151.638H150.687L149.814 147.44C135.015 145.25 129.02 137.3 129.02 137.3L130.606 112.595V112.341L132.493 82.9387L134.825 82.2088L133.397 52.521C137.937 47.1965 143.533 42.8739 149.83 39.8271C162.742 31.2428 174.511 27.5775 190.23 32.0838C192.455 39.0027 194.235 46.0569 195.56 53.2033C195.813 54.5203 195.797 60.2008 195.813 62.5491C195.813 63.5647 196.416 73.3072 196.384 74.4497C196.051 94.3474 197.114 132.588 197.114 132.588Z" fill="#191919" stroke="white" stroke-width="0.3" stroke-linecap="round" stroke-linejoin="round"/>
<path d="M160.601 46.7294C169.356 75.9095 169.896 112.198 166.755 151.66L185.916 138.855C186.217 108.422 187.502 74.3862 181.443 45.9519L160.601 46.7294Z" fill="#191919" stroke="white" stroke-width="0.3" stroke-linecap="round" stroke-linejoin="round"/>
<path d="M165.994 28.5613C165.613 28.5613 159.332 36.3363 159.332 36.3363C150.972 41.0965 161.711 58.741 173.147 56.9639L182.664 50.3789L165.994 28.5613Z" fill="#191919" stroke="white" stroke-width="0.3" stroke-linecap="round" stroke-linejoin="round"/>
<g style="mix-blend-mode:multiply" opacity="0.1">
<path d="M187.438 49.1889C187.438 57.5986 185.281 64.1995 179.507 63.1998C167.23 61.6131 165.089 44.4287 166.358 37.9072L187.438 49.1889Z" fill="#191919"/>
<path d="M187.438 49.1889C187.438 57.5986 185.281 64.1995 179.507 63.1998C167.23 61.6131 165.089 44.4287 166.358 37.9072L187.438 49.1889Z" stroke="white" stroke-width="0.3" stroke-linecap="round" stroke-linejoin="round"/>
</g>
<path d="M179.936 7.2832C169.721 7.39427 163.836 12.218 163.376 22.9284C163.661 34.1784 164.233 40.9538 169.721 48.6336C173.099 52.886 177.652 55.9484 182.933 55.6787C189.167 55.3613 198.383 40.4143 199.271 29.5927C200.794 18.6601 191.467 10.2663 179.936 7.2832Z" fill="#191919" stroke="white" stroke-width="0.3" stroke-linecap="round" stroke-linejoin="round"/>
<path d="M168.42 39.4147C167.709 38.3334 167.243 37.1093 167.056 35.8286C166.969 35.1978 167.034 34.5554 167.243 33.9542C167.453 33.3529 167.802 32.8099 168.261 32.3695C168.746 31.9363 169.364 31.6813 170.012 31.6466C170.661 31.612 171.303 31.7999 171.83 32.1791C172.16 32.4808 172.422 32.8488 172.6 33.259C172.778 33.6692 172.867 34.1123 172.861 34.5592C172.83 35.4401 172.67 36.3115 172.385 37.1456L171.703 39.4464C171.663 39.719 171.568 39.9806 171.423 40.2152C171.279 40.4498 171.088 40.6525 170.863 40.811C170.619 40.9 170.357 40.9278 170.099 40.8918C169.842 40.8559 169.598 40.7573 169.388 40.6047C168.982 40.2839 168.651 39.8776 168.42 39.4147Z" fill="#191919" stroke="white" stroke-width="0.3" stroke-linecap="round" stroke-linejoin="round"/>
<path d="M179.238 7.2355C170.054 6.91816 164.581 8.98091 162.805 13.7253C159.236 24.8324 175.145 35.6381 189.5 42.2865C196.701 42.8736 202.665 41.8898 207.392 39.3828C208.128 32.6497 206.593 25.8639 203.03 20.1039L179.238 7.2355Z" fill="#191919" stroke="white" stroke-width="0.3" stroke-linecap="round" stroke-linejoin="round"/>
<path d="M204.822 32.8455C208.106 20.6593 202.903 9.72669 192.022 4.18898C178.651 -2.63399 166.77 5.07755 164.09 16.8829C163.899 22.9601 169.673 30.4653 178.666 35.0351C182.886 37.4406 187.568 38.9225 192.403 39.3828L203.109 36.2093C203.932 35.2349 204.518 34.0837 204.822 32.8455Z" fill="#191919" stroke="white" stroke-width="0.3" stroke-linecap="round" stroke-linejoin="round"/>
<path d="M255.437 133.127L226.283 149.963L211.675 141.521V128.891L240.813 124.686L255.437 120.497V133.127Z" fill="white" stroke="#191919" stroke-width="0.3" stroke-linecap="round" stroke-linejoin="round"/>
<path d="M226.283 131.382V149.962L211.675 141.521V128.891L226.283 131.382Z" fill="white" stroke="#191919" stroke-width="0.3" stroke-linecap="round" stroke-linejoin="round"/>
<path d="M255.437 120.497L226.283 137.332L211.675 128.891L240.813 112.055L255.437 120.497Z" fill="white" stroke="#191919" stroke-width="0.3" stroke-linecap="round" stroke-linejoin="round"/>
<path d="M221.033 123.48L236.451 131.461L246.729 125.527L234.563 117.831L221.033 123.48Z" fill="#191919" stroke="white" stroke-width="0.3" stroke-linecap="round" stroke-linejoin="round"/>
<path d="M228.108 122.179L232.137 124.67L236.451 131.445V137.332C236.442 137.73 236.515 138.125 236.665 138.493C236.814 138.861 237.038 139.195 237.322 139.473C237.606 139.751 237.945 139.968 238.316 140.11C238.687 140.252 239.084 140.317 239.481 140.299L244.62 137.015C245.512 136.447 246.282 135.707 246.884 134.838C247.486 133.969 247.908 132.988 248.125 131.953L248.776 126.368L246.809 119.91L243.367 115.594L239.481 112.849L228.155 102.503C221.969 97.4098 213.341 110.786 217.687 115.594L224.92 118.339L222.001 120.83L221.113 123.464L228.108 122.179Z" fill="#191919" stroke="white" stroke-width="0.3" stroke-linecap="round" stroke-linejoin="round"/>
<path d="M177.477 138.633L168.832 149.629C164.257 146.79 159.855 143.68 155.651 140.315C145.161 132.045 136.279 121.917 129.448 110.437L127.782 71.4031C127.782 60.2959 131.304 53.2508 135.713 50.109C143.469 44.6665 154.033 51.1246 153.732 68.7691L149.767 102.646L177.477 138.633Z" fill="#191919" stroke="white" stroke-width="0.3" stroke-linecap="round" stroke-linejoin="round"/>
<path d="M39.9242 269.333L30.7402 269.999V282.63L45.4441 291.135L60.0527 282.693V270.047L39.9242 269.333Z" fill="#191919" stroke="white" stroke-width="0.6" stroke-linecap="round" stroke-linejoin="round"/>
<path d="M45.4443 272.554V291.135L60.053 282.693V270.047L45.4443 272.554Z" fill="#191919" stroke="white" stroke-width="0.6" stroke-linecap="round" stroke-linejoin="round"/>
<path d="M43.5882 257.988V262.526L30.7402 269.999L45.4441 278.488L60.0527 270.047L43.5882 257.988Z" fill="#191919" stroke="white" stroke-width="0.6" stroke-linecap="round" stroke-linejoin="round"/>
<path d="M46.8877 291.991L76.0416 308.827L90.6502 300.385V287.755L61.4964 283.566L46.8877 279.361V291.991Z" fill="#191919" stroke="white" stroke-width="0.6" stroke-linecap="round" stroke-linejoin="round"/>
<path d="M76.041 290.246V308.827L90.6497 300.385V287.755L76.041 290.246Z" fill="#191919" stroke="white" stroke-width="0.6" stroke-linecap="round" stroke-linejoin="round"/>
<path d="M46.8877 279.361L76.0416 296.196L90.6502 287.755L61.4964 270.919L46.8877 279.361Z" fill="#191919" stroke="white" stroke-width="0.6" stroke-linecap="round" stroke-linejoin="round"/>
<path d="M77.5166 309.604L106.655 326.439L121.263 317.998V305.367L92.1253 301.163L77.5166 296.974V309.604Z" fill="#191919" stroke="white" stroke-width="0.6" stroke-linecap="round" stroke-linejoin="round"/>
<path d="M106.654 307.859V326.44L121.263 317.998V305.368L106.654 307.859Z" fill="#191919" stroke="white" stroke-width="0.6" stroke-linecap="round" stroke-linejoin="round"/>
<path d="M77.5166 296.974L106.655 313.809L121.263 305.368L92.1253 288.532L77.5166 296.974Z" fill="#191919" stroke="white" stroke-width="0.6" stroke-linecap="round" stroke-linejoin="round"/>
<path d="M108.113 327.312L137.251 344.131L151.86 335.706V323.06L122.722 318.871L108.113 314.666V327.312Z" fill="#191919" stroke="white" stroke-width="0.6" stroke-linecap="round" stroke-linejoin="round"/>
<path d="M137.252 325.567V344.131L151.861 335.706V323.06L137.252 325.567Z" fill="#191919" stroke="white" stroke-width="0.6" stroke-linecap="round" stroke-linejoin="round"/>
<path d="M108.113 314.666L137.251 331.501L151.86 323.06L122.722 306.224L108.113 314.666Z" fill="#191919" stroke="white" stroke-width="0.6" stroke-linecap="round" stroke-linejoin="round"/>
<path d="M30.8828 268.888L60.0208 285.724L74.6453 277.282V264.652L45.4915 260.447L30.8828 256.258V268.888Z" fill="#191919" stroke="white" stroke-width="0.6" stroke-linecap="round" stroke-linejoin="round"/>
<path d="M60.0205 267.143V285.724L74.645 277.282V264.652L60.0205 267.143Z" fill="#191919" stroke="white" stroke-width="0.6" stroke-linecap="round" stroke-linejoin="round"/>
<path d="M30.8828 256.258L60.0208 273.093L74.6453 264.652L45.4915 247.817L30.8828 256.258Z" fill="#191919" stroke="white" stroke-width="0.6" stroke-linecap="round" stroke-linejoin="round"/>
<path d="M61.4961 286.501L90.65 303.337L105.259 294.895V282.265L76.1206 278.06L61.4961 273.871V286.501Z" fill="#191919" stroke="white" stroke-width="0.6" stroke-linecap="round" stroke-linejoin="round"/>
<path d="M90.6504 284.756V303.337L105.259 294.895V282.265L90.6504 284.756Z" fill="#191919" stroke="white" stroke-width="0.6" stroke-linecap="round" stroke-linejoin="round"/>
<path d="M61.4961 273.871L90.65 290.69L105.259 282.265L76.1206 265.429L61.4961 273.871Z" fill="#191919" stroke="white" stroke-width="0.6" stroke-linecap="round" stroke-linejoin="round"/>
<path d="M92.0938 304.209L121.248 321.029L135.856 312.587V299.957L106.718 295.768L92.0938 291.563V304.209Z" fill="#191919" stroke="white" stroke-width="0.6" stroke-linecap="round" stroke-linejoin="round"/>
<path d="M121.247 302.464V321.029L135.856 312.587V299.957L121.247 302.464Z" fill="#191919" stroke="white" stroke-width="0.6" stroke-linecap="round" stroke-linejoin="round"/>
<path d="M92.0938 291.563L121.248 308.398L135.856 299.957L106.718 283.122L92.0938 291.563Z" fill="#191919" stroke="white" stroke-width="0.6" stroke-linecap="round" stroke-linejoin="round"/>
<path d="M351.386 226.174H322.152V238.82L336.761 247.261L351.386 238.804V226.174Z" fill="#191919" stroke="white" stroke-width="0.6" stroke-linecap="round" stroke-linejoin="round"/>
<path d="M336.761 228.681V247.261L322.152 238.82V226.174L336.761 228.681Z" fill="#191919" stroke="white" stroke-width="0.6" stroke-linecap="round" stroke-linejoin="round"/>
<path d="M339.394 218.319L341.171 215.654L322.152 226.174L336.761 234.615L351.386 226.174L339.394 218.319Z" fill="#191919" stroke="white" stroke-width="0.6" stroke-linecap="round" stroke-linejoin="round"/>
<path d="M335.317 248.118L306.163 264.953L291.555 256.512V243.882L320.709 239.677L335.317 235.488V248.118Z" fill="#191919" stroke="white" stroke-width="0.6" stroke-linecap="round" stroke-linejoin="round"/>
<path d="M306.163 246.373V264.953L291.555 256.512V243.882L306.163 246.373Z" fill="#191919" stroke="white" stroke-width="0.6" stroke-linecap="round" stroke-linejoin="round"/>
<path d="M335.317 235.488L306.163 252.323L291.555 243.881L320.709 227.046L335.317 235.488Z" fill="#191919" stroke="white" stroke-width="0.6" stroke-linecap="round" stroke-linejoin="round"/>
<path d="M304.72 265.826L275.582 282.661L260.957 274.22V261.574L290.111 257.385L304.72 253.18V265.826Z" fill="#191919" stroke="white" stroke-width="0.6" stroke-linecap="round" stroke-linejoin="round"/>
<path d="M275.582 264.081V282.661L260.957 274.22V261.574L275.582 264.081Z" fill="#191919" stroke="white" stroke-width="0.6" stroke-linecap="round" stroke-linejoin="round"/>
<path d="M304.72 253.18L275.582 270.015L260.957 261.574L290.111 244.754L304.72 253.18Z" fill="#191919" stroke="white" stroke-width="0.6" stroke-linecap="round" stroke-linejoin="round"/>
<path d="M274.123 283.518L244.985 300.353L230.36 291.912V279.282L259.514 275.077L274.123 270.888V283.518Z" fill="#191919" stroke="white" stroke-width="0.6" stroke-linecap="round" stroke-linejoin="round"/>
<path d="M244.985 281.773V300.354L230.36 291.912V279.282L244.985 281.773Z" fill="#191919" stroke="white" stroke-width="0.6" stroke-linecap="round" stroke-linejoin="round"/>
<path d="M274.123 270.888L244.985 287.723L230.36 279.282L259.514 262.446L274.123 270.888Z" fill="#191919" stroke="white" stroke-width="0.6" stroke-linecap="round" stroke-linejoin="round"/>
<path d="M243.525 301.226L214.387 318.061L199.763 309.62V296.974L228.917 292.785L243.525 288.596V301.226Z" fill="#191919" stroke="white" stroke-width="0.6" stroke-linecap="round" stroke-linejoin="round"/>
<path d="M214.387 299.481V318.061L199.763 309.62V296.974L214.387 299.481Z" fill="#191919" stroke="white" stroke-width="0.6" stroke-linecap="round" stroke-linejoin="round"/>
<path d="M243.525 288.596L214.387 305.415L199.763 296.974L228.917 280.154L243.525 288.596Z" fill="#191919" stroke="white" stroke-width="0.6" stroke-linecap="round" stroke-linejoin="round"/>
<path d="M212.928 318.918L183.79 335.754L169.182 327.312V314.682L198.32 310.493L212.928 306.288V318.918Z" fill="#191919" stroke="white" stroke-width="0.6" stroke-linecap="round" stroke-linejoin="round"/>
<path d="M183.79 317.173V335.754L169.182 327.312V314.682L183.79 317.173Z" fill="#191919" stroke="white" stroke-width="0.6" stroke-linecap="round" stroke-linejoin="round"/>
<path d="M212.928 306.288L183.79 323.123L169.182 314.682L198.32 297.846L212.928 306.288Z" fill="#191919" stroke="white" stroke-width="0.6" stroke-linecap="round" stroke-linejoin="round"/>
<path d="M182.331 336.626L153.193 353.462L138.584 345.02V332.374L167.722 328.185L182.331 323.996V336.626Z" fill="#191919" stroke="white" stroke-width="0.6" stroke-linecap="round" stroke-linejoin="round"/>
<path d="M153.193 334.881V353.462L138.584 345.02V332.374L153.193 334.881Z" fill="#191919" stroke="white" stroke-width="0.6" stroke-linecap="round" stroke-linejoin="round"/>
<path d="M182.331 323.996L153.193 340.815L138.584 332.374L167.722 315.554L182.331 323.996Z" fill="#191919" stroke="white" stroke-width="0.6" stroke-linecap="round" stroke-linejoin="round"/>
<path d="M351.322 225.015L322.184 241.85L307.56 233.409V220.779L336.713 216.574L351.322 212.385V225.015Z" fill="#191919" stroke="white" stroke-width="0.6" stroke-linecap="round" stroke-linejoin="round"/>
<path d="M322.184 223.27V241.85L307.56 233.409V220.779L322.184 223.27Z" fill="#191919" stroke="white" stroke-width="0.6" stroke-linecap="round" stroke-linejoin="round"/>
<path d="M351.322 212.385L322.184 229.22L307.56 220.779L336.713 203.943L351.322 212.385Z" fill="#191919" stroke="white" stroke-width="0.6" stroke-linecap="round" stroke-linejoin="round"/>
<path d="M320.724 242.723L291.586 259.543L276.962 251.117V238.471L306.116 234.282L320.724 230.077V242.723Z" fill="#191919" stroke="white" stroke-width="0.6" stroke-linecap="round" stroke-linejoin="round"/>
<path d="M291.586 240.978V259.543L276.962 251.117V238.471L291.586 240.978Z" fill="#191919" stroke="white" stroke-width="0.6" stroke-linecap="round" stroke-linejoin="round"/>
<path d="M320.724 230.077L291.586 246.912L276.962 238.471L306.116 221.635L320.724 230.077Z" fill="#191919" stroke="white" stroke-width="0.6" stroke-linecap="round" stroke-linejoin="round"/>
<path d="M290.128 260.415L260.99 277.251L246.381 268.809V256.179L275.519 251.974L290.128 247.785V260.415Z" fill="#191919" stroke="white" stroke-width="0.6" stroke-linecap="round" stroke-linejoin="round"/>
<path d="M260.99 258.67V277.251L246.381 268.809V256.179L260.99 258.67Z" fill="#191919" stroke="white" stroke-width="0.6" stroke-linecap="round" stroke-linejoin="round"/>
<path d="M290.128 247.785L260.99 264.62L246.381 256.179L275.519 239.343L290.128 247.785Z" fill="#191919" stroke="white" stroke-width="0.6" stroke-linecap="round" stroke-linejoin="round"/>
<path d="M259.53 278.123L230.392 294.943L215.783 286.517V273.871L244.921 269.682L259.53 265.477V278.123Z" fill="#191919" stroke="white" stroke-width="0.6" stroke-linecap="round" stroke-linejoin="round"/>
<path d="M230.392 276.378V294.943L215.783 286.517V273.871L230.392 276.378Z" fill="#191919" stroke="white" stroke-width="0.6" stroke-linecap="round" stroke-linejoin="round"/>
<path d="M259.53 265.477L230.392 282.312L215.783 273.871L244.921 257.052L259.53 265.477Z" fill="#191919" stroke="white" stroke-width="0.6" stroke-linecap="round" stroke-linejoin="round"/>
<path d="M228.932 295.815L199.794 312.651L185.186 304.209V291.579L214.324 287.374L228.932 283.185V295.815Z" fill="#191919" stroke="white" stroke-width="0.6" stroke-linecap="round" stroke-linejoin="round"/>
<path d="M199.794 294.07V312.651L185.186 304.209V291.579L199.794 294.07Z" fill="#191919" stroke="white" stroke-width="0.6" stroke-linecap="round" stroke-linejoin="round"/>
<path d="M228.932 283.185L199.794 300.02L185.186 291.579L214.324 274.744L228.932 283.185Z" fill="#191919" stroke="white" stroke-width="0.6" stroke-linecap="round" stroke-linejoin="round"/>
<path d="M198.351 313.523L169.198 330.343L154.589 321.917V309.271L183.727 305.082L198.351 300.877V313.523Z" fill="#191919" stroke="white" stroke-width="0.6" stroke-linecap="round" stroke-linejoin="round"/>
<path d="M169.198 311.778V330.343L154.589 321.917V309.271L169.198 311.778Z" fill="#191919" stroke="white" stroke-width="0.6" stroke-linecap="round" stroke-linejoin="round"/>
<path d="M198.351 300.877L169.198 317.713L154.589 309.271L183.727 292.452L198.351 300.877Z" fill="#191919" stroke="white" stroke-width="0.6" stroke-linecap="round" stroke-linejoin="round"/>
<path d="M122.184 321.568L153.162 339.498L167.77 331.057V318.411L136.808 313.127L122.184 308.938V321.568Z" fill="#191919" stroke="white" stroke-width="0.6" stroke-linecap="round" stroke-linejoin="round"/>
<path d="M153.161 320.918V339.498L167.77 331.057V318.411L153.161 320.918Z" fill="#191919" stroke="white" stroke-width="0.6" stroke-linecap="round" stroke-linejoin="round"/>
<path d="M122.184 308.938L153.162 326.852L167.77 318.411L136.808 300.496L122.184 308.938Z" fill="#191919" stroke="white" stroke-width="0.6" stroke-linecap="round" stroke-linejoin="round"/>
<path d="M39.9242 241.089L30.7402 241.755V254.402L45.4441 262.891L60.0527 254.449V241.819L39.9242 241.089Z" fill="#191919" stroke="white" stroke-width="0.6" stroke-linecap="round" stroke-linejoin="round"/>
<path d="M45.4443 244.31V262.891L60.053 254.449V241.819L45.4443 244.31Z" fill="#191919" stroke="white" stroke-width="0.6" stroke-linecap="round" stroke-linejoin="round"/>
<path d="M43.5882 229.744V234.282L30.7402 241.755L45.4441 250.26L60.0527 241.819L43.5882 229.744Z" fill="#191919" stroke="white" stroke-width="0.6" stroke-linecap="round" stroke-linejoin="round"/>
<path d="M46.8877 263.763L76.0416 280.599L90.6502 272.157V259.511L61.4964 255.322L46.8877 251.117V263.763Z" fill="#191919" stroke="white" stroke-width="0.6" stroke-linecap="round" stroke-linejoin="round"/>
<path d="M76.041 262.018V280.598L90.6497 272.157V259.511L76.041 262.018Z" fill="#191919" stroke="white" stroke-width="0.6" stroke-linecap="round" stroke-linejoin="round"/>
<path d="M46.8877 251.117L76.0416 267.952L90.6502 259.511L61.4964 242.691L46.8877 251.117Z" fill="#191919" stroke="white" stroke-width="0.6" stroke-linecap="round" stroke-linejoin="round"/>
<path d="M77.5166 281.36L106.655 298.195L121.263 289.754V277.124L92.1253 272.935L77.5166 268.73V281.36Z" fill="#191919" stroke="white" stroke-width="0.6" stroke-linecap="round" stroke-linejoin="round"/>
<path d="M106.654 279.615V298.195L121.263 289.754V277.124L106.654 279.615Z" fill="#191919" stroke="white" stroke-width="0.6" stroke-linecap="round" stroke-linejoin="round"/>
<path d="M77.5166 268.73L106.655 285.565L121.263 277.124L92.1253 260.288L77.5166 268.73Z" fill="#191919" stroke="white" stroke-width="0.6" stroke-linecap="round" stroke-linejoin="round"/>
<path d="M108.113 299.068L137.251 315.903L151.86 307.462V294.832L122.722 290.627L108.113 286.438V299.068Z" fill="#191919" stroke="white" stroke-width="0.6" stroke-linecap="round" stroke-linejoin="round"/>
<path d="M137.252 297.323V315.903L151.861 307.462V294.832L137.252 297.323Z" fill="#191919" stroke="white" stroke-width="0.6" stroke-linecap="round" stroke-linejoin="round"/>
<path d="M108.113 286.438L137.251 303.273L151.86 294.832L122.722 277.996L108.113 286.438Z" fill="#191919" stroke="white" stroke-width="0.6" stroke-linecap="round" stroke-linejoin="round"/>
<path d="M30.8828 240.66L60.0208 257.496L74.6453 249.054V236.408L45.4915 232.219L30.8828 228.014V240.66Z" fill="#191919" stroke="white" stroke-width="0.6" stroke-linecap="round" stroke-linejoin="round"/>
<path d="M60.0205 238.915V257.496L74.645 249.054V236.408L60.0205 238.915Z" fill="#191919" stroke="white" stroke-width="0.6" stroke-linecap="round" stroke-linejoin="round"/>
<path d="M30.8828 228.014L60.0208 244.849L74.6453 236.408L45.4915 219.573L30.8828 228.014Z" fill="#191919" stroke="white" stroke-width="0.6" stroke-linecap="round" stroke-linejoin="round"/>
<path d="M61.4961 258.257L90.65 275.093L105.259 266.651V254.021L76.1206 249.816L61.4961 245.627V258.257Z" fill="#191919" stroke="white" stroke-width="0.6" stroke-linecap="round" stroke-linejoin="round"/>
<path d="M90.6504 256.512V275.093L105.259 266.651V254.021L90.6504 256.512Z" fill="#191919" stroke="white" stroke-width="0.6" stroke-linecap="round" stroke-linejoin="round"/>
<path d="M61.4961 245.627L90.65 262.462L105.259 254.021L76.1206 237.186L61.4961 245.627Z" fill="#191919" stroke="white" stroke-width="0.6" stroke-linecap="round" stroke-linejoin="round"/>
<path d="M92.0938 275.965L121.248 292.801L135.856 284.359V271.713L106.718 267.524L92.0938 263.335V275.965Z" fill="#191919" stroke="white" stroke-width="0.6" stroke-linecap="round" stroke-linejoin="round"/>
<path d="M121.247 274.22V292.801L135.856 284.359V271.713L121.247 274.22Z" fill="#191919" stroke="white" stroke-width="0.6" stroke-linecap="round" stroke-linejoin="round"/>
<path d="M92.0938 263.335L121.248 280.154L135.856 271.713L106.718 254.894L92.0938 263.335Z" fill="#191919" stroke="white" stroke-width="0.6" stroke-linecap="round" stroke-linejoin="round"/>
<path d="M351.386 197.93L322.152 197.946V210.576L336.761 219.017L351.386 210.576V197.93Z" fill="#191919" stroke="white" stroke-width="0.6" stroke-linecap="round" stroke-linejoin="round"/>
<path d="M336.761 200.437V219.017L322.152 210.576V197.946L336.761 200.437Z" fill="#191919" stroke="white" stroke-width="0.6" stroke-linecap="round" stroke-linejoin="round"/>
<path d="M339.394 190.091L341.171 187.409L322.152 197.945L336.761 206.387L351.386 197.929L339.394 190.091Z" fill="#191919" stroke="white" stroke-width="0.6" stroke-linecap="round" stroke-linejoin="round"/>
<path d="M335.317 219.89L306.163 236.725L291.555 228.284V215.637L320.709 211.448L335.317 207.244V219.89Z" fill="#191919" stroke="white" stroke-width="0.6" stroke-linecap="round" stroke-linejoin="round"/>
<path d="M306.163 218.145V236.725L291.555 228.284V215.638L306.163 218.145Z" fill="#191919" stroke="white" stroke-width="0.6" stroke-linecap="round" stroke-linejoin="round"/>
<path d="M335.317 207.244L306.163 224.079L291.555 215.638L320.709 198.802L335.317 207.244Z" fill="#191919" stroke="white" stroke-width="0.6" stroke-linecap="round" stroke-linejoin="round"/>
<path d="M304.72 237.582L275.582 254.417L260.957 245.976V233.345L290.111 229.141L304.72 224.952V237.582Z" fill="#191919" stroke="white" stroke-width="0.6" stroke-linecap="round" stroke-linejoin="round"/>
<path d="M275.582 235.837V254.418L260.957 245.976V233.346L275.582 235.837Z" fill="#191919" stroke="white" stroke-width="0.6" stroke-linecap="round" stroke-linejoin="round"/>
<path d="M304.72 224.952L275.582 241.787L260.957 233.346L290.111 216.51L304.72 224.952Z" fill="#191919" stroke="white" stroke-width="0.6" stroke-linecap="round" stroke-linejoin="round"/>
<path d="M274.123 255.29L244.985 272.125L230.36 263.684V251.038L259.514 246.849L274.123 242.644V255.29Z" fill="#191919" stroke="white" stroke-width="0.6" stroke-linecap="round" stroke-linejoin="round"/>
<path d="M244.985 253.545V272.125L230.36 263.684V251.038L244.985 253.545Z" fill="#191919" stroke="white" stroke-width="0.6" stroke-linecap="round" stroke-linejoin="round"/>
<path d="M274.123 242.644L244.985 259.479L230.36 251.038L259.514 234.202L274.123 242.644Z" fill="#191919" stroke="white" stroke-width="0.6" stroke-linecap="round" stroke-linejoin="round"/>
<path d="M243.525 272.982L214.387 289.818L199.763 281.376V268.746L228.917 264.541L243.525 260.352V272.982Z" fill="#191919" stroke="white" stroke-width="0.6" stroke-linecap="round" stroke-linejoin="round"/>
<path d="M214.387 271.237V289.817L199.763 281.376V268.746L214.387 271.237Z" fill="#191919" stroke="white" stroke-width="0.6" stroke-linecap="round" stroke-linejoin="round"/>
<path d="M243.525 260.352L214.387 277.187L199.763 268.746L228.917 251.91L243.525 260.352Z" fill="#191919" stroke="white" stroke-width="0.6" stroke-linecap="round" stroke-linejoin="round"/>
<path d="M212.928 290.69L183.79 307.526L169.182 299.084V286.438L198.32 282.249L212.928 278.044V290.69Z" fill="#191919" stroke="white" stroke-width="0.6" stroke-linecap="round" stroke-linejoin="round"/>
<path d="M183.79 288.945V307.525L169.182 299.084V286.438L183.79 288.945Z" fill="#191919" stroke="white" stroke-width="0.6" stroke-linecap="round" stroke-linejoin="round"/>
<path d="M212.928 278.044L183.79 294.879L169.182 286.438L198.32 269.603L212.928 278.044Z" fill="#191919" stroke="white" stroke-width="0.6" stroke-linecap="round" stroke-linejoin="round"/>
<path d="M182.331 308.382L153.193 325.218L138.584 316.776V304.146L167.722 299.941L182.331 295.752V308.382Z" fill="#191919" stroke="white" stroke-width="0.6" stroke-linecap="round" stroke-linejoin="round"/>
<path d="M153.193 306.637V325.218L138.584 316.776V304.146L153.193 306.637Z" fill="#191919" stroke="white" stroke-width="0.6" stroke-linecap="round" stroke-linejoin="round"/>
<path d="M182.331 295.752L153.193 312.587L138.584 304.146L167.722 287.311L182.331 295.752Z" fill="#191919" stroke="white" stroke-width="0.6" stroke-linecap="round" stroke-linejoin="round"/>
<path d="M351.322 196.787L322.184 213.607L307.56 205.165V192.535L336.713 188.346L351.322 184.141V196.787Z" fill="#191919" stroke="white" stroke-width="0.6" stroke-linecap="round" stroke-linejoin="round"/>
<path d="M322.184 195.042V213.607L307.56 205.165V192.535L322.184 195.042Z" fill="#191919" stroke="white" stroke-width="0.6" stroke-linecap="round" stroke-linejoin="round"/>
<path d="M351.322 184.141L322.184 200.976L307.56 192.535L336.713 175.699L351.322 184.141Z" fill="#191919" stroke="white" stroke-width="0.6" stroke-linecap="round" stroke-linejoin="round"/>
<path d="M320.724 214.479L291.586 231.315L276.962 222.873V210.243L306.116 206.038L320.724 201.849V214.479Z" fill="#191919" stroke="white" stroke-width="0.6" stroke-linecap="round" stroke-linejoin="round"/>
<path d="M291.586 212.734V231.315L276.962 222.873V210.243L291.586 212.734Z" fill="#191919" stroke="white" stroke-width="0.6" stroke-linecap="round" stroke-linejoin="round"/>
<path d="M320.724 201.849L291.586 218.668L276.962 210.243L306.116 193.407L320.724 201.849Z" fill="#191919" stroke="white" stroke-width="0.6" stroke-linecap="round" stroke-linejoin="round"/>
<path d="M290.128 232.171L260.99 249.007L246.381 240.581V227.935L275.519 223.746L290.128 219.541V232.171Z" fill="#191919" stroke="white" stroke-width="0.6" stroke-linecap="round" stroke-linejoin="round"/>
<path d="M260.99 230.426V249.007L246.381 240.581V227.935L260.99 230.426Z" fill="#191919" stroke="white" stroke-width="0.6" stroke-linecap="round" stroke-linejoin="round"/>
<path d="M290.128 219.541L260.99 236.376L246.381 227.935L275.519 211.1L290.128 219.541Z" fill="#191919" stroke="white" stroke-width="0.6" stroke-linecap="round" stroke-linejoin="round"/>
<path d="M259.53 249.879L230.392 266.715L215.783 258.273V245.643L244.921 241.438L259.53 237.249V249.879Z" fill="#191919" stroke="white" stroke-width="0.6" stroke-linecap="round" stroke-linejoin="round"/>
<path d="M230.392 248.134V266.715L215.783 258.273V245.643L230.392 248.134Z" fill="#191919" stroke="white" stroke-width="0.6" stroke-linecap="round" stroke-linejoin="round"/>
<path d="M259.53 237.249L230.392 254.084L215.783 245.643L244.921 228.808L259.53 237.249Z" fill="#191919" stroke="white" stroke-width="0.6" stroke-linecap="round" stroke-linejoin="round"/>
<path d="M228.932 267.587L199.794 284.407L185.186 275.981V263.335L214.324 259.146L228.932 254.941V267.587Z" fill="#191919" stroke="white" stroke-width="0.6" stroke-linecap="round" stroke-linejoin="round"/>
<path d="M199.794 265.842V284.407L185.186 275.981V263.335L199.794 265.842Z" fill="#191919" stroke="white" stroke-width="0.6" stroke-linecap="round" stroke-linejoin="round"/>
<path d="M228.932 254.941L199.794 271.776L185.186 263.335L214.324 246.5L228.932 254.941Z" fill="#191919" stroke="white" stroke-width="0.6" stroke-linecap="round" stroke-linejoin="round"/>
<path d="M198.351 285.279L169.198 302.115L154.589 293.673V281.043L183.727 276.838L198.351 272.649V285.279Z" fill="#191919" stroke="white" stroke-width="0.6" stroke-linecap="round" stroke-linejoin="round"/>
<path d="M169.198 283.534V302.115L154.589 293.673V281.043L169.198 283.534Z" fill="#191919" stroke="white" stroke-width="0.6" stroke-linecap="round" stroke-linejoin="round"/>
<path d="M198.351 272.649L169.198 289.484L154.589 281.043L183.727 264.208L198.351 272.649Z" fill="#191919" stroke="white" stroke-width="0.6" stroke-linecap="round" stroke-linejoin="round"/>
<path d="M122.184 293.34L153.162 311.254L167.77 302.813V290.183L136.808 284.899L122.184 280.694V293.34Z" fill="#191919" stroke="white" stroke-width="0.6" stroke-linecap="round" stroke-linejoin="round"/>
<path d="M153.161 292.674V311.254L167.77 302.813V290.183L153.161 292.674Z" fill="#191919" stroke="white" stroke-width="0.6" stroke-linecap="round" stroke-linejoin="round"/>
<path d="M122.184 280.694L153.162 298.608L167.77 290.183L136.808 272.268L122.184 280.694Z" fill="#191919" stroke="white" stroke-width="0.6" stroke-linecap="round" stroke-linejoin="round"/>
<path d="M39.9242 212.861L30.7402 213.527V226.158L45.4441 234.647L60.0527 226.221V213.575L39.9242 212.861Z" fill="#191919" stroke="white" stroke-width="0.6" stroke-linecap="round" stroke-linejoin="round"/>
<path d="M45.4443 216.082V234.647L60.053 226.221V213.575L45.4443 216.082Z" fill="#191919" stroke="white" stroke-width="0.6" stroke-linecap="round" stroke-linejoin="round"/>
<path d="M43.5882 201.5V206.038L30.7402 213.527L45.4441 222.016L60.0527 213.575L43.5882 201.5Z" fill="#191919" stroke="white" stroke-width="0.6" stroke-linecap="round" stroke-linejoin="round"/>
<path d="M46.8877 235.519L76.0416 252.355L90.6502 243.913V231.283L61.4964 227.078L46.8877 222.889V235.519Z" fill="#191919" stroke="white" stroke-width="0.6" stroke-linecap="round" stroke-linejoin="round"/>
<path d="M76.041 233.774V252.355L90.6497 243.913V231.283L76.041 233.774Z" fill="#191919" stroke="white" stroke-width="0.6" stroke-linecap="round" stroke-linejoin="round"/>
<path d="M46.8877 222.889L76.0416 239.724L90.6502 231.283L61.4964 214.448L46.8877 222.889Z" fill="#191919" stroke="white" stroke-width="0.6" stroke-linecap="round" stroke-linejoin="round"/>
<path d="M77.5166 253.132L106.655 269.967L121.263 261.526V248.88L92.1253 244.691L77.5166 240.486V253.132Z" fill="#191919" stroke="white" stroke-width="0.6" stroke-linecap="round" stroke-linejoin="round"/>
<path d="M106.654 251.387V269.967L121.263 261.526V248.88L106.654 251.387Z" fill="#191919" stroke="white" stroke-width="0.6" stroke-linecap="round" stroke-linejoin="round"/>
<path d="M77.5166 240.486L106.655 257.321L121.263 248.88L92.1253 232.06L77.5166 240.486Z" fill="#191919" stroke="white" stroke-width="0.6" stroke-linecap="round" stroke-linejoin="round"/>
<path d="M108.113 270.824L137.251 287.66L151.86 279.218V266.588L122.722 262.399L108.113 258.194V270.824Z" fill="#191919" stroke="white" stroke-width="0.6" stroke-linecap="round" stroke-linejoin="round"/>
<path d="M137.252 269.079V287.66L151.861 279.218V266.588L137.252 269.079Z" fill="#191919" stroke="white" stroke-width="0.6" stroke-linecap="round" stroke-linejoin="round"/>
<path d="M108.113 258.194L137.251 275.029L151.86 266.588L122.722 249.752L108.113 258.194Z" fill="#191919" stroke="white" stroke-width="0.6" stroke-linecap="round" stroke-linejoin="round"/>
<path d="M30.8828 212.417L60.0208 229.252L74.6453 220.81V208.18L45.4915 203.975L30.8828 199.786V212.417Z" fill="#191919" stroke="white" stroke-width="0.6" stroke-linecap="round" stroke-linejoin="round"/>
<path d="M60.0205 210.671V229.252L74.645 220.81V208.18L60.0205 210.671Z" fill="#191919" stroke="white" stroke-width="0.6" stroke-linecap="round" stroke-linejoin="round"/>
<path d="M30.8828 199.786L60.0208 216.606L74.6453 208.18L45.4915 191.345L30.8828 199.786Z" fill="#191919" stroke="white" stroke-width="0.6" stroke-linecap="round" stroke-linejoin="round"/>
<path d="M61.4961 230.029L90.65 246.849L105.259 238.423V225.777L76.1206 221.588L61.4961 217.383V230.029Z" fill="#191919" stroke="white" stroke-width="0.6" stroke-linecap="round" stroke-linejoin="round"/>
<path d="M90.6504 228.284V246.849L105.259 238.423V225.777L90.6504 228.284Z" fill="#191919" stroke="white" stroke-width="0.6" stroke-linecap="round" stroke-linejoin="round"/>
<path d="M61.4961 217.383L90.65 234.218L105.259 225.777L76.1206 208.958L61.4961 217.383Z" fill="#191919" stroke="white" stroke-width="0.6" stroke-linecap="round" stroke-linejoin="round"/>
<path d="M92.0938 247.721L121.248 264.557L135.856 256.115V243.485L106.718 239.28L92.0938 235.091V247.721Z" fill="#191919" stroke="white" stroke-width="0.6" stroke-linecap="round" stroke-linejoin="round"/>
<path d="M121.247 245.976V264.557L135.856 256.115V243.485L121.247 245.976Z" fill="#191919" stroke="white" stroke-width="0.6" stroke-linecap="round" stroke-linejoin="round"/>
<path d="M92.0938 235.091L121.248 251.926L135.856 243.485L106.718 226.649L92.0938 235.091Z" fill="#191919" stroke="white" stroke-width="0.6" stroke-linecap="round" stroke-linejoin="round"/>
<path d="M351.386 169.702H322.152V182.332L336.761 190.774L351.386 182.332V169.702Z" fill="#191919" stroke="white" stroke-width="0.6" stroke-linecap="round" stroke-linejoin="round"/>
<path d="M336.761 172.209V190.774L322.152 182.332V169.702L336.761 172.209Z" fill="#191919" stroke="white" stroke-width="0.6" stroke-linecap="round" stroke-linejoin="round"/>
<path d="M339.394 161.847L341.171 159.166L322.152 169.701L336.761 178.143L351.386 169.701L339.394 161.847Z" fill="#191919" stroke="white" stroke-width="0.6" stroke-linecap="round" stroke-linejoin="round"/>
<path d="M335.317 191.646L306.163 208.481L291.555 200.04V187.409L320.709 183.205L335.317 179.016V191.646Z" fill="#191919" stroke="white" stroke-width="0.6" stroke-linecap="round" stroke-linejoin="round"/>
<path d="M306.163 189.901V208.481L291.555 200.04V187.409L306.163 189.901Z" fill="#191919" stroke="white" stroke-width="0.6" stroke-linecap="round" stroke-linejoin="round"/>
<path d="M335.317 179.016L306.163 195.835L291.555 187.41L320.709 170.574L335.317 179.016Z" fill="#191919" stroke="white" stroke-width="0.6" stroke-linecap="round" stroke-linejoin="round"/>
<path d="M304.72 209.354L275.582 226.173L260.957 217.732V205.102L290.111 200.913L304.72 196.708V209.354Z" fill="#191919" stroke="white" stroke-width="0.6" stroke-linecap="round" stroke-linejoin="round"/>
<path d="M275.582 207.609V226.173L260.957 217.732V205.102L275.582 207.609Z" fill="#191919" stroke="white" stroke-width="0.6" stroke-linecap="round" stroke-linejoin="round"/>
<path d="M304.72 196.708L275.582 213.543L260.957 205.102L290.111 188.266L304.72 196.708Z" fill="#191919" stroke="white" stroke-width="0.6" stroke-linecap="round" stroke-linejoin="round"/>
<path d="M274.123 227.046L244.985 243.881L230.36 235.44V222.81L259.514 218.605L274.123 214.416V227.046Z" fill="#191919" stroke="white" stroke-width="0.6" stroke-linecap="round" stroke-linejoin="round"/>
<path d="M244.985 225.301V243.881L230.36 235.44V222.81L244.985 225.301Z" fill="#191919" stroke="white" stroke-width="0.6" stroke-linecap="round" stroke-linejoin="round"/>
<path d="M274.123 214.416L244.985 231.251L230.36 222.81L259.514 205.974L274.123 214.416Z" fill="#191919" stroke="white" stroke-width="0.6" stroke-linecap="round" stroke-linejoin="round"/>
<path d="M243.525 244.754L214.387 261.574L199.763 253.132V240.502L228.917 236.313L243.525 232.108V244.754Z" fill="#191919" stroke="white" stroke-width="0.6" stroke-linecap="round" stroke-linejoin="round"/>
<path d="M214.387 243.009V261.574L199.763 253.132V240.502L214.387 243.009Z" fill="#191919" stroke="white" stroke-width="0.6" stroke-linecap="round" stroke-linejoin="round"/>
<path d="M243.525 232.108L214.387 248.943L199.763 240.502L228.917 223.667L243.525 232.108Z" fill="#191919" stroke="white" stroke-width="0.6" stroke-linecap="round" stroke-linejoin="round"/>
<path d="M212.928 262.446L183.79 279.282L169.182 270.84V258.21L198.32 254.005L212.928 249.816V262.446Z" fill="#191919" stroke="white" stroke-width="0.6" stroke-linecap="round" stroke-linejoin="round"/>
<path d="M183.79 260.701V279.282L169.182 270.84V258.21L183.79 260.701Z" fill="#191919" stroke="white" stroke-width="0.6" stroke-linecap="round" stroke-linejoin="round"/>
<path d="M212.928 249.816L183.79 266.651L169.182 258.21L198.32 241.375L212.928 249.816Z" fill="#191919" stroke="white" stroke-width="0.6" stroke-linecap="round" stroke-linejoin="round"/>
<path d="M182.331 280.154L153.193 296.974L138.584 288.532V275.902L167.722 271.713L182.331 267.508V280.154Z" fill="#191919" stroke="white" stroke-width="0.6" stroke-linecap="round" stroke-linejoin="round"/>
<path d="M153.193 278.409V296.974L138.584 288.532V275.902L153.193 278.409Z" fill="#191919" stroke="white" stroke-width="0.6" stroke-linecap="round" stroke-linejoin="round"/>
<path d="M182.331 267.508L153.193 284.343L138.584 275.902L167.722 259.067L182.331 267.508Z" fill="#191919" stroke="white" stroke-width="0.6" stroke-linecap="round" stroke-linejoin="round"/>
<path d="M351.322 168.543L322.184 185.379L307.56 176.937V164.291L336.713 160.102L351.322 155.897V168.543Z" fill="#191919" stroke="white" stroke-width="0.6" stroke-linecap="round" stroke-linejoin="round"/>
<path d="M322.184 166.798V185.379L307.56 176.937V164.291L322.184 166.798Z" fill="#191919" stroke="white" stroke-width="0.6" stroke-linecap="round" stroke-linejoin="round"/>
<path d="M351.322 155.897L322.184 172.732L307.56 164.291L336.713 147.471L351.322 155.897Z" fill="#191919" stroke="white" stroke-width="0.6" stroke-linecap="round" stroke-linejoin="round"/>
<path d="M320.724 186.235L291.586 203.071L276.962 194.629V181.999L306.116 177.81L320.724 173.605V186.235Z" fill="#191919" stroke="white" stroke-width="0.6" stroke-linecap="round" stroke-linejoin="round"/>
<path d="M291.586 184.49V203.071L276.962 194.629V181.999L291.586 184.49Z" fill="#191919" stroke="white" stroke-width="0.6" stroke-linecap="round" stroke-linejoin="round"/>
<path d="M320.724 173.605L291.586 190.44L276.962 181.999L306.116 165.164L320.724 173.605Z" fill="#191919" stroke="white" stroke-width="0.6" stroke-linecap="round" stroke-linejoin="round"/>
<path d="M290.128 203.943L260.99 220.779L246.381 212.337V199.707L275.519 195.502L290.128 191.313V203.943Z" fill="#191919" stroke="white" stroke-width="0.6" stroke-linecap="round" stroke-linejoin="round"/>
<path d="M260.99 202.198V220.779L246.381 212.337V199.707L260.99 202.198Z" fill="#191919" stroke="white" stroke-width="0.6" stroke-linecap="round" stroke-linejoin="round"/>
<path d="M290.128 191.313L260.99 208.132L246.381 199.707L275.519 182.871L290.128 191.313Z" fill="#191919" stroke="white" stroke-width="0.6" stroke-linecap="round" stroke-linejoin="round"/>
<path d="M259.53 221.636L230.392 238.471L215.783 230.029V217.399L244.921 213.21L259.53 209.005V221.636Z" fill="#191919" stroke="white" stroke-width="0.6" stroke-linecap="round" stroke-linejoin="round"/>
<path d="M230.392 219.89V238.471L215.783 230.029V217.399L230.392 219.89Z" fill="#191919" stroke="white" stroke-width="0.6" stroke-linecap="round" stroke-linejoin="round"/>
<path d="M259.53 209.005L230.392 225.84L215.783 217.399L244.921 200.563L259.53 209.005Z" fill="#191919" stroke="white" stroke-width="0.6" stroke-linecap="round" stroke-linejoin="round"/>
<path d="M228.932 239.344L199.794 256.179L185.186 247.737V235.091L214.324 230.902L228.932 226.713V239.344Z" fill="#191919" stroke="white" stroke-width="0.6" stroke-linecap="round" stroke-linejoin="round"/>
<path d="M199.794 237.598V256.179L185.186 247.737V235.091L199.794 237.598Z" fill="#191919" stroke="white" stroke-width="0.6" stroke-linecap="round" stroke-linejoin="round"/>
<path d="M228.932 226.713L199.794 243.532L185.186 235.091L214.324 218.271L228.932 226.713Z" fill="#191919" stroke="white" stroke-width="0.6" stroke-linecap="round" stroke-linejoin="round"/>
<path d="M198.351 257.052L169.198 273.871L154.589 265.43V252.799L183.727 248.61L198.351 244.405V257.052Z" fill="#191919" stroke="white" stroke-width="0.6" stroke-linecap="round" stroke-linejoin="round"/>
<path d="M169.198 255.306V273.871L154.589 265.429V252.799L169.198 255.306Z" fill="#191919" stroke="white" stroke-width="0.6" stroke-linecap="round" stroke-linejoin="round"/>
<path d="M198.351 244.405L169.198 261.241L154.589 252.799L183.727 235.964L198.351 244.405Z" fill="#191919" stroke="white" stroke-width="0.6" stroke-linecap="round" stroke-linejoin="round"/>
<path d="M122.184 265.096L153.162 283.011L167.77 274.569V261.939L136.808 256.655L122.184 252.466V265.096Z" fill="#191919" stroke="white" stroke-width="0.6" stroke-linecap="round" stroke-linejoin="round"/>
<path d="M153.161 264.43V283.01L167.77 274.569V261.938L153.161 264.43Z" fill="#191919" stroke="white" stroke-width="0.6" stroke-linecap="round" stroke-linejoin="round"/>
<path d="M122.184 252.466L153.162 270.38L167.77 261.939L136.808 244.024L122.184 252.466Z" fill="#191919" stroke="white" stroke-width="0.6" stroke-linecap="round" stroke-linejoin="round"/>
<path d="M39.9242 184.617L30.7402 185.283V197.914L45.4441 206.419L60.0527 197.977V185.347L39.9242 184.617Z" fill="#191919" stroke="white" stroke-width="0.6" stroke-linecap="round" stroke-linejoin="round"/>
<path d="M45.4443 187.838V206.419L60.053 197.977V185.347L45.4443 187.838Z" fill="#191919" stroke="white" stroke-width="0.6" stroke-linecap="round" stroke-linejoin="round"/>
<path d="M43.5882 173.272V177.81L30.7402 185.283L45.4441 193.788L60.0527 185.347L43.5882 173.272Z" fill="#191919" stroke="white" stroke-width="0.6" stroke-linecap="round" stroke-linejoin="round"/>
<path d="M46.8877 207.275L76.0416 224.111L90.6502 215.685V203.039L61.4964 198.85L46.8877 194.645V207.275Z" fill="#191919" stroke="white" stroke-width="0.6" stroke-linecap="round" stroke-linejoin="round"/>
<path d="M76.041 205.53V224.111L90.6497 215.685V203.039L76.041 205.53Z" fill="#191919" stroke="white" stroke-width="0.6" stroke-linecap="round" stroke-linejoin="round"/>
<path d="M46.8877 194.645L76.0416 211.48L90.6502 203.039L61.4964 186.204L46.8877 194.645Z" fill="#191919" stroke="white" stroke-width="0.6" stroke-linecap="round" stroke-linejoin="round"/>
<path d="M77.5166 224.888L106.655 241.724L121.263 233.282V220.652L92.1253 216.447L77.5166 212.258V224.888Z" fill="#191919" stroke="white" stroke-width="0.6" stroke-linecap="round" stroke-linejoin="round"/>
<path d="M106.654 223.143V241.723L121.263 233.282V220.652L106.654 223.143Z" fill="#191919" stroke="white" stroke-width="0.6" stroke-linecap="round" stroke-linejoin="round"/>
<path d="M77.5166 212.258L106.655 229.093L121.263 220.652L92.1253 203.816L77.5166 212.258Z" fill="#191919" stroke="white" stroke-width="0.6" stroke-linecap="round" stroke-linejoin="round"/>
<path d="M108.113 242.596L137.251 259.432L151.86 250.99V238.344L122.722 234.155L108.113 229.95V242.596Z" fill="#191919" stroke="white" stroke-width="0.6" stroke-linecap="round" stroke-linejoin="round"/>
<path d="M137.252 240.851V259.431L151.861 250.99V238.344L137.252 240.851Z" fill="#191919" stroke="white" stroke-width="0.6" stroke-linecap="round" stroke-linejoin="round"/>
<path d="M108.113 229.95L137.251 246.785L151.86 238.344L122.722 221.509L108.113 229.95Z" fill="#191919" stroke="white" stroke-width="0.6" stroke-linecap="round" stroke-linejoin="round"/>
<path d="M30.8828 184.173L60.0208 201.008L74.6453 192.567V179.936L45.4915 175.731L30.8828 171.542V184.173Z" fill="#191919" stroke="white" stroke-width="0.6" stroke-linecap="round" stroke-linejoin="round"/>
<path d="M60.0205 182.427V201.008L74.645 192.566V179.936L60.0205 182.427Z" fill="#191919" stroke="white" stroke-width="0.6" stroke-linecap="round" stroke-linejoin="round"/>
<path d="M30.8828 171.542L60.0208 188.377L74.6453 179.936L45.4915 163.101L30.8828 171.542Z" fill="#191919" stroke="white" stroke-width="0.6" stroke-linecap="round" stroke-linejoin="round"/>
<path d="M61.4961 201.785L90.65 218.621L105.259 210.179V197.549L76.1206 193.344L61.4961 189.155V201.785Z" fill="#191919" stroke="white" stroke-width="0.6" stroke-linecap="round" stroke-linejoin="round"/>
<path d="M90.6504 200.04V218.621L105.259 210.179V197.549L90.6504 200.04Z" fill="#191919" stroke="white" stroke-width="0.6" stroke-linecap="round" stroke-linejoin="round"/>
<path d="M61.4961 189.155L90.65 205.974L105.259 197.549L76.1206 180.713L61.4961 189.155Z" fill="#191919" stroke="white" stroke-width="0.6" stroke-linecap="round" stroke-linejoin="round"/>
<path d="M92.0938 219.493L121.248 236.313L135.856 227.887V215.241L106.718 211.052L92.0938 206.847V219.493Z" fill="#191919" stroke="white" stroke-width="0.6" stroke-linecap="round" stroke-linejoin="round"/>
<path d="M121.247 217.748V236.313L135.856 227.887V215.241L121.247 217.748Z" fill="#191919" stroke="white" stroke-width="0.6" stroke-linecap="round" stroke-linejoin="round"/>
<path d="M92.0938 206.847L121.248 223.682L135.856 215.241L106.718 198.406L92.0938 206.847Z" fill="#191919" stroke="white" stroke-width="0.6" stroke-linecap="round" stroke-linejoin="round"/>
<path d="M351.386 141.458L322.152 141.473V154.104L336.761 162.545L351.386 154.088V141.458Z" fill="#191919" stroke="white" stroke-width="0.6" stroke-linecap="round" stroke-linejoin="round"/>
<path d="M336.761 143.965V162.545L322.152 154.104V141.473L336.761 143.965Z" fill="#191919" stroke="white" stroke-width="0.6" stroke-linecap="round" stroke-linejoin="round"/>
<path d="M339.394 133.603L341.171 130.938L322.152 141.473L336.761 149.899L351.386 141.458L339.394 133.603Z" fill="#191919" stroke="white" stroke-width="0.6" stroke-linecap="round" stroke-linejoin="round"/>
<path d="M335.317 163.402L306.163 180.237L291.555 171.796V159.166L320.709 154.977L335.317 150.772V163.402Z" fill="#191919" stroke="white" stroke-width="0.6" stroke-linecap="round" stroke-linejoin="round"/>
<path d="M306.163 161.657V180.237L291.555 171.796V159.166L306.163 161.657Z" fill="#191919" stroke="white" stroke-width="0.6" stroke-linecap="round" stroke-linejoin="round"/>
<path d="M335.317 150.772L306.163 167.607L291.555 159.166L320.709 142.33L335.317 150.772Z" fill="#191919" stroke="white" stroke-width="0.6" stroke-linecap="round" stroke-linejoin="round"/>
<path d="M304.72 181.11L275.582 197.945L260.957 189.504V176.874L290.111 172.669L304.72 168.464V181.11Z" fill="#191919" stroke="white" stroke-width="0.6" stroke-linecap="round" stroke-linejoin="round"/>
<path d="M275.582 179.365V197.945L260.957 189.504V176.874L275.582 179.365Z" fill="#191919" stroke="white" stroke-width="0.6" stroke-linecap="round" stroke-linejoin="round"/>
<path d="M304.72 168.464L275.582 185.299L260.957 176.874L290.111 160.038L304.72 168.464Z" fill="#191919" stroke="white" stroke-width="0.6" stroke-linecap="round" stroke-linejoin="round"/>
<path d="M274.123 198.802L244.985 215.638L230.36 207.196V194.566L259.514 190.361L274.123 186.172V198.802Z" fill="#191919" stroke="white" stroke-width="0.6" stroke-linecap="round" stroke-linejoin="round"/>
<path d="M244.985 197.057V215.638L230.36 207.196V194.566L244.985 197.057Z" fill="#191919" stroke="white" stroke-width="0.6" stroke-linecap="round" stroke-linejoin="round"/>
<path d="M274.123 186.172L244.985 203.007L230.36 194.566L259.514 177.73L274.123 186.172Z" fill="#191919" stroke="white" stroke-width="0.6" stroke-linecap="round" stroke-linejoin="round"/>
<path d="M243.525 216.51L214.387 233.346L199.763 224.904V212.274L228.917 208.069L243.525 203.88V216.51Z" fill="#191919" stroke="white" stroke-width="0.6" stroke-linecap="round" stroke-linejoin="round"/>
<path d="M214.387 214.765V233.346L199.763 224.904V212.274L214.387 214.765Z" fill="#191919" stroke="white" stroke-width="0.6" stroke-linecap="round" stroke-linejoin="round"/>
<path d="M243.525 203.88L214.387 220.699L199.763 212.274L228.917 195.438L243.525 203.88Z" fill="#191919" stroke="white" stroke-width="0.6" stroke-linecap="round" stroke-linejoin="round"/>
<path d="M212.928 234.202L183.79 251.038L169.182 242.596V229.966L198.32 225.777L212.928 221.572V234.202Z" fill="#191919" stroke="white" stroke-width="0.6" stroke-linecap="round" stroke-linejoin="round"/>
<path d="M183.79 232.457V251.038L169.182 242.596V229.966L183.79 232.457Z" fill="#191919" stroke="white" stroke-width="0.6" stroke-linecap="round" stroke-linejoin="round"/>
<path d="M212.928 221.572L183.79 238.407L169.182 229.966L198.32 213.131L212.928 221.572Z" fill="#191919" stroke="white" stroke-width="0.6" stroke-linecap="round" stroke-linejoin="round"/>
<path d="M182.331 251.91L153.193 268.746L138.584 260.304V247.674L167.722 243.469L182.331 239.28V251.91Z" fill="#191919" stroke="white" stroke-width="0.6" stroke-linecap="round" stroke-linejoin="round"/>
<path d="M153.193 250.165V268.746L138.584 260.304V247.674L153.193 250.165Z" fill="#191919" stroke="white" stroke-width="0.6" stroke-linecap="round" stroke-linejoin="round"/>
<path d="M182.331 239.28L153.193 256.099L138.584 247.674L167.722 230.839L182.331 239.28Z" fill="#191919" stroke="white" stroke-width="0.6" stroke-linecap="round" stroke-linejoin="round"/>
<path d="M351.322 140.299L322.184 157.135L307.56 148.693V136.063L336.713 131.858L351.322 127.669V140.299Z" fill="#191919" stroke="white" stroke-width="0.6" stroke-linecap="round" stroke-linejoin="round"/>
<path d="M322.184 138.554V157.135L307.56 148.693V136.063L322.184 138.554Z" fill="#191919" stroke="white" stroke-width="0.6" stroke-linecap="round" stroke-linejoin="round"/>
<path d="M351.322 127.669L322.184 144.504L307.56 136.063L336.713 119.228L351.322 127.669Z" fill="#191919" stroke="white" stroke-width="0.6" stroke-linecap="round" stroke-linejoin="round"/>
<path d="M320.724 158.007L291.586 174.843L276.962 166.401V153.755L306.116 149.566L320.724 145.361V158.007Z" fill="#191919" stroke="white" stroke-width="0.6" stroke-linecap="round" stroke-linejoin="round"/>
<path d="M291.586 156.262V174.843L276.962 166.401V153.755L291.586 156.262Z" fill="#191919" stroke="white" stroke-width="0.6" stroke-linecap="round" stroke-linejoin="round"/>
<path d="M320.724 145.361L291.586 162.196L276.962 153.755L306.116 136.935L320.724 145.361Z" fill="#191919" stroke="white" stroke-width="0.6" stroke-linecap="round" stroke-linejoin="round"/>
<path d="M290.128 175.699L260.99 192.535L246.381 184.093V171.463L275.519 167.258L290.128 163.069V175.699Z" fill="#191919" stroke="white" stroke-width="0.6" stroke-linecap="round" stroke-linejoin="round"/>
<path d="M260.99 173.954V192.535L246.381 184.093V171.463L260.99 173.954Z" fill="#191919" stroke="white" stroke-width="0.6" stroke-linecap="round" stroke-linejoin="round"/>
<path d="M290.128 163.069L260.99 179.904L246.381 171.463L275.519 154.627L290.128 163.069Z" fill="#191919" stroke="white" stroke-width="0.6" stroke-linecap="round" stroke-linejoin="round"/>
<path d="M259.53 193.407L230.392 210.243L215.783 201.801V189.155L244.921 184.966L259.53 180.761V193.407Z" fill="#191919" stroke="white" stroke-width="0.6" stroke-linecap="round" stroke-linejoin="round"/>
<path d="M230.392 191.662V210.243L215.783 201.801V189.155L230.392 191.662Z" fill="#191919" stroke="white" stroke-width="0.6" stroke-linecap="round" stroke-linejoin="round"/>
<path d="M259.53 180.761L230.392 197.596L215.783 189.155L244.921 172.335L259.53 180.761Z" fill="#191919" stroke="white" stroke-width="0.6" stroke-linecap="round" stroke-linejoin="round"/>
<path d="M228.932 211.099L199.794 227.935L185.186 219.493V206.863L214.324 202.658L228.932 198.469V211.099Z" fill="#191919" stroke="white" stroke-width="0.6" stroke-linecap="round" stroke-linejoin="round"/>
<path d="M199.794 209.354V227.935L185.186 219.493V206.863L199.794 209.354Z" fill="#191919" stroke="white" stroke-width="0.6" stroke-linecap="round" stroke-linejoin="round"/>
<path d="M185.186 206.863L199.794 215.304L214.958 206.546L200.365 198.088L185.186 206.863Z" fill="#191919" stroke="white" stroke-width="0.6" stroke-linecap="round" stroke-linejoin="round"/>
<path d="M214.324 190.028L200.365 198.088L214.958 206.546L228.932 198.469L214.324 190.028Z" fill="#191919" stroke="white" stroke-width="0.6" stroke-linecap="round" stroke-linejoin="round"/>
<path d="M198.351 228.807L169.198 245.643L154.589 237.201V224.555L183.727 220.366L198.351 216.177V228.807Z" fill="#191919" stroke="white" stroke-width="0.6" stroke-linecap="round" stroke-linejoin="round"/>
<path d="M169.198 227.062V245.643L154.589 237.201V224.555L169.198 227.062Z" fill="#191919" stroke="white" stroke-width="0.6" stroke-linecap="round" stroke-linejoin="round"/>
<path d="M198.351 216.177L169.198 232.996L154.589 224.555L183.727 207.736L198.351 216.177Z" fill="#191919" stroke="white" stroke-width="0.6" stroke-linecap="round" stroke-linejoin="round"/>
<path d="M122.184 236.852L153.162 254.767L167.77 246.341V233.695L136.808 228.427L122.184 224.222V236.852Z" fill="#191919" stroke="white" stroke-width="0.6" stroke-linecap="round" stroke-linejoin="round"/>
<path d="M153.161 236.202V254.766L167.77 246.341V233.695L153.161 236.202Z" fill="#191919" stroke="white" stroke-width="0.6" stroke-linecap="round" stroke-linejoin="round"/>
<path d="M122.184 224.222L153.162 242.136L167.77 233.695L136.808 215.781L122.184 224.222Z" fill="#191919" stroke="white" stroke-width="0.6" stroke-linecap="round" stroke-linejoin="round"/>
<path d="M351.386 113.214L322.152 113.229V125.86L336.761 134.301L351.386 125.86V113.214Z" fill="#191919" stroke="white" stroke-width="0.6" stroke-linecap="round" stroke-linejoin="round"/>
<path d="M336.761 115.721V134.301L322.152 125.86V113.229L336.761 115.721Z" fill="#191919" stroke="white" stroke-width="0.6" stroke-linecap="round" stroke-linejoin="round"/>
<path d="M339.394 105.375L341.171 102.694L322.152 113.23L336.761 121.671L351.386 113.214L339.394 105.375Z" fill="#191919" stroke="white" stroke-width="0.6" stroke-linecap="round" stroke-linejoin="round"/>
<path d="M335.317 135.174L306.163 152.009L291.555 143.568V130.922L320.709 126.733L335.317 122.528V135.174Z" fill="#191919" stroke="white" stroke-width="0.6" stroke-linecap="round" stroke-linejoin="round"/>
<path d="M306.163 133.429V152.009L291.555 143.568V130.922L306.163 133.429Z" fill="#191919" stroke="white" stroke-width="0.6" stroke-linecap="round" stroke-linejoin="round"/>
<path d="M335.317 122.528L306.163 139.363L291.555 130.922L320.709 114.102L335.317 122.528Z" fill="#191919" stroke="white" stroke-width="0.6" stroke-linecap="round" stroke-linejoin="round"/>
<path d="M304.72 152.866L275.582 169.702L260.957 161.26V148.63L290.111 144.425L304.72 140.236V152.866Z" fill="#191919" stroke="white" stroke-width="0.6" stroke-linecap="round" stroke-linejoin="round"/>
<path d="M275.582 151.121V169.702L260.957 161.26V148.63L275.582 151.121Z" fill="#191919" stroke="white" stroke-width="0.6" stroke-linecap="round" stroke-linejoin="round"/>
<path d="M304.72 140.236L275.582 157.071L260.957 148.63L290.111 131.794L304.72 140.236Z" fill="#191919" stroke="white" stroke-width="0.6" stroke-linecap="round" stroke-linejoin="round"/>
<path d="M274.123 170.574L244.985 187.41L230.36 178.968V166.322L259.514 162.133L274.123 157.928V170.574Z" fill="#191919" stroke="white" stroke-width="0.6" stroke-linecap="round" stroke-linejoin="round"/>
<path d="M244.985 168.829V187.41L230.36 178.968V166.322L244.985 168.829Z" fill="#191919" stroke="white" stroke-width="0.6" stroke-linecap="round" stroke-linejoin="round"/>
<path d="M274.123 157.928L244.985 174.763L230.36 166.322L259.514 149.502L274.123 157.928Z" fill="#191919" stroke="white" stroke-width="0.6" stroke-linecap="round" stroke-linejoin="round"/>
<path d="M243.525 188.266L214.387 205.102L199.763 196.66V184.03L228.917 179.825L243.525 175.636V188.266Z" fill="#191919" stroke="white" stroke-width="0.6" stroke-linecap="round" stroke-linejoin="round"/>
<path d="M214.387 186.521V205.102L199.763 196.66V184.03L214.387 186.521Z" fill="#191919" stroke="white" stroke-width="0.6" stroke-linecap="round" stroke-linejoin="round"/>
<path d="M243.525 175.636L214.387 192.471L199.763 184.03L228.917 167.195L243.525 175.636Z" fill="#191919" stroke="white" stroke-width="0.6" stroke-linecap="round" stroke-linejoin="round"/>
<path d="M351.322 112.071L322.184 128.891L307.56 120.465V107.819L336.713 103.63L351.322 99.425V112.071Z" fill="#191919" stroke="white" stroke-width="0.6" stroke-linecap="round" stroke-linejoin="round"/>
<path d="M322.184 110.326V128.891L307.56 120.465V107.819L322.184 110.326Z" fill="#191919" stroke="white" stroke-width="0.6" stroke-linecap="round" stroke-linejoin="round"/>
<path d="M351.322 99.4248L322.184 116.26L307.56 107.819L336.713 90.9834L351.322 99.4248Z" fill="#191919" stroke="white" stroke-width="0.6" stroke-linecap="round" stroke-linejoin="round"/>
<path d="M320.724 129.763L291.586 146.599L276.962 138.157V125.527L306.116 121.322L320.724 117.133V129.763Z" fill="#191919" stroke="white" stroke-width="0.6" stroke-linecap="round" stroke-linejoin="round"/>
<path d="M291.586 128.018V146.599L276.962 138.157V125.527L291.586 128.018Z" fill="#191919" stroke="white" stroke-width="0.6" stroke-linecap="round" stroke-linejoin="round"/>
<path d="M320.724 117.133L291.586 133.968L276.962 125.527L306.116 108.691L320.724 117.133Z" fill="#191919" stroke="white" stroke-width="0.6" stroke-linecap="round" stroke-linejoin="round"/>
<path d="M290.128 147.471L260.99 164.291L246.381 155.865V143.219L275.519 139.03L290.128 134.825V147.471Z" fill="#191919" stroke="white" stroke-width="0.6" stroke-linecap="round" stroke-linejoin="round"/>
<path d="M260.99 145.726V164.291L246.381 155.865V143.219L260.99 145.726Z" fill="#191919" stroke="white" stroke-width="0.6" stroke-linecap="round" stroke-linejoin="round"/>
<path d="M290.128 134.825L260.99 151.66L246.381 143.219L275.519 126.384L290.128 134.825Z" fill="#191919" stroke="white" stroke-width="0.6" stroke-linecap="round" stroke-linejoin="round"/>
<path d="M194.687 159.404C194.13 159.403 193.582 159.255 193.101 158.975L179.919 151.359C179.185 150.938 178.648 150.243 178.427 149.426C178.205 148.609 178.317 147.738 178.738 147.003C179.158 146.269 179.853 145.732 180.67 145.51C181.487 145.288 182.358 145.4 183.092 145.821L196.273 153.437C196.901 153.776 197.396 154.316 197.68 154.971C197.963 155.626 198.017 156.357 197.834 157.047C197.65 157.736 197.24 158.344 196.669 158.772C196.098 159.199 195.4 159.422 194.687 159.404Z" fill="white" stroke="white" stroke-width="0.6" stroke-linecap="round" stroke-linejoin="round"/>
<path d="M222.255 188.473C213.166 186.886 202.713 185.188 197.13 181.396C196.841 181.184 196.608 180.906 196.452 180.584C196.295 180.262 196.219 179.907 196.23 179.55C196.24 179.192 196.338 178.842 196.514 178.531C196.691 178.22 196.94 177.956 197.241 177.762L208.344 171.304C210.392 170.554 212.64 170.554 214.689 171.304C221.239 174.478 224.11 180.571 226.934 185.823C227.806 187.409 225.141 188.964 222.255 188.473Z" fill="white" stroke="white" stroke-width="0.6" stroke-linecap="round" stroke-linejoin="round"/>
<path d="M211.977 179.65C211.754 179.645 211.536 179.585 211.342 179.476L201.698 173.843C200.748 173.281 199.981 172.456 199.488 171.468C198.996 170.48 198.799 169.371 198.922 168.274V163.989C198.852 162.832 198.515 161.707 197.937 160.702C197.359 159.697 196.556 158.84 195.591 158.198C195.445 158.115 195.316 158.005 195.212 157.872C195.109 157.739 195.032 157.587 194.988 157.425C194.944 157.262 194.932 157.093 194.954 156.926C194.976 156.759 195.031 156.598 195.116 156.452C195.201 156.306 195.314 156.178 195.449 156.076C195.583 155.974 195.737 155.899 195.9 155.857C196.064 155.814 196.234 155.804 196.402 155.827C196.569 155.85 196.73 155.906 196.876 155.992C198.217 156.854 199.334 158.023 200.134 159.403C200.934 160.783 201.394 162.333 201.476 163.926V168.21C201.08 171.098 201.984 171.495 202.967 171.574L212.627 177.191C212.773 177.276 212.901 177.389 213.003 177.524C213.105 177.659 213.18 177.812 213.222 177.976C213.265 178.14 213.275 178.31 213.252 178.478C213.229 178.645 213.173 178.806 213.087 178.952C212.98 179.157 212.821 179.329 212.626 179.452C212.431 179.574 212.207 179.643 211.977 179.65Z" fill="white" stroke="white" stroke-width="0.6" stroke-linecap="round" stroke-linejoin="round"/>
<path d="M167.247 148.63C165.661 142.537 169.42 135.587 176.764 137.729L187.312 142.489L192.356 151.073L187.312 148.185C184.139 148.852 183.505 150.708 184.346 153.866L190.944 157.579C189.913 156.976 184.901 160.34 184.901 160.34L172.973 157.753L167.247 148.63Z" fill="#191919" stroke="white" stroke-width="0.6" stroke-linecap="round" stroke-linejoin="round"/>
<path d="M168.134 149.962L156.714 141.711C152.114 137.332 164.645 123.242 169.847 128.637L176.842 137.729L168.134 149.962Z" fill="#191919" stroke="white" stroke-width="0.6" stroke-linecap="round" stroke-linejoin="round"/>
</svg>
