<svg width="357" height="395" viewBox="0 0 357 395" fill="none" xmlns="http://www.w3.org/2000/svg">
<rect x="28.5" y="0.5" width="299" height="349" rx="19.5" fill="#191919" stroke="#373737"/>
<path d="M173.432 93.7739L183.425 131.491C196.987 146.025 210.675 150.658 227.98 156.878L230.82 143.74C225.569 137.838 214.006 129.015 201.666 119.574C201.755 108.161 200.617 96.7717 198.271 85.6022C192.862 58.0882 164.121 64.1337 173.432 93.7739Z" fill="#191919" stroke="white" stroke-width="0.3" stroke-linecap="round" stroke-linejoin="round"/>
<path d="M173.686 306.158C173.686 306.158 172.259 313.949 172.972 317.266C173.686 320.582 182.489 322.772 182.489 322.772C182.489 322.772 194.941 334.498 205.489 333.688C211.723 333.212 213.832 331.562 214.8 329.722C215.767 327.881 214.8 325.564 213.642 323.851C212.484 322.137 199.493 316.663 196.194 311.506C194.608 308.999 191.991 303.715 191.991 303.715L190.912 293.877L173.781 293.163L174.622 304.794L173.686 306.158Z" fill="#191919" stroke="white" stroke-width="0.3" stroke-linecap="round" stroke-linejoin="round"/>
<path d="M158.617 183.012L169.514 237.834C165.485 259.699 166.342 282.532 171.909 306.254C175.272 315.266 187.232 312.743 194.687 306.254C192.466 288.451 192.101 267.823 192.53 245.958L194.687 231.677C194.687 231.677 196.463 224.346 196.273 196.626C196.273 182.345 188.136 151.341 188.136 151.341L158.617 183.012Z" fill="#191919" stroke="white" stroke-width="0.3" stroke-linecap="round" stroke-linejoin="round"/>
<path d="M135.951 325.342C134.65 327.802 134.65 331.975 134.523 338.036C135.891 341.245 138.467 343.788 141.693 345.113C143.42 348.912 146.176 352.151 149.65 354.462C153.124 356.773 157.176 358.064 161.346 358.188C174.939 358.521 174.844 353.015 174.765 353.031C174.664 351.903 174.331 350.808 173.785 349.817C173.238 348.825 172.492 347.958 171.592 347.271C169.641 345.684 159.601 337.608 157.808 335.291C156.525 333.42 155.461 331.407 154.636 329.293L154.018 319.471H135.697L135.951 325.342Z" fill="#191919" stroke="white" stroke-width="0.3" stroke-linecap="round" stroke-linejoin="round"/>
<path d="M167.706 194.801C167.706 222.569 168.721 238.992 161.361 253.05C160.542 259.352 159.344 265.6 157.777 271.758C155.619 279.136 155.984 311.426 156.857 330.547C153.082 336.798 144.167 337.782 138.251 333.72C135.865 332.091 134.125 329.677 133.334 326.897C131.89 317.805 130.558 309.3 129.781 301.224C127.909 282.659 128.813 266.442 137.093 251.019C133.286 231.614 133.746 212.557 134.936 191.485C134.48 187.663 134.332 183.811 134.492 179.965C134.634 175.528 135.3 171.124 136.474 166.843C137.114 164.453 137.93 162.114 138.917 159.845C139.839 157.665 140.898 155.545 142.089 153.499L192.292 163.019C187.168 180.806 177.461 192.627 167.706 194.801Z" fill="#191919" stroke="white" stroke-width="0.3" stroke-linecap="round" stroke-linejoin="round"/>
<path d="M197.114 170.588C184.171 178.521 172.623 183.282 164.217 185.17C164.122 185.163 164.026 185.163 163.931 185.17H163.614L162.615 185.376L161.98 185.487C161.251 185.614 160.394 185.725 159.284 185.805H158.602H157.555C155.683 185.805 153.922 185.805 152.257 185.567H151.638H150.687L149.814 185.44C135.015 183.25 129.02 175.3 129.02 175.3L130.606 150.595V150.341L132.493 120.939L134.825 120.209L133.397 90.521C137.937 85.1965 143.533 80.8739 149.83 77.8271C162.742 69.2428 174.511 65.5775 190.23 70.0838C192.455 77.0027 194.235 84.0569 195.56 91.2033C195.813 92.5203 195.797 98.2008 195.813 100.549C195.813 101.565 196.416 111.307 196.384 112.45C196.051 132.347 197.114 170.588 197.114 170.588Z" fill="#191919" stroke="white" stroke-width="0.3" stroke-linecap="round" stroke-linejoin="round"/>
<path d="M160.601 84.7294C169.356 113.91 169.896 150.198 166.755 189.66L185.916 176.855C186.217 146.422 187.502 112.386 181.443 83.9519L160.601 84.7294Z" fill="#191919" stroke="white" stroke-width="0.3" stroke-linecap="round" stroke-linejoin="round"/>
<path d="M165.994 66.5613C165.613 66.5613 159.332 74.3363 159.332 74.3363C150.972 79.0965 161.711 96.741 173.147 94.9639L182.664 88.3789L165.994 66.5613Z" fill="#191919" stroke="white" stroke-width="0.3" stroke-linecap="round" stroke-linejoin="round"/>
<g style="mix-blend-mode:multiply" opacity="0.1">
<path d="M187.438 87.1889C187.438 95.5986 185.281 102.199 179.507 101.2C167.23 99.6131 165.089 82.4287 166.358 75.9072L187.438 87.1889Z" fill="#191919"/>
<path d="M187.438 87.1889C187.438 95.5986 185.281 102.199 179.507 101.2C167.23 99.6131 165.089 82.4287 166.358 75.9072L187.438 87.1889Z" stroke="white" stroke-width="0.3" stroke-linecap="round" stroke-linejoin="round"/>
</g>
<path d="M179.936 45.2832C169.721 45.3943 163.836 50.218 163.376 60.9284C163.661 72.1784 164.233 78.9538 169.721 86.6336C173.099 90.886 177.652 93.9484 182.933 93.6787C189.167 93.3613 198.383 78.4143 199.271 67.5927C200.794 56.6601 191.467 48.2663 179.936 45.2832Z" fill="#191919" stroke="white" stroke-width="0.3" stroke-linecap="round" stroke-linejoin="round"/>
<path d="M168.42 77.4147C167.709 76.3334 167.243 75.1093 167.056 73.8286C166.969 73.1978 167.034 72.5554 167.243 71.9542C167.453 71.3529 167.802 70.8099 168.261 70.3695C168.746 69.9363 169.364 69.6813 170.012 69.6466C170.661 69.612 171.303 69.7999 171.83 70.1791C172.16 70.4808 172.422 70.8488 172.6 71.259C172.778 71.6692 172.867 72.1123 172.861 72.5592C172.83 73.4401 172.67 74.3115 172.385 75.1456L171.703 77.4464C171.663 77.719 171.568 77.9806 171.423 78.2152C171.279 78.4498 171.088 78.6525 170.863 78.811C170.619 78.9 170.357 78.9278 170.099 78.8918C169.842 78.8559 169.598 78.7573 169.388 78.6047C168.982 78.2839 168.651 77.8776 168.42 77.4147Z" fill="#191919" stroke="white" stroke-width="0.3" stroke-linecap="round" stroke-linejoin="round"/>
<path d="M179.238 45.2355C170.054 44.9182 164.581 46.9809 162.805 51.7253C159.236 62.8324 175.145 73.6381 189.5 80.2865C196.701 80.8736 202.665 79.8898 207.392 77.3828C208.128 70.6497 206.593 63.8639 203.03 58.1039L179.238 45.2355Z" fill="#191919" stroke="white" stroke-width="0.3" stroke-linecap="round" stroke-linejoin="round"/>
<path d="M204.822 70.8455C208.106 58.6593 202.903 47.7267 192.022 42.189C178.651 35.366 166.77 43.0776 164.09 54.8829C163.899 60.9601 169.673 68.4653 178.666 73.0351C182.886 75.4406 187.568 76.9225 192.403 77.3828L203.109 74.2093C203.932 73.2349 204.518 72.0837 204.822 70.8455Z" fill="#191919" stroke="white" stroke-width="0.3" stroke-linecap="round" stroke-linejoin="round"/>
<path d="M255.437 171.127L226.283 187.963L211.675 179.521V166.891L240.813 162.686L255.437 158.497V171.127Z" fill="white" stroke="#191919" stroke-width="0.3" stroke-linecap="round" stroke-linejoin="round"/>
<path d="M226.283 169.382V187.962L211.675 179.521V166.891L226.283 169.382Z" fill="white" stroke="#191919" stroke-width="0.3" stroke-linecap="round" stroke-linejoin="round"/>
<path d="M255.437 158.497L226.283 175.332L211.675 166.891L240.813 150.055L255.437 158.497Z" fill="white" stroke="#191919" stroke-width="0.3" stroke-linecap="round" stroke-linejoin="round"/>
<path d="M221.033 161.48L236.451 169.461L246.729 163.527L234.563 155.831L221.033 161.48Z" fill="#191919" stroke="white" stroke-width="0.3" stroke-linecap="round" stroke-linejoin="round"/>
<path d="M228.108 160.179L232.137 162.67L236.451 169.445V175.332C236.442 175.73 236.515 176.125 236.665 176.493C236.814 176.861 237.038 177.195 237.322 177.473C237.606 177.751 237.945 177.968 238.316 178.11C238.687 178.252 239.084 178.317 239.481 178.299L244.62 175.015C245.512 174.447 246.282 173.707 246.884 172.838C247.486 171.969 247.908 170.988 248.125 169.953L248.776 164.368L246.809 157.91L243.367 153.594L239.481 150.849L228.155 140.503C221.969 135.41 213.341 148.786 217.687 153.594L224.92 156.339L222.001 158.83L221.113 161.464L228.108 160.179Z" fill="#191919" stroke="white" stroke-width="0.3" stroke-linecap="round" stroke-linejoin="round"/>
<path d="M177.477 176.633L168.832 187.629C164.257 184.79 159.855 181.68 155.651 178.315C145.161 170.045 136.279 159.917 129.448 148.437L127.782 109.403C127.782 98.2959 131.304 91.2508 135.713 88.109C143.469 82.6665 154.033 89.1246 153.732 106.769L149.767 140.646L177.477 176.633Z" fill="#191919" stroke="white" stroke-width="0.3" stroke-linecap="round" stroke-linejoin="round"/>
<path d="M39.9242 307.333L30.7402 307.999V320.63L45.4441 329.135L60.0527 320.693V308.047L39.9242 307.333Z" fill="#191919" stroke="white" stroke-width="0.6" stroke-linecap="round" stroke-linejoin="round"/>
<path d="M45.4443 310.554V329.135L60.053 320.693V308.047L45.4443 310.554Z" fill="#191919" stroke="white" stroke-width="0.6" stroke-linecap="round" stroke-linejoin="round"/>
<path d="M43.5882 295.988V300.526L30.7402 307.999L45.4441 316.488L60.0527 308.047L43.5882 295.988Z" fill="#191919" stroke="white" stroke-width="0.6" stroke-linecap="round" stroke-linejoin="round"/>
<path d="M46.8877 329.991L76.0416 346.827L90.6502 338.385V325.755L61.4964 321.566L46.8877 317.361V329.991Z" fill="#191919" stroke="white" stroke-width="0.6" stroke-linecap="round" stroke-linejoin="round"/>
<path d="M76.041 328.246V346.827L90.6497 338.385V325.755L76.041 328.246Z" fill="#191919" stroke="white" stroke-width="0.6" stroke-linecap="round" stroke-linejoin="round"/>
<path d="M46.8877 317.361L76.0416 334.196L90.6502 325.755L61.4964 308.919L46.8877 317.361Z" fill="#191919" stroke="white" stroke-width="0.6" stroke-linecap="round" stroke-linejoin="round"/>
<path d="M77.5166 347.604L106.655 364.439L121.263 355.998V343.367L92.1253 339.163L77.5166 334.974V347.604Z" fill="#191919" stroke="white" stroke-width="0.6" stroke-linecap="round" stroke-linejoin="round"/>
<path d="M106.654 345.859V364.44L121.263 355.998V343.368L106.654 345.859Z" fill="#191919" stroke="white" stroke-width="0.6" stroke-linecap="round" stroke-linejoin="round"/>
<path d="M77.5166 334.974L106.655 351.809L121.263 343.368L92.1253 326.532L77.5166 334.974Z" fill="#191919" stroke="white" stroke-width="0.6" stroke-linecap="round" stroke-linejoin="round"/>
<path d="M108.113 365.312L137.251 382.131L151.86 373.706V361.06L122.722 356.871L108.113 352.666V365.312Z" fill="#191919" stroke="white" stroke-width="0.6" stroke-linecap="round" stroke-linejoin="round"/>
<path d="M137.252 363.567V382.131L151.861 373.706V361.06L137.252 363.567Z" fill="#191919" stroke="white" stroke-width="0.6" stroke-linecap="round" stroke-linejoin="round"/>
<path d="M108.113 352.666L137.251 369.501L151.86 361.06L122.722 344.224L108.113 352.666Z" fill="#191919" stroke="white" stroke-width="0.6" stroke-linecap="round" stroke-linejoin="round"/>
<path d="M30.8828 306.888L60.0208 323.724L74.6453 315.282V302.652L45.4915 298.447L30.8828 294.258V306.888Z" fill="#191919" stroke="white" stroke-width="0.6" stroke-linecap="round" stroke-linejoin="round"/>
<path d="M60.0205 305.143V323.724L74.645 315.282V302.652L60.0205 305.143Z" fill="#191919" stroke="white" stroke-width="0.6" stroke-linecap="round" stroke-linejoin="round"/>
<path d="M30.8828 294.258L60.0208 311.093L74.6453 302.652L45.4915 285.817L30.8828 294.258Z" fill="#191919" stroke="white" stroke-width="0.6" stroke-linecap="round" stroke-linejoin="round"/>
<path d="M61.4961 324.501L90.65 341.337L105.259 332.895V320.265L76.1206 316.06L61.4961 311.871V324.501Z" fill="#191919" stroke="white" stroke-width="0.6" stroke-linecap="round" stroke-linejoin="round"/>
<path d="M90.6504 322.756V341.337L105.259 332.895V320.265L90.6504 322.756Z" fill="#191919" stroke="white" stroke-width="0.6" stroke-linecap="round" stroke-linejoin="round"/>
<path d="M61.4961 311.871L90.65 328.69L105.259 320.265L76.1206 303.429L61.4961 311.871Z" fill="#191919" stroke="white" stroke-width="0.6" stroke-linecap="round" stroke-linejoin="round"/>
<path d="M92.0938 342.209L121.248 359.029L135.856 350.587V337.957L106.718 333.768L92.0938 329.563V342.209Z" fill="#191919" stroke="white" stroke-width="0.6" stroke-linecap="round" stroke-linejoin="round"/>
<path d="M121.247 340.464V359.029L135.856 350.587V337.957L121.247 340.464Z" fill="#191919" stroke="white" stroke-width="0.6" stroke-linecap="round" stroke-linejoin="round"/>
<path d="M92.0938 329.563L121.248 346.398L135.856 337.957L106.718 321.122L92.0938 329.563Z" fill="#191919" stroke="white" stroke-width="0.6" stroke-linecap="round" stroke-linejoin="round"/>
<path d="M351.386 264.174H322.152V276.82L336.761 285.261L351.386 276.804V264.174Z" fill="#191919" stroke="white" stroke-width="0.6" stroke-linecap="round" stroke-linejoin="round"/>
<path d="M336.761 266.681V285.261L322.152 276.82V264.174L336.761 266.681Z" fill="#191919" stroke="white" stroke-width="0.6" stroke-linecap="round" stroke-linejoin="round"/>
<path d="M339.394 256.319L341.171 253.654L322.152 264.174L336.761 272.615L351.386 264.174L339.394 256.319Z" fill="#191919" stroke="white" stroke-width="0.6" stroke-linecap="round" stroke-linejoin="round"/>
<path d="M335.317 286.118L306.163 302.953L291.555 294.512V281.882L320.709 277.677L335.317 273.488V286.118Z" fill="#191919" stroke="white" stroke-width="0.6" stroke-linecap="round" stroke-linejoin="round"/>
<path d="M306.163 284.373V302.953L291.555 294.512V281.882L306.163 284.373Z" fill="#191919" stroke="white" stroke-width="0.6" stroke-linecap="round" stroke-linejoin="round"/>
<path d="M335.317 273.488L306.163 290.323L291.555 281.881L320.709 265.046L335.317 273.488Z" fill="#191919" stroke="white" stroke-width="0.6" stroke-linecap="round" stroke-linejoin="round"/>
<path d="M304.72 303.826L275.582 320.661L260.957 312.22V299.574L290.111 295.385L304.72 291.18V303.826Z" fill="#191919" stroke="white" stroke-width="0.6" stroke-linecap="round" stroke-linejoin="round"/>
<path d="M275.582 302.081V320.661L260.957 312.22V299.574L275.582 302.081Z" fill="#191919" stroke="white" stroke-width="0.6" stroke-linecap="round" stroke-linejoin="round"/>
<path d="M304.72 291.18L275.582 308.015L260.957 299.574L290.111 282.754L304.72 291.18Z" fill="#191919" stroke="white" stroke-width="0.6" stroke-linecap="round" stroke-linejoin="round"/>
<path d="M274.123 321.518L244.985 338.353L230.36 329.912V317.282L259.514 313.077L274.123 308.888V321.518Z" fill="#191919" stroke="white" stroke-width="0.6" stroke-linecap="round" stroke-linejoin="round"/>
<path d="M244.985 319.773V338.354L230.36 329.912V317.282L244.985 319.773Z" fill="#191919" stroke="white" stroke-width="0.6" stroke-linecap="round" stroke-linejoin="round"/>
<path d="M274.123 308.888L244.985 325.723L230.36 317.282L259.514 300.446L274.123 308.888Z" fill="#191919" stroke="white" stroke-width="0.6" stroke-linecap="round" stroke-linejoin="round"/>
<path d="M243.525 339.226L214.387 356.061L199.763 347.62V334.974L228.917 330.785L243.525 326.596V339.226Z" fill="#191919" stroke="white" stroke-width="0.6" stroke-linecap="round" stroke-linejoin="round"/>
<path d="M214.387 337.481V356.061L199.763 347.62V334.974L214.387 337.481Z" fill="#191919" stroke="white" stroke-width="0.6" stroke-linecap="round" stroke-linejoin="round"/>
<path d="M243.525 326.596L214.387 343.415L199.763 334.974L228.917 318.154L243.525 326.596Z" fill="#191919" stroke="white" stroke-width="0.6" stroke-linecap="round" stroke-linejoin="round"/>
<path d="M212.928 356.918L183.79 373.754L169.182 365.312V352.682L198.32 348.493L212.928 344.288V356.918Z" fill="#191919" stroke="white" stroke-width="0.6" stroke-linecap="round" stroke-linejoin="round"/>
<path d="M183.79 355.173V373.754L169.182 365.312V352.682L183.79 355.173Z" fill="#191919" stroke="white" stroke-width="0.6" stroke-linecap="round" stroke-linejoin="round"/>
<path d="M212.928 344.288L183.79 361.123L169.182 352.682L198.32 335.846L212.928 344.288Z" fill="#191919" stroke="white" stroke-width="0.6" stroke-linecap="round" stroke-linejoin="round"/>
<path d="M182.331 374.626L153.193 391.462L138.584 383.02V370.374L167.722 366.185L182.331 361.996V374.626Z" fill="#191919" stroke="white" stroke-width="0.6" stroke-linecap="round" stroke-linejoin="round"/>
<path d="M153.193 372.881V391.462L138.584 383.02V370.374L153.193 372.881Z" fill="#191919" stroke="white" stroke-width="0.6" stroke-linecap="round" stroke-linejoin="round"/>
<path d="M182.331 361.996L153.193 378.815L138.584 370.374L167.722 353.554L182.331 361.996Z" fill="#191919" stroke="white" stroke-width="0.6" stroke-linecap="round" stroke-linejoin="round"/>
<path d="M351.322 263.015L322.184 279.85L307.56 271.409V258.779L336.713 254.574L351.322 250.385V263.015Z" fill="#191919" stroke="white" stroke-width="0.6" stroke-linecap="round" stroke-linejoin="round"/>
<path d="M322.184 261.27V279.85L307.56 271.409V258.779L322.184 261.27Z" fill="#191919" stroke="white" stroke-width="0.6" stroke-linecap="round" stroke-linejoin="round"/>
<path d="M351.322 250.385L322.184 267.22L307.56 258.779L336.713 241.943L351.322 250.385Z" fill="#191919" stroke="white" stroke-width="0.6" stroke-linecap="round" stroke-linejoin="round"/>
<path d="M320.724 280.723L291.586 297.543L276.962 289.117V276.471L306.116 272.282L320.724 268.077V280.723Z" fill="#191919" stroke="white" stroke-width="0.6" stroke-linecap="round" stroke-linejoin="round"/>
<path d="M291.586 278.978V297.543L276.962 289.117V276.471L291.586 278.978Z" fill="#191919" stroke="white" stroke-width="0.6" stroke-linecap="round" stroke-linejoin="round"/>
<path d="M320.724 268.077L291.586 284.912L276.962 276.471L306.116 259.635L320.724 268.077Z" fill="#191919" stroke="white" stroke-width="0.6" stroke-linecap="round" stroke-linejoin="round"/>
<path d="M290.128 298.415L260.99 315.251L246.381 306.809V294.179L275.519 289.974L290.128 285.785V298.415Z" fill="#191919" stroke="white" stroke-width="0.6" stroke-linecap="round" stroke-linejoin="round"/>
<path d="M260.99 296.67V315.251L246.381 306.809V294.179L260.99 296.67Z" fill="#191919" stroke="white" stroke-width="0.6" stroke-linecap="round" stroke-linejoin="round"/>
<path d="M290.128 285.785L260.99 302.62L246.381 294.179L275.519 277.343L290.128 285.785Z" fill="#191919" stroke="white" stroke-width="0.6" stroke-linecap="round" stroke-linejoin="round"/>
<path d="M259.53 316.123L230.392 332.943L215.783 324.517V311.871L244.921 307.682L259.53 303.477V316.123Z" fill="#191919" stroke="white" stroke-width="0.6" stroke-linecap="round" stroke-linejoin="round"/>
<path d="M230.392 314.378V332.943L215.783 324.517V311.871L230.392 314.378Z" fill="#191919" stroke="white" stroke-width="0.6" stroke-linecap="round" stroke-linejoin="round"/>
<path d="M259.53 303.477L230.392 320.312L215.783 311.871L244.921 295.052L259.53 303.477Z" fill="#191919" stroke="white" stroke-width="0.6" stroke-linecap="round" stroke-linejoin="round"/>
<path d="M228.932 333.815L199.794 350.651L185.186 342.209V329.579L214.324 325.374L228.932 321.185V333.815Z" fill="#191919" stroke="white" stroke-width="0.6" stroke-linecap="round" stroke-linejoin="round"/>
<path d="M199.794 332.07V350.651L185.186 342.209V329.579L199.794 332.07Z" fill="#191919" stroke="white" stroke-width="0.6" stroke-linecap="round" stroke-linejoin="round"/>
<path d="M228.932 321.185L199.794 338.02L185.186 329.579L214.324 312.744L228.932 321.185Z" fill="#191919" stroke="white" stroke-width="0.6" stroke-linecap="round" stroke-linejoin="round"/>
<path d="M198.351 351.523L169.198 368.343L154.589 359.917V347.271L183.727 343.082L198.351 338.877V351.523Z" fill="#191919" stroke="white" stroke-width="0.6" stroke-linecap="round" stroke-linejoin="round"/>
<path d="M169.198 349.778V368.343L154.589 359.917V347.271L169.198 349.778Z" fill="#191919" stroke="white" stroke-width="0.6" stroke-linecap="round" stroke-linejoin="round"/>
<path d="M198.351 338.877L169.198 355.713L154.589 347.271L183.727 330.452L198.351 338.877Z" fill="#191919" stroke="white" stroke-width="0.6" stroke-linecap="round" stroke-linejoin="round"/>
<path d="M122.184 359.568L153.162 377.498L167.77 369.057V356.411L136.808 351.127L122.184 346.938V359.568Z" fill="#191919" stroke="white" stroke-width="0.6" stroke-linecap="round" stroke-linejoin="round"/>
<path d="M153.161 358.918V377.498L167.77 369.057V356.411L153.161 358.918Z" fill="#191919" stroke="white" stroke-width="0.6" stroke-linecap="round" stroke-linejoin="round"/>
<path d="M122.184 346.938L153.162 364.852L167.77 356.411L136.808 338.496L122.184 346.938Z" fill="#191919" stroke="white" stroke-width="0.6" stroke-linecap="round" stroke-linejoin="round"/>
<path d="M39.9242 279.089L30.7402 279.755V292.402L45.4441 300.891L60.0527 292.449V279.819L39.9242 279.089Z" fill="#191919" stroke="white" stroke-width="0.6" stroke-linecap="round" stroke-linejoin="round"/>
<path d="M45.4443 282.31V300.891L60.053 292.449V279.819L45.4443 282.31Z" fill="#191919" stroke="white" stroke-width="0.6" stroke-linecap="round" stroke-linejoin="round"/>
<path d="M43.5882 267.744V272.282L30.7402 279.755L45.4441 288.26L60.0527 279.819L43.5882 267.744Z" fill="#191919" stroke="white" stroke-width="0.6" stroke-linecap="round" stroke-linejoin="round"/>
<path d="M46.8877 301.763L76.0416 318.599L90.6502 310.157V297.511L61.4964 293.322L46.8877 289.117V301.763Z" fill="#191919" stroke="white" stroke-width="0.6" stroke-linecap="round" stroke-linejoin="round"/>
<path d="M76.041 300.018V318.598L90.6497 310.157V297.511L76.041 300.018Z" fill="#191919" stroke="white" stroke-width="0.6" stroke-linecap="round" stroke-linejoin="round"/>
<path d="M46.8877 289.117L76.0416 305.952L90.6502 297.511L61.4964 280.691L46.8877 289.117Z" fill="#191919" stroke="white" stroke-width="0.6" stroke-linecap="round" stroke-linejoin="round"/>
<path d="M77.5166 319.36L106.655 336.195L121.263 327.754V315.124L92.1253 310.935L77.5166 306.73V319.36Z" fill="#191919" stroke="white" stroke-width="0.6" stroke-linecap="round" stroke-linejoin="round"/>
<path d="M106.654 317.615V336.195L121.263 327.754V315.124L106.654 317.615Z" fill="#191919" stroke="white" stroke-width="0.6" stroke-linecap="round" stroke-linejoin="round"/>
<path d="M77.5166 306.73L106.655 323.565L121.263 315.124L92.1253 298.288L77.5166 306.73Z" fill="#191919" stroke="white" stroke-width="0.6" stroke-linecap="round" stroke-linejoin="round"/>
<path d="M108.113 337.068L137.251 353.903L151.86 345.462V332.832L122.722 328.627L108.113 324.438V337.068Z" fill="#191919" stroke="white" stroke-width="0.6" stroke-linecap="round" stroke-linejoin="round"/>
<path d="M137.252 335.323V353.903L151.861 345.462V332.832L137.252 335.323Z" fill="#191919" stroke="white" stroke-width="0.6" stroke-linecap="round" stroke-linejoin="round"/>
<path d="M108.113 324.438L137.251 341.273L151.86 332.832L122.722 315.996L108.113 324.438Z" fill="#191919" stroke="white" stroke-width="0.6" stroke-linecap="round" stroke-linejoin="round"/>
<path d="M30.8828 278.66L60.0208 295.496L74.6453 287.054V274.408L45.4915 270.219L30.8828 266.014V278.66Z" fill="#191919" stroke="white" stroke-width="0.6" stroke-linecap="round" stroke-linejoin="round"/>
<path d="M60.0205 276.915V295.496L74.645 287.054V274.408L60.0205 276.915Z" fill="#191919" stroke="white" stroke-width="0.6" stroke-linecap="round" stroke-linejoin="round"/>
<path d="M30.8828 266.014L60.0208 282.849L74.6453 274.408L45.4915 257.573L30.8828 266.014Z" fill="#191919" stroke="white" stroke-width="0.6" stroke-linecap="round" stroke-linejoin="round"/>
<path d="M61.4961 296.257L90.65 313.093L105.259 304.651V292.021L76.1206 287.816L61.4961 283.627V296.257Z" fill="#191919" stroke="white" stroke-width="0.6" stroke-linecap="round" stroke-linejoin="round"/>
<path d="M90.6504 294.512V313.093L105.259 304.651V292.021L90.6504 294.512Z" fill="#191919" stroke="white" stroke-width="0.6" stroke-linecap="round" stroke-linejoin="round"/>
<path d="M61.4961 283.627L90.65 300.462L105.259 292.021L76.1206 275.186L61.4961 283.627Z" fill="#191919" stroke="white" stroke-width="0.6" stroke-linecap="round" stroke-linejoin="round"/>
<path d="M92.0938 313.965L121.248 330.801L135.856 322.359V309.713L106.718 305.524L92.0938 301.335V313.965Z" fill="#191919" stroke="white" stroke-width="0.6" stroke-linecap="round" stroke-linejoin="round"/>
<path d="M121.247 312.22V330.801L135.856 322.359V309.713L121.247 312.22Z" fill="#191919" stroke="white" stroke-width="0.6" stroke-linecap="round" stroke-linejoin="round"/>
<path d="M92.0938 301.335L121.248 318.154L135.856 309.713L106.718 292.894L92.0938 301.335Z" fill="#191919" stroke="white" stroke-width="0.6" stroke-linecap="round" stroke-linejoin="round"/>
<path d="M351.386 235.93L322.152 235.946V248.576L336.761 257.017L351.386 248.576V235.93Z" fill="#191919" stroke="white" stroke-width="0.6" stroke-linecap="round" stroke-linejoin="round"/>
<path d="M336.761 238.437V257.017L322.152 248.576V235.946L336.761 238.437Z" fill="#191919" stroke="white" stroke-width="0.6" stroke-linecap="round" stroke-linejoin="round"/>
<path d="M339.394 228.091L341.171 225.409L322.152 235.945L336.761 244.387L351.386 235.929L339.394 228.091Z" fill="#191919" stroke="white" stroke-width="0.6" stroke-linecap="round" stroke-linejoin="round"/>
<path d="M335.317 257.89L306.163 274.725L291.555 266.284V253.637L320.709 249.448L335.317 245.244V257.89Z" fill="#191919" stroke="white" stroke-width="0.6" stroke-linecap="round" stroke-linejoin="round"/>
<path d="M306.163 256.145V274.725L291.555 266.284V253.638L306.163 256.145Z" fill="#191919" stroke="white" stroke-width="0.6" stroke-linecap="round" stroke-linejoin="round"/>
<path d="M335.317 245.244L306.163 262.079L291.555 253.638L320.709 236.802L335.317 245.244Z" fill="#191919" stroke="white" stroke-width="0.6" stroke-linecap="round" stroke-linejoin="round"/>
<path d="M304.72 275.582L275.582 292.417L260.957 283.976V271.345L290.111 267.141L304.72 262.952V275.582Z" fill="#191919" stroke="white" stroke-width="0.6" stroke-linecap="round" stroke-linejoin="round"/>
<path d="M275.582 273.837V292.418L260.957 283.976V271.346L275.582 273.837Z" fill="#191919" stroke="white" stroke-width="0.6" stroke-linecap="round" stroke-linejoin="round"/>
<path d="M304.72 262.952L275.582 279.787L260.957 271.346L290.111 254.51L304.72 262.952Z" fill="#191919" stroke="white" stroke-width="0.6" stroke-linecap="round" stroke-linejoin="round"/>
<path d="M274.123 293.29L244.985 310.125L230.36 301.684V289.038L259.514 284.849L274.123 280.644V293.29Z" fill="#191919" stroke="white" stroke-width="0.6" stroke-linecap="round" stroke-linejoin="round"/>
<path d="M244.985 291.545V310.125L230.36 301.684V289.038L244.985 291.545Z" fill="#191919" stroke="white" stroke-width="0.6" stroke-linecap="round" stroke-linejoin="round"/>
<path d="M274.123 280.644L244.985 297.479L230.36 289.038L259.514 272.202L274.123 280.644Z" fill="#191919" stroke="white" stroke-width="0.6" stroke-linecap="round" stroke-linejoin="round"/>
<path d="M243.525 310.982L214.387 327.818L199.763 319.376V306.746L228.917 302.541L243.525 298.352V310.982Z" fill="#191919" stroke="white" stroke-width="0.6" stroke-linecap="round" stroke-linejoin="round"/>
<path d="M214.387 309.237V327.817L199.763 319.376V306.746L214.387 309.237Z" fill="#191919" stroke="white" stroke-width="0.6" stroke-linecap="round" stroke-linejoin="round"/>
<path d="M243.525 298.352L214.387 315.187L199.763 306.746L228.917 289.91L243.525 298.352Z" fill="#191919" stroke="white" stroke-width="0.6" stroke-linecap="round" stroke-linejoin="round"/>
<path d="M212.928 328.69L183.79 345.526L169.182 337.084V324.438L198.32 320.249L212.928 316.044V328.69Z" fill="#191919" stroke="white" stroke-width="0.6" stroke-linecap="round" stroke-linejoin="round"/>
<path d="M183.79 326.945V345.525L169.182 337.084V324.438L183.79 326.945Z" fill="#191919" stroke="white" stroke-width="0.6" stroke-linecap="round" stroke-linejoin="round"/>
<path d="M212.928 316.044L183.79 332.879L169.182 324.438L198.32 307.603L212.928 316.044Z" fill="#191919" stroke="white" stroke-width="0.6" stroke-linecap="round" stroke-linejoin="round"/>
<path d="M182.331 346.382L153.193 363.218L138.584 354.776V342.146L167.722 337.941L182.331 333.752V346.382Z" fill="#191919" stroke="white" stroke-width="0.6" stroke-linecap="round" stroke-linejoin="round"/>
<path d="M153.193 344.637V363.218L138.584 354.776V342.146L153.193 344.637Z" fill="#191919" stroke="white" stroke-width="0.6" stroke-linecap="round" stroke-linejoin="round"/>
<path d="M182.331 333.752L153.193 350.587L138.584 342.146L167.722 325.311L182.331 333.752Z" fill="#191919" stroke="white" stroke-width="0.6" stroke-linecap="round" stroke-linejoin="round"/>
<path d="M351.322 234.787L322.184 251.607L307.56 243.165V230.535L336.713 226.346L351.322 222.141V234.787Z" fill="#191919" stroke="white" stroke-width="0.6" stroke-linecap="round" stroke-linejoin="round"/>
<path d="M322.184 233.042V251.607L307.56 243.165V230.535L322.184 233.042Z" fill="#191919" stroke="white" stroke-width="0.6" stroke-linecap="round" stroke-linejoin="round"/>
<path d="M351.322 222.141L322.184 238.976L307.56 230.535L336.713 213.699L351.322 222.141Z" fill="#191919" stroke="white" stroke-width="0.6" stroke-linecap="round" stroke-linejoin="round"/>
<path d="M320.724 252.479L291.586 269.315L276.962 260.873V248.243L306.116 244.038L320.724 239.849V252.479Z" fill="#191919" stroke="white" stroke-width="0.6" stroke-linecap="round" stroke-linejoin="round"/>
<path d="M291.586 250.734V269.315L276.962 260.873V248.243L291.586 250.734Z" fill="#191919" stroke="white" stroke-width="0.6" stroke-linecap="round" stroke-linejoin="round"/>
<path d="M320.724 239.849L291.586 256.668L276.962 248.243L306.116 231.407L320.724 239.849Z" fill="#191919" stroke="white" stroke-width="0.6" stroke-linecap="round" stroke-linejoin="round"/>
<path d="M290.128 270.171L260.99 287.007L246.381 278.581V265.935L275.519 261.746L290.128 257.541V270.171Z" fill="#191919" stroke="white" stroke-width="0.6" stroke-linecap="round" stroke-linejoin="round"/>
<path d="M260.99 268.426V287.007L246.381 278.581V265.935L260.99 268.426Z" fill="#191919" stroke="white" stroke-width="0.6" stroke-linecap="round" stroke-linejoin="round"/>
<path d="M290.128 257.541L260.99 274.376L246.381 265.935L275.519 249.1L290.128 257.541Z" fill="#191919" stroke="white" stroke-width="0.6" stroke-linecap="round" stroke-linejoin="round"/>
<path d="M259.53 287.879L230.392 304.715L215.783 296.273V283.643L244.921 279.438L259.53 275.249V287.879Z" fill="#191919" stroke="white" stroke-width="0.6" stroke-linecap="round" stroke-linejoin="round"/>
<path d="M230.392 286.134V304.715L215.783 296.273V283.643L230.392 286.134Z" fill="#191919" stroke="white" stroke-width="0.6" stroke-linecap="round" stroke-linejoin="round"/>
<path d="M259.53 275.249L230.392 292.084L215.783 283.643L244.921 266.808L259.53 275.249Z" fill="#191919" stroke="white" stroke-width="0.6" stroke-linecap="round" stroke-linejoin="round"/>
<path d="M228.932 305.587L199.794 322.407L185.186 313.981V301.335L214.324 297.146L228.932 292.941V305.587Z" fill="#191919" stroke="white" stroke-width="0.6" stroke-linecap="round" stroke-linejoin="round"/>
<path d="M199.794 303.842V322.407L185.186 313.981V301.335L199.794 303.842Z" fill="#191919" stroke="white" stroke-width="0.6" stroke-linecap="round" stroke-linejoin="round"/>
<path d="M228.932 292.941L199.794 309.776L185.186 301.335L214.324 284.5L228.932 292.941Z" fill="#191919" stroke="white" stroke-width="0.6" stroke-linecap="round" stroke-linejoin="round"/>
<path d="M198.351 323.279L169.198 340.115L154.589 331.673V319.043L183.727 314.838L198.351 310.649V323.279Z" fill="#191919" stroke="white" stroke-width="0.6" stroke-linecap="round" stroke-linejoin="round"/>
<path d="M169.198 321.534V340.115L154.589 331.673V319.043L169.198 321.534Z" fill="#191919" stroke="white" stroke-width="0.6" stroke-linecap="round" stroke-linejoin="round"/>
<path d="M198.351 310.649L169.198 327.484L154.589 319.043L183.727 302.208L198.351 310.649Z" fill="#191919" stroke="white" stroke-width="0.6" stroke-linecap="round" stroke-linejoin="round"/>
<path d="M122.184 331.34L153.162 349.254L167.77 340.813V328.183L136.808 322.899L122.184 318.694V331.34Z" fill="#191919" stroke="white" stroke-width="0.6" stroke-linecap="round" stroke-linejoin="round"/>
<path d="M153.161 330.674V349.254L167.77 340.813V328.183L153.161 330.674Z" fill="#191919" stroke="white" stroke-width="0.6" stroke-linecap="round" stroke-linejoin="round"/>
<path d="M122.184 318.694L153.162 336.608L167.77 328.183L136.808 310.268L122.184 318.694Z" fill="#191919" stroke="white" stroke-width="0.6" stroke-linecap="round" stroke-linejoin="round"/>
<path d="M39.9242 250.861L30.7402 251.527V264.158L45.4441 272.647L60.0527 264.221V251.575L39.9242 250.861Z" fill="#191919" stroke="white" stroke-width="0.6" stroke-linecap="round" stroke-linejoin="round"/>
<path d="M45.4443 254.082V272.647L60.053 264.221V251.575L45.4443 254.082Z" fill="#191919" stroke="white" stroke-width="0.6" stroke-linecap="round" stroke-linejoin="round"/>
<path d="M43.5882 239.5V244.038L30.7402 251.527L45.4441 260.016L60.0527 251.575L43.5882 239.5Z" fill="#191919" stroke="white" stroke-width="0.6" stroke-linecap="round" stroke-linejoin="round"/>
<path d="M46.8877 273.519L76.0416 290.355L90.6502 281.913V269.283L61.4964 265.078L46.8877 260.889V273.519Z" fill="#191919" stroke="white" stroke-width="0.6" stroke-linecap="round" stroke-linejoin="round"/>
<path d="M76.041 271.774V290.355L90.6497 281.913V269.283L76.041 271.774Z" fill="#191919" stroke="white" stroke-width="0.6" stroke-linecap="round" stroke-linejoin="round"/>
<path d="M46.8877 260.889L76.0416 277.724L90.6502 269.283L61.4964 252.448L46.8877 260.889Z" fill="#191919" stroke="white" stroke-width="0.6" stroke-linecap="round" stroke-linejoin="round"/>
<path d="M77.5166 291.132L106.655 307.967L121.263 299.526V286.88L92.1253 282.691L77.5166 278.486V291.132Z" fill="#191919" stroke="white" stroke-width="0.6" stroke-linecap="round" stroke-linejoin="round"/>
<path d="M106.654 289.387V307.967L121.263 299.526V286.88L106.654 289.387Z" fill="#191919" stroke="white" stroke-width="0.6" stroke-linecap="round" stroke-linejoin="round"/>
<path d="M77.5166 278.486L106.655 295.321L121.263 286.88L92.1253 270.06L77.5166 278.486Z" fill="#191919" stroke="white" stroke-width="0.6" stroke-linecap="round" stroke-linejoin="round"/>
<path d="M108.113 308.824L137.251 325.66L151.86 317.218V304.588L122.722 300.399L108.113 296.194V308.824Z" fill="#191919" stroke="white" stroke-width="0.6" stroke-linecap="round" stroke-linejoin="round"/>
<path d="M137.252 307.079V325.66L151.861 317.218V304.588L137.252 307.079Z" fill="#191919" stroke="white" stroke-width="0.6" stroke-linecap="round" stroke-linejoin="round"/>
<path d="M108.113 296.194L137.251 313.029L151.86 304.588L122.722 287.752L108.113 296.194Z" fill="#191919" stroke="white" stroke-width="0.6" stroke-linecap="round" stroke-linejoin="round"/>
<path d="M30.8828 250.417L60.0208 267.252L74.6453 258.81V246.18L45.4915 241.975L30.8828 237.786V250.417Z" fill="#191919" stroke="white" stroke-width="0.6" stroke-linecap="round" stroke-linejoin="round"/>
<path d="M60.0205 248.671V267.252L74.645 258.81V246.18L60.0205 248.671Z" fill="#191919" stroke="white" stroke-width="0.6" stroke-linecap="round" stroke-linejoin="round"/>
<path d="M30.8828 237.786L60.0208 254.606L74.6453 246.18L45.4915 229.345L30.8828 237.786Z" fill="#191919" stroke="white" stroke-width="0.6" stroke-linecap="round" stroke-linejoin="round"/>
<path d="M61.4961 268.029L90.65 284.849L105.259 276.423V263.777L76.1206 259.588L61.4961 255.383V268.029Z" fill="#191919" stroke="white" stroke-width="0.6" stroke-linecap="round" stroke-linejoin="round"/>
<path d="M90.6504 266.284V284.849L105.259 276.423V263.777L90.6504 266.284Z" fill="#191919" stroke="white" stroke-width="0.6" stroke-linecap="round" stroke-linejoin="round"/>
<path d="M61.4961 255.383L90.65 272.218L105.259 263.777L76.1206 246.958L61.4961 255.383Z" fill="#191919" stroke="white" stroke-width="0.6" stroke-linecap="round" stroke-linejoin="round"/>
<path d="M92.0938 285.721L121.248 302.557L135.856 294.115V281.485L106.718 277.28L92.0938 273.091V285.721Z" fill="#191919" stroke="white" stroke-width="0.6" stroke-linecap="round" stroke-linejoin="round"/>
<path d="M121.247 283.976V302.557L135.856 294.115V281.485L121.247 283.976Z" fill="#191919" stroke="white" stroke-width="0.6" stroke-linecap="round" stroke-linejoin="round"/>
<path d="M92.0938 273.091L121.248 289.926L135.856 281.485L106.718 264.649L92.0938 273.091Z" fill="#191919" stroke="white" stroke-width="0.6" stroke-linecap="round" stroke-linejoin="round"/>
<path d="M351.386 207.702H322.152V220.332L336.761 228.774L351.386 220.332V207.702Z" fill="#191919" stroke="white" stroke-width="0.6" stroke-linecap="round" stroke-linejoin="round"/>
<path d="M336.761 210.209V228.774L322.152 220.332V207.702L336.761 210.209Z" fill="#191919" stroke="white" stroke-width="0.6" stroke-linecap="round" stroke-linejoin="round"/>
<path d="M339.394 199.847L341.171 197.166L322.152 207.701L336.761 216.143L351.386 207.701L339.394 199.847Z" fill="#191919" stroke="white" stroke-width="0.6" stroke-linecap="round" stroke-linejoin="round"/>
<path d="M335.317 229.646L306.163 246.481L291.555 238.04V225.409L320.709 221.205L335.317 217.016V229.646Z" fill="#191919" stroke="white" stroke-width="0.6" stroke-linecap="round" stroke-linejoin="round"/>
<path d="M306.163 227.901V246.481L291.555 238.04V225.409L306.163 227.901Z" fill="#191919" stroke="white" stroke-width="0.6" stroke-linecap="round" stroke-linejoin="round"/>
<path d="M335.317 217.016L306.163 233.835L291.555 225.41L320.709 208.574L335.317 217.016Z" fill="#191919" stroke="white" stroke-width="0.6" stroke-linecap="round" stroke-linejoin="round"/>
<path d="M304.72 247.354L275.582 264.173L260.957 255.732V243.102L290.111 238.913L304.72 234.708V247.354Z" fill="#191919" stroke="white" stroke-width="0.6" stroke-linecap="round" stroke-linejoin="round"/>
<path d="M275.582 245.609V264.173L260.957 255.732V243.102L275.582 245.609Z" fill="#191919" stroke="white" stroke-width="0.6" stroke-linecap="round" stroke-linejoin="round"/>
<path d="M304.72 234.708L275.582 251.543L260.957 243.102L290.111 226.266L304.72 234.708Z" fill="#191919" stroke="white" stroke-width="0.6" stroke-linecap="round" stroke-linejoin="round"/>
<path d="M274.123 265.046L244.985 281.881L230.36 273.44V260.81L259.514 256.605L274.123 252.416V265.046Z" fill="#191919" stroke="white" stroke-width="0.6" stroke-linecap="round" stroke-linejoin="round"/>
<path d="M244.985 263.301V281.881L230.36 273.44V260.81L244.985 263.301Z" fill="#191919" stroke="white" stroke-width="0.6" stroke-linecap="round" stroke-linejoin="round"/>
<path d="M274.123 252.416L244.985 269.251L230.36 260.81L259.514 243.974L274.123 252.416Z" fill="#191919" stroke="white" stroke-width="0.6" stroke-linecap="round" stroke-linejoin="round"/>
<path d="M243.525 282.754L214.387 299.574L199.763 291.132V278.502L228.917 274.313L243.525 270.108V282.754Z" fill="#191919" stroke="white" stroke-width="0.6" stroke-linecap="round" stroke-linejoin="round"/>
<path d="M214.387 281.009V299.574L199.763 291.132V278.502L214.387 281.009Z" fill="#191919" stroke="white" stroke-width="0.6" stroke-linecap="round" stroke-linejoin="round"/>
<path d="M243.525 270.108L214.387 286.943L199.763 278.502L228.917 261.667L243.525 270.108Z" fill="#191919" stroke="white" stroke-width="0.6" stroke-linecap="round" stroke-linejoin="round"/>
<path d="M212.928 300.446L183.79 317.282L169.182 308.84V296.21L198.32 292.005L212.928 287.816V300.446Z" fill="#191919" stroke="white" stroke-width="0.6" stroke-linecap="round" stroke-linejoin="round"/>
<path d="M183.79 298.701V317.282L169.182 308.84V296.21L183.79 298.701Z" fill="#191919" stroke="white" stroke-width="0.6" stroke-linecap="round" stroke-linejoin="round"/>
<path d="M212.928 287.816L183.79 304.651L169.182 296.21L198.32 279.375L212.928 287.816Z" fill="#191919" stroke="white" stroke-width="0.6" stroke-linecap="round" stroke-linejoin="round"/>
<path d="M182.331 318.154L153.193 334.974L138.584 326.532V313.902L167.722 309.713L182.331 305.508V318.154Z" fill="#191919" stroke="white" stroke-width="0.6" stroke-linecap="round" stroke-linejoin="round"/>
<path d="M153.193 316.409V334.974L138.584 326.532V313.902L153.193 316.409Z" fill="#191919" stroke="white" stroke-width="0.6" stroke-linecap="round" stroke-linejoin="round"/>
<path d="M182.331 305.508L153.193 322.343L138.584 313.902L167.722 297.067L182.331 305.508Z" fill="#191919" stroke="white" stroke-width="0.6" stroke-linecap="round" stroke-linejoin="round"/>
<path d="M351.322 206.543L322.184 223.379L307.56 214.937V202.291L336.713 198.102L351.322 193.897V206.543Z" fill="#191919" stroke="white" stroke-width="0.6" stroke-linecap="round" stroke-linejoin="round"/>
<path d="M322.184 204.798V223.379L307.56 214.937V202.291L322.184 204.798Z" fill="#191919" stroke="white" stroke-width="0.6" stroke-linecap="round" stroke-linejoin="round"/>
<path d="M351.322 193.897L322.184 210.732L307.56 202.291L336.713 185.471L351.322 193.897Z" fill="#191919" stroke="white" stroke-width="0.6" stroke-linecap="round" stroke-linejoin="round"/>
<path d="M320.724 224.235L291.586 241.071L276.962 232.629V219.999L306.116 215.81L320.724 211.605V224.235Z" fill="#191919" stroke="white" stroke-width="0.6" stroke-linecap="round" stroke-linejoin="round"/>
<path d="M291.586 222.49V241.071L276.962 232.629V219.999L291.586 222.49Z" fill="#191919" stroke="white" stroke-width="0.6" stroke-linecap="round" stroke-linejoin="round"/>
<path d="M320.724 211.605L291.586 228.44L276.962 219.999L306.116 203.164L320.724 211.605Z" fill="#191919" stroke="white" stroke-width="0.6" stroke-linecap="round" stroke-linejoin="round"/>
<path d="M290.128 241.943L260.99 258.779L246.381 250.337V237.707L275.519 233.502L290.128 229.313V241.943Z" fill="#191919" stroke="white" stroke-width="0.6" stroke-linecap="round" stroke-linejoin="round"/>
<path d="M260.99 240.198V258.779L246.381 250.337V237.707L260.99 240.198Z" fill="#191919" stroke="white" stroke-width="0.6" stroke-linecap="round" stroke-linejoin="round"/>
<path d="M290.128 229.313L260.99 246.132L246.381 237.707L275.519 220.871L290.128 229.313Z" fill="#191919" stroke="white" stroke-width="0.6" stroke-linecap="round" stroke-linejoin="round"/>
<path d="M259.53 259.636L230.392 276.471L215.783 268.029V255.399L244.921 251.21L259.53 247.005V259.636Z" fill="#191919" stroke="white" stroke-width="0.6" stroke-linecap="round" stroke-linejoin="round"/>
<path d="M230.392 257.89V276.471L215.783 268.029V255.399L230.392 257.89Z" fill="#191919" stroke="white" stroke-width="0.6" stroke-linecap="round" stroke-linejoin="round"/>
<path d="M259.53 247.005L230.392 263.84L215.783 255.399L244.921 238.563L259.53 247.005Z" fill="#191919" stroke="white" stroke-width="0.6" stroke-linecap="round" stroke-linejoin="round"/>
<path d="M228.932 277.344L199.794 294.179L185.186 285.737V273.091L214.324 268.902L228.932 264.713V277.344Z" fill="#191919" stroke="white" stroke-width="0.6" stroke-linecap="round" stroke-linejoin="round"/>
<path d="M199.794 275.598V294.179L185.186 285.737V273.091L199.794 275.598Z" fill="#191919" stroke="white" stroke-width="0.6" stroke-linecap="round" stroke-linejoin="round"/>
<path d="M228.932 264.713L199.794 281.532L185.186 273.091L214.324 256.271L228.932 264.713Z" fill="#191919" stroke="white" stroke-width="0.6" stroke-linecap="round" stroke-linejoin="round"/>
<path d="M198.351 295.052L169.198 311.871L154.589 303.43V290.799L183.727 286.61L198.351 282.405V295.052Z" fill="#191919" stroke="white" stroke-width="0.6" stroke-linecap="round" stroke-linejoin="round"/>
<path d="M169.198 293.306V311.871L154.589 303.429V290.799L169.198 293.306Z" fill="#191919" stroke="white" stroke-width="0.6" stroke-linecap="round" stroke-linejoin="round"/>
<path d="M198.351 282.405L169.198 299.241L154.589 290.799L183.727 273.964L198.351 282.405Z" fill="#191919" stroke="white" stroke-width="0.6" stroke-linecap="round" stroke-linejoin="round"/>
<path d="M122.184 303.096L153.162 321.011L167.77 312.569V299.939L136.808 294.655L122.184 290.466V303.096Z" fill="#191919" stroke="white" stroke-width="0.6" stroke-linecap="round" stroke-linejoin="round"/>
<path d="M153.161 302.43V321.01L167.77 312.569V299.938L153.161 302.43Z" fill="#191919" stroke="white" stroke-width="0.6" stroke-linecap="round" stroke-linejoin="round"/>
<path d="M122.184 290.466L153.162 308.38L167.77 299.939L136.808 282.024L122.184 290.466Z" fill="#191919" stroke="white" stroke-width="0.6" stroke-linecap="round" stroke-linejoin="round"/>
<path d="M39.9242 222.617L30.7402 223.283V235.914L45.4441 244.419L60.0527 235.977V223.347L39.9242 222.617Z" fill="#191919" stroke="white" stroke-width="0.6" stroke-linecap="round" stroke-linejoin="round"/>
<path d="M45.4443 225.838V244.419L60.053 235.977V223.347L45.4443 225.838Z" fill="#191919" stroke="white" stroke-width="0.6" stroke-linecap="round" stroke-linejoin="round"/>
<path d="M43.5882 211.272V215.81L30.7402 223.283L45.4441 231.788L60.0527 223.347L43.5882 211.272Z" fill="#191919" stroke="white" stroke-width="0.6" stroke-linecap="round" stroke-linejoin="round"/>
<path d="M46.8877 245.275L76.0416 262.111L90.6502 253.685V241.039L61.4964 236.85L46.8877 232.645V245.275Z" fill="#191919" stroke="white" stroke-width="0.6" stroke-linecap="round" stroke-linejoin="round"/>
<path d="M76.041 243.53V262.111L90.6497 253.685V241.039L76.041 243.53Z" fill="#191919" stroke="white" stroke-width="0.6" stroke-linecap="round" stroke-linejoin="round"/>
<path d="M46.8877 232.645L76.0416 249.48L90.6502 241.039L61.4964 224.204L46.8877 232.645Z" fill="#191919" stroke="white" stroke-width="0.6" stroke-linecap="round" stroke-linejoin="round"/>
<path d="M77.5166 262.888L106.655 279.724L121.263 271.282V258.652L92.1253 254.447L77.5166 250.258V262.888Z" fill="#191919" stroke="white" stroke-width="0.6" stroke-linecap="round" stroke-linejoin="round"/>
<path d="M106.654 261.143V279.723L121.263 271.282V258.652L106.654 261.143Z" fill="#191919" stroke="white" stroke-width="0.6" stroke-linecap="round" stroke-linejoin="round"/>
<path d="M77.5166 250.258L106.655 267.093L121.263 258.652L92.1253 241.816L77.5166 250.258Z" fill="#191919" stroke="white" stroke-width="0.6" stroke-linecap="round" stroke-linejoin="round"/>
<path d="M108.113 280.596L137.251 297.432L151.86 288.99V276.344L122.722 272.155L108.113 267.95V280.596Z" fill="#191919" stroke="white" stroke-width="0.6" stroke-linecap="round" stroke-linejoin="round"/>
<path d="M137.252 278.851V297.431L151.861 288.99V276.344L137.252 278.851Z" fill="#191919" stroke="white" stroke-width="0.6" stroke-linecap="round" stroke-linejoin="round"/>
<path d="M108.113 267.95L137.251 284.785L151.86 276.344L122.722 259.509L108.113 267.95Z" fill="#191919" stroke="white" stroke-width="0.6" stroke-linecap="round" stroke-linejoin="round"/>
<path d="M30.8828 222.173L60.0208 239.008L74.6453 230.567V217.936L45.4915 213.731L30.8828 209.542V222.173Z" fill="#191919" stroke="white" stroke-width="0.6" stroke-linecap="round" stroke-linejoin="round"/>
<path d="M60.0205 220.427V239.008L74.645 230.566V217.936L60.0205 220.427Z" fill="#191919" stroke="white" stroke-width="0.6" stroke-linecap="round" stroke-linejoin="round"/>
<path d="M30.8828 209.542L60.0208 226.377L74.6453 217.936L45.4915 201.101L30.8828 209.542Z" fill="#191919" stroke="white" stroke-width="0.6" stroke-linecap="round" stroke-linejoin="round"/>
<path d="M61.4961 239.785L90.65 256.621L105.259 248.179V235.549L76.1206 231.344L61.4961 227.155V239.785Z" fill="#191919" stroke="white" stroke-width="0.6" stroke-linecap="round" stroke-linejoin="round"/>
<path d="M90.6504 238.04V256.621L105.259 248.179V235.549L90.6504 238.04Z" fill="#191919" stroke="white" stroke-width="0.6" stroke-linecap="round" stroke-linejoin="round"/>
<path d="M61.4961 227.155L90.65 243.974L105.259 235.549L76.1206 218.713L61.4961 227.155Z" fill="#191919" stroke="white" stroke-width="0.6" stroke-linecap="round" stroke-linejoin="round"/>
<path d="M92.0938 257.493L121.248 274.313L135.856 265.887V253.241L106.718 249.052L92.0938 244.847V257.493Z" fill="#191919" stroke="white" stroke-width="0.6" stroke-linecap="round" stroke-linejoin="round"/>
<path d="M121.247 255.748V274.313L135.856 265.887V253.241L121.247 255.748Z" fill="#191919" stroke="white" stroke-width="0.6" stroke-linecap="round" stroke-linejoin="round"/>
<path d="M92.0938 244.847L121.248 261.682L135.856 253.241L106.718 236.406L92.0938 244.847Z" fill="#191919" stroke="white" stroke-width="0.6" stroke-linecap="round" stroke-linejoin="round"/>
<path d="M351.386 179.458L322.152 179.473V192.104L336.761 200.545L351.386 192.088V179.458Z" fill="#191919" stroke="white" stroke-width="0.6" stroke-linecap="round" stroke-linejoin="round"/>
<path d="M336.761 181.965V200.545L322.152 192.104V179.473L336.761 181.965Z" fill="#191919" stroke="white" stroke-width="0.6" stroke-linecap="round" stroke-linejoin="round"/>
<path d="M339.394 171.603L341.171 168.938L322.152 179.473L336.761 187.899L351.386 179.458L339.394 171.603Z" fill="#191919" stroke="white" stroke-width="0.6" stroke-linecap="round" stroke-linejoin="round"/>
<path d="M335.317 201.402L306.163 218.237L291.555 209.796V197.166L320.709 192.977L335.317 188.772V201.402Z" fill="#191919" stroke="white" stroke-width="0.6" stroke-linecap="round" stroke-linejoin="round"/>
<path d="M306.163 199.657V218.237L291.555 209.796V197.166L306.163 199.657Z" fill="#191919" stroke="white" stroke-width="0.6" stroke-linecap="round" stroke-linejoin="round"/>
<path d="M335.317 188.772L306.163 205.607L291.555 197.166L320.709 180.33L335.317 188.772Z" fill="#191919" stroke="white" stroke-width="0.6" stroke-linecap="round" stroke-linejoin="round"/>
<path d="M304.72 219.11L275.582 235.945L260.957 227.504V214.874L290.111 210.669L304.72 206.464V219.11Z" fill="#191919" stroke="white" stroke-width="0.6" stroke-linecap="round" stroke-linejoin="round"/>
<path d="M275.582 217.365V235.945L260.957 227.504V214.874L275.582 217.365Z" fill="#191919" stroke="white" stroke-width="0.6" stroke-linecap="round" stroke-linejoin="round"/>
<path d="M304.72 206.464L275.582 223.299L260.957 214.874L290.111 198.038L304.72 206.464Z" fill="#191919" stroke="white" stroke-width="0.6" stroke-linecap="round" stroke-linejoin="round"/>
<path d="M274.123 236.802L244.985 253.638L230.36 245.196V232.566L259.514 228.361L274.123 224.172V236.802Z" fill="#191919" stroke="white" stroke-width="0.6" stroke-linecap="round" stroke-linejoin="round"/>
<path d="M244.985 235.057V253.638L230.36 245.196V232.566L244.985 235.057Z" fill="#191919" stroke="white" stroke-width="0.6" stroke-linecap="round" stroke-linejoin="round"/>
<path d="M274.123 224.172L244.985 241.007L230.36 232.566L259.514 215.73L274.123 224.172Z" fill="#191919" stroke="white" stroke-width="0.6" stroke-linecap="round" stroke-linejoin="round"/>
<path d="M243.525 254.51L214.387 271.346L199.763 262.904V250.274L228.917 246.069L243.525 241.88V254.51Z" fill="#191919" stroke="white" stroke-width="0.6" stroke-linecap="round" stroke-linejoin="round"/>
<path d="M214.387 252.765V271.346L199.763 262.904V250.274L214.387 252.765Z" fill="#191919" stroke="white" stroke-width="0.6" stroke-linecap="round" stroke-linejoin="round"/>
<path d="M243.525 241.88L214.387 258.699L199.763 250.274L228.917 233.438L243.525 241.88Z" fill="#191919" stroke="white" stroke-width="0.6" stroke-linecap="round" stroke-linejoin="round"/>
<path d="M212.928 272.202L183.79 289.038L169.182 280.596V267.966L198.32 263.777L212.928 259.572V272.202Z" fill="#191919" stroke="white" stroke-width="0.6" stroke-linecap="round" stroke-linejoin="round"/>
<path d="M183.79 270.457V289.038L169.182 280.596V267.966L183.79 270.457Z" fill="#191919" stroke="white" stroke-width="0.6" stroke-linecap="round" stroke-linejoin="round"/>
<path d="M212.928 259.572L183.79 276.407L169.182 267.966L198.32 251.131L212.928 259.572Z" fill="#191919" stroke="white" stroke-width="0.6" stroke-linecap="round" stroke-linejoin="round"/>
<path d="M182.331 289.91L153.193 306.746L138.584 298.304V285.674L167.722 281.469L182.331 277.28V289.91Z" fill="#191919" stroke="white" stroke-width="0.6" stroke-linecap="round" stroke-linejoin="round"/>
<path d="M153.193 288.165V306.746L138.584 298.304V285.674L153.193 288.165Z" fill="#191919" stroke="white" stroke-width="0.6" stroke-linecap="round" stroke-linejoin="round"/>
<path d="M182.331 277.28L153.193 294.099L138.584 285.674L167.722 268.839L182.331 277.28Z" fill="#191919" stroke="white" stroke-width="0.6" stroke-linecap="round" stroke-linejoin="round"/>
<path d="M351.322 178.299L322.184 195.135L307.56 186.693V174.063L336.713 169.858L351.322 165.669V178.299Z" fill="#191919" stroke="white" stroke-width="0.6" stroke-linecap="round" stroke-linejoin="round"/>
<path d="M322.184 176.554V195.135L307.56 186.693V174.063L322.184 176.554Z" fill="#191919" stroke="white" stroke-width="0.6" stroke-linecap="round" stroke-linejoin="round"/>
<path d="M351.322 165.669L322.184 182.504L307.56 174.063L336.713 157.228L351.322 165.669Z" fill="#191919" stroke="white" stroke-width="0.6" stroke-linecap="round" stroke-linejoin="round"/>
<path d="M320.724 196.007L291.586 212.843L276.962 204.401V191.755L306.116 187.566L320.724 183.361V196.007Z" fill="#191919" stroke="white" stroke-width="0.6" stroke-linecap="round" stroke-linejoin="round"/>
<path d="M291.586 194.262V212.843L276.962 204.401V191.755L291.586 194.262Z" fill="#191919" stroke="white" stroke-width="0.6" stroke-linecap="round" stroke-linejoin="round"/>
<path d="M320.724 183.361L291.586 200.196L276.962 191.755L306.116 174.935L320.724 183.361Z" fill="#191919" stroke="white" stroke-width="0.6" stroke-linecap="round" stroke-linejoin="round"/>
<path d="M290.128 213.699L260.99 230.535L246.381 222.093V209.463L275.519 205.258L290.128 201.069V213.699Z" fill="#191919" stroke="white" stroke-width="0.6" stroke-linecap="round" stroke-linejoin="round"/>
<path d="M260.99 211.954V230.535L246.381 222.093V209.463L260.99 211.954Z" fill="#191919" stroke="white" stroke-width="0.6" stroke-linecap="round" stroke-linejoin="round"/>
<path d="M290.128 201.069L260.99 217.904L246.381 209.463L275.519 192.627L290.128 201.069Z" fill="#191919" stroke="white" stroke-width="0.6" stroke-linecap="round" stroke-linejoin="round"/>
<path d="M259.53 231.407L230.392 248.243L215.783 239.801V227.155L244.921 222.966L259.53 218.761V231.407Z" fill="#191919" stroke="white" stroke-width="0.6" stroke-linecap="round" stroke-linejoin="round"/>
<path d="M230.392 229.662V248.243L215.783 239.801V227.155L230.392 229.662Z" fill="#191919" stroke="white" stroke-width="0.6" stroke-linecap="round" stroke-linejoin="round"/>
<path d="M259.53 218.761L230.392 235.596L215.783 227.155L244.921 210.335L259.53 218.761Z" fill="#191919" stroke="white" stroke-width="0.6" stroke-linecap="round" stroke-linejoin="round"/>
<path d="M228.932 249.099L199.794 265.935L185.186 257.493V244.863L214.324 240.658L228.932 236.469V249.099Z" fill="#191919" stroke="white" stroke-width="0.6" stroke-linecap="round" stroke-linejoin="round"/>
<path d="M199.794 247.354V265.935L185.186 257.493V244.863L199.794 247.354Z" fill="#191919" stroke="white" stroke-width="0.6" stroke-linecap="round" stroke-linejoin="round"/>
<path d="M185.186 244.863L199.794 253.304L214.958 244.546L200.365 236.088L185.186 244.863Z" fill="#191919" stroke="white" stroke-width="0.6" stroke-linecap="round" stroke-linejoin="round"/>
<path d="M214.324 228.028L200.365 236.088L214.958 244.546L228.932 236.469L214.324 228.028Z" fill="#191919" stroke="white" stroke-width="0.6" stroke-linecap="round" stroke-linejoin="round"/>
<path d="M198.351 266.807L169.198 283.643L154.589 275.201V262.555L183.727 258.366L198.351 254.177V266.807Z" fill="#191919" stroke="white" stroke-width="0.6" stroke-linecap="round" stroke-linejoin="round"/>
<path d="M169.198 265.062V283.643L154.589 275.201V262.555L169.198 265.062Z" fill="#191919" stroke="white" stroke-width="0.6" stroke-linecap="round" stroke-linejoin="round"/>
<path d="M198.351 254.177L169.198 270.996L154.589 262.555L183.727 245.736L198.351 254.177Z" fill="#191919" stroke="white" stroke-width="0.6" stroke-linecap="round" stroke-linejoin="round"/>
<path d="M122.184 274.852L153.162 292.767L167.77 284.341V271.695L136.808 266.427L122.184 262.222V274.852Z" fill="#191919" stroke="white" stroke-width="0.6" stroke-linecap="round" stroke-linejoin="round"/>
<path d="M153.161 274.202V292.766L167.77 284.341V271.695L153.161 274.202Z" fill="#191919" stroke="white" stroke-width="0.6" stroke-linecap="round" stroke-linejoin="round"/>
<path d="M122.184 262.222L153.162 280.136L167.77 271.695L136.808 253.781L122.184 262.222Z" fill="#191919" stroke="white" stroke-width="0.6" stroke-linecap="round" stroke-linejoin="round"/>
<path d="M351.386 151.214L322.152 151.229V163.86L336.761 172.301L351.386 163.86V151.214Z" fill="#191919" stroke="white" stroke-width="0.6" stroke-linecap="round" stroke-linejoin="round"/>
<path d="M336.761 153.721V172.301L322.152 163.86V151.229L336.761 153.721Z" fill="#191919" stroke="white" stroke-width="0.6" stroke-linecap="round" stroke-linejoin="round"/>
<path d="M339.394 143.375L341.171 140.694L322.152 151.23L336.761 159.671L351.386 151.214L339.394 143.375Z" fill="#191919" stroke="white" stroke-width="0.6" stroke-linecap="round" stroke-linejoin="round"/>
<path d="M335.317 173.174L306.163 190.009L291.555 181.568V168.922L320.709 164.733L335.317 160.528V173.174Z" fill="#191919" stroke="white" stroke-width="0.6" stroke-linecap="round" stroke-linejoin="round"/>
<path d="M306.163 171.429V190.009L291.555 181.568V168.922L306.163 171.429Z" fill="#191919" stroke="white" stroke-width="0.6" stroke-linecap="round" stroke-linejoin="round"/>
<path d="M335.317 160.528L306.163 177.363L291.555 168.922L320.709 152.102L335.317 160.528Z" fill="#191919" stroke="white" stroke-width="0.6" stroke-linecap="round" stroke-linejoin="round"/>
<path d="M304.72 190.866L275.582 207.702L260.957 199.26V186.63L290.111 182.425L304.72 178.236V190.866Z" fill="#191919" stroke="white" stroke-width="0.6" stroke-linecap="round" stroke-linejoin="round"/>
<path d="M275.582 189.121V207.702L260.957 199.26V186.63L275.582 189.121Z" fill="#191919" stroke="white" stroke-width="0.6" stroke-linecap="round" stroke-linejoin="round"/>
<path d="M304.72 178.236L275.582 195.071L260.957 186.63L290.111 169.794L304.72 178.236Z" fill="#191919" stroke="white" stroke-width="0.6" stroke-linecap="round" stroke-linejoin="round"/>
<path d="M274.123 208.574L244.985 225.41L230.36 216.968V204.322L259.514 200.133L274.123 195.928V208.574Z" fill="#191919" stroke="white" stroke-width="0.6" stroke-linecap="round" stroke-linejoin="round"/>
<path d="M244.985 206.829V225.41L230.36 216.968V204.322L244.985 206.829Z" fill="#191919" stroke="white" stroke-width="0.6" stroke-linecap="round" stroke-linejoin="round"/>
<path d="M274.123 195.928L244.985 212.763L230.36 204.322L259.514 187.502L274.123 195.928Z" fill="#191919" stroke="white" stroke-width="0.6" stroke-linecap="round" stroke-linejoin="round"/>
<path d="M243.525 226.266L214.387 243.102L199.763 234.66V222.03L228.917 217.825L243.525 213.636V226.266Z" fill="#191919" stroke="white" stroke-width="0.6" stroke-linecap="round" stroke-linejoin="round"/>
<path d="M214.387 224.521V243.102L199.763 234.66V222.03L214.387 224.521Z" fill="#191919" stroke="white" stroke-width="0.6" stroke-linecap="round" stroke-linejoin="round"/>
<path d="M243.525 213.636L214.387 230.471L199.763 222.03L228.917 205.195L243.525 213.636Z" fill="#191919" stroke="white" stroke-width="0.6" stroke-linecap="round" stroke-linejoin="round"/>
<path d="M351.322 150.071L322.184 166.891L307.56 158.465V145.819L336.713 141.63L351.322 137.425V150.071Z" fill="#191919" stroke="white" stroke-width="0.6" stroke-linecap="round" stroke-linejoin="round"/>
<path d="M322.184 148.326V166.891L307.56 158.465V145.819L322.184 148.326Z" fill="#191919" stroke="white" stroke-width="0.6" stroke-linecap="round" stroke-linejoin="round"/>
<path d="M351.322 137.425L322.184 154.26L307.56 145.819L336.713 128.983L351.322 137.425Z" fill="#191919" stroke="white" stroke-width="0.6" stroke-linecap="round" stroke-linejoin="round"/>
<path d="M320.724 167.763L291.586 184.599L276.962 176.157V163.527L306.116 159.322L320.724 155.133V167.763Z" fill="#191919" stroke="white" stroke-width="0.6" stroke-linecap="round" stroke-linejoin="round"/>
<path d="M291.586 166.018V184.599L276.962 176.157V163.527L291.586 166.018Z" fill="#191919" stroke="white" stroke-width="0.6" stroke-linecap="round" stroke-linejoin="round"/>
<path d="M320.724 155.133L291.586 171.968L276.962 163.527L306.116 146.691L320.724 155.133Z" fill="#191919" stroke="white" stroke-width="0.6" stroke-linecap="round" stroke-linejoin="round"/>
<path d="M290.128 185.471L260.99 202.291L246.381 193.865V181.219L275.519 177.03L290.128 172.825V185.471Z" fill="#191919" stroke="white" stroke-width="0.6" stroke-linecap="round" stroke-linejoin="round"/>
<path d="M260.99 183.726V202.291L246.381 193.865V181.219L260.99 183.726Z" fill="#191919" stroke="white" stroke-width="0.6" stroke-linecap="round" stroke-linejoin="round"/>
<path d="M290.128 172.825L260.99 189.66L246.381 181.219L275.519 164.384L290.128 172.825Z" fill="#191919" stroke="white" stroke-width="0.6" stroke-linecap="round" stroke-linejoin="round"/>
<path d="M194.687 197.404C194.13 197.403 193.582 197.255 193.101 196.975L179.919 189.359C179.185 188.938 178.648 188.243 178.427 187.426C178.205 186.609 178.317 185.738 178.738 185.003C179.158 184.269 179.853 183.732 180.67 183.51C181.487 183.288 182.358 183.4 183.092 183.821L196.273 191.437C196.901 191.776 197.396 192.316 197.68 192.971C197.963 193.626 198.017 194.357 197.834 195.047C197.65 195.736 197.24 196.344 196.669 196.772C196.098 197.199 195.4 197.422 194.687 197.404Z" fill="white" stroke="white" stroke-width="0.6" stroke-linecap="round" stroke-linejoin="round"/>
<path d="M222.255 226.473C213.166 224.886 202.713 223.188 197.13 219.396C196.841 219.184 196.608 218.906 196.452 218.584C196.295 218.262 196.219 217.907 196.23 217.55C196.24 217.192 196.338 216.842 196.514 216.531C196.691 216.22 196.94 215.956 197.241 215.762L208.344 209.304C210.392 208.554 212.64 208.554 214.689 209.304C221.239 212.478 224.11 218.571 226.934 223.823C227.806 225.409 225.141 226.964 222.255 226.473Z" fill="white" stroke="white" stroke-width="0.6" stroke-linecap="round" stroke-linejoin="round"/>
<path d="M211.977 217.65C211.754 217.645 211.536 217.585 211.342 217.476L201.698 211.843C200.748 211.281 199.981 210.456 199.488 209.468C198.996 208.48 198.799 207.371 198.922 206.274V201.989C198.852 200.832 198.515 199.707 197.937 198.702C197.359 197.697 196.556 196.84 195.591 196.198C195.445 196.115 195.316 196.005 195.212 195.872C195.109 195.739 195.032 195.587 194.988 195.425C194.944 195.262 194.932 195.093 194.954 194.926C194.976 194.759 195.031 194.598 195.116 194.452C195.201 194.306 195.314 194.178 195.449 194.076C195.583 193.974 195.737 193.899 195.9 193.857C196.064 193.814 196.234 193.804 196.402 193.827C196.569 193.85 196.73 193.906 196.876 193.992C198.217 194.854 199.334 196.023 200.134 197.403C200.934 198.783 201.394 200.333 201.476 201.926V206.21C201.08 209.098 201.984 209.495 202.967 209.574L212.627 215.191C212.773 215.276 212.901 215.389 213.003 215.524C213.105 215.659 213.18 215.812 213.222 215.976C213.265 216.14 213.275 216.31 213.252 216.478C213.229 216.645 213.173 216.806 213.087 216.952C212.98 217.157 212.821 217.329 212.626 217.452C212.431 217.574 212.207 217.643 211.977 217.65Z" fill="white" stroke="white" stroke-width="0.6" stroke-linecap="round" stroke-linejoin="round"/>
<path d="M167.247 186.63C165.661 180.537 169.42 173.587 176.764 175.729L187.312 180.489L192.356 189.073L187.312 186.185C184.139 186.852 183.505 188.708 184.346 191.866L190.944 195.579C189.913 194.976 184.901 198.34 184.901 198.34L172.973 195.753L167.247 186.63Z" fill="#191919" stroke="white" stroke-width="0.6" stroke-linecap="round" stroke-linejoin="round"/>
<path d="M168.134 187.962L156.714 179.711C152.114 175.332 164.645 161.242 169.847 166.637L176.842 175.729L168.134 187.962Z" fill="#191919" stroke="white" stroke-width="0.6" stroke-linecap="round" stroke-linejoin="round"/>
</svg>
