<svg width="425" height="379" viewBox="0 0 425 379" fill="none" xmlns="http://www.w3.org/2000/svg">
<path d="M228.471 63.5194C228.471 63.5194 233.331 71.1144 239.002 73.5453C244.674 75.9754 277.484 78.7102 277.484 78.7102L283.561 56.2291C283.561 56.2291 273.029 58.0523 268.573 58.3562C264.118 58.6601 259.257 58.6601 259.257 58.6601L228.471 63.5194Z" fill="#191919" stroke="white" stroke-width="0.6" stroke-miterlimit="10"/>
<path d="M236.166 49.8479C236.166 49.8479 232.116 51.0634 229.685 52.8857C227.254 54.7089 227.254 62.9117 228.469 63.5186C229.685 64.1263 242.241 68.6835 244.267 68.6835C246.293 68.6835 256.825 65.6456 258.444 63.8224C260.065 61.9992 262.495 56.8352 260.065 53.7965C257.635 50.7595 239.002 47.4178 236.166 49.8479Z" fill="#191919" stroke="white" stroke-width="0.6" stroke-miterlimit="10"/>
<path d="M239.407 42.2529C239.407 42.2529 230.901 56.2283 234.141 60.1777C237.382 64.1271 243.863 64.7349 248.724 62.6078C253.584 60.4807 255.61 56.5313 256.42 55.3167C257.231 54.1012 266.198 24.589 266.198 24.589C266.198 24.589 269.844 23.0696 271.869 22.1589C273.895 21.2473 275.928 19.2721 275.928 19.2721C275.928 19.2721 281.594 17.4506 286.857 15.4746C289.686 14.4128 285.441 12.8968 284.225 12.8968C283.01 12.8968 278.756 14.2592 278.756 14.2592V10.9175C278.756 10.9175 268.629 10.9175 264.579 11.2213C260.528 11.5252 256.882 10.9175 254.047 13.0445C251.212 15.1708 249.996 24.589 249.996 24.589L239.407 42.2529Z" fill="#191919" stroke="white" stroke-width="0.6" stroke-miterlimit="10"/>
<path d="M284.225 12.8968C283.009 12.8968 278.755 14.2592 278.755 14.2592V10.9175C278.755 10.9175 268.629 10.9175 264.578 11.2213C260.528 11.5252 256.881 10.9175 254.046 13.0445C251.21 15.1708 249.996 24.589 249.996 24.589L249.85 24.9891C253.024 26.1767 258.503 27.8091 265.509 28.2852C265.934 26.0171 266.199 24.589 266.199 24.589C266.199 24.589 269.844 23.0696 271.87 22.1589C273.896 21.2473 275.928 19.2721 275.928 19.2721C275.928 19.2721 281.595 17.4506 286.857 15.4746C289.685 14.4119 285.44 12.8968 284.225 12.8968Z" fill="#191919" stroke="white" stroke-width="0.6" stroke-miterlimit="10" stroke-linecap="round" stroke-linejoin="round"/>
<path d="M254.049 13.0446C254.049 13.0446 258.121 8.49589 259.538 7.58513C260.954 6.67438 267.228 7.73707 267.228 7.73707C267.228 7.73707 272.286 12.4428 270.871 13.2016C269.454 13.9604 265.204 12.1389 265.204 12.1389L260.347 12.8977" fill="#191919"/>
<path d="M254.049 13.0446C254.049 13.0446 258.121 8.49589 259.538 7.58513C260.954 6.67438 267.228 7.73707 267.228 7.73707C267.228 7.73707 272.286 12.4428 270.871 13.2016C269.454 13.9604 265.204 12.1389 265.204 12.1389L260.347 12.8977" stroke="white" stroke-width="0.3" stroke-miterlimit="10"/>
<path d="M267.226 7.73624C267.226 7.73624 270.059 6.97741 271.071 7.28128C272.083 7.58515 275.726 11.6831 275.929 12.7458C276.131 13.8085 273.5 13.6566 273.5 13.6566L270.869 13.2016L267.226 7.73624Z" fill="#191919" stroke="white" stroke-width="0.3" stroke-miterlimit="10"/>
<path d="M271.07 7.28132C271.07 7.28132 273.904 7.12938 275.118 7.73627C276.333 8.34316 277.739 9.24211 278.756 10.9176C279.773 12.5931 275.929 12.745 275.929 12.745C275.929 12.745 274.512 10.4685 273.905 9.70888C273.296 8.95006 271.07 7.28132 271.07 7.28132Z" fill="#191919" stroke="white" stroke-width="0.3" stroke-miterlimit="10"/>
<path d="M275.118 7.73618C275.118 7.73618 278.559 7.12929 279.773 8.04004C280.987 8.9508 282.808 11.3792 281.796 11.9861C280.785 12.593 278.756 10.9175 278.756 10.9175C278.756 10.9175 276.13 7.58424 275.118 7.73618Z" fill="#191919" stroke="white" stroke-width="0.3" stroke-miterlimit="10"/>
<path d="M141.098 12.2478L142.099 3.6526L107.716 1.39893L106.715 9.99498L117.927 10.7293L115.88 28.2954L104.669 27.5602L103.667 36.1562L138.05 38.4091L139.052 29.813L127.84 29.0787L129.886 11.5135L141.098 12.2478Z" fill="#191919" stroke="white" stroke-miterlimit="10"/>
<path d="M142.099 3.65259L423.727 22.0171L422.226 30.5803L141.098 12.2478L142.099 3.65259Z" fill="white" stroke="white" stroke-miterlimit="10"/>
<path d="M129.883 11.4698L127.838 29.0347L408.955 47.4475L411 29.8826L129.883 11.4698Z" fill="#191919" stroke="white" stroke-miterlimit="10"/>
<path d="M139.048 29.7698L138.047 38.3651L419.163 56.7779L420.164 48.1826L139.048 29.7698Z" fill="white" stroke="white" stroke-miterlimit="10"/>
<path d="M143.678 20.3516C143.58 21.189 142.597 21.8085 141.48 21.7351C140.364 21.6617 139.538 20.9239 139.636 20.0866C139.734 19.2493 140.717 18.6297 141.834 18.7032C142.95 18.7766 143.776 19.5143 143.678 20.3516Z" fill="white" stroke="white" stroke-miterlimit="10"/>
<path d="M163.388 21.6432C163.29 22.4805 162.307 23.1 161.19 23.0266C160.074 22.9532 159.248 22.2154 159.346 21.3781C159.444 20.5408 160.427 19.9212 161.544 19.9947C162.66 20.0681 163.486 20.8058 163.388 21.6432Z" fill="white" stroke="white" stroke-miterlimit="10"/>
<path d="M183.099 22.9347C183.001 23.772 182.018 24.3915 180.901 24.3181C179.785 24.2447 178.959 23.5069 179.057 22.6696C179.155 21.8323 180.138 21.2127 181.255 21.2862C182.371 21.3596 183.197 22.0973 183.099 22.9347Z" fill="white" stroke="white" stroke-miterlimit="10"/>
<path d="M359.982 34.5255C359.884 35.3628 358.901 35.9824 357.784 35.9089C356.668 35.8355 355.842 35.0978 355.94 34.2604C356.037 33.4231 357.021 32.8036 358.137 32.877C359.254 32.9504 360.08 33.6882 359.982 34.5255Z" fill="white" stroke="white" stroke-miterlimit="10"/>
<path d="M379.692 35.8169C379.594 36.6542 378.611 37.2737 377.494 37.2003C376.378 37.1269 375.552 36.3891 375.649 35.5518C375.747 34.7145 376.731 34.095 377.847 34.1684C378.964 34.2418 379.79 34.9795 379.692 35.8169Z" fill="white" stroke="white" stroke-miterlimit="10"/>
<path d="M399.403 37.1084C399.305 37.9457 398.321 38.5652 397.205 38.4918C396.089 38.4184 395.263 37.6807 395.36 36.8433C395.458 36.006 396.442 35.3865 397.558 35.4599C398.675 35.5333 399.501 36.271 399.403 37.1084Z" fill="white" stroke="white" stroke-miterlimit="10"/>
<path d="M267.173 141.949C267.173 141.949 253.246 162.227 251.197 174.516C249.149 186.804 246.282 199.708 247.92 202.473C249.559 205.238 251.607 210.154 252.836 210.769C254.065 211.383 273.318 238.726 274.956 239.955C276.595 241.184 279.872 244.871 279.872 244.871C279.872 244.871 278.643 247.943 279.463 249.172C280.282 250.401 283.559 253.781 283.559 253.781L289.294 258.39C289.294 258.39 297.897 259.311 301.173 256.546C304.451 253.781 306.089 249.173 306.089 247.944C306.089 246.715 307.728 245.486 304.451 242.414C301.173 239.341 297.896 237.498 297.896 237.498C297.896 237.498 287.655 215.377 286.017 210.769C284.379 206.161 279.053 196.637 279.053 196.637L296.257 166.529L309.365 148.71L267.173 141.949Z" fill="#191919" stroke="white" stroke-width="0.4" stroke-miterlimit="10"/>
<path d="M283.558 253.78L287.277 260.599C287.277 260.599 289.912 260.599 283.326 264.387C276.74 268.174 272.35 270.15 271.91 271.467C271.471 272.784 272.129 275.583 272.788 276.242C273.446 276.9 273.665 278.711 282.886 278.382C292.107 278.053 297.376 274.43 300.888 272.125C304.401 269.82 307.475 266.856 307.475 266.856L308.133 268.503C308.133 268.503 310.109 266.856 311.645 265.375C313.183 263.893 314.938 261.258 314.938 260.271C314.938 259.283 309.669 254.673 308.352 252.203C307.034 249.733 306.087 247.944 306.087 247.944C306.087 247.944 303.083 253.026 300.668 254.179C298.253 255.331 296.058 256.155 296.058 256.155C296.058 256.155 294.082 253.521 288.814 253.192C283.546 252.861 283.558 253.78 283.558 253.78Z" fill="#191919" stroke="white" stroke-width="0.4" stroke-miterlimit="10"/>
<path d="M313.44 258.194C310.937 259.895 307.026 263.292 305.062 265.868C302.427 269.325 295.402 274.595 286.182 276.076C280.211 277.036 274.993 275.65 272.044 274.553C272.239 275.312 272.513 275.965 272.789 276.241C273.447 276.899 273.667 278.711 282.888 278.381C292.108 278.052 297.377 274.43 300.89 272.124C304.402 269.819 307.476 266.856 307.476 266.856L308.134 268.502C308.134 268.502 310.111 266.856 311.647 265.374C313.184 263.892 314.94 261.258 314.94 260.27C314.941 259.93 314.311 259.157 313.44 258.194Z" fill="#191919" stroke="white" stroke-width="0.4" stroke-miterlimit="10"/>
<path d="M294.618 149.938L305.678 235.654L306.087 247.942C306.087 247.942 303.63 252.551 304.858 255.009C306.087 257.467 309.365 262.075 309.365 262.075C309.365 262.075 317.148 268.22 320.834 266.683C324.521 265.147 329.846 260.539 329.846 260.539C329.846 260.539 335.172 255.315 335.172 252.243C335.172 249.171 333.124 245.485 333.124 242.105C333.124 238.725 333.124 225.207 333.124 222.135C333.124 219.062 333.943 188.34 333.943 188.34L339.678 145.021C339.678 145.021 328.619 142.563 323.293 142.87C317.968 143.178 294.618 149.938 294.618 149.938Z" fill="#191919" stroke="white" stroke-width="0.4" stroke-miterlimit="10"/>
<path d="M304.861 255.009L305.94 261.258C305.94 261.258 303.086 267.186 301.33 269.326C299.573 271.467 294.964 273.113 292.329 274.266C289.694 275.418 289.255 277.723 290.353 279.699C291.45 281.675 292.549 282.662 296.719 283.486C300.89 284.309 313.843 283.815 318.234 281.84C322.625 279.864 326.358 277.888 326.358 277.888V279.37C326.358 279.37 327.894 278.711 330.529 277.394C333.163 276.076 333.822 274.924 333.822 274.924C333.822 274.924 333.602 267.186 332.944 265.539C332.285 263.892 332.066 263.234 331.627 262.575C331.188 261.917 332.724 255.824 332.724 255.824C332.724 255.824 329.212 259.117 327.236 260.105C325.259 261.093 323.284 261.258 322.405 261.258C321.526 261.258 321.747 257.142 320.648 256.154C319.551 255.166 315.599 254.014 312.525 253.849C309.453 253.684 304.861 255.009 304.861 255.009Z" fill="#191919" stroke="white" stroke-width="0.4" stroke-miterlimit="10"/>
<path d="M328.774 273.113C326.797 274.76 319.772 279.205 307.478 280.852C299.678 281.897 293.656 280.622 290.287 279.55C290.312 279.599 290.327 279.65 290.354 279.699C291.451 281.675 292.549 282.662 296.72 283.486C300.891 284.309 313.844 283.815 318.235 281.84C322.625 279.864 326.358 277.888 326.358 277.888V279.37C326.358 279.37 327.895 278.711 330.529 277.394C333.164 276.076 333.822 274.924 333.822 274.924C333.822 274.924 333.725 271.536 333.469 268.766C332.073 270.115 330 272.09 328.774 273.113Z" fill="#191919" stroke="white" stroke-width="0.4" stroke-miterlimit="10"/>
<path d="M280.208 55.3295C282.037 53.1956 309.266 47.2525 309.266 47.2525L327.145 47.0997C327.145 47.0997 331.818 48.0147 336.898 48.9288C341.979 49.843 351.529 52.8909 355.389 62.1876C359.249 71.4834 352.95 83.3705 352.95 83.3705L341.775 139.301C341.775 139.301 341.714 139.317 341.585 139.348L342.955 151.166L334.353 146.557C334.353 146.557 327.39 149.322 317.558 152.087C307.727 154.853 284.787 154.238 284.787 154.238L280.281 146.864L274.136 153.624L262.667 144.407C265.824 134.463 267.941 123.259 268.829 112.631C268.882 111.988 269.246 109.747 269.754 106.623C271.171 97.8978 273.705 82.2923 273.705 75.4463C273.705 66.1497 278.379 57.4633 280.208 55.3295Z" fill="#191919" stroke="white" stroke-width="0.4" stroke-miterlimit="10" stroke-linecap="round" stroke-linejoin="round"/>
<path d="M299.714 43.4424L303.372 60.816L325.724 44.6621L323.692 39.0237C323.692 39.0237 314.752 44.2055 311.094 45.4243C307.435 46.6432 299.714 43.4424 299.714 43.4424Z" fill="#191919" stroke="white" stroke-width="0.4" stroke-miterlimit="10" stroke-linecap="round" stroke-linejoin="round"/>
<path d="M289.15 17.3824C289.15 17.3824 291.589 9.1527 295.855 5.34339C300.123 1.53323 312.924 -0.1431 320.239 1.83794C327.554 3.81899 333.041 9.45825 334.056 14.1825C335.072 18.9068 335.275 20.4304 335.885 21.4973C336.495 22.5642 337.307 23.4783 337.307 23.4783L288.54 18.7541L289.15 17.3824Z" fill="#191919" stroke="white" stroke-width="0.4" stroke-miterlimit="10"/>
<path d="M292.197 17.3823C292.197 17.3823 278.583 16.7729 281.63 18.2965C284.678 19.82 285.288 20.5822 297.48 22.1066C309.672 23.6302 324.099 26.2215 324.099 26.2215C324.099 26.2215 329.991 29.8789 335.68 28.66C341.369 27.4412 342.386 26.0696 339.134 23.783C335.885 21.4972 292.197 17.3823 292.197 17.3823Z" fill="#191919" stroke="white" stroke-width="0.4" stroke-miterlimit="10"/>
<path d="M292.933 20.7739C292.933 20.7739 292.401 35.0607 293.62 38.1087C294.838 41.1567 301.341 46.7951 303.373 47.2526C305.405 47.7101 309.062 48.4714 311.094 48.0148C313.127 47.5573 320.847 43.4424 322.676 42.2236C324.505 41.0047 326.334 37.3465 326.334 36.4324C326.334 35.5182 327.146 33.6891 327.146 33.6891C327.146 33.6891 329.788 33.3844 330.804 32.3175C331.82 31.2506 331.82 29.4223 331.008 28.6601C330.195 27.8979 329.179 27.4413 329.179 27.4413L329.382 24.698L292.933 20.7739Z" fill="#191919" stroke="white" stroke-width="0.4" stroke-miterlimit="10" stroke-linecap="round" stroke-linejoin="round"/>
<path d="M318.815 23.6311C318.815 23.6311 320.644 29.727 323.083 30.0317C325.522 30.3364 329.18 27.4413 329.18 27.4413L329.383 24.698L318.815 23.6311Z" fill="#191919" stroke="white" stroke-width="0.4" stroke-miterlimit="10" stroke-linecap="round" stroke-linejoin="round"/>
<path d="M346.889 79.167C346.889 79.167 354.135 75.0436 354.885 70.3582C355.634 65.6727 354.385 58.5504 346.638 54.9893C338.891 51.4281 329.145 56.864 327.645 58.7378C326.146 60.6125 318.898 67.3592 318.898 67.3592L315.649 69.796L312.899 70.1708L302.653 67.3592L289.659 79.3543C289.659 79.3543 310.401 97.1593 317.897 97.3466C325.394 97.534 337.89 86.8506 339.389 85.5389C340.891 84.2272 346.889 79.167 346.889 79.167Z" fill="#191919" stroke="white" stroke-width="0.4" stroke-miterlimit="10"/>
<path d="M312.902 70.1708C312.902 70.1708 322.149 73.1698 326.146 74.8562C330.145 76.5427 334.143 79.9165 334.143 79.9165" fill="#191919"/>
<path d="M312.902 70.1708C312.902 70.1708 322.149 73.1698 326.146 74.8562C330.145 76.5427 334.143 79.9165 334.143 79.9165" stroke="white" stroke-width="0.4" stroke-miterlimit="10"/>
<path d="M268.17 41.1195L296.658 63.9855L285.664 76.9193L262.174 50.8669C262.174 50.8669 259.176 48.9922 255.677 47.6805C252.179 46.3688 248.68 41.4959 248.68 41.4959C248.68 41.4959 241.182 39.2465 239.183 38.3096C237.806 37.6638 237.614 36.4852 238.282 35.9363C238.583 35.6876 239.06 35.5677 239.683 35.6845C241.663 36.0557 247.565 37.5297 247.678 37.558L243.681 33.998C243.681 33.998 240.432 32.3107 238.932 31.1864C238.454 30.8272 238.281 30.468 238.381 30.1638C238.594 29.5154 240.05 29.1164 242.432 29.4991C245.887 30.0545 250.076 32.4398 250.176 32.4971L248.929 30.9999C248.929 30.9999 247.178 28.7504 245.679 27.6261C245.121 27.2075 244.944 26.8929 245.018 26.6627C245.144 26.2741 245.987 26.1262 246.929 26.1262C248.428 26.1262 252.177 27.8127 252.177 27.8127L252.676 26.501C253.176 25.1884 255.176 26.501 257.675 28.1874C260.173 29.8739 264.422 33.8098 264.422 33.8098L268.17 41.1195Z" fill="#191919" stroke="white" stroke-width="0.4" stroke-miterlimit="10"/>
<path d="M252.177 27.8125C252.177 27.8125 256.175 30.8115 257.175 31.3736C258.174 31.9358 258.674 32.8727 258.674 32.8727" fill="#191919"/>
<path d="M252.177 27.8125C252.177 27.8125 256.175 30.8115 257.175 31.3736C258.174 31.9358 258.674 32.8727 258.674 32.8727" stroke="white" stroke-width="0.4" stroke-miterlimit="10"/>
<path d="M250.176 32.4979L253.425 35.3095" stroke="white" stroke-width="0.4" stroke-miterlimit="10"/>
<path d="M297.657 61.3621L281.164 75.2311L289.661 83.1029L305.655 65.8601L297.657 61.3621Z" fill="#191919" stroke="white" stroke-width="0.4" stroke-miterlimit="10"/>
<g clip-path="url(#clip0_1145_17062)">
<path d="M182.309 162.683L183.143 162.22C183.586 161.874 184.111 161.649 184.667 161.568C185.224 161.487 185.791 161.551 186.315 161.756H186.5L187.496 162.359C187.658 162.359 235.215 190.433 235.909 190.873L233.108 203.948L226.162 230.863C226.162 230.863 226.162 230.863 226.023 230.863L176.914 202.094V173.046C176.951 171.018 177.458 169.027 178.394 167.229C179.33 165.431 180.67 163.875 182.309 162.683Z" fill="#191919" stroke="white" stroke-width="0.3" stroke-linecap="round" stroke-linejoin="round"/>
<path d="M229.751 206.174L229.08 220.083V221.034L226.162 230.701H226.046L176.915 201.955V173.069L226.139 201.955L229.751 206.174Z" fill="#191919" stroke="white" stroke-width="0.5" stroke-linecap="round" stroke-linejoin="round"/>
<path d="M225.954 232.231L227.112 231.837L227.343 231.211L230.307 221.359V220.223L231.024 205.826L230.677 205.409L226.949 201.004L226.695 200.865L177.008 171.586L175.711 172.281V173.069V202.604L176.383 202.998L225.954 232.231ZM227.899 221.034L225.444 229.148L178.073 201.329V175.04L225.375 202.859L228.547 206.73L227.876 220.315L227.899 221.034Z" fill="#191919" stroke="white" stroke-width="0.3" stroke-linecap="round" stroke-linejoin="round"/>
<path d="M226.278 231.002L234.127 226.482C235.261 225.826 236.202 224.884 236.856 223.748C237.511 222.613 237.855 221.325 237.854 220.014V195.325C237.854 191.314 235.423 189.459 232.413 191.198L231.603 191.662C229.942 192.853 228.583 194.416 227.634 196.228C226.685 198.04 226.173 200.049 226.139 202.094V230.933C226.139 230.933 226.232 231.049 226.278 231.002Z" fill="#191919" stroke="white" stroke-width="0.3" stroke-linecap="round" stroke-linejoin="round"/>
<path d="M146.862 293.897L214.4 267.353L249.64 244.518C251.175 243.669 252.886 243.189 254.638 243.117C256.39 243.044 258.135 243.381 259.735 244.101L260.151 244.356L267.283 242.037H274.159V315.294C274.121 316.023 273.886 316.728 273.478 317.332C273.07 317.937 272.505 318.418 271.844 318.725L262.258 324.266V299.623C262.261 299.152 262.14 298.69 261.906 298.281C261.672 297.873 261.335 297.534 260.928 297.299C260.521 297.063 260.06 296.94 259.59 296.941C259.12 296.942 258.659 297.067 258.253 297.305L183.074 340.841C181.995 341.468 181.1 342.367 180.478 343.45C179.856 344.532 179.53 345.759 179.531 347.008V371.605L171.358 376.241C169.823 377.09 168.112 377.57 166.36 377.643C164.608 377.715 162.863 377.378 161.263 376.659L148.599 369.333C148.109 369.103 147.691 368.744 147.39 368.295C147.088 367.846 146.914 367.323 146.885 366.783L146.862 293.897Z" fill="#191919" stroke="white" stroke-width="0.3" stroke-linecap="round" stroke-linejoin="round"/>
<path d="M148.598 296.4L161.286 303.726C162.882 304.445 164.623 304.782 166.371 304.71C168.12 304.637 169.827 304.158 171.358 303.309L271.797 245.352C274.784 243.521 275.108 240.925 272.515 239.418L259.85 232.092C258.253 231.362 256.507 231.019 254.753 231.091C252.999 231.164 251.286 231.65 249.755 232.509L149.316 290.466C146.329 292.297 146.005 294.824 148.598 296.4Z" fill="#191919" stroke="white" stroke-width="0.5" stroke-linecap="round" stroke-linejoin="round"/>
<path d="M165.662 305.952C167.872 305.973 170.049 305.422 171.983 304.352L272.399 246.396C273.248 246.002 273.98 245.393 274.52 244.628C275.06 243.863 275.391 242.97 275.479 242.037C275.448 241.289 275.217 240.563 274.81 239.935C274.402 239.306 273.834 238.8 273.163 238.467L260.498 231.142C258.718 230.307 256.764 229.909 254.798 229.981C252.833 230.054 250.914 230.595 249.199 231.559L148.76 289.515C147.914 289.91 147.186 290.52 146.65 291.285C146.113 292.05 145.787 292.943 145.704 293.874C145.737 294.621 145.969 295.347 146.376 295.975C146.783 296.602 147.351 297.11 148.019 297.444L160.707 304.769C162.23 305.584 163.937 305.991 165.662 305.952ZM255.474 232.231C256.785 232.188 258.084 232.483 259.248 233.089L271.913 240.461C272.445 240.762 273.071 241.272 273.071 241.945C273.071 242.617 272.376 243.521 271.195 244.263L170.756 302.219C169.409 302.966 167.909 303.392 166.371 303.464C164.833 303.537 163.299 303.254 161.888 302.637L149.2 295.311C148.691 295.01 148.066 294.5 148.066 293.827C148.066 293.155 148.76 292.251 149.918 291.509L250.357 233.553C251.924 232.687 253.684 232.232 255.474 232.231Z" fill="#191919" stroke="white" stroke-width="0.5" stroke-linecap="round" stroke-linejoin="round"/>
<path d="M261.818 324.104L244.383 314.112C243.974 313.878 243.632 313.541 243.393 313.135C243.153 312.728 243.024 312.266 243.017 311.794V306.114L258.183 297.328C258.588 297.096 259.046 296.975 259.513 296.977C259.979 296.979 260.437 297.104 260.841 297.339C261.244 297.573 261.578 297.91 261.811 298.315C262.043 298.72 262.165 299.179 262.165 299.646V323.895C262.166 323.936 262.157 323.977 262.137 324.014C262.117 324.05 262.088 324.08 262.053 324.102C262.017 324.123 261.977 324.134 261.935 324.135C261.894 324.135 261.853 324.124 261.818 324.104Z" fill="#191919" stroke="white" stroke-width="0.3" stroke-linecap="round" stroke-linejoin="round"/>
<path d="M16.0682 218.6L83.6065 192.056L118.962 169.244C120.493 168.384 122.205 167.899 123.959 167.826C125.713 167.754 127.46 168.096 129.056 168.827L129.473 169.082L136.581 166.764H143.365V240.02C143.32 240.762 143.068 241.477 142.638 242.083C142.209 242.689 141.618 243.163 140.934 243.452L131.349 249.015V224.349C131.352 223.879 131.23 223.416 130.996 223.007C130.763 222.599 130.425 222.26 130.019 222.025C129.612 221.789 129.15 221.666 128.68 221.667C128.21 221.668 127.749 221.794 127.343 222.031L52.2337 265.568C51.1769 266.192 50.2996 267.079 49.6869 268.144C49.0742 269.208 48.7472 270.413 48.7375 271.642V296.331L40.5644 300.967C39.0331 301.827 37.3209 302.313 35.5668 302.385C33.8128 302.458 32.0664 302.115 30.4695 301.385L17.8047 294.059C17.309 293.838 16.8855 293.481 16.5825 293.03C16.2796 292.579 16.1094 292.052 16.0913 291.509L16.0682 218.6Z" fill="#191919" stroke="white" stroke-width="0.3" stroke-linecap="round" stroke-linejoin="round"/>
<path d="M34.3135 302.451C32.9966 302.408 31.7065 302.067 30.5395 301.454L17.8746 294.129C17.3789 293.907 16.9554 293.551 16.6525 293.1C16.3495 292.649 16.1793 292.122 16.1613 291.579V218.623L22.7368 215.54H34.3135V302.451Z" fill="#191919" stroke="white" stroke-width="0.3" stroke-linecap="round" stroke-linejoin="round"/>
<path d="M140.286 166.601H143.365V239.928C143.317 240.669 143.064 241.382 142.635 241.988C142.206 242.594 141.617 243.068 140.934 243.359L140.216 243.776L140.286 166.601Z" fill="#191919" stroke="white" stroke-width="0.5" stroke-linecap="round" stroke-linejoin="round"/>
<path d="M139.082 245.863L141.606 244.402C142.337 244.041 142.981 243.527 143.496 242.895C144.012 242.263 144.386 241.528 144.593 240.739V165.512H143.296H139.013L139.082 245.863ZM142.254 239.186V240.021C142.245 240.31 142.174 240.594 142.046 240.854C141.918 241.114 141.737 241.343 141.513 241.527V167.83H142.277L142.254 239.186Z" fill="#191919" stroke="white" stroke-width="0.5" stroke-linecap="round" stroke-linejoin="round"/>
<path d="M17.8051 221.103L30.4932 228.452C32.0892 229.174 33.832 229.509 35.5814 229.433C37.3307 229.356 39.0377 228.87 40.5649 228.012L141.004 170.055C143.991 168.34 144.315 165.72 141.722 164.237L129.057 156.888C127.457 156.168 125.712 155.831 123.96 155.904C122.208 155.976 120.497 156.456 118.962 157.305L18.5229 215.261C15.5361 217 15.212 219.62 17.8051 221.103Z" fill="#191919" stroke="white" stroke-width="0.5" stroke-linecap="round" stroke-linejoin="round"/>
<path d="M34.8692 230.655C37.0684 230.676 39.2363 230.133 41.167 229.078L141.606 171.122C142.452 170.731 143.181 170.125 143.722 169.364C144.262 168.604 144.594 167.715 144.686 166.787C144.659 166.034 144.43 165.303 144.023 164.671C143.615 164.038 143.044 163.528 142.37 163.193L129.659 155.729C127.878 154.894 125.924 154.496 123.959 154.568C121.994 154.641 120.075 155.182 118.36 156.146L17.921 214.218C17.0722 214.606 16.3405 215.211 15.7999 215.972C15.2592 216.733 14.9286 217.623 14.8416 218.553C14.8696 219.302 15.0996 220.03 15.5073 220.658C15.9149 221.287 16.485 221.793 17.1569 222.124L29.8218 229.472C31.374 230.297 33.113 230.704 34.8692 230.655ZM124.612 157.004C125.922 156.961 127.222 157.256 128.386 157.861L141.05 165.187C141.49 165.419 142.208 165.952 142.185 166.671C142.162 167.389 141.49 168.247 140.333 168.989L39.8935 226.946C38.5467 227.692 37.0461 228.118 35.5083 228.191C33.9705 228.263 32.4367 227.98 31.0258 227.363L18.3378 220.037C17.921 219.805 17.2033 219.272 17.2033 218.553C17.2033 217.835 17.8979 216.977 19.0555 216.235L119.495 158.279C121.065 157.426 122.826 156.988 124.612 157.004Z" fill="#191919" stroke="white" stroke-width="0.5" stroke-linecap="round" stroke-linejoin="round"/>
<path d="M131.002 248.807L113.59 238.838C113.178 238.605 112.833 238.269 112.59 237.863C112.346 237.457 112.212 236.994 112.201 236.52V230.84L127.39 222.031C127.795 221.799 128.254 221.678 128.72 221.68C129.187 221.682 129.644 221.807 130.048 222.042C130.451 222.276 130.786 222.613 131.018 223.018C131.25 223.423 131.373 223.882 131.372 224.349V248.621C131.372 248.664 131.36 248.706 131.337 248.743C131.315 248.78 131.283 248.809 131.244 248.829C131.206 248.848 131.163 248.856 131.12 248.852C131.077 248.848 131.036 248.833 131.002 248.807Z" fill="#191919" stroke="white" stroke-width="0.5" stroke-linecap="round" stroke-linejoin="round"/>
<path d="M131.141 250.059C131.384 250.055 131.622 249.991 131.835 249.873C132.059 249.749 132.245 249.568 132.376 249.348C132.506 249.128 132.575 248.877 132.576 248.621V224.349C132.577 223.67 132.399 223.004 132.061 222.416C131.722 221.827 131.236 221.339 130.65 220.998C130.063 220.658 129.398 220.477 128.72 220.476C128.042 220.474 127.376 220.65 126.788 220.988L110.997 230.261V236.566C111.023 237.248 111.225 237.911 111.582 238.491C111.939 239.072 112.439 239.551 113.035 239.881L130.4 249.85C130.623 249.986 130.879 250.058 131.141 250.059ZM128.825 222.889C129.076 222.89 129.323 222.953 129.543 223.074C129.77 223.2 129.959 223.385 130.089 223.609C130.22 223.834 130.287 224.089 130.284 224.349V246.952L114.308 237.679C114.073 237.543 113.878 237.347 113.744 237.111C113.61 236.874 113.541 236.606 113.544 236.334V231.536L128.108 223.074C128.298 222.992 128.503 222.953 128.71 222.958L128.825 222.889Z" fill="#191919" stroke="white" stroke-width="0.5" stroke-linecap="round" stroke-linejoin="round"/>
<path d="M114.956 231.072H117.364V235.824H114.956V231.072Z" fill="#191919" stroke="white" stroke-width="0.5" stroke-linecap="round" stroke-linejoin="round"/>
<path d="M1.22675 211.181C1.21515 211.066 1.21515 210.949 1.22675 210.834V187.303L21.9258 185.217V192.821L77.4939 160.643C87.1488 155.08 101.735 154.477 110.094 159.299L263.207 247.694L262.443 243.822H287.796V266.634C287.935 270.297 285.249 274.354 279.738 277.484L211.39 317.033C201.758 322.597 187.171 323.223 178.813 318.378L6.82986 218.971C5.31622 218.263 4.0076 217.18 3.02731 215.825C2.04703 214.471 1.42737 212.889 1.22675 211.228V211.181Z" fill="#191919" stroke="white" stroke-width="0.3" stroke-linecap="round" stroke-linejoin="round"/>
<path d="M205.648 319.583C203.294 320.352 200.877 320.91 198.425 321.252V268.234H205.648V319.583Z" fill="#191919" stroke="white" stroke-width="0.3" stroke-linecap="round" stroke-linejoin="round"/>
<path d="M279.993 243.452H287.796V266.263C287.934 269.996 285.295 273.96 279.993 277.113V243.452Z" fill="#191919" stroke="white" stroke-width="0.3" stroke-linecap="round" stroke-linejoin="round"/>
<path d="M21.9262 192.821L77.4943 160.643C87.1492 155.056 101.736 154.454 110.094 159.276L191.131 206.128V321.623C186.802 321.534 182.554 320.439 178.721 318.424L6.73766 218.994C5.25648 218.284 3.9763 217.214 3.01381 215.882C2.05132 214.55 1.4371 212.997 1.22714 211.367C1.2155 211.243 1.2155 211.119 1.22714 210.996V187.35L21.9262 185.263V192.821Z" fill="#191919" stroke="white" stroke-width="0.3" stroke-linecap="round" stroke-linejoin="round"/>
<path d="M6.83044 195.95L178.813 295.357C187.172 300.179 201.758 299.577 211.39 294.013L279.739 254.463C289.394 248.876 290.436 240.554 282.054 235.616L110.187 136.209C101.829 131.387 87.242 131.99 77.5871 137.554L9.16895 177.103C-0.416534 182.69 -1.50476 191.128 6.83044 195.95Z" fill="#191919" stroke="white" stroke-width="0.3" stroke-linecap="round" stroke-linejoin="round"/>
<path d="M19.7036 190.688L187.936 287.869C189.747 288.702 191.73 289.094 193.722 289.014C195.714 288.933 197.658 288.382 199.397 287.406L268.463 247.532C271.867 245.561 272.237 242.594 269.297 240.878L101.064 143.651C99.2362 142.804 97.2331 142.404 95.2203 142.485C93.2075 142.566 91.2427 143.124 89.4878 144.114L20.4214 184.058C17.1336 186.005 16.7632 188.972 19.7036 190.688Z" fill="white" stroke="white" stroke-width="0.5" stroke-linecap="round" stroke-linejoin="round"/>
<path d="M269.505 246.998C269.44 246.939 269.371 246.885 269.297 246.836L101.065 149.585C99.2341 148.744 97.2303 148.349 95.2178 148.434C93.2054 148.519 91.2417 149.08 89.488 150.072L20.4216 189.992C20.0546 190.202 19.706 190.442 19.3797 190.711C16.6939 188.996 17.0643 186.075 20.4216 184.22L89.6037 144.3C91.3568 143.304 93.3221 142.742 95.3359 142.662C97.3497 142.581 99.3536 142.984 101.18 143.836L269.297 241.064C271.89 242.571 271.89 245.074 269.505 246.998Z" fill="#191919" stroke="white" stroke-width="0.5" stroke-linecap="round" stroke-linejoin="round"/>
<path d="M19.2174 181.229L89.6035 144.137C92.9839 142.19 122.018 151.973 124.936 153.689V157.421L44.6629 205.108L19.7268 190.688C16.7631 188.972 15.7907 183.177 19.2174 181.229Z" fill="#191919" stroke="white" stroke-width="0.5" stroke-linecap="round" stroke-linejoin="round"/>
<path d="M20.4215 180.279L89.6037 140.359C91.3574 139.366 93.3211 138.805 95.3335 138.72C97.346 138.636 99.3498 139.03 101.18 139.872L125.028 153.665L44.7788 201.306L19.8427 186.886C16.7633 185.217 17.1338 182.249 20.4215 180.279Z" fill="white" stroke="white" stroke-width="0.5" stroke-linecap="round" stroke-linejoin="round"/>
<path d="M249.816 246.786L251.048 248.858L228.568 262.259L227.336 260.188L249.816 246.786Z" fill="#191919" stroke="#191919" stroke-width="0.5" stroke-linecap="round" stroke-linejoin="round"/>
<path d="M18.4762 213.716C18.5416 214.855 18.8733 215.962 19.4443 216.948C20.0154 217.935 20.81 218.773 21.764 219.396C23.5699 220.462 25.0518 219.605 25.0518 217.518C24.9899 216.376 24.66 215.264 24.0887 214.273C23.5175 213.282 22.721 212.44 21.764 211.815C19.958 210.772 18.4762 211.607 18.4762 213.716Z" fill="#191919" stroke="white" stroke-width="0.3" stroke-linecap="round" stroke-linejoin="round"/>
<path d="M196.248 259.772L189.997 237.795C189.001 235.848 181.129 234.063 179.23 235.152L153.299 250.151C152.153 250.811 151.3 251.882 150.913 253.147C150.526 254.413 150.634 255.778 151.215 256.967L163.532 280.15C164.528 282.143 171.844 285.505 173.743 284.369L194.28 266.634C195.422 265.959 196.263 264.872 196.629 263.595C196.995 262.319 196.858 260.951 196.248 259.772Z" fill="#191919" stroke="white" stroke-width="0.5" stroke-linecap="round" stroke-linejoin="round"/>
<path d="M202.499 261.905L190.783 238.838C190.55 238.378 190.226 237.97 189.83 237.639C189.435 237.309 188.976 237.062 188.482 236.914C187.988 236.767 187.469 236.722 186.957 236.781C186.445 236.841 185.951 237.005 185.504 237.262L159.549 252.284C158.413 252.947 157.568 254.014 157.182 255.273C156.796 256.531 156.897 257.889 157.466 259.077L169.806 282.259C170.036 282.731 170.362 283.15 170.762 283.489C171.163 283.829 171.63 284.08 172.133 284.229C172.636 284.377 173.165 284.419 173.685 284.351C174.206 284.283 174.706 284.108 175.155 283.835L200.623 268.744C201.744 268.054 202.56 266.964 202.909 265.695C203.257 264.425 203.11 263.07 202.499 261.905Z" fill="#191919" stroke="white" stroke-width="0.5" stroke-linecap="round" stroke-linejoin="round"/>
<path d="M179.508 183.548L204.051 169.36C207.334 167.25 210.065 164.383 212.015 160.999C213.964 157.615 215.076 153.812 215.257 149.91C215.39 148.202 215.066 146.489 214.317 144.948C213.568 143.408 212.422 142.095 210.997 141.147C209.461 140.384 207.75 140.046 206.04 140.168C204.33 140.29 202.684 140.868 201.272 141.842L176.73 156.03L179.508 160.852L204.051 146.664C204.63 146.206 205.316 145.901 206.045 145.78C206.774 145.658 207.521 145.723 208.218 145.969C208.771 146.452 209.195 147.065 209.454 147.753C209.713 148.44 209.797 149.182 209.7 149.91C209.516 152.833 208.659 155.675 207.198 158.212C205.736 160.75 203.708 162.915 201.272 164.538L176.73 178.726L179.508 183.548Z" fill="white" stroke="white" stroke-width="0.5" stroke-linecap="round" stroke-linejoin="round"/>
<path d="M91.1318 238.676L112.224 261.65C115.482 265.224 119.204 268.343 123.292 270.923L133.873 277.437C134.897 278.061 135.742 278.94 136.326 279.988C136.911 281.036 137.214 282.218 137.207 283.418C137.204 283.856 137.085 284.284 136.863 284.661C136.641 285.038 136.324 285.349 135.943 285.563C135.562 285.777 135.132 285.887 134.695 285.881C134.258 285.874 133.831 285.753 133.456 285.528L124.727 280.15C118.699 276.434 113.207 271.91 108.404 266.704L82.3335 238.676L78.1659 233.506L91.1318 238.676Z" fill="#191919" stroke="white" stroke-width="0.3" stroke-linecap="round" stroke-linejoin="round"/>
<path d="M74.461 206.846L152.673 171.725L177.378 157.444C178.908 156.595 180.616 156.116 182.364 156.043C184.113 155.971 185.854 156.308 187.449 157.027L187.889 157.282L194.997 154.964H201.781V184.637C201.744 185.366 201.508 186.071 201.1 186.675C200.692 187.28 200.127 187.761 199.466 188.068L189.857 193.609V180.372C189.865 179.902 189.747 179.439 189.517 179.029C189.286 178.62 188.951 178.28 188.545 178.044C188.139 177.808 187.678 177.684 187.209 177.686C186.739 177.687 186.279 177.814 185.875 178.053L110.719 221.59C109.636 222.214 108.736 223.112 108.11 224.195C107.484 225.277 107.154 226.506 107.154 227.757V240.994L99.0036 245.631C97.4687 246.48 95.7574 246.96 94.0053 247.032C92.2532 247.104 90.5083 246.768 88.9087 246.048L76.2207 238.722C75.7344 238.488 75.3192 238.129 75.018 237.68C74.7169 237.232 74.5406 236.711 74.5073 236.172L74.461 206.846Z" fill="#191919" stroke="white" stroke-width="0.5" stroke-linecap="round" stroke-linejoin="round"/>
<path d="M92.6592 247.114C91.3436 247.081 90.053 246.748 88.8852 246.141L76.1972 238.815C75.7108 238.581 75.2957 238.221 74.9945 237.773C74.6934 237.325 74.517 236.804 74.4838 236.265V206.846L81.1751 203.856H92.6592V247.114Z" fill="#191919" stroke="white" stroke-width="0.5" stroke-linecap="round" stroke-linejoin="round"/>
<path d="M76.2211 209.327L88.886 216.652C90.4856 217.372 92.2305 217.709 93.9826 217.637C95.7347 217.564 97.446 217.084 98.9809 216.235L199.42 158.279C202.407 156.54 202.731 153.944 200.138 152.437L187.45 145.111C185.857 144.381 184.114 144.038 182.364 144.111C180.614 144.183 178.905 144.669 177.378 145.528L76.9389 203.485C73.9521 205.223 73.6743 207.82 76.2211 209.327Z" fill="#191919" stroke="white" stroke-width="0.5" stroke-linecap="round" stroke-linejoin="round"/>
<path d="M189.441 193.493L174.484 184.614L185.806 178.077C186.212 177.839 186.673 177.714 187.143 177.713C187.613 177.712 188.075 177.835 188.481 178.071C188.888 178.306 189.226 178.645 189.459 179.053C189.693 179.461 189.814 179.924 189.811 180.395V193.284C189.808 193.326 189.795 193.367 189.773 193.403C189.75 193.438 189.719 193.468 189.682 193.488C189.646 193.509 189.604 193.52 189.562 193.521C189.52 193.522 189.478 193.512 189.441 193.493Z" fill="#191919" stroke="white" stroke-width="0.5" stroke-linecap="round" stroke-linejoin="round"/>
<path d="M128.574 180.425L129.802 182.499L108.332 195.242L107.104 193.168L128.574 180.425Z" fill="#191919" stroke="white" stroke-width="0.5" stroke-linecap="round" stroke-linejoin="round"/>
<path d="M178.796 151.116L180.024 153.19L174.946 156.204L173.718 154.131L178.796 151.116Z" fill="#191919" stroke="white" stroke-width="0.5" stroke-linecap="round" stroke-linejoin="round"/>
<path d="M162.42 220.64C163.464 220.64 164.465 220.225 165.204 219.486C165.942 218.746 166.356 217.744 166.356 216.699V180.14C166.356 179.095 165.942 178.092 165.204 177.353C164.465 176.614 163.464 176.199 162.42 176.199C161.376 176.199 160.375 176.614 159.637 177.353C158.899 178.092 158.484 179.095 158.484 180.14V216.652C158.478 217.174 158.575 217.691 158.771 218.175C158.966 218.658 159.255 219.098 159.621 219.469C159.987 219.84 160.423 220.135 160.903 220.335C161.384 220.536 161.9 220.64 162.42 220.64Z" fill="#191919" stroke="white" stroke-width="0.5" stroke-linecap="round" stroke-linejoin="round"/>
<path d="M151.214 142.654C151.593 142.518 151.998 142.468 152.398 142.508C152.799 142.548 153.185 142.677 153.53 142.885L171.381 153.109C175.052 155.209 178.101 158.247 180.216 161.913C182.331 165.578 183.437 169.74 183.421 173.973V192.821C183.419 193.564 183.232 194.294 182.876 194.946C182.52 195.598 182.007 196.151 181.383 196.553H181.244L161.008 208.144C160.952 208.198 160.878 208.228 160.8 208.228C160.722 208.228 160.648 208.198 160.592 208.144L156.655 202.488L144.315 167.32C144.272 167.236 144.208 167.164 144.13 167.111L135.447 163.657C135.377 163.621 135.32 163.565 135.285 163.495L130.932 154.639C130.897 154.561 130.892 154.474 130.918 154.392C130.944 154.311 130.998 154.242 131.071 154.199L151.214 142.654Z" fill="#191919" stroke="white" stroke-width="0.5" stroke-linecap="round" stroke-linejoin="round"/>
<path d="M180.063 161.802L159.874 173.394L145.658 171.191L144.315 167.32C144.272 167.236 144.208 167.164 144.129 167.111L135.447 163.657C135.377 163.621 135.32 163.565 135.285 163.495L130.932 154.639C130.897 154.561 130.892 154.474 130.918 154.392C130.944 154.311 130.998 154.242 131.071 154.199L151.214 142.607C151.593 142.471 151.998 142.421 152.398 142.462C152.799 142.502 153.185 142.631 153.53 142.839L171.381 153.063C174.987 155.167 177.981 158.18 180.063 161.802Z" fill="#191919" stroke="white" stroke-width="0.5" stroke-linecap="round" stroke-linejoin="round"/>
<path d="M151.122 198.153V186.098L129.034 173.371V156.98C129.03 156.487 129.156 156.002 129.399 155.573C129.642 155.145 129.994 154.788 130.419 154.538C130.844 154.289 131.327 154.157 131.82 154.154C132.312 154.151 132.797 154.279 133.224 154.523L151.238 164.839C154.844 166.9 157.843 169.879 159.929 173.474C162.014 177.069 163.114 181.152 163.115 185.31V204.412C163.094 205.216 162.865 206 162.451 206.688C162.036 207.376 161.449 207.945 160.749 208.338C160.048 208.73 159.258 208.934 158.455 208.929C157.652 208.923 156.864 208.709 156.169 208.307L144.986 201.676L151.122 198.153Z" fill="#191919" stroke="white" stroke-width="0.5" stroke-linecap="round" stroke-linejoin="round"/>
<path d="M158.369 159.647H163.972V139.501C163.967 134.67 162.716 129.922 160.338 125.718C157.961 121.514 154.539 117.996 150.404 115.507C148.802 114.548 146.975 114.031 145.109 114.01C143.243 113.988 141.404 114.462 139.781 115.383C138.157 116.304 136.806 117.64 135.866 119.254C134.926 120.868 134.43 122.703 134.428 124.571V131.387C134.445 137.755 136.543 143.943 140.402 149.006L144.824 145.598C141.695 141.522 139.994 136.528 139.985 131.387V124.571C139.982 123.687 140.218 122.817 140.666 122.055C141.114 121.292 141.758 120.664 142.532 120.236C143.286 119.78 144.151 119.539 145.032 119.539C145.914 119.539 146.778 119.78 147.533 120.236C150.853 122.231 153.597 125.055 155.497 128.433C157.397 131.81 158.386 135.625 158.369 139.501V159.647Z" fill="white" stroke="white" stroke-width="0.5" stroke-linecap="round" stroke-linejoin="round"/>
<path d="M161.494 214.867H163.347V235.871H161.494V214.867Z" fill="black"/>
<path d="M151.932 224.442H172.909V226.296H151.932V224.442Z" fill="black"/>
<path d="M169.135 233.483L170.455 232.162L155.706 217.255L154.387 218.553L169.135 233.483Z" fill="black"/>
<path d="M155.637 233.413L170.524 218.646L169.228 217.325L154.317 232.092L155.637 233.413Z" fill="black"/>
<path d="M26.1636 232.834C26.3564 236.427 27.3917 239.923 29.1858 243.041C30.9799 246.158 33.4822 248.809 36.49 250.777C42.1857 254.069 46.8164 251.403 46.8164 244.796C46.6202 241.21 45.583 237.722 43.7889 234.612C41.9948 231.503 39.4943 228.86 36.49 226.899C30.7943 223.584 26.1636 226.25 26.1636 232.834Z" fill="white" stroke="white" stroke-width="0.5" stroke-linecap="round" stroke-linejoin="round"/>
<path d="M34.0358 237.401C34.0871 238.25 34.3357 239.076 34.7618 239.813C35.1878 240.549 35.7796 241.176 36.4901 241.643C37.833 242.431 38.9443 241.782 38.9443 240.229C38.8984 239.378 38.6522 238.55 38.2256 237.813C37.7991 237.076 37.2044 236.45 36.4901 235.987C35.1472 235.198 34.0358 235.824 34.0358 237.401Z" fill="#191919" stroke="white" stroke-width="0.5" stroke-linecap="round" stroke-linejoin="round"/>
<path d="M142.694 300.365C142.834 302.994 143.593 305.554 144.909 307.834C146.225 310.114 148.06 312.051 150.265 313.486C154.432 315.804 157.836 313.95 157.836 309.105C157.69 306.476 156.929 303.919 155.614 301.64C154.298 299.36 152.466 297.423 150.265 295.983C146.074 293.572 142.694 295.52 142.694 300.365Z" fill="#FEFEFE" stroke="white" stroke-width="0.5" stroke-linecap="round" stroke-linejoin="round"/>
<path d="M148.459 303.703C148.496 304.326 148.679 304.932 148.993 305.472C149.306 306.011 149.742 306.469 150.265 306.809C151.261 307.389 152.048 306.809 152.048 305.766C152.015 305.145 151.837 304.54 151.527 304C151.217 303.46 150.785 303.001 150.265 302.66C149.269 302.08 148.459 302.544 148.459 303.703Z" fill="#191919" stroke="white" stroke-width="0.5" stroke-linecap="round" stroke-linejoin="round"/>
<path d="M55.545 239.673L56.3553 239.209C56.8051 238.867 57.3342 238.645 57.8931 238.564C58.452 238.483 59.0223 238.545 59.5505 238.745H59.7126L60.7313 239.348L75.2021 247.601L72.4237 260.699L65.4777 274.609L50.2892 265.915V250.105C50.2954 248.077 50.7737 246.078 51.686 244.267C52.5984 242.456 53.9196 240.883 55.545 239.673Z" fill="#191919" stroke="white" stroke-width="0.3" stroke-linecap="round" stroke-linejoin="round"/>
<path d="M69.043 262.971L68.3484 263.968V264.919L65.4079 274.586L50.1961 265.869V250.105H50.3119L65.5005 258.822L69.043 262.971Z" fill="#191919" stroke="white" stroke-width="0.3" stroke-linecap="round" stroke-linejoin="round"/>
<path d="M65.5705 274.794L73.3963 270.158C74.5302 269.502 75.4716 268.559 76.126 267.424C76.7804 266.289 77.1246 265.001 77.124 263.69V252.099C77.124 248.088 74.8087 246.233 71.683 247.972L70.8726 248.436C69.2145 249.628 67.8585 251.192 66.9135 253.004C65.9686 254.816 65.4611 256.824 65.4316 258.868V274.702L65.5705 274.794Z" fill="#191919" stroke="white" stroke-width="0.3" stroke-linecap="round" stroke-linejoin="round"/>
</g>
<defs>
<clipPath id="clip0_1145_17062">
<rect width="289" height="265" fill="white" transform="matrix(-1 0 0 1 289 114)"/>
</clipPath>
</defs>
</svg>
