<svg width="300" height="424" viewBox="0 0 300 424" fill="none" xmlns="http://www.w3.org/2000/svg">
<rect x="0.5" y="0.5" width="299" height="349" rx="19.5" fill="#191919" stroke="#373737"/>
<path d="M144.603 108.519C144.603 108.519 148.248 116.114 152.501 118.545C156.755 120.975 181.363 123.71 181.363 123.71L185.92 101.229C185.92 101.229 178.021 103.052 174.679 103.356C171.338 103.66 167.692 103.66 167.692 103.66L144.603 108.519Z" fill="#191919" stroke="white" stroke-width="0.6" stroke-miterlimit="10"/>
<path d="M150.374 94.8479C150.374 94.8479 147.337 96.0634 145.513 97.8857C143.69 99.7089 143.69 107.912 144.602 108.519C145.513 109.126 154.931 113.683 156.45 113.683C157.969 113.683 165.868 110.646 167.083 108.822C168.298 106.999 170.121 101.835 168.298 98.7965C166.476 95.7595 152.501 92.4178 150.374 94.8479Z" fill="#191919" stroke="white" stroke-width="0.6" stroke-miterlimit="10"/>
<path d="M152.805 87.2529C152.805 87.2529 146.426 101.228 148.856 105.178C151.286 109.127 156.147 109.735 159.792 107.608C163.438 105.481 164.957 101.531 165.565 100.317C166.173 99.1012 172.898 69.589 172.898 69.589C172.898 69.589 175.632 68.0696 177.152 67.1589C178.671 66.2473 180.195 64.2721 180.195 64.2721C180.195 64.2721 184.445 62.4506 188.392 60.4746C190.514 59.4128 187.33 57.8968 186.419 57.8968C185.507 57.8968 182.317 59.2592 182.317 59.2592V55.9175C182.317 55.9175 174.722 55.9175 171.684 56.2213C168.646 56.5252 165.911 55.9175 163.785 58.0445C161.659 60.1708 160.747 69.589 160.747 69.589L152.805 87.2529Z" fill="#191919" stroke="white" stroke-width="0.6" stroke-miterlimit="10"/>
<path d="M186.418 57.8968C185.507 57.8968 182.316 59.2592 182.316 59.2592V55.9175C182.316 55.9175 174.721 55.9175 171.683 56.2213C168.645 56.5252 165.911 55.9175 163.784 58.0445C161.657 60.1708 160.746 69.589 160.746 69.589L160.637 69.9891C163.018 71.1767 167.127 72.8091 172.381 73.2852C172.7 71.0171 172.899 69.589 172.899 69.589C172.899 69.589 175.633 68.0696 177.152 67.1589C178.671 66.2473 180.196 64.2721 180.196 64.2721C180.196 64.2721 184.446 62.4506 188.392 60.4746C190.514 59.4119 187.33 57.8968 186.418 57.8968Z" fill="#191919" stroke="white" stroke-width="0.6" stroke-miterlimit="10" stroke-linecap="round" stroke-linejoin="round"/>
<path d="M163.786 58.0446C163.786 58.0446 166.84 53.4959 167.903 52.5851C168.965 51.6744 173.67 52.7371 173.67 52.7371C173.67 52.7371 177.464 57.4428 176.403 58.2016C175.34 58.9604 172.153 57.1389 172.153 57.1389L168.51 57.8977" fill="#191919"/>
<path d="M163.786 58.0446C163.786 58.0446 166.84 53.4959 167.903 52.5851C168.965 51.6744 173.67 52.7371 173.67 52.7371C173.67 52.7371 177.464 57.4428 176.403 58.2016C175.34 58.9604 172.153 57.1389 172.153 57.1389L168.51 57.8977" stroke="white" stroke-width="0.3" stroke-miterlimit="10"/>
<path d="M173.669 52.7362C173.669 52.7362 175.794 51.9774 176.553 52.2813C177.312 52.5851 180.044 56.6831 180.196 57.7458C180.348 58.8085 178.375 58.6566 178.375 58.6566L176.401 58.2016L173.669 52.7362Z" fill="#191919" stroke="white" stroke-width="0.3" stroke-miterlimit="10"/>
<path d="M176.553 52.2813C176.553 52.2813 178.678 52.1294 179.589 52.7363C180.5 53.3432 181.554 54.2421 182.317 55.9176C183.08 57.5931 180.197 57.745 180.197 57.745C180.197 57.745 179.134 55.4685 178.679 54.7089C178.222 53.9501 176.553 52.2813 176.553 52.2813Z" fill="#191919" stroke="white" stroke-width="0.3" stroke-miterlimit="10"/>
<path d="M179.588 52.7362C179.588 52.7362 182.168 52.1293 183.079 53.04C183.99 53.9508 185.355 56.3792 184.597 56.9861C183.838 57.593 182.316 55.9175 182.316 55.9175C182.316 55.9175 180.347 52.5842 179.588 52.7362Z" fill="#191919" stroke="white" stroke-width="0.3" stroke-miterlimit="10"/>
<path d="M79.0731 57.2478L79.8243 48.6526L54.037 46.3989L53.2858 54.995L61.6953 55.7293L60.1599 73.2954L51.7512 72.5602L51 81.1562L76.7873 83.4091L77.5386 74.813L69.1299 74.0787L70.6644 56.5135L79.0731 57.2478Z" fill="#191919" stroke="white" stroke-miterlimit="10"/>
<path d="M79.8245 48.6526L291.045 67.0171L289.92 75.5803L79.0732 57.2478L79.8245 48.6526Z" fill="white" stroke="white" stroke-miterlimit="10"/>
<path d="M70.6619 56.4698L69.1279 74.0347L279.965 92.4475L281.499 74.8826L70.6619 56.4698Z" fill="#191919" stroke="white" stroke-miterlimit="10"/>
<path d="M77.5358 74.7698L76.7852 83.3651L287.623 101.778L288.373 93.1826L77.5358 74.7698Z" fill="white" stroke="white" stroke-miterlimit="10"/>
<path d="M81.0085 65.3516C80.9351 66.189 80.1974 66.8085 79.3601 66.7351C78.5227 66.6617 77.9032 65.9239 77.9766 65.0866C78.05 64.2493 78.7878 63.6297 79.6251 63.7032C80.4624 63.7766 81.082 64.5143 81.0085 65.3516Z" fill="white" stroke="white" stroke-miterlimit="10"/>
<path d="M95.7908 66.6432C95.7173 67.4805 94.9796 68.1 94.1423 68.0266C93.305 67.9532 92.6854 67.2154 92.7588 66.3781C92.8323 65.5408 93.57 64.9212 94.4073 64.9947C95.2446 65.0681 95.8642 65.8058 95.7908 66.6432Z" fill="white" stroke="white" stroke-miterlimit="10"/>
<path d="M110.574 67.9347C110.501 68.772 109.763 69.3915 108.925 69.3181C108.088 69.2447 107.469 68.5069 107.542 67.6696C107.615 66.8323 108.353 66.2127 109.191 66.2862C110.028 66.3596 110.647 67.0973 110.574 67.9347Z" fill="white" stroke="white" stroke-miterlimit="10"/>
<path d="M243.236 79.5255C243.163 80.3628 242.425 80.9824 241.588 80.9089C240.75 80.8355 240.131 80.0978 240.204 79.2604C240.278 78.4231 241.015 77.8036 241.853 77.877C242.69 77.9504 243.31 78.6882 243.236 79.5255Z" fill="white" stroke="white" stroke-miterlimit="10"/>
<path d="M258.018 80.8169C257.945 81.6542 257.207 82.2737 256.37 82.2003C255.533 82.1269 254.913 81.3891 254.986 80.5518C255.06 79.7145 255.798 79.095 256.635 79.1684C257.472 79.2418 258.092 79.9795 258.018 80.8169Z" fill="white" stroke="white" stroke-miterlimit="10"/>
<path d="M272.802 82.1084C272.728 82.9457 271.99 83.5652 271.153 83.4918C270.316 83.4184 269.696 82.6807 269.77 81.8433C269.843 81.006 270.581 80.3865 271.418 80.4599C272.255 80.5333 272.875 81.271 272.802 82.1084Z" fill="white" stroke="white" stroke-miterlimit="10"/>
<path d="M173.63 186.949C173.63 186.949 163.185 207.227 161.648 219.516C160.112 231.804 157.961 244.708 159.19 247.473C160.419 250.238 161.956 255.154 162.877 255.769C163.799 256.383 178.239 283.726 179.468 284.955C180.697 286.184 183.154 289.871 183.154 289.871C183.154 289.871 182.233 292.943 182.847 294.172C183.462 295.401 185.92 298.781 185.92 298.781L190.221 303.39C190.221 303.39 196.673 304.311 199.13 301.546C201.588 298.781 202.817 294.173 202.817 292.944C202.817 291.715 204.046 290.486 201.588 287.414C199.13 284.341 196.672 282.498 196.672 282.498C196.672 282.498 188.991 260.377 187.763 255.769C186.534 251.161 182.54 241.637 182.54 241.637L195.443 211.529L205.274 193.71L173.63 186.949Z" fill="#191919" stroke="white" stroke-width="0.4" stroke-miterlimit="10"/>
<path d="M185.919 298.78L188.709 305.599C188.709 305.599 190.685 305.599 185.745 309.387C180.806 313.174 177.513 315.15 177.183 316.467C176.854 317.784 177.347 320.583 177.841 321.242C178.335 321.9 178.5 323.711 185.415 323.382C192.331 323.053 196.282 319.43 198.917 317.125C201.551 314.82 203.856 311.856 203.856 311.856L204.35 313.503C204.35 313.503 205.832 311.856 206.985 310.375C208.138 308.893 209.454 306.258 209.454 305.271C209.454 304.283 205.502 299.673 204.515 297.203C203.526 294.733 202.816 292.944 202.816 292.944C202.816 292.944 200.563 298.026 198.751 299.179C196.94 300.331 195.294 301.155 195.294 301.155C195.294 301.155 193.812 298.521 189.861 298.192C185.91 297.861 185.919 298.78 185.919 298.78Z" fill="#191919" stroke="white" stroke-width="0.4" stroke-miterlimit="10"/>
<path d="M208.33 303.194C206.453 304.895 203.52 308.292 202.047 310.868C200.071 314.325 194.802 319.595 187.886 321.076C183.409 322.036 179.495 320.65 177.283 319.553C177.429 320.312 177.635 320.965 177.842 321.241C178.336 321.899 178.5 323.711 185.416 323.381C192.331 323.052 196.283 319.43 198.918 317.124C201.552 314.819 203.857 311.856 203.857 311.856L204.351 313.502C204.351 313.502 205.833 311.856 206.985 310.374C208.138 308.892 209.455 306.258 209.455 305.27C209.456 304.93 208.983 304.157 208.33 303.194Z" fill="#191919" stroke="white" stroke-width="0.4" stroke-miterlimit="10"/>
<path d="M194.214 194.938L202.509 280.654L202.816 292.942C202.816 292.942 200.972 297.551 201.894 300.009C202.816 302.467 205.274 307.075 205.274 307.075C205.274 307.075 211.111 313.22 213.876 311.683C216.641 310.147 220.635 305.539 220.635 305.539C220.635 305.539 224.629 300.315 224.629 297.243C224.629 294.171 223.093 290.485 223.093 287.105C223.093 283.725 223.093 270.207 223.093 267.135C223.093 264.062 223.708 233.34 223.708 233.34L228.009 190.021C228.009 190.021 219.714 187.563 215.72 187.87C211.726 188.178 194.214 194.938 194.214 194.938Z" fill="#191919" stroke="white" stroke-width="0.4" stroke-miterlimit="10"/>
<path d="M201.895 300.009L202.705 306.258C202.705 306.258 200.564 312.186 199.247 314.326C197.93 316.467 194.473 318.113 192.497 319.266C190.521 320.418 190.191 322.723 191.014 324.699C191.837 326.675 192.661 327.662 195.789 328.486C198.917 329.309 208.632 328.815 211.925 326.84C215.218 324.864 218.018 322.888 218.018 322.888V324.37C218.018 324.37 219.17 323.711 221.146 322.394C223.122 321.076 223.616 319.924 223.616 319.924C223.616 319.924 223.451 312.186 222.958 310.539C222.464 308.892 222.299 308.234 221.97 307.575C221.641 306.917 222.793 300.824 222.793 300.824C222.793 300.824 220.159 304.117 218.676 305.105C217.194 306.093 215.713 306.258 215.054 306.258C214.394 306.258 214.56 302.142 213.736 301.154C212.913 300.166 209.949 299.014 207.643 298.849C205.339 298.684 201.895 300.009 201.895 300.009Z" fill="#191919" stroke="white" stroke-width="0.4" stroke-miterlimit="10"/>
<path d="M219.83 318.113C218.347 319.76 213.079 324.205 203.858 325.852C198.008 326.897 193.491 325.622 190.965 324.55C190.983 324.599 190.994 324.65 191.015 324.699C191.838 326.675 192.661 327.662 195.79 328.486C198.918 329.309 208.632 328.815 211.926 326.84C215.219 324.864 218.018 322.888 218.018 322.888V324.37C218.018 324.37 219.17 323.711 221.146 322.394C223.122 321.076 223.616 319.924 223.616 319.924C223.616 319.924 223.544 316.536 223.351 313.766C222.305 315.115 220.75 317.09 219.83 318.113Z" fill="#191919" stroke="white" stroke-width="0.4" stroke-miterlimit="10"/>
<path d="M183.406 100.329C184.777 98.1956 205.199 92.2525 205.199 92.2525L218.609 92.0997C218.609 92.0997 222.113 93.0147 225.923 93.9288C229.734 94.843 236.896 97.8909 239.792 107.188C242.687 116.483 237.963 128.37 237.963 128.37L229.581 184.301C229.581 184.301 229.535 184.317 229.439 184.348L230.466 196.166L224.014 191.557C224.014 191.557 218.792 194.322 211.418 197.087C204.045 199.853 186.84 199.238 186.84 199.238L183.461 191.864L178.852 198.624L170.25 189.407C172.618 179.463 174.205 168.259 174.871 157.631C174.911 156.988 175.184 154.747 175.565 151.623C176.628 142.898 178.529 127.292 178.529 120.446C178.529 111.15 182.034 102.463 183.406 100.329Z" fill="#191919" stroke="white" stroke-width="0.4" stroke-miterlimit="10" stroke-linecap="round" stroke-linejoin="round"/>
<path d="M198.035 88.4424L200.778 105.816L217.543 89.6621L216.019 84.0237C216.019 84.0237 209.314 89.2055 206.57 90.4243C203.826 91.6432 198.035 88.4424 198.035 88.4424Z" fill="#191919" stroke="white" stroke-width="0.4" stroke-miterlimit="10" stroke-linecap="round" stroke-linejoin="round"/>
<path d="M190.112 62.3824C190.112 62.3824 191.941 54.1527 195.141 50.3434C198.342 46.5332 207.942 44.8569 213.429 46.8379C218.915 48.819 223.03 54.4583 223.791 59.1825C224.553 63.9068 224.705 65.4304 225.163 66.4973C225.62 67.5642 226.23 68.4783 226.23 68.4783L189.654 63.7541L190.112 62.3824Z" fill="#191919" stroke="white" stroke-width="0.4" stroke-miterlimit="10"/>
<path d="M192.397 62.3823C192.397 62.3823 182.186 61.7729 184.472 63.2965C186.758 64.82 187.215 65.5822 196.359 67.1066C205.503 68.6302 216.323 71.2215 216.323 71.2215C216.323 71.2215 220.743 74.8789 225.01 73.66C229.277 72.4412 230.039 71.0696 227.6 68.783C225.163 66.4972 192.397 62.3823 192.397 62.3823Z" fill="#191919" stroke="white" stroke-width="0.4" stroke-miterlimit="10"/>
<path d="M192.949 65.7739C192.949 65.7739 192.55 80.0607 193.464 83.1087C194.378 86.1567 199.255 91.7951 200.779 92.2526C202.303 92.7101 205.046 93.4714 206.57 93.0148C208.094 92.5573 213.885 88.4424 215.256 87.2236C216.628 86.0047 218 82.3465 218 81.4324C218 80.5182 218.609 78.6891 218.609 78.6891C218.609 78.6891 220.59 78.3844 221.352 77.3175C222.114 76.2506 222.114 74.4223 221.505 73.6601C220.896 72.8979 220.133 72.4413 220.133 72.4413L220.286 69.698L192.949 65.7739Z" fill="#191919" stroke="white" stroke-width="0.4" stroke-miterlimit="10" stroke-linecap="round" stroke-linejoin="round"/>
<path d="M212.361 68.6311C212.361 68.6311 213.733 74.727 215.562 75.0317C217.391 75.3364 220.134 72.4413 220.134 72.4413L220.287 69.698L212.361 68.6311Z" fill="#191919" stroke="white" stroke-width="0.4" stroke-miterlimit="10" stroke-linecap="round" stroke-linejoin="round"/>
<path d="M233.416 124.167C233.416 124.167 238.851 120.044 239.413 115.358C239.976 110.673 239.039 103.55 233.228 99.9893C227.418 96.4281 220.109 101.864 218.983 103.738C217.859 105.612 212.423 112.359 212.423 112.359L209.986 114.796L207.924 115.171L200.24 112.359L190.494 124.354C190.494 124.354 206.05 142.159 211.673 142.347C217.295 142.534 226.667 131.851 227.791 130.539C228.918 129.227 233.416 124.167 233.416 124.167Z" fill="#191919" stroke="white" stroke-width="0.4" stroke-miterlimit="10"/>
<path d="M207.927 115.171C207.927 115.171 214.862 118.17 217.86 119.856C220.859 121.543 223.857 124.916 223.857 124.916" fill="#191919"/>
<path d="M207.927 115.171C207.927 115.171 214.862 118.17 217.86 119.856C220.859 121.543 223.857 124.916 223.857 124.916" stroke="white" stroke-width="0.4" stroke-miterlimit="10"/>
<path d="M174.378 86.1195L195.744 108.986L187.498 121.919L169.88 95.8669C169.88 95.8669 167.632 93.9922 165.007 92.6805C162.384 91.3688 159.76 86.4959 159.76 86.4959C159.76 86.4959 154.137 84.2465 152.638 83.3096C151.605 82.6638 151.461 81.4852 151.961 80.9363C152.187 80.6876 152.545 80.5677 153.013 80.6845C154.497 81.0557 158.924 82.5297 159.008 82.558L156.01 78.998C156.01 78.998 153.574 77.3107 152.449 76.1864C152.09 75.8272 151.96 75.468 152.036 75.1638C152.196 74.5154 153.287 74.1164 155.074 74.4991C157.666 75.0545 160.807 77.4398 160.882 77.4971L159.946 75.9999C159.946 75.9999 158.634 73.7504 157.51 72.6261C157.091 72.2075 156.958 71.8929 157.014 71.6627C157.108 71.2741 157.74 71.1262 158.447 71.1262C159.571 71.1262 162.383 72.8127 162.383 72.8127L162.757 71.501C163.132 70.1884 164.632 71.501 166.506 73.1874C168.38 74.8739 171.566 78.8098 171.566 78.8098L174.378 86.1195Z" fill="#191919" stroke="white" stroke-width="0.4" stroke-miterlimit="10"/>
<path d="M162.383 72.8125C162.383 72.8125 165.382 75.8115 166.131 76.3736C166.881 76.9358 167.256 77.8727 167.256 77.8727" fill="#191919"/>
<path d="M162.383 72.8125C162.383 72.8125 165.382 75.8115 166.131 76.3736C166.881 76.9358 167.256 77.8727 167.256 77.8727" stroke="white" stroke-width="0.4" stroke-miterlimit="10"/>
<path d="M160.882 77.4979L163.319 80.3095" stroke="white" stroke-width="0.4" stroke-miterlimit="10"/>
<path d="M196.493 106.362L184.123 120.231L190.496 128.103L202.491 110.86L196.493 106.362Z" fill="#191919" stroke="white" stroke-width="0.4" stroke-miterlimit="10"/>
<g clip-path="url(#clip0_1151_17064)">
<path d="M186.309 207.683L187.143 207.22C187.586 206.874 188.111 206.649 188.667 206.568C189.224 206.487 189.791 206.551 190.315 206.756H190.5L191.496 207.359C191.658 207.359 239.215 235.433 239.909 235.873L237.108 248.948L230.162 275.863C230.162 275.863 230.162 275.863 230.023 275.863L180.914 247.094V218.046C180.951 216.018 181.458 214.027 182.394 212.229C183.33 210.431 184.67 208.875 186.309 207.683Z" fill="#191919" stroke="white" stroke-width="0.3" stroke-linecap="round" stroke-linejoin="round"/>
<path d="M233.751 251.174L233.08 265.083V266.034L230.162 275.701H230.046L180.915 246.955V218.069L230.139 246.955L233.751 251.174Z" fill="#191919" stroke="white" stroke-width="0.5" stroke-linecap="round" stroke-linejoin="round"/>
<path d="M229.954 277.231L231.112 276.837L231.343 276.211L234.307 266.359V265.223L235.024 250.826L234.677 250.409L230.949 246.004L230.695 245.865L181.008 216.586L179.711 217.281V218.069V247.604L180.383 247.998L229.954 277.231ZM231.899 266.034L229.444 274.148L182.073 246.329V220.04L229.375 247.859L232.547 251.73L231.876 265.315L231.899 266.034Z" fill="#191919" stroke="white" stroke-width="0.3" stroke-linecap="round" stroke-linejoin="round"/>
<path d="M230.278 276.002L238.127 271.482C239.261 270.826 240.202 269.884 240.856 268.748C241.511 267.613 241.855 266.325 241.854 265.014V240.325C241.854 236.314 239.423 234.459 236.413 236.198L235.603 236.662C233.942 237.853 232.583 239.416 231.634 241.228C230.685 243.04 230.173 245.049 230.139 247.094V275.933C230.139 275.933 230.232 276.049 230.278 276.002Z" fill="#191919" stroke="white" stroke-width="0.3" stroke-linecap="round" stroke-linejoin="round"/>
<path d="M150.862 338.897L218.4 312.353L253.64 289.518C255.175 288.669 256.886 288.189 258.638 288.117C260.39 288.044 262.135 288.381 263.735 289.101L264.151 289.356L271.283 287.037H278.159V360.294C278.121 361.023 277.886 361.728 277.478 362.332C277.07 362.937 276.505 363.418 275.844 363.725L266.258 369.266V344.623C266.261 344.152 266.14 343.69 265.906 343.281C265.672 342.873 265.335 342.534 264.928 342.299C264.521 342.063 264.06 341.94 263.59 341.941C263.12 341.942 262.659 342.067 262.253 342.305L187.074 385.841C185.995 386.468 185.1 387.367 184.478 388.45C183.856 389.532 183.53 390.759 183.531 392.008V416.605L175.358 421.241C173.823 422.09 172.112 422.57 170.36 422.643C168.608 422.715 166.863 422.378 165.263 421.659L152.599 414.333C152.109 414.103 151.691 413.744 151.39 413.295C151.088 412.846 150.914 412.323 150.885 411.783L150.862 338.897Z" fill="#191919" stroke="white" stroke-width="0.3" stroke-linecap="round" stroke-linejoin="round"/>
<path d="M152.598 341.4L165.286 348.726C166.882 349.445 168.623 349.782 170.371 349.71C172.12 349.637 173.827 349.158 175.358 348.309L275.797 290.352C278.784 288.521 279.108 285.925 276.515 284.418L263.85 277.092C262.253 276.362 260.507 276.019 258.753 276.091C256.999 276.164 255.286 276.65 253.755 277.509L153.316 335.466C150.329 337.297 150.005 339.824 152.598 341.4Z" fill="#191919" stroke="white" stroke-width="0.5" stroke-linecap="round" stroke-linejoin="round"/>
<path d="M169.662 350.952C171.872 350.973 174.049 350.422 175.983 349.352L276.399 291.396C277.248 291.002 277.98 290.393 278.52 289.628C279.06 288.863 279.391 287.97 279.479 287.037C279.448 286.289 279.217 285.563 278.81 284.935C278.402 284.306 277.834 283.8 277.163 283.467L264.498 276.142C262.718 275.307 260.764 274.909 258.798 274.981C256.833 275.054 254.914 275.595 253.199 276.559L152.76 334.515C151.914 334.91 151.186 335.52 150.65 336.285C150.113 337.05 149.787 337.943 149.704 338.874C149.737 339.621 149.969 340.347 150.376 340.975C150.783 341.602 151.351 342.11 152.019 342.444L164.707 349.769C166.23 350.584 167.937 350.991 169.662 350.952ZM259.474 277.231C260.785 277.188 262.084 277.483 263.248 278.089L275.913 285.461C276.445 285.762 277.071 286.272 277.071 286.945C277.071 287.617 276.376 288.521 275.195 289.263L174.756 347.219C173.409 347.966 171.909 348.392 170.371 348.464C168.833 348.537 167.299 348.254 165.888 347.637L153.2 340.311C152.691 340.01 152.066 339.5 152.066 338.827C152.066 338.155 152.76 337.251 153.918 336.509L254.357 278.553C255.924 277.687 257.684 277.232 259.474 277.231Z" fill="#191919" stroke="white" stroke-width="0.5" stroke-linecap="round" stroke-linejoin="round"/>
<path d="M265.818 369.104L248.383 359.112C247.974 358.878 247.632 358.541 247.393 358.135C247.153 357.728 247.024 357.266 247.017 356.794V351.114L262.183 342.328C262.588 342.096 263.046 341.975 263.513 341.977C263.979 341.979 264.437 342.104 264.841 342.339C265.244 342.573 265.578 342.91 265.811 343.315C266.043 343.72 266.165 344.179 266.165 344.646V368.895C266.166 368.936 266.157 368.977 266.137 369.014C266.117 369.05 266.088 369.08 266.053 369.102C266.017 369.123 265.977 369.134 265.935 369.135C265.894 369.135 265.853 369.124 265.818 369.104Z" fill="#191919" stroke="white" stroke-width="0.3" stroke-linecap="round" stroke-linejoin="round"/>
<path d="M20.0682 263.6L87.6065 237.056L122.962 214.244C124.493 213.384 126.205 212.899 127.959 212.826C129.713 212.754 131.46 213.096 133.056 213.827L133.473 214.082L140.581 211.764H147.365V285.02C147.32 285.762 147.068 286.477 146.638 287.083C146.209 287.689 145.618 288.163 144.934 288.452L135.349 294.015V269.349C135.352 268.879 135.23 268.416 134.996 268.007C134.763 267.599 134.425 267.26 134.019 267.025C133.612 266.789 133.15 266.666 132.68 266.667C132.21 266.668 131.749 266.794 131.343 267.031L56.2337 310.568C55.1769 311.192 54.2996 312.079 53.6869 313.144C53.0742 314.208 52.7472 315.413 52.7375 316.642V341.331L44.5644 345.967C43.0331 346.827 41.3209 347.313 39.5668 347.385C37.8128 347.458 36.0664 347.115 34.4695 346.385L21.8047 339.059C21.309 338.838 20.8855 338.481 20.5825 338.03C20.2796 337.579 20.1094 337.052 20.0913 336.509L20.0682 263.6Z" fill="#191919" stroke="white" stroke-width="0.3" stroke-linecap="round" stroke-linejoin="round"/>
<path d="M38.3135 347.451C36.9966 347.408 35.7065 347.067 34.5395 346.454L21.8746 339.129C21.3789 338.907 20.9554 338.551 20.6525 338.1C20.3495 337.649 20.1793 337.122 20.1613 336.579V263.623L26.7368 260.54H38.3135V347.451Z" fill="#191919" stroke="white" stroke-width="0.3" stroke-linecap="round" stroke-linejoin="round"/>
<path d="M144.286 211.601H147.365V284.928C147.317 285.669 147.064 286.382 146.635 286.988C146.206 287.594 145.617 288.068 144.934 288.359L144.216 288.776L144.286 211.601Z" fill="#191919" stroke="white" stroke-width="0.5" stroke-linecap="round" stroke-linejoin="round"/>
<path d="M143.082 290.863L145.606 289.402C146.337 289.041 146.981 288.527 147.496 287.895C148.012 287.263 148.386 286.528 148.593 285.739V210.512H147.296H143.013L143.082 290.863ZM146.254 284.186V285.021C146.245 285.31 146.174 285.594 146.046 285.854C145.918 286.114 145.737 286.343 145.513 286.527V212.83H146.277L146.254 284.186Z" fill="#191919" stroke="white" stroke-width="0.5" stroke-linecap="round" stroke-linejoin="round"/>
<path d="M21.8051 266.103L34.4932 273.452C36.0892 274.174 37.832 274.509 39.5814 274.433C41.3307 274.356 43.0377 273.87 44.5649 273.012L145.004 215.055C147.991 213.34 148.315 210.72 145.722 209.237L133.057 201.888C131.457 201.168 129.712 200.831 127.96 200.904C126.208 200.976 124.497 201.456 122.962 202.305L22.5229 260.261C19.5361 262 19.212 264.62 21.8051 266.103Z" fill="#191919" stroke="white" stroke-width="0.5" stroke-linecap="round" stroke-linejoin="round"/>
<path d="M38.8692 275.655C41.0684 275.676 43.2363 275.133 45.167 274.078L145.606 216.122C146.452 215.731 147.181 215.125 147.722 214.364C148.262 213.604 148.594 212.715 148.686 211.787C148.659 211.034 148.43 210.303 148.023 209.671C147.615 209.038 147.044 208.528 146.37 208.193L133.659 200.729C131.878 199.894 129.924 199.496 127.959 199.568C125.994 199.641 124.075 200.182 122.36 201.146L21.921 259.218C21.0722 259.606 20.3405 260.211 19.7999 260.972C19.2592 261.733 18.9286 262.623 18.8416 263.553C18.8696 264.302 19.0996 265.03 19.5073 265.658C19.9149 266.287 20.485 266.793 21.1569 267.124L33.8218 274.472C35.374 275.297 37.113 275.704 38.8692 275.655ZM128.612 202.004C129.922 201.961 131.222 202.256 132.386 202.861L145.05 210.187C145.49 210.419 146.208 210.952 146.185 211.671C146.162 212.389 145.49 213.247 144.333 213.989L43.8935 271.946C42.5467 272.692 41.0461 273.118 39.5083 273.191C37.9705 273.263 36.4367 272.98 35.0258 272.363L22.3378 265.037C21.921 264.805 21.2033 264.272 21.2033 263.553C21.2033 262.835 21.8979 261.977 23.0555 261.235L123.495 203.279C125.065 202.426 126.826 201.988 128.612 202.004Z" fill="#191919" stroke="white" stroke-width="0.5" stroke-linecap="round" stroke-linejoin="round"/>
<path d="M135.002 293.807L117.59 283.838C117.178 283.605 116.833 283.269 116.59 282.863C116.346 282.457 116.212 281.994 116.201 281.52V275.84L131.39 267.031C131.795 266.799 132.254 266.678 132.72 266.68C133.187 266.682 133.644 266.807 134.048 267.042C134.451 267.276 134.786 267.613 135.018 268.018C135.25 268.423 135.373 268.882 135.372 269.349V293.621C135.372 293.664 135.36 293.706 135.337 293.743C135.315 293.78 135.283 293.809 135.244 293.829C135.206 293.848 135.163 293.856 135.12 293.852C135.077 293.848 135.036 293.833 135.002 293.807Z" fill="#191919" stroke="white" stroke-width="0.5" stroke-linecap="round" stroke-linejoin="round"/>
<path d="M135.141 295.059C135.384 295.055 135.622 294.991 135.835 294.873C136.059 294.749 136.245 294.568 136.376 294.348C136.506 294.128 136.575 293.877 136.576 293.621V269.349C136.577 268.67 136.399 268.004 136.061 267.416C135.722 266.827 135.236 266.339 134.65 265.998C134.063 265.658 133.398 265.477 132.72 265.476C132.042 265.474 131.376 265.65 130.788 265.988L114.997 275.261V281.566C115.023 282.248 115.225 282.911 115.582 283.491C115.939 284.072 116.439 284.551 117.035 284.881L134.4 294.85C134.623 294.986 134.879 295.058 135.141 295.059ZM132.825 267.889C133.076 267.89 133.323 267.953 133.543 268.074C133.77 268.2 133.959 268.385 134.089 268.609C134.22 268.834 134.287 269.089 134.284 269.349V291.952L118.308 282.679C118.073 282.543 117.878 282.347 117.744 282.111C117.61 281.874 117.541 281.606 117.544 281.334V276.536L132.108 268.074C132.298 267.992 132.503 267.953 132.71 267.958L132.825 267.889Z" fill="#191919" stroke="white" stroke-width="0.5" stroke-linecap="round" stroke-linejoin="round"/>
<path d="M118.956 276.072H121.364V280.824H118.956V276.072Z" fill="#191919" stroke="white" stroke-width="0.5" stroke-linecap="round" stroke-linejoin="round"/>
<path d="M5.22675 256.181C5.21515 256.066 5.21515 255.949 5.22675 255.834V232.303L25.9258 230.217V237.821L81.4939 205.643C91.1488 200.08 105.735 199.477 114.094 204.299L267.207 292.694L266.443 288.822H291.796V311.634C291.935 315.297 289.249 319.354 283.738 322.484L215.39 362.033C205.758 367.597 191.171 368.223 182.813 363.378L10.8299 263.971C9.31622 263.263 8.0076 262.18 7.02731 260.825C6.04703 259.471 5.42737 257.889 5.22675 256.228V256.181Z" fill="#191919" stroke="white" stroke-width="0.3" stroke-linecap="round" stroke-linejoin="round"/>
<path d="M209.648 364.583C207.294 365.352 204.877 365.91 202.425 366.252V313.234H209.648V364.583Z" fill="#191919" stroke="white" stroke-width="0.3" stroke-linecap="round" stroke-linejoin="round"/>
<path d="M283.993 288.452H291.796V311.263C291.934 314.996 289.295 318.96 283.993 322.113V288.452Z" fill="#191919" stroke="white" stroke-width="0.3" stroke-linecap="round" stroke-linejoin="round"/>
<path d="M25.9262 237.821L81.4943 205.643C91.1492 200.056 105.736 199.454 114.094 204.276L195.131 251.128V366.623C190.802 366.534 186.554 365.439 182.721 363.424L10.7377 263.994C9.25648 263.284 7.9763 262.214 7.01381 260.882C6.05132 259.55 5.4371 257.997 5.22714 256.367C5.2155 256.243 5.2155 256.119 5.22714 255.996V232.35L25.9262 230.263V237.821Z" fill="#191919" stroke="white" stroke-width="0.3" stroke-linecap="round" stroke-linejoin="round"/>
<path d="M10.8304 240.95L182.813 340.357C191.172 345.179 205.758 344.577 215.39 339.013L283.739 299.463C293.394 293.876 294.436 285.554 286.054 280.616L114.187 181.209C105.829 176.387 91.242 176.99 81.5871 182.554L13.1689 222.103C3.58347 227.69 2.49524 236.128 10.8304 240.95Z" fill="#191919" stroke="white" stroke-width="0.3" stroke-linecap="round" stroke-linejoin="round"/>
<path d="M23.7036 235.688L191.936 332.869C193.747 333.702 195.73 334.094 197.722 334.014C199.714 333.933 201.658 333.382 203.397 332.406L272.463 292.532C275.867 290.561 276.237 287.594 273.297 285.878L105.064 188.651C103.236 187.804 101.233 187.404 99.2203 187.485C97.2075 187.566 95.2427 188.124 93.4878 189.114L24.4214 229.058C21.1336 231.005 20.7632 233.972 23.7036 235.688Z" fill="white" stroke="white" stroke-width="0.5" stroke-linecap="round" stroke-linejoin="round"/>
<path d="M273.505 291.998C273.44 291.939 273.371 291.885 273.297 291.836L105.065 194.585C103.234 193.744 101.23 193.349 99.2178 193.434C97.2054 193.519 95.2417 194.08 93.488 195.072L24.4216 234.992C24.0546 235.202 23.706 235.442 23.3797 235.711C20.6939 233.996 21.0643 231.075 24.4216 229.22L93.6037 189.3C95.3568 188.304 97.3221 187.742 99.3359 187.662C101.35 187.581 103.354 187.984 105.18 188.836L273.297 286.064C275.89 287.571 275.89 290.074 273.505 291.998Z" fill="#191919" stroke="white" stroke-width="0.5" stroke-linecap="round" stroke-linejoin="round"/>
<path d="M23.2174 226.229L93.6035 189.137C96.9839 187.19 126.018 196.973 128.936 198.689V202.421L48.6629 250.108L23.7268 235.688C20.7631 233.972 19.7907 228.177 23.2174 226.229Z" fill="#191919" stroke="white" stroke-width="0.5" stroke-linecap="round" stroke-linejoin="round"/>
<path d="M24.4215 225.279L93.6037 185.359C95.3574 184.366 97.3211 183.805 99.3335 183.72C101.346 183.636 103.35 184.03 105.18 184.872L129.028 198.665L48.7788 246.306L23.8427 231.886C20.7633 230.217 21.1338 227.249 24.4215 225.279Z" fill="white" stroke="white" stroke-width="0.5" stroke-linecap="round" stroke-linejoin="round"/>
<path d="M253.816 291.786L255.048 293.858L232.568 307.259L231.336 305.188L253.816 291.786Z" fill="#191919" stroke="#191919" stroke-width="0.5" stroke-linecap="round" stroke-linejoin="round"/>
<path d="M22.4762 258.716C22.5416 259.855 22.8733 260.962 23.4443 261.948C24.0154 262.935 24.81 263.773 25.764 264.396C27.5699 265.462 29.0518 264.605 29.0518 262.518C28.9899 261.376 28.66 260.264 28.0887 259.273C27.5175 258.282 26.721 257.44 25.764 256.815C23.958 255.772 22.4762 256.607 22.4762 258.716Z" fill="#191919" stroke="white" stroke-width="0.3" stroke-linecap="round" stroke-linejoin="round"/>
<path d="M200.248 304.772L193.997 282.795C193.001 280.848 185.129 279.063 183.23 280.152L157.299 295.151C156.153 295.811 155.3 296.882 154.913 298.147C154.526 299.413 154.634 300.778 155.215 301.967L167.532 325.15C168.528 327.143 175.844 330.505 177.743 329.369L198.28 311.634C199.422 310.959 200.263 309.872 200.629 308.595C200.995 307.319 200.858 305.951 200.248 304.772Z" fill="#191919" stroke="white" stroke-width="0.5" stroke-linecap="round" stroke-linejoin="round"/>
<path d="M206.499 306.905L194.783 283.838C194.55 283.378 194.226 282.97 193.83 282.639C193.435 282.309 192.976 282.062 192.482 281.914C191.988 281.767 191.469 281.722 190.957 281.781C190.445 281.841 189.951 282.005 189.504 282.262L163.549 297.284C162.413 297.947 161.568 299.014 161.182 300.273C160.796 301.531 160.897 302.889 161.466 304.077L173.806 327.259C174.036 327.731 174.362 328.15 174.762 328.489C175.163 328.829 175.63 329.08 176.133 329.229C176.636 329.377 177.165 329.419 177.685 329.351C178.206 329.283 178.706 329.108 179.155 328.835L204.623 313.744C205.744 313.054 206.56 311.964 206.909 310.695C207.257 309.425 207.11 308.07 206.499 306.905Z" fill="#191919" stroke="white" stroke-width="0.5" stroke-linecap="round" stroke-linejoin="round"/>
<path d="M183.508 228.548L208.051 214.36C211.334 212.25 214.065 209.383 216.015 205.999C217.964 202.615 219.076 198.812 219.257 194.91C219.39 193.202 219.066 191.489 218.317 189.948C217.568 188.408 216.422 187.095 214.997 186.147C213.461 185.384 211.75 185.046 210.04 185.168C208.33 185.29 206.684 185.868 205.272 186.842L180.73 201.03L183.508 205.852L208.051 191.664C208.63 191.206 209.316 190.901 210.045 190.78C210.774 190.658 211.521 190.723 212.218 190.969C212.771 191.452 213.195 192.065 213.454 192.753C213.713 193.44 213.797 194.182 213.7 194.91C213.516 197.833 212.659 200.675 211.198 203.212C209.736 205.75 207.708 207.915 205.272 209.538L180.73 223.726L183.508 228.548Z" fill="white" stroke="white" stroke-width="0.5" stroke-linecap="round" stroke-linejoin="round"/>
<path d="M95.1318 283.676L116.224 306.65C119.482 310.224 123.204 313.343 127.292 315.923L137.873 322.437C138.897 323.061 139.742 323.94 140.326 324.988C140.911 326.036 141.214 327.218 141.207 328.418C141.204 328.856 141.085 329.284 140.863 329.661C140.641 330.038 140.324 330.349 139.943 330.563C139.562 330.777 139.132 330.887 138.695 330.881C138.258 330.874 137.831 330.753 137.456 330.528L128.727 325.15C122.699 321.434 117.207 316.91 112.404 311.704L86.3335 283.676L82.1659 278.506L95.1318 283.676Z" fill="#191919" stroke="white" stroke-width="0.3" stroke-linecap="round" stroke-linejoin="round"/>
<path d="M78.461 251.846L156.673 216.725L181.378 202.444C182.908 201.595 184.616 201.116 186.364 201.043C188.113 200.971 189.854 201.308 191.449 202.027L191.889 202.282L198.997 199.964H205.781V229.637C205.744 230.366 205.508 231.071 205.1 231.675C204.692 232.28 204.127 232.761 203.466 233.068L193.857 238.609V225.372C193.865 224.902 193.747 224.439 193.517 224.029C193.286 223.62 192.951 223.28 192.545 223.044C192.139 222.808 191.678 222.684 191.209 222.686C190.739 222.687 190.279 222.814 189.875 223.053L114.719 266.59C113.636 267.214 112.736 268.112 112.11 269.195C111.484 270.277 111.154 271.506 111.154 272.757V285.994L103.004 290.631C101.469 291.48 99.7574 291.96 98.0053 292.032C96.2532 292.104 94.5083 291.768 92.9087 291.048L80.2207 283.722C79.7344 283.488 79.3192 283.129 79.018 282.68C78.7169 282.232 78.5406 281.711 78.5073 281.172L78.461 251.846Z" fill="#191919" stroke="white" stroke-width="0.5" stroke-linecap="round" stroke-linejoin="round"/>
<path d="M96.6592 292.114C95.3436 292.081 94.053 291.748 92.8852 291.141L80.1972 283.815C79.7108 283.581 79.2957 283.221 78.9945 282.773C78.6934 282.325 78.517 281.804 78.4838 281.265V251.846L85.1751 248.856H96.6592V292.114Z" fill="#191919" stroke="white" stroke-width="0.5" stroke-linecap="round" stroke-linejoin="round"/>
<path d="M80.2211 254.327L92.886 261.652C94.4856 262.372 96.2305 262.709 97.9826 262.637C99.7347 262.564 101.446 262.084 102.981 261.235L203.42 203.279C206.407 201.54 206.731 198.944 204.138 197.437L191.45 190.111C189.857 189.381 188.114 189.038 186.364 189.111C184.614 189.183 182.905 189.669 181.378 190.528L80.9389 248.485C77.9521 250.223 77.6743 252.82 80.2211 254.327Z" fill="#191919" stroke="white" stroke-width="0.5" stroke-linecap="round" stroke-linejoin="round"/>
<path d="M193.441 238.493L178.484 229.614L189.806 223.077C190.212 222.839 190.673 222.714 191.143 222.713C191.613 222.712 192.075 222.835 192.481 223.071C192.888 223.306 193.226 223.645 193.459 224.053C193.693 224.461 193.814 224.924 193.811 225.395V238.284C193.808 238.326 193.795 238.367 193.773 238.403C193.75 238.438 193.719 238.468 193.682 238.488C193.646 238.509 193.604 238.52 193.562 238.521C193.52 238.522 193.478 238.512 193.441 238.493Z" fill="#191919" stroke="white" stroke-width="0.5" stroke-linecap="round" stroke-linejoin="round"/>
<path d="M132.574 225.425L133.802 227.499L112.332 240.242L111.104 238.168L132.574 225.425Z" fill="#191919" stroke="white" stroke-width="0.5" stroke-linecap="round" stroke-linejoin="round"/>
<path d="M182.796 196.116L184.024 198.19L178.946 201.204L177.718 199.131L182.796 196.116Z" fill="#191919" stroke="white" stroke-width="0.5" stroke-linecap="round" stroke-linejoin="round"/>
<path d="M166.42 265.64C167.464 265.64 168.465 265.225 169.204 264.486C169.942 263.746 170.356 262.744 170.356 261.699V225.14C170.356 224.095 169.942 223.092 169.204 222.353C168.465 221.614 167.464 221.199 166.42 221.199C165.376 221.199 164.375 221.614 163.637 222.353C162.899 223.092 162.484 224.095 162.484 225.14V261.652C162.478 262.174 162.575 262.691 162.771 263.175C162.966 263.658 163.255 264.098 163.621 264.469C163.987 264.84 164.423 265.135 164.903 265.335C165.384 265.536 165.9 265.64 166.42 265.64Z" fill="#191919" stroke="white" stroke-width="0.5" stroke-linecap="round" stroke-linejoin="round"/>
<path d="M155.214 187.654C155.593 187.518 155.998 187.468 156.398 187.508C156.799 187.548 157.185 187.677 157.53 187.885L175.381 198.109C179.052 200.209 182.101 203.247 184.216 206.913C186.331 210.578 187.437 214.74 187.421 218.973V237.821C187.419 238.564 187.232 239.294 186.876 239.946C186.52 240.598 186.007 241.151 185.383 241.553H185.244L165.008 253.144C164.952 253.198 164.878 253.228 164.8 253.228C164.722 253.228 164.648 253.198 164.592 253.144L160.655 247.488L148.315 212.32C148.272 212.236 148.208 212.164 148.13 212.111L139.447 208.657C139.377 208.621 139.32 208.565 139.285 208.495L134.932 199.639C134.897 199.561 134.892 199.474 134.918 199.392C134.944 199.311 134.998 199.242 135.071 199.199L155.214 187.654Z" fill="#191919" stroke="white" stroke-width="0.5" stroke-linecap="round" stroke-linejoin="round"/>
<path d="M184.063 206.802L163.874 218.394L149.658 216.191L148.315 212.32C148.272 212.236 148.208 212.164 148.129 212.111L139.447 208.657C139.377 208.621 139.32 208.565 139.285 208.495L134.932 199.639C134.897 199.561 134.892 199.474 134.918 199.392C134.944 199.311 134.998 199.242 135.071 199.199L155.214 187.607C155.593 187.471 155.998 187.421 156.398 187.462C156.799 187.502 157.185 187.631 157.53 187.839L175.381 198.063C178.987 200.167 181.981 203.18 184.063 206.802Z" fill="#191919" stroke="white" stroke-width="0.5" stroke-linecap="round" stroke-linejoin="round"/>
<path d="M155.122 243.153V231.098L133.034 218.371V201.98C133.03 201.487 133.156 201.002 133.399 200.573C133.642 200.145 133.994 199.788 134.419 199.538C134.844 199.289 135.327 199.157 135.82 199.154C136.312 199.151 136.797 199.279 137.224 199.523L155.238 209.839C158.844 211.9 161.843 214.879 163.929 218.474C166.014 222.069 167.114 226.152 167.115 230.31V249.412C167.094 250.216 166.865 251 166.451 251.688C166.036 252.376 165.449 252.945 164.749 253.338C164.048 253.73 163.258 253.934 162.455 253.929C161.652 253.923 160.864 253.709 160.169 253.307L148.986 246.676L155.122 243.153Z" fill="#191919" stroke="white" stroke-width="0.5" stroke-linecap="round" stroke-linejoin="round"/>
<path d="M162.369 204.647H167.972V184.501C167.967 179.67 166.716 174.922 164.338 170.718C161.961 166.514 158.539 162.996 154.404 160.507C152.802 159.548 150.975 159.031 149.109 159.01C147.243 158.988 145.404 159.462 143.781 160.383C142.157 161.304 140.806 162.64 139.866 164.254C138.926 165.868 138.43 167.703 138.428 169.571V176.387C138.445 182.755 140.543 188.943 144.402 194.006L148.824 190.598C145.695 186.522 143.994 181.528 143.985 176.387V169.571C143.982 168.687 144.218 167.817 144.666 167.055C145.114 166.292 145.758 165.664 146.532 165.236C147.286 164.78 148.151 164.539 149.032 164.539C149.914 164.539 150.778 164.78 151.533 165.236C154.853 167.231 157.597 170.055 159.497 173.433C161.397 176.81 162.386 180.625 162.369 184.501V204.647Z" fill="white" stroke="white" stroke-width="0.5" stroke-linecap="round" stroke-linejoin="round"/>
<path d="M165.494 259.867H167.347V280.871H165.494V259.867Z" fill="black"/>
<path d="M155.932 269.442H176.909V271.296H155.932V269.442Z" fill="black"/>
<path d="M173.135 278.483L174.455 277.162L159.706 262.255L158.387 263.553L173.135 278.483Z" fill="black"/>
<path d="M159.637 278.413L174.524 263.646L173.228 262.325L158.317 277.092L159.637 278.413Z" fill="black"/>
<path d="M30.1636 277.834C30.3564 281.427 31.3917 284.923 33.1858 288.041C34.9799 291.158 37.4822 293.809 40.49 295.777C46.1857 299.069 50.8164 296.403 50.8164 289.796C50.6202 286.21 49.583 282.722 47.7889 279.612C45.9948 276.503 43.4943 273.86 40.49 271.899C34.7943 268.584 30.1636 271.25 30.1636 277.834Z" fill="white" stroke="white" stroke-width="0.5" stroke-linecap="round" stroke-linejoin="round"/>
<path d="M38.0358 282.401C38.0871 283.25 38.3357 284.076 38.7618 284.813C39.1878 285.549 39.7796 286.176 40.4901 286.643C41.833 287.431 42.9443 286.782 42.9443 285.229C42.8984 284.378 42.6522 283.55 42.2256 282.813C41.7991 282.076 41.2044 281.45 40.4901 280.987C39.1472 280.198 38.0358 280.824 38.0358 282.401Z" fill="#191919" stroke="white" stroke-width="0.5" stroke-linecap="round" stroke-linejoin="round"/>
<path d="M146.694 345.365C146.834 347.994 147.593 350.554 148.909 352.834C150.225 355.114 152.06 357.051 154.265 358.486C158.432 360.804 161.836 358.95 161.836 354.105C161.69 351.476 160.929 348.919 159.614 346.64C158.298 344.36 156.466 342.423 154.265 340.983C150.074 338.572 146.694 340.52 146.694 345.365Z" fill="#FEFEFE" stroke="white" stroke-width="0.5" stroke-linecap="round" stroke-linejoin="round"/>
<path d="M152.459 348.703C152.496 349.326 152.679 349.932 152.993 350.472C153.306 351.011 153.742 351.469 154.265 351.809C155.261 352.389 156.048 351.809 156.048 350.766C156.015 350.145 155.837 349.54 155.527 349C155.217 348.46 154.785 348.001 154.265 347.66C153.269 347.08 152.459 347.544 152.459 348.703Z" fill="#191919" stroke="white" stroke-width="0.5" stroke-linecap="round" stroke-linejoin="round"/>
<path d="M59.545 284.673L60.3553 284.209C60.8051 283.867 61.3342 283.645 61.8931 283.564C62.452 283.483 63.0223 283.545 63.5505 283.745H63.7126L64.7313 284.348L79.2021 292.601L76.4237 305.699L69.4777 319.609L54.2892 310.915V295.105C54.2954 293.077 54.7737 291.078 55.686 289.267C56.5984 287.456 57.9196 285.883 59.545 284.673Z" fill="#191919" stroke="white" stroke-width="0.3" stroke-linecap="round" stroke-linejoin="round"/>
<path d="M73.043 307.971L72.3484 308.968V309.919L69.4079 319.586L54.1961 310.869V295.105H54.3119L69.5005 303.822L73.043 307.971Z" fill="#191919" stroke="white" stroke-width="0.3" stroke-linecap="round" stroke-linejoin="round"/>
<path d="M69.5705 319.794L77.3963 315.158C78.5302 314.502 79.4716 313.559 80.126 312.424C80.7804 311.289 81.1246 310.001 81.124 308.69V297.099C81.124 293.088 78.8087 291.233 75.683 292.972L74.8726 293.436C73.2145 294.628 71.8585 296.192 70.9135 298.004C69.9686 299.816 69.4611 301.824 69.4316 303.868V319.702L69.5705 319.794Z" fill="#191919" stroke="white" stroke-width="0.3" stroke-linecap="round" stroke-linejoin="round"/>
</g>
<defs>
<clipPath id="clip0_1151_17064">
<rect width="289" height="265" fill="white" transform="matrix(-1 0 0 1 293 159)"/>
</clipPath>
</defs>
</svg>
