<?xml version="1.0" encoding="utf-8"?>
<!-- Generator: Adobe Illustrator 26.3.1, SVG Export Plug-In . SVG Version: 6.00 Build 0)  -->
<svg version="1.1" id="Layer_1" xmlns="http://www.w3.org/2000/svg" xmlns:xlink="http://www.w3.org/1999/xlink" x="0px" y="0px"
	 viewBox="0 0 300 401" style="enable-background:new 0 0 300 401;" xml:space="preserve">
<style type="text/css">
	.st0{fill:#191919;stroke:#6C6C6C;}
	.st1{fill-rule:evenodd;clip-rule:evenodd;fill:#212121;}
	.st2{fill:#FFFFFF;}
	.st3{fill:#212121;}
	.st4{fill:#FFFFFF;filter:url(#Adobe_OpacityMaskFilter);}
	.st5{mask:url(#path-11-inside-1_1663_7319_00000150815524487342946310000004010358307459163776_);}
	.st6{fill-rule:evenodd;clip-rule:evenodd;fill:#FFFFFF;}
	.st7{opacity:0.5;}
	.st8{opacity:0.5;enable-background:new    ;}
	.st9{fill:#FFFFFF;filter:url(#Adobe_OpacityMaskFilter_00000124132691141822249490000012154042631451887010_);}
	.st10{mask:url(#path-48-inside-3_1663_7319_00000105398123174010977050000014466758701565355686_);}
	.st11{fill:#FFFFFF;filter:url(#Adobe_OpacityMaskFilter_00000070827458708513791750000003280362108749181609_);}
	.st12{mask:url(#path-72-inside-4_1663_7319_00000183938382041686580140000005754351807833717384_);}
	.st13{opacity:0.6;}
	.st14{fill:#FFFFFF;filter:url(#Adobe_OpacityMaskFilter_00000141421555001256121670000011775309819263284900_);}
	.st15{mask:url(#path-91-inside-5_1663_7319_00000037682438968933443660000013031573087480968582_);}
	.st16{fill:#FFFFFF;filter:url(#Adobe_OpacityMaskFilter_00000116230666984586333280000005938346854548848018_);}
	.st17{mask:url(#path-93-inside-6_1663_7319_00000055698231535824112880000007090758301119775873_);}
</style>
<path class="st0" d="M280,0.5H20C9.2,0.5,0.5,9.2,0.5,20v310c0,10.8,8.7,19.5,19.5,19.5h260c10.8,0,19.5-8.7,19.5-19.5V20
	C299.5,9.2,290.8,0.5,280,0.5z"/>
<g>
	<path class="st1" d="M159.7,117.9l40,21.8l22.4-34.8c2.6-4,7.8-5.1,11.8-2.5c4,2.5,5.1,7.8,2.5,11.8l-24,37.3c0,0-0.1,0.1-0.1,0.1
		c-1.9,2.9-4.8,4.9-8.2,5.7c-3.3,0.8-6.9,0.4-9.9-1.1c0,0-0.1-0.1-0.1-0.1l-35.9-19.6"/>
	<path class="st2" d="M200.6,158.3c-2.3,0-4.6-0.6-6.7-1.6l-0.2-0.1L157.9,137c-0.2-0.1-0.3-0.4-0.2-0.7c0.1-0.2,0.4-0.3,0.7-0.2
		l36,19.7c2.9,1.5,6.3,1.9,9.6,1.1c3.2-0.8,6-2.8,7.9-5.5l0.1-0.1l24-37.3c1.2-1.8,1.6-3.9,1.1-6c-0.5-2.1-1.7-3.9-3.5-5
		c-3.7-2.4-8.7-1.3-11.1,2.4L200,140c-0.1,0.2-0.4,0.3-0.7,0.2l-40-21.8c-0.2-0.1-0.3-0.4-0.2-0.7c0.1-0.2,0.4-0.3,0.7-0.2
		l39.6,21.6l22.2-34.4c2.7-4.2,8.3-5.4,12.5-2.7c2,1.3,3.4,3.3,3.9,5.7c0.5,2.4,0.1,4.8-1.2,6.8l-24.1,37.4c-2,3-5,5.1-8.5,5.9
		C203,158.1,201.8,158.3,200.6,158.3z"/>
</g>
<g>
	<path class="st1" d="M220.4,131.8c3.1-0.7,6.2,1.1,7,4.1l19.2,75.9c0.8,3-1.1,6-4.2,6.7c-3.1,0.7-6.2-1.1-7-4.1l-19.2-75.9
		C215.4,135.5,217.3,132.5,220.4,131.8z"/>
	<path class="st2" d="M240.9,219.1c-2.8,0-5.4-1.9-6.1-4.6l-19.2-75.9c-0.4-1.5-0.1-3.1,0.7-4.5c0.9-1.4,2.3-2.4,3.9-2.8l0,0
		c3.4-0.8,6.7,1.2,7.6,4.4l19.2,75.9c0.4,1.5,0.1,3.1-0.7,4.5c-0.9,1.4-2.3,2.4-3.9,2.8C241.9,219,241.4,219.1,240.9,219.1z
		 M221.7,132.1c-0.4,0-0.8,0-1.2,0.1l0,0c-1.4,0.3-2.6,1.2-3.3,2.4c-0.7,1.1-0.9,2.4-0.6,3.7l19.2,75.9c0.7,2.7,3.5,4.4,6.4,3.7
		c1.4-0.3,2.6-1.2,3.3-2.4c0.7-1.1,0.9-2.4,0.6-3.7L226.8,136C226.3,133.7,224.1,132.1,221.7,132.1z M220.4,131.8L220.4,131.8
		L220.4,131.8z"/>
</g>
<g>
	<path class="st1" d="M208.7,135.8c0.6-2.6-1-5.2-3.6-5.8s-5.2,1-5.8,3.6l0,0c-0.7-0.9-1.7-1.6-2.8-1.8c-2.6-0.6-5.3,1-5.9,3.6
		l-20.1,84.5c-0.6,2.6,1,5.1,3.7,5.7c2.3,0.5,4.5-0.6,5.5-2.5c0.6,1.3,1.8,2.3,3.3,2.7c2.6,0.6,5.2-1,5.8-3.6L208.7,135.8z"/>
</g>
<g>
	<path class="st2" d="M208.7,135.8l0.5,0.1l0,0L208.7,135.8z M199.2,133.6l-0.5-0.1l0,0L199.2,133.6z M199.2,133.6l-0.4,0.3
		c0.1,0.2,0.3,0.2,0.5,0.2c0.2,0,0.3-0.2,0.4-0.4L199.2,133.6z M196.4,131.7l0.1-0.5L196.4,131.7z M190.5,135.3l0.5,0.1l0,0
		L190.5,135.3z M170.4,219.8l-0.5-0.1l0,0L170.4,219.8z M174.1,225.5L174,226l0,0L174.1,225.5z M179.6,223l0.5-0.2
		c-0.1-0.2-0.3-0.3-0.4-0.3c-0.2,0-0.4,0.1-0.5,0.3L179.6,223z M182.9,225.6l-0.1,0.5l0,0L182.9,225.6z M188.7,222l-0.5-0.1l0,0
		L188.7,222z M204.9,130.4c2.4,0.5,3.8,2.9,3.3,5.2l1,0.2c0.7-2.9-1.1-5.8-4-6.4L204.9,130.4z M199.7,133.7c0.5-2.4,2.9-3.8,5.2-3.3
		l0.2-1c-2.9-0.7-5.8,1.1-6.4,4L199.7,133.7z M199.7,133.7L199.7,133.7l-1-0.2l0,0L199.7,133.7z M196.2,132.2c1.1,0.2,2,0.8,2.6,1.6
		l0.8-0.6c-0.7-1-1.8-1.7-3.1-2L196.2,132.2z M191,135.4c0.5-2.3,2.9-3.7,5.3-3.2l0.2-1c-2.9-0.7-5.8,1.1-6.5,3.9L191,135.4z
		 M170.9,219.9l20.1-84.5l-1-0.2l-20.1,84.5L170.9,219.9z M174.2,225c-2.4-0.5-3.8-2.8-3.3-5.1l-1-0.2c-0.7,2.8,1.1,5.7,4,6.3
		L174.2,225z M179.1,222.7c-0.9,1.7-2.9,2.7-4.9,2.3l-0.2,1c2.5,0.6,5-0.7,6.1-2.8L179.1,222.7z M183,225.1c-1.3-0.3-2.4-1.2-3-2.4
		l-0.9,0.4c0.7,1.4,2,2.5,3.6,2.9L183,225.1z M188.2,221.8c-0.5,2.3-2.9,3.8-5.2,3.3l-0.2,1c2.9,0.7,5.8-1.1,6.4-4L188.2,221.8z
		 M208.2,135.6l-20,86.2l1,0.2l20-86.2L208.2,135.6z"/>
</g>
<g>
	<path class="st1" d="M223.1,134c-0.3-2.9-3-5-5.9-4.6c-2.6,0.3-4.6,2.5-4.7,5.1l-0.1-0.5c-0.3-2.9-3-5-5.9-4.6
		c-2.9,0.3-5,3-4.6,5.9l10.1,86.2c0.3,2.9,3,5,5.9,4.6c2.6-0.3,4.6-2.5,4.7-5.1l0.1,0.5c0.3,2.9,3,5,5.9,4.6c2.9-0.3,5-3,4.6-5.9
		L223.1,134z"/>
</g>
<g>
	<path class="st2" d="M217.3,129.4l0.1,0.5l0,0L217.3,129.4z M223.1,134l-0.5,0.1l0,0L223.1,134z M212.6,134.5l-0.5,0.1
		c0,0.3,0.3,0.5,0.5,0.4c0.3,0,0.5-0.2,0.5-0.5L212.6,134.5z M212.6,134l0.5-0.1l0,0L212.6,134z M206.7,129.4l0.1,0.5l0,0
		L206.7,129.4z M202.1,135.3l0.5-0.1l0,0L202.1,135.3z M212.2,221.5l0.5-0.1l0,0L212.2,221.5z M218.1,226.1l0.1,0.5l0,0L218.1,226.1
		z M222.7,221l0.5-0.1c0-0.3-0.3-0.5-0.5-0.4c-0.3,0-0.5,0.2-0.5,0.5L222.7,221z M222.8,221.5l-0.5,0.1l0,0L222.8,221.5z
		 M228.7,226.1l0.1,0.5l0,0L228.7,226.1z M233.3,220.2l-0.5,0.1l0,0L233.3,220.2z M217.3,129.9c2.6-0.3,5,1.6,5.3,4.2l1-0.1
		c-0.4-3.2-3.2-5.4-6.4-5.1L217.3,129.9z M213.1,134.6c0-2.3,1.8-4.4,4.2-4.6l-0.1-1c-2.9,0.3-5,2.8-5.1,5.6L213.1,134.6z
		 M212.1,134.1l0.1,0.5l1-0.1l-0.1-0.5L212.1,134.1z M206.8,129.9c2.6-0.3,5,1.6,5.3,4.2l1-0.1c-0.4-3.2-3.2-5.4-6.4-5.1
		L206.8,129.9z M202.6,135.2c-0.3-2.6,1.6-5,4.2-5.3l-0.1-1c-3.2,0.4-5.4,3.2-5.1,6.4L202.6,135.2z M212.7,221.4l-10.1-86.2l-1,0.1
		l10.1,86.2L212.7,221.4z M218,225.6c-2.6,0.3-5-1.6-5.3-4.2l-1,0.1c0.4,3.2,3.2,5.4,6.4,5.1L218,225.6z M222.2,221
		c-0.1,2.3-1.8,4.4-4.2,4.6l0.1,1c2.9-0.3,5-2.8,5.1-5.6L222.2,221z M223.3,221.4l-0.1-0.5l-1,0.1l0.1,0.5L223.3,221.4z
		 M228.6,225.6c-2.6,0.3-5-1.6-5.3-4.2l-1,0.1c0.4,3.2,3.2,5.4,6.4,5.1L228.6,225.6z M232.8,220.3c0.3,2.6-1.6,5-4.2,5.3l0.1,1
		c3.2-0.4,5.4-3.2,5.1-6.4L232.8,220.3z M222.6,134.1l10.1,86.2l1-0.1L223.6,134L222.6,134.1z"/>
</g>
<g>
	<path class="st3" d="M109.5,362.6c0,0.1,0,0.2,0,0.3c-0.1,0.3-0.3,0.6-0.5,0.9c0,0.1-0.1,0.2-0.2,0.3c-1.2,1.9-2.8,2.9-4.8,3.1
		c-1.5,0.1-2.8-0.2-3.9-1c-0.2-0.1-0.4-0.3-0.6-0.5c-0.1-0.1-0.2-0.2-0.3-0.3c0-0.3,0-0.5,0.1-0.8c0.1-1,0.4-2,0.7-3.1
		c0.3-1.1,0.6-2.1,0.9-3.2c0.1-0.5,0.2-0.9,0.4-1.3c0.1-0.4,0.2-0.8,0.3-1.2c0.1-0.3,0.2-0.7,0.2-1v0c0.1-0.3,0.1-0.6,0.2-0.9
		l0.7,0.8c0.7,0.7,1.6,1.7,2.6,2.7c1.2,1.3,2.5,2.6,3.3,3.5c0.3,0.3,0.5,0.6,0.7,0.8c0,0,0,0,0,0c0,0,0.1,0.1,0.1,0.1c0,0,0,0,0,0.1
		c0,0,0,0.1,0,0.2C109.5,362.1,109.5,362.4,109.5,362.6z"/>
	<path class="st2" d="M109.5,362c0-0.1,0-0.1,0-0.2c0,0,0-0.1,0-0.1c0,0-0.1-0.1-0.1-0.1c0,0,0,0,0,0c0,0-0.1,0-0.2,0
		c-0.1,0-0.2,0-0.2,0c0,0-0.1,0-0.1,0c0.2,0.2,0.3,0.3,0.4,0.4c0,0,0,0.1,0,0.1c0,0,0,0,0,0c0,0.1,0,0.4,0,0.6
		c0,0.4-0.1,0.8-0.2,1.2c0.2-0.3,0.3-0.6,0.5-0.9c0-0.1,0-0.2,0-0.3C109.5,362.4,109.5,362.1,109.5,362z M109.8,361.9
		c0-0.1,0-0.2,0-0.2l0-0.1l0-0.1l-0.1,0c0,0-0.1-0.1-0.2-0.2c-0.1-0.1-0.2-0.2-0.3-0.4c-0.7-0.8-2.1-2.3-3.6-3.8l-3.7-3.9l-0.1,0.6
		c0,0.1-0.1,0.2-0.1,0.4c-0.1,0.4-0.2,0.7-0.2,1.1c-0.1,0.5-0.3,1.1-0.4,1.6l-0.4,1.4c-0.3,1-0.6,2-0.8,3.1
		c-0.3,1.1-0.5,2.1-0.6,2.9c0,0.3-0.1,0.6-0.1,0.8c0.1,0.1,0.2,0.2,0.3,0.3c0.1,0.1,0.2,0.2,0.3,0.3v-0.1c0-0.2,0-0.5,0.1-0.7
		c0.1-0.9,0.3-2,0.7-3.4c0.3-1,0.5-2,0.8-3.1l0.4-1.4c0.1-0.3,0.2-0.6,0.2-0.9c0.1-0.3,0.2-0.6,0.2-0.9c0.1-0.3,0.1-0.5,0.2-0.8
		l2.9,3.1c1.1,1.1,2.2,2.3,3,3.2c0.3,0.3,0.5,0.6,0.8,0.8c0.2,0.2,0.3,0.3,0.4,0.4c0,0,0,0.1,0,0.1c0,0,0,0,0,0c0,0.1,0,0.4,0,0.6
		c0,0.4-0.1,0.8-0.2,1.2c0.2-0.3,0.3-0.6,0.5-0.9c0.1-0.3,0.2-0.6,0.3-0.8C109.8,362,109.8,362,109.8,361.9z M109.5,362
		c0-0.1,0-0.1,0-0.2c0,0,0-0.1,0-0.1c0,0-0.1-0.1-0.1-0.1c0,0,0,0,0,0c0,0-0.1,0-0.2,0c-0.1,0-0.2,0-0.2,0c0,0-0.1,0-0.1,0
		c0.2,0.2,0.3,0.3,0.4,0.4c0,0,0,0.1,0,0.1c0,0,0,0,0,0c0,0.1,0,0.4,0,0.6c0,0.4-0.1,0.8-0.2,1.2c0.2-0.3,0.3-0.6,0.5-0.9
		c0-0.1,0-0.2,0-0.3C109.5,362.4,109.5,362.1,109.5,362z"/>
</g>
<g>
	<path class="st3" d="M160.4,116.9c1-0.1,1.8-0.1,2.3,0c0.3,0,0.5,0.1,0.7,0.1c0.1,0,0.1,0,0.2,0c0,0,0,0,0,0h0
		c1.1,0.5,2.8,1.5,4.7,2.8c1.9,1.3,4.1,2.9,6.2,4.4c2,1.5,4,3,5.3,4.1c0.7,0.5,1.3,1,1.7,1.3c0.2,0.1,0.3,0.3,0.4,0.3l-7.8,15.5
		c-0.1,0-0.2-0.1-0.4-0.2c-0.7-0.4-2.4-1.2-5.9-3c-0.5-0.3-1.1-0.5-1.7-0.8"/>
	<path class="st2" d="M174.3,146l-0.6-0.3c-0.7-0.4-2.4-1.2-5.9-3c-0.5-0.2-1-0.5-1.5-0.8l-0.2-0.1l0.3-0.5l0.2,0.1
		c0.5,0.3,1.1,0.5,1.5,0.8c3.5,1.8,5.1,2.6,5.9,3l0.1,0l7.5-15l-0.2-0.2c-0.4-0.3-1-0.8-1.7-1.3c-1.2-1-3.2-2.4-5.3-4.1
		c-2.4-1.8-4.4-3.2-6.2-4.4c-2.1-1.4-3.7-2.4-4.7-2.8l-0.2,0c-0.1,0-0.4-0.1-0.6-0.1c-0.5-0.1-1.3-0.1-2.3,0l-0.1-0.6
		c1-0.1,1.9-0.1,2.4,0c0.3,0,0.5,0.1,0.7,0.1c0.1,0,0.1,0,0.2,0.1l0.1,0c1,0.4,2.6,1.4,4.8,2.9c1.7,1.2,3.8,2.7,6.2,4.4
		c2.2,1.6,4.1,3.1,5.4,4.1c0.7,0.5,1.3,1,1.7,1.3l0.6,0.5L174.3,146z"/>
</g>
<g>
	<path class="st2" d="M149.2,205.1c-0.1,0.2-0.1,0.3-0.2,0.4c0,0,0,0.1-0.1,0.1c0,0,0,0,0,0l0.8,0.8v0l0.1-0.3l0.1-0.3l0.1-0.3
		l0-0.1l0-0.1L149.2,205.1z M162.5,119.5c-0.2-0.3-0.4-0.6-0.6-1l-0.1,0.5l-4.5,17l-0.1,0.4l-0.9,3.2l-0.8,3.1l-4.5,17l0.1,0.1l0,0
		h0c1.1,0.8,2.3,1.4,3.6,1.7c0.7,0.2,1.5,0.2,2.2,0.2l0.3,11.7l1.5-6.8c0.3-1.8,0.6-3.5,0.8-5.3c0.3-2.8,0.4-5.5,0.5-8.3
		c0-1,0.1-1.9,0.1-2.9c0.2-3.7,0.5-7.3,1.2-11c0-0.2,0.1-0.5,0.1-0.7c0.4-1.5,0.8-3.1,1.4-4.7c0.3-0.8,0.5-1.6,0.7-2.4
		c0.4-1.6,0.6-3.3,0.6-5C164.2,123.9,163.7,121.5,162.5,119.5z M158.6,182c0-0.4-0.1-0.8-0.1-1.2c-0.4-5-0.7-9.9,0.1-14.3l-1.5,6.8
		l0.7,26.8c0.1-0.1,0.1-0.2,0.2-0.3c0.1-0.2,0.2-0.4,0.3-0.7c0.1-0.4,0.2-0.8,0.3-1.5c0.1-0.7,0.2-1.5,0.3-2.6
		C159.4,191,159,186.5,158.6,182z M150.1,205.3l0,0.1l-0.1,0.3l-0.2-0.1c0,0.1-0.1,0.2-0.2,0.2v0l0.3,0.5v0l0,0
		c0.2-0.1,0.3-0.3,0.4-0.5c0.1-0.2,0.1-0.4,0.1-0.6L150.1,205.3L150.1,205.3z M148.7,211.8C148.6,211.8,148.6,211.8,148.7,211.8
		l-0.2,0.3L148.7,211.8C148.7,211.9,148.7,211.9,148.7,211.8z M158,200.4c-0.1,0.1-0.1,0.2-0.2,0.3c-0.2,0.5-0.3,1.4-0.4,4.6
		l0.4-2.4l0.6-3.4C158.3,200,158.2,200.2,158,200.4z M158.5,199.5c0.2-0.7,0.5-1.9,0.8-4.4L158.5,199.5z"/>
	<path class="st2" d="M148.7,212.3l-0.5-0.3l0.2-0.6l0.3,0.1h0.1l0.1,0.1l0.3,0.2L148.7,212.3z M150.2,207.1l-0.6-0.6l-0.9-0.8
		l0-0.3l0.1-0.2c0-0.1,0.1-0.2,0.1-0.3l0.1-0.2l1.6,0.3l0,0.2c0,0.2,0,0.5-0.1,0.8c-0.1,0.2-0.2,0.4-0.4,0.5V207.1z M149.4,205.5
		L149.4,205.5C149.5,205.6,149.5,205.5,149.4,205.5l0.1-0.1L149.4,205.5C149.4,205.5,149.4,205.5,149.4,205.5L149.4,205.5z
		 M157.8,205.4l-0.6-0.1c0-3.2,0.2-4.1,0.4-4.6l-1-38.7c-0.7,0-1.3-0.1-2-0.2c-1.3-0.3-2.5-0.8-3.6-1.7h0l-0.1-0.1l-0.2-0.1l11.2-42
		l0.4,0.5c0.2,0.3,0.4,0.6,0.6,1c1.1,1.9,1.7,4.3,1.7,6.9c0,1.6-0.2,3.3-0.6,5c-0.2,0.8-0.5,1.6-0.8,2.4c-0.6,1.5-1,3-1.4,4.6
		c0,0.2-0.1,0.4-0.1,0.7c-0.8,3.8-1.1,7.5-1.2,11c0,0.5,0,1-0.1,1.5c0,0.5,0,1-0.1,1.5c-0.1,2.7-0.2,5.5-0.5,8.3
		c-0.2,1.9-0.4,3.6-0.8,5.3l0,0c-0.8,4.3-0.5,9.2-0.1,14.2l0.1,1.2c0.4,4.5,0.8,9.1,0.3,13.1l0.3,0c-0.2,2.1-0.5,3.6-0.8,4.5
		L157.8,205.4z M157.4,173.4l0.6,25.2c0.1-0.3,0.1-0.7,0.2-1c0.1-0.7,0.2-1.6,0.3-2.6c0.5-4,0.1-8.6-0.3-13v0l-0.1-1.1
		c-0.3-3.2-0.5-6.3-0.4-9.3L157.4,173.4z M157.1,161.4l0.2,9.5l1-4.4c0.3-1.7,0.6-3.4,0.7-5.3c0.3-2.8,0.4-5.6,0.5-8.3
		c0-0.5,0-1,0.1-1.5c0-0.5,0-1,0.1-1.5c0.2-3.5,0.4-7.3,1.3-11.1c0-0.2,0.1-0.4,0.1-0.7c0.4-1.6,0.8-3.1,1.4-4.7
		c0.3-0.8,0.5-1.6,0.7-2.4c0.4-1.7,0.6-3.3,0.6-4.9c0-2.6-0.5-4.8-1.6-6.6l0,0c-0.1-0.1-0.2-0.3-0.2-0.4l-10.7,40.3
		c1,0.8,2.2,1.3,3.4,1.6c0.7,0.2,1.5,0.2,2.2,0.2L157.1,161.4z"/>
</g>
<g>
	<path class="st3" d="M149.6,205.9c0,0,0.1-0.2,0.2-0.5c0,0.1,0,0.2,0,0.3C149.7,205.7,149.6,205.8,149.6,205.9z"/>
</g>
<defs>
	<filter id="Adobe_OpacityMaskFilter" filterUnits="userSpaceOnUse" x="149" y="205.1" width="1.4" height="1.3">
		<feColorMatrix  type="matrix" values="1 0 0 0 0  0 1 0 0 0  0 0 1 0 0  0 0 0 1 0"/>
	</filter>
</defs>
<mask maskUnits="userSpaceOnUse" x="149" y="205.1" width="1.4" height="1.3" id="path-11-inside-1_1663_7319_00000150815524487342946310000004010358307459163776_">
	<path class="st4" d="M149.6,205.9c0,0,0.1-0.2,0.2-0.5c0,0.1,0,0.2,0,0.3C149.7,205.7,149.6,205.8,149.6,205.9z"/>
</mask>
<g class="st5">
	<path class="st2" d="M149.9,206.3l-0.3-0.5l-0.5-0.3L149.9,206.3L149.9,206.3L149.9,206.3z M149.6,205.9l0.3,0.5l0.1-0.3
		C149.9,206,149.7,206,149.6,205.9z M150.1,205.2l-0.9-0.1l0.5,0.2c0,0.1,0,0.2,0,0.3v0l0.2,0.1l0.1-0.3L150.1,205.2l0.3,0
		L150.1,205.2z M150.1,205.5l-0.3-0.1h0l-0.5-0.2c-0.1,0.2-0.1,0.3-0.2,0.4c0,0,0,0.1-0.1,0.1c0,0,0,0,0,0l0.5,0.3h0
		c0.2,0.1,0.3,0.2,0.4,0.2c0.2,0.1,0.2,0.1,0.2,0.1s0,0,0,0c0,0,0,0,0,0c0,0,0,0,0,0c0,0,0-0.1,0-0.1c0,0,0-0.1,0.1-0.1
		c0-0.1,0.1-0.2,0.1-0.3L150.1,205.5z M149.2,205.4L149.2,205.4C149.2,205.4,149.2,205.4,149.2,205.4L149.2,205.4L149.2,205.4z
		 M150.1,205.3l-0.3,0h0l-0.5,0.1l0.4,0.2l0.1,0v0l0.2,0.1l0.2,0.1l0.1,0c0.1-0.2,0.1-0.4,0.1-0.6L150.1,205.3z M149.2,205.4
		C149.2,205.4,149.2,205.4,149.2,205.4L149.2,205.4L149.2,205.4z M150.2,205.9l-0.2-0.1l-0.2-0.1v0l-0.1,0l-0.4-0.2h0l0.3,0.5h0
		l0.3,0.5l0,0C150.1,206.2,150.2,206.1,150.2,205.9L150.2,205.9z"/>
</g>
<g>
	<path class="st3" d="M119.5,126.4L119.5,126.4c1.3,10.1,3.1,19.9,5.4,29.8c-2.2,12.7-3.4,25.6-3.6,38.6l-13.1-1
		c-4.3-2.1-7.3-3.2-9.3-3.7c-1-0.3-1.7-0.4-2.2-0.5c-0.2,0-0.3,0-0.4-0.1c0.7-21.6,4.5-43,11.2-63.5c0,0,0,0,0-0.1
		c0-0.1,0.1-0.2,0.1-0.3c3.1,0.2,6.1,0.4,8.4,0.5c1.2,0.1,2.2,0.1,2.8,0.2C119,126.4,119.3,126.4,119.5,126.4z"/>
	<path class="st2" d="M121.5,195.1L108,194c-4.4-2.1-7.5-3.2-9.3-3.7c-1-0.3-1.8-0.4-2.2-0.5c-0.2,0-0.3,0-0.4-0.1l-0.3,0l0-0.3
		c0.7-21.6,4.5-43,11.2-63.6l0-0.1c0-0.1,0.1-0.2,0.1-0.2l0.1-0.2l0.2,0c3.1,0.2,6.1,0.4,8.4,0.5l3.9,0.3l0,0.2
		c1.3,9.9,3,19.7,5.3,29.8l0,0.1l0,0.1c-2.2,12.7-3.4,25.7-3.6,38.5L121.5,195.1z M108.2,193.4l12.7,1c0.2-12.8,1.4-25.6,3.6-38.2
		c-2.3-10-4-19.7-5.3-29.5l-3.4-0.2c-2.2-0.1-5.2-0.3-8.2-0.5c0,0,0,0,0,0l0,0.1c-6.6,20.4-10.4,41.7-11.1,63.1c0.1,0,0.1,0,0.2,0
		c0.7,0.1,1.4,0.3,2.3,0.5C100.7,190.2,103.8,191.3,108.2,193.4z M119.5,126.4L119.5,126.4L119.5,126.4L119.5,126.4z"/>
</g>
<g>
	<path class="st2" d="M150.7,205.3l0-0.2l-1.6-0.3L149,205c0,0.1-0.1,0.2-0.1,0.3l-0.1,0.2l0,0.3l1,0.9l0.2,0.1l0.2-0.1
		c0.2-0.2,0.4-0.4,0.5-0.6c0.1-0.2,0.1-0.4,0.1-0.6C150.7,205.3,150.7,205.3,150.7,205.3z M150,205.8c0,0.1-0.1,0.1-0.1,0.2
		l-0.5-0.5v0c0,0,0,0,0-0.1l0.7,0.1C150.1,205.6,150.1,205.7,150,205.8z M158.4,288L158.4,288c-0.2-3.6-0.4-6.3-0.8-8.1
		c-1.4-6.4-6.6-18-12.9-28.8c-3.1-5.3-6.1-9.7-8.6-12.8c-1.4-1.7-2.6-2.9-3.7-3.8c-0.6-0.5-1.1-0.8-1.6-1c-0.4-0.1-0.7-0.2-1-0.2
		c-0.2,0-0.4,0-0.5,0.1c-0.5,0.1-0.9,0.5-1.3,1c-0.3,0.4-0.5,1-0.8,1.7c-0.4,1.2-0.6,3-0.7,5.2c-0.2,3.6,0,8.6,0.6,15.1
		c0.5,5.6,1.1,11.2,1.7,15.8l0.1,0.6c0.5,4.2,0.9,7.6,0.9,8.9v0l0,0c1,5,0.8,12.6-0.6,23.2c-0.7,5.4-1.7,11.5-3,18.6
		c-1.3,6.8-2.9,14.6-4.9,23.9c0,0.1-0.1,0.3-0.1,0.4l-0.2,0.8c0,0.2-0.1,0.5-0.2,0.7c-0.2,0.8-0.3,1.4-0.3,1.6
		c-0.4,2.1-1.4,4.1-3.1,5.6c0,0-0.1,0.1-0.1,0.1c0,0,0,0,0,0l-0.1,0.1l-0.1,0l0,0l0,0c-0.1,0.1-0.3,0.2-0.5,0.3
		c-1.6,1.1-3.5,1.7-5.5,1.7c-0.3,0-0.5,0-0.8,0c-0.1,0-0.2,0-0.4-0.1c-0.1,0-0.1,0-0.2,0c-0.1,0-0.2,0-0.3,0c0,0-0.1,0-0.1,0
		c0,0-0.1,0-0.1,0c-0.1,0-0.3-0.1-0.4-0.1c-0.2,0-0.4-0.1-0.5-0.1c0.3,0.3,0.5,0.6,0.8,0.8c0,0,0.1,0,0.1,0c0.1,0,0.2,0,0.2,0
		c0,0,0.1,0,0.2,0c0,0,0,0,0,0c0.1,0,0.2,0,0.3,0h0c0.1,0,0.2,0,0.2,0c0.3,0,0.6,0.1,0.9,0.1c2.2,0,4.4-0.7,6.1-2
		c0.1,0,0.1-0.1,0.2-0.2c0,0,0.1,0,0.1-0.1c0,0,0.1-0.1,0.2-0.1l0.1-0.1c0.2-0.2,0.4-0.4,0.6-0.6c1.4-1.5,2.4-3.3,2.7-5.4
		c0-0.2,0.2-0.9,0.4-1.7c0-0.2,0.1-0.4,0.1-0.6l0.2-0.7c0-0.1,0.1-0.3,0.1-0.4c2.1-9.3,3.7-17.1,4.9-23.9c1.3-7.1,2.3-13.2,3-18.6
		c1.4-10.7,1.6-18.3,0.6-23.4c0-1.3-0.4-4.5-0.9-8.9l-0.1-0.6c-0.5-4.5-1.2-10.2-1.6-15.8c-0.5-6.5-0.8-11.5-0.6-15.1
		c0.1-2.1,0.3-3.8,0.7-5.1c0.2-0.7,0.4-1.2,0.7-1.5c0.2-0.4,0.6-0.6,0.9-0.7c0.3-0.1,0.8-0.1,1.2,0.1c0.5,0.2,0.9,0.5,1.5,0.9
		c1,0.8,2.3,2,3.6,3.6c2.5,3.1,5.5,7.5,8.6,12.7c6.3,10.7,11.5,22.2,12.8,28.6c0.4,2.1,0.8,5.5,0.9,10.2v0c0,0.3,0,0.5,0,0.8
		c0,0.4,0,0.8,0,1.2l0.5-2.3v0C158.5,289.3,158.4,288.6,158.4,288z M149.9,206.7l0.2-0.1c0.2-0.2,0.4-0.4,0.5-0.6
		c0.1-0.2,0.1-0.4,0.1-0.6c0,0,0-0.1,0-0.1l0-0.2l-1.6-0.3L149,205c0,0.1-0.1,0.2-0.1,0.3l-0.1,0.2l0,0.3l1,0.9L149.9,206.7z
		 M149.4,205.5C149.4,205.5,149.4,205.5,149.4,205.5l0.7,0c0,0.1,0,0.2-0.1,0.2c0,0.1-0.1,0.1-0.1,0.2L149.4,205.5L149.4,205.5z
		 M178.3,294.9c-0.1-8.8-0.6-15.2-1.4-19.1c-0.7-3.1-1.8-7-3.4-12.1v0c0-0.1-0.1-0.2-0.1-0.4l0-0.1c0-0.1-0.1-0.3-0.1-0.5
		c-0.1-0.3-0.2-0.6-0.3-0.9v0c-1.2-3.7-2.7-7.8-4.4-12.4c0-0.1-0.1-0.3-0.1-0.4c0-0.1-0.1-0.3-0.2-0.4c-0.1-0.3-0.2-0.6-0.3-0.8v0
		c-0.1-0.4-0.3-0.8-0.4-1.2l-0.3-0.8c-3.5-9.4-6.9-17.6-8.2-20.7l-1.4-90.8l4.1-15.4l0.3-1l-0.4-0.4c-0.3-0.3-0.6-0.6-1-0.8
		c-0.8-0.6-1.8-1.1-2.7-1.4h0c-0.2-0.1-0.4-0.1-0.6-0.2v-0.4l-0.2,0c-0.3-0.1-0.5-0.1-0.8-0.2v0l-24.5-3.2l-1.6-0.2l-1.8,0.2
		l-10.7-1.3l-1.2,3.6c-1.4,0.9-2.8,2-4.2,3.4v0c-0.1,0.1-0.2,0.3-0.4,0.4c-0.6,0.6-1,1.2-1.5,1.8c-1.4,1.8-2.5,3.9-3.3,5.9l-0.4,1.1
		c-0.1,0.4-0.2,0.7-0.3,1.1v0c0,0.1-0.1,0.2-0.1,0.3l-0.1,0.1l0,0.1c-1.6,5.1-3,10.3-4.2,15.3c-2,8.2-3.5,16.6-4.6,25l-1.4,6.1
		l-3,8.8l0,0.1c0,0.2-0.1,3.5-0.2,6.6c-0.1,2.8-0.1,5.4-0.1,5.5c-0.1,2.6-0.2,5.5-0.3,8.1c0,0.7,0,1.3-0.1,1.9c0,0.7,0,1.3-0.1,2
		l0,0.4c-0.1,2.2-0.1,3.7-0.1,4.1c0.7,11.2,4.7,18.6,9,25c2.5,13.7,7.1,37.8,9.2,48.8c0.2,1,0.3,2.3,0.3,4c0,2.8-0.3,6.5-0.8,10.9
		c-1.3,10.4-3.9,24.8-7.9,42.8l-0.2,0.9c-0.4,1.9-0.6,2.8-0.7,3.4c-0.1,0.5-0.1,1.1-0.1,1.7c0,1.3,0.2,2.5,0.7,3.7c0,0,0,0,0,0
		l0,0.1c0.1,0.1,0.1,0.2,0.2,0.4c0.1,0.1,0.1,0.3,0.2,0.4c0.1,0.2,0.2,0.4,0.3,0.6c1.2,2.1,3.2,3.6,5.4,4.4c0.4,0.1,0.8,0.2,1.3,0.3
		c0,0,0.1,0,0.1,0c0.1,0,0.2,0,0.2,0c0,0,0.1,0,0.2,0c0,0,0,0,0,0c0.1,0,0.2,0,0.3,0h0c0.1,0,0.2,0,0.2,0c0.3,0,0.6,0.1,0.9,0.1
		c2.2,0,4.4-0.7,6.1-2c0.1,0,0.1-0.1,0.2-0.2c0,0,0.1,0,0.1-0.1c0,0,0.1-0.1,0.2-0.1l0.1-0.1c0.2-0.2,0.4-0.4,0.6-0.6
		c1.4-1.5,2.4-3.3,2.7-5.4c0-0.2,0.2-0.9,0.4-1.7c0-0.2,0.1-0.4,0.1-0.6l0.2-0.7c0-0.1,0.1-0.3,0.1-0.4c2.1-9.3,3.7-17.1,4.9-23.9
		c1.3-7.1,2.3-13.2,3-18.6c1.4-10.7,1.6-18.3,0.6-23.4c0-1.3-0.4-4.5-0.9-8.9l-0.1-0.6c-0.5-4.5-1.2-10.2-1.6-15.8
		c-0.5-6.5-0.8-11.5-0.6-15.1c0.1-2.1,0.3-3.8,0.7-5.1c0.2-0.7,0.4-1.2,0.7-1.5c0.2-0.4,0.6-0.6,0.9-0.7c0.3-0.1,0.8-0.1,1.2,0.1
		c0.5,0.2,0.9,0.5,1.5,0.9c1,0.8,2.3,2,3.6,3.6c2.5,3.1,5.5,7.5,8.6,12.7c6.3,10.7,11.5,22.2,12.8,28.6c0.4,2.1,0.8,5.5,0.9,10.2v0
		c0,0.3,0,0.5,0,0.8c0,0.4,0,0.8,0,1.2c0,0.6,0,1.3,0,2v0c0,0.5,0,1.1,0,1.6c0,6.4-0.1,14.3-0.4,23.1c-0.1,3.2-0.2,6.6-0.4,10.1
		c0,0.4,0,0.8,0,1.1c0,0.6,0,1.1-0.1,1.6v0c0,0.9-0.1,1.8-0.1,2.8v0c-0.3,6.2-0.7,11.7-0.9,15c-0.1,1.4-0.2,2.5-0.3,3
		c-0.1,0.5-0.1,1.1-0.1,1.6c0,1.2,0.2,2.5,0.7,3.6c0.1,0.2,0.1,0.4,0.2,0.5v0c0,0.1,0.1,0.2,0.2,0.3c0,0.1,0.1,0.1,0.1,0.1v0
		c0.2,0.5,0.5,0.9,0.8,1.3c1.4,2,3.6,3.4,6,4c0.1,0,0.3,0.1,0.5,0.1c0,0,0,0,0.1,0c0.1,0,0.2,0,0.3,0c0,0,0.1,0,0.1,0
		c0.4,0.1,0.8,0.1,1.2,0.1h0.1c0.1,0,0.2,0,0.2,0c0.1,0,0.1,0,0.2,0c0.1,0,0.1,0,0.2,0h0c2.2-0.1,4.3-1,6-2.4
		c1.5-1.3,2.6-2.9,3.1-4.7c0-0.1,0-0.1,0.1-0.2c0,0,0-0.1,0-0.1c0-0.1,0.1-0.2,0.1-0.3c0.1-0.3,0.1-0.5,0.1-0.8
		c0.1-0.4,0.2-1.7,0.4-3.8c0.1-0.7,0.1-1.6,0.2-2.5c0.1-1.5,0.2-3.3,0.4-5.3c0.5-7.5,0.9-15.8,1.2-23.4c0.3-7.7,0.4-14.6,0.4-20.7
		C178.4,298.3,178.3,296.5,178.3,294.9z M155.8,212.7c0-0.1,0-0.2,0-0.2l-0.1-0.4l-0.4,0.1c-0.4,0.2-0.9,0.3-1.4,0.4
		c0,0-0.1,0-0.1,0c1-0.4,1.9-1.2,2.5-2.4c0.5-0.9,0.8-2,1-3.2c0.1-1,0.1-1.7,0.1-1.7c0-1.3,0-2.4,0.1-3.1l0.5,21.4
		c-0.2-0.7-0.4-1.4-0.5-2.1l0-0.1c-0.7-2.9-1.2-5.2-1.4-6.6l0-0.1l0,0c0,0,0,0,0,0v-0.2C156,213.7,155.9,213.1,155.8,212.7z
		 M157.4,132.1l-0.2-14.8c0.4,0.1,0.8,0.2,1.2,0.3l0,0c0,0,0,0,0.1,0l0,0c0.2,0.1,0.3,0.1,0.5,0.2c0.2,0.1,0.4,0.2,0.6,0.3
		c0,0,0,0,0,0l1.4,0.7L157.4,132.1z M157.5,115.8L157.5,115.8c1,0.3,1.8,0.8,2.6,1.3c0.4,0.3,0.7,0.5,1,0.8l0.1,0l-0.1,0.3l-1.2-0.7
		c-0.2-0.1-0.4-0.2-0.6-0.3c-0.2-0.1-0.4-0.2-0.5-0.2c0,0-0.1,0-0.1,0l-0.1,0c-0.4-0.2-0.9-0.3-1.3-0.4l0-1
		C157.2,115.7,157.4,115.8,157.5,115.8z M156.8,134.2l-0.3,1.1l-0.5-18.2c0.2,0,0.3,0,0.5,0L156.8,134.2z M156.5,161.4
		c-0.6,0-1.2-0.1-1.9-0.2c-1.2-0.3-2.4-0.8-3.5-1.6l-0.1-0.1h0l-0.2-0.1c0.1-0.9,0.3-1.7,0.5-2.6l4.6-17.1L156.5,161.4z
		 M156.5,115.6l0,1.1c-0.2,0-0.3,0-0.5,0l0-1.2C156.2,115.5,156.3,115.5,156.5,115.6z M116.7,114.1c2.4-1.4,4.9-2.1,7.4-1.9
		l-10.5,29.5c-0.2-0.2-0.3-0.3-0.5-0.5v0c-0.3-0.3-0.6-0.6-0.8-0.9c-0.3-0.3-0.5-0.6-0.8-0.9c-0.8-1-1.5-2.1-2.2-3.2L116.7,114.1z
		 M107.8,125.7l0-0.2l-0.3-0.1c0.8-2,1.9-4,3.2-5.8c0.4-0.6,0.9-1.2,1.5-1.8c0.1-0.1,0.2-0.2,0.2-0.3l0.2,0v-0.2
		c1.1-1.1,2.2-2.1,3.3-2.8l-7,20.8c-0.3-0.5-0.5-1-0.7-1.5c-0.2-0.4-0.3-0.7-0.5-1.1c-0.1-0.2-0.1-0.4-0.2-0.6
		c-0.2-0.7-0.4-1.5-0.6-2.2l-0.1-0.5L107.8,125.7z M97.8,168.4l0.8-3.2c0.2-1.3,0.4-2.5,0.6-3.8c0.2-1.2,0.4-2.5,0.6-3.7l0.1-0.5
		c0.2-1.2,0.4-2.5,0.7-3.7c0.2-1,0.4-2.1,0.6-3.1l0-0.1c0.1-0.6,0.2-1.1,0.4-1.7l0-0.2c0.1-0.2,0.1-0.4,0.2-0.7
		c0.1-0.5,0.2-1,0.3-1.6c0.1-0.4,0.2-0.9,0.3-1.3l0.1-0.3c0.1-0.3,0.2-0.7,0.2-1c0.2-0.8,0.4-1.6,0.6-2.4c0.3-1,0.5-2,0.8-3.1
		c0.2-0.8,0.4-1.5,0.6-2.2c0.1-0.3,0.2-0.6,0.2-0.9l0.1-0.2c0.2-0.6,0.4-1.3,0.5-1.9c0.2-0.6,0.3-1.1,0.5-1.7
		c0.1-0.3,0.2-0.6,0.3-0.9l0,0c0.2,0.8,0.4,1.5,0.6,2.3c0.1,0.2,0.1,0.4,0.2,0.6c0.1,0.4,0.3,0.7,0.5,1.1c0.3,0.7,0.6,1.4,1,2.1
		L97.8,168.4C97.8,168.4,97.8,168.4,97.8,168.4z M97.5,171.4l11.6-34.5c0.6,1,1.2,1.9,2,2.8c0.3,0.3,0.5,0.6,0.8,1
		c0.3,0.3,0.6,0.6,0.9,0.9c0.2,0.2,0.5,0.5,0.7,0.7l0,0l-15.8,44.5c-0.5-0.5-0.9-0.9-1.2-1.1c-0.1-0.1-0.2-0.2-0.2-0.3
		C96.5,180.7,96.9,176,97.5,171.4z M98.2,187.7l-0.2,0l0-0.1C98.1,187.6,98.2,187.6,98.2,187.7z M96.4,174.6l0.2-0.5
		c-0.4,3.8-0.7,7.6-0.9,11.4l0,0.1l0.1,0.1c0,0,0.1,0.1,0.4,0.4c0.3,0.3,0.8,0.9,1.5,1.5l0.1,0.1l-4.2-0.5L96.4,174.6z M93.4,183.4
		l1-2.9l-1,4.3C93.4,184.1,93.4,183.6,93.4,183.4z M177.3,320.7c-0.3,7.6-0.7,15.9-1.2,23.4c-0.1,2.1-0.3,3.9-0.4,5.4
		c-0.1,0.9-0.1,1.8-0.2,2.5c-0.2,2.1-0.3,3.3-0.4,3.8c0,0.3-0.1,0.6-0.2,0.9c0,0.1,0,0.1-0.1,0.2c0,0,0,0.1,0,0.1
		c0,0.1-0.1,0.2-0.1,0.3c-0.5,1.6-1.5,3-2.8,4.2c-1.5,1.3-3.4,2-5.3,2.2c-0.1,0-0.2,0-0.3,0c-0.1,0-0.1,0-0.2,0c0,0-0.1,0-0.2,0
		c0,0-0.1,0-0.1,0c-0.2,0-0.4,0-0.6,0c0,0,0,0,0,0c-0.1,0-0.3,0-0.4,0c-0.1,0-0.2,0-0.4,0c0,0-0.1,0-0.1,0h0c-0.1,0-0.1,0-0.2,0
		c-2.5-0.4-4.7-1.8-6.2-3.9c-0.1-0.1-0.2-0.3-0.3-0.4v0c-0.1-0.2-0.2-0.3-0.3-0.5c-0.1-0.1-0.1-0.3-0.2-0.4c0,0,0,0,0-0.1v0
		c-0.6-1.3-1-2.7-1-4.1c0-0.5,0-1,0.1-1.5c0.1-0.6,0.2-1.6,0.3-3.1c0.3-3.9,0.7-10.7,1.1-18.2v0c0-0.4,0-0.8,0.1-1.2
		c0-0.5,0-1.1,0.1-1.6v0c0-0.9,0.1-1.8,0.1-2.7v0c0.1-2.3,0.2-4.6,0.3-6.8c0.3-8.8,0.5-16.8,0.4-23.1c0-1.4,0-2.7-0.1-4v0
		c0-0.3,0-0.6,0-0.8c0-0.4,0-0.7,0-1.1v0c0-0.7,0-1.3-0.1-1.9v0c-0.2-3.6-0.4-6.3-0.8-8.1c-1.4-6.4-6.6-18-12.9-28.8
		c-3.1-5.3-6.1-9.7-8.6-12.8c-1.4-1.7-2.6-2.9-3.7-3.8c-0.6-0.5-1.1-0.8-1.6-1c-0.4-0.1-0.7-0.2-1-0.2c-0.2,0-0.4,0-0.5,0.1
		c-0.5,0.1-0.9,0.5-1.3,1c-0.3,0.4-0.5,1-0.8,1.7c-0.4,1.2-0.6,3-0.7,5.2c-0.2,3.6,0,8.6,0.6,15.1c0.5,5.6,1.1,11.2,1.7,15.8
		l0.1,0.6c0.5,4.2,0.9,7.6,0.9,8.9v0l0,0c1,5,0.8,12.6-0.6,23.2c-0.7,5.4-1.7,11.5-3,18.6c-1.3,6.8-2.9,14.6-4.9,23.9
		c0,0.1-0.1,0.3-0.1,0.4l-0.2,0.8c0,0.2-0.1,0.5-0.2,0.7c-0.2,0.8-0.3,1.4-0.3,1.6c-0.4,2.1-1.4,4.1-3.1,5.6c0,0-0.1,0.1-0.1,0.1
		c0,0,0,0,0,0l-0.1,0.1l-0.1,0l0,0l0,0c-0.1,0.1-0.3,0.2-0.5,0.3c-1.6,1.1-3.5,1.7-5.5,1.7c-0.3,0-0.5,0-0.8,0c-0.1,0-0.2,0-0.4-0.1
		c-0.1,0-0.1,0-0.2,0c-0.1,0-0.2,0-0.3,0c0,0-0.1,0-0.1,0c0,0-0.1,0-0.1,0c-0.1,0-0.3-0.1-0.4-0.1c-0.2,0-0.4-0.1-0.5-0.1
		c-0.1,0-0.2-0.1-0.4-0.1c-2.1-0.8-3.9-2.2-5.1-4.2c-0.2-0.4-0.4-0.8-0.6-1.2c0,0,0,0,0,0l0-0.1c-0.1-0.1-0.1-0.2-0.2-0.4v0
		c-0.1-0.2-0.1-0.4-0.2-0.6c-0.2-0.9-0.4-1.7-0.4-2.6c0-0.6,0-1.1,0.1-1.6c0.1-0.6,0.3-1.5,0.7-3.4l0.2-0.9c4-18,6.6-32.5,7.9-42.9
		c0.5-4.5,0.8-8.1,0.8-11c0-1.7-0.1-3.1-0.3-4.1c-2.1-10.9-6.6-35.1-9.2-48.8l-0.1-0.2c-4.2-6.2-8.1-13.5-8.9-24.7
		c0-0.3,0-1.9,0.1-4l0-0.4c0-0.6,0-1.3,0.1-2c0-0.6,0-1.2,0.1-1.9c0.1-2.6,0.2-5.5,0.3-8.1c0-0.2,0.1-2.8,0.1-5.5c0-0.8,0-1.6,0-2.4
		l6.8,0.9l-1.5-1.3c-0.1-0.1-0.2-0.2-0.3-0.3l15.6-44.1l11.1-31.3l-0.4,0c-2.5-0.3-5.1,0.3-7.5,1.6l0.8-2.5l7.5,0.9l-0.2,0l0.1,0.9
		l0.3,0c0.5,0,1-0.1,1.5-0.2l0.6-0.1c0.4-0.1,0.8-0.1,1.2-0.2l9.8,1.2l13.8,1.8l0.9,0.1l2,0.2l0.6,22.1l-5,18.9l0,0v0.1
		c0,0,0,0.1,0,0.1c-0.1,0.8-0.3,1.6-0.4,2.3l-0.1,0.4c0,0,0,0,0,0l0,0.2c-0.2,1.1-0.4,2.3-0.6,3.4l0.6,0.1l0.8-3
		c1,0.7,2.2,1.3,3.4,1.5c0.8,0.2,1.6,0.2,2.3,0.2l0.3,0l-0.6-24.4l0.3-1.1l1,63.3l-0.2,0.2c0,0,0,0,0,0h0l-0.1,0.1v0
		c-0.1,0.1-0.2,0.2-0.2,0.4c-0.1,0.2-0.2,0.5-0.2,0.8c-0.1,0.8-0.1,2-0.2,3.9c0,0,0,0.7-0.2,1.7c-0.2,1.2-0.5,2.2-0.9,3
		c-0.6,1.1-1.4,1.8-2.3,2.1c-1.2,0.4-2.8,0.2-4.6-0.5c-0.5-0.4-0.9-0.9-1.4-1.3l-0.5-0.5l0,1.1c0.1,0.7,0.4,1.2,1,1.6
		c0.5,0.3,1.1,0.6,1.9,0.7c1.2,0.2,2.8,0.2,4.2,0c0.4,0,0.8-0.1,1.2-0.3c0.1,0.4,0.1,0.9,0.2,1.5l0,0.3l0.1,0.2l0,0
		c0.3,1.4,0.7,3.7,1.4,6.6l0,0.1c0.2,0.7,0.3,1.4,0.6,2.2l0,0.1c0.2,0.4,0.4,0.7,0.5,1.1l0,0l0,0.2c1.3,3.1,4.7,11.3,8.2,20.8
		l0.3,0.8c0.2,0.7,0.5,1.3,0.8,2c0.1,0.1,0.1,0.3,0.2,0.4c0,0.1,0.1,0.3,0.2,0.4c0.1,0.3,0.2,0.6,0.3,0.8c1.7,4.6,3.2,8.8,4.4,12.5
		v0c0,0.1,0.1,0.3,0.1,0.4l0,0c0.1,0.2,0.1,0.3,0.2,0.5v0c0.1,0.3,0.2,0.6,0.3,0.9c1.5,4.6,2.5,8.3,3.1,11.1c0.4,1.9,0.7,4.5,1,7.6
		c0.2,3.2,0.4,7,0.5,11.3C177.8,302.1,177.7,310.8,177.3,320.7z M150.1,212.7c-0.1,0-0.1,0-0.2,0c-0.7-0.1-1.2-0.3-1.6-0.6
		c-0.2-0.2-0.4-0.4-0.6-0.6c0.2,0.2,0.5,0.4,0.7,0.7l0.1,0.1C149.1,212.3,149.6,212.5,150.1,212.7z M149.9,206.7l0.2-0.1
		c0.2-0.2,0.4-0.4,0.5-0.6c0.1-0.2,0.1-0.4,0.1-0.6c0,0,0-0.1,0-0.1l0-0.2l-1.6-0.3L149,205c0,0.1-0.1,0.2-0.1,0.3l-0.1,0.2l0,0.3
		l1,0.9L149.9,206.7z M149.4,205.5C149.4,205.5,149.4,205.5,149.4,205.5l0.7,0c0,0.1,0,0.2-0.1,0.2c0,0.1-0.1,0.1-0.1,0.2
		L149.4,205.5L149.4,205.5z M109.8,359c-0.1,0-0.1,0-0.2,0c-0.1,0-0.2,0-0.3,0c0,0-0.1,0-0.1,0c0,0-0.1,0-0.1,0
		c-0.1,0-0.3-0.1-0.4-0.1c-0.2,0-0.4-0.1-0.5-0.1c0.3,0.3,0.5,0.6,0.8,0.8c0,0,0.1,0,0.1,0c0.1,0,0.2,0,0.2,0c0,0,0.1,0,0.2,0
		c0,0,0,0,0,0c0.1,0,0.2,0,0.3,0h0c0.1,0,0.2,0,0.2,0c0.1-0.2,0.1-0.4,0.2-0.6C110,359,109.9,359,109.8,359z M150.7,205.3l0-0.2
		l-1.6-0.3L149,205c0,0.1-0.1,0.2-0.1,0.3l-0.1,0.2l0,0.3l1,0.9l0.2,0.1l0.2-0.1c0.2-0.2,0.4-0.4,0.5-0.6c0.1-0.2,0.1-0.4,0.1-0.6
		C150.7,205.3,150.7,205.3,150.7,205.3z M150,205.8c0,0.1-0.1,0.1-0.1,0.2l-0.5-0.5v0c0,0,0,0,0-0.1l0.7,0.1
		C150.1,205.6,150.1,205.7,150,205.8z M158.4,288L158.4,288c-0.2-3.6-0.4-6.3-0.8-8.1c-1.4-6.4-6.6-18-12.9-28.8
		c-3.1-5.3-6.1-9.7-8.6-12.8c-1.4-1.7-2.6-2.9-3.7-3.8c-0.6-0.5-1.1-0.8-1.6-1c-0.4-0.1-0.7-0.2-1-0.2c-0.2,0-0.4,0-0.5,0.1
		c-0.5,0.1-0.9,0.5-1.3,1c-0.3,0.4-0.5,1-0.8,1.7c-0.4,1.2-0.6,3-0.7,5.2c-0.2,3.6,0,8.6,0.6,15.1c0.5,5.6,1.1,11.2,1.7,15.8
		l0.1,0.6c0.5,4.2,0.9,7.6,0.9,8.9v0l0,0c1,5,0.8,12.6-0.6,23.2c-0.7,5.4-1.7,11.5-3,18.6c-1.3,6.8-2.9,14.6-4.9,23.9
		c0,0.1-0.1,0.3-0.1,0.4l-0.2,0.8c0,0.2-0.1,0.5-0.2,0.7c-0.2,0.8-0.3,1.4-0.3,1.6c-0.4,2.1-1.4,4.1-3.1,5.6c0,0-0.1,0.1-0.1,0.1
		c0,0,0,0,0,0l-0.1,0.1l-0.1,0l0,0l0,0c-0.1,0.1-0.3,0.2-0.5,0.3l0.4,0l0.2,0.3c0.1,0,0.1-0.1,0.2-0.2c0,0,0.1,0,0.1-0.1
		c0,0,0.1-0.1,0.2-0.1l0.1-0.1c0.2-0.2,0.4-0.4,0.6-0.6c1.4-1.5,2.4-3.3,2.7-5.4c0-0.2,0.2-0.9,0.4-1.7c0-0.2,0.1-0.4,0.1-0.6
		l0.2-0.7c0-0.1,0.1-0.3,0.1-0.4c2.1-9.3,3.7-17.1,4.9-23.9c1.3-7.1,2.3-13.2,3-18.6c1.4-10.7,1.6-18.3,0.6-23.4
		c0-1.3-0.4-4.5-0.9-8.9l-0.1-0.6c-0.5-4.5-1.2-10.2-1.6-15.8c-0.5-6.5-0.8-11.5-0.6-15.1c0.1-2.1,0.3-3.8,0.7-5.1
		c0.2-0.7,0.4-1.2,0.7-1.5c0.2-0.4,0.6-0.6,0.9-0.7c0.3-0.1,0.8-0.1,1.2,0.1c0.5,0.2,0.9,0.5,1.5,0.9c1,0.8,2.3,2,3.6,3.6
		c2.5,3.1,5.5,7.5,8.6,12.7c6.3,10.7,11.5,22.2,12.8,28.6c0.4,2.1,0.8,5.5,0.9,10.2v0c0,0.3,0,0.5,0,0.8c0,0.4,0,0.8,0,1.2l0.5-2.3
		v0C158.5,289.3,158.4,288.6,158.4,288z M150.7,205.3l0-0.2l-1.6-0.3L149,205c0,0.1-0.1,0.2-0.1,0.3l-0.1,0.2l0,0.3l1,0.9l0.2,0.1
		l0.2-0.1c0.2-0.2,0.4-0.4,0.5-0.6c0.1-0.2,0.1-0.4,0.1-0.6C150.7,205.3,150.7,205.3,150.7,205.3z M150,205.8c0,0.1-0.1,0.1-0.1,0.2
		l-0.5-0.5v0c0,0,0,0,0-0.1l0.7,0.1C150.1,205.6,150.1,205.7,150,205.8z"/>
</g>
<g>
	<rect x="106.9" y="219" class="st2" width="0.6" height="0.1"/>
</g>
<g>
	
		<rect x="106.3" y="209.8" transform="matrix(0.9715 -0.2371 0.2371 0.9715 -46.7097 31.265)" class="st2" width="0.6" height="0.2"/>
</g>
<g>
	
		<rect x="107.3" y="221" transform="matrix(0.9609 -0.2768 0.2768 0.9609 -56.9711 38.4226)" class="st2" width="0.6" height="0.1"/>
</g>
<g>
	
		<rect x="107.1" y="220" transform="matrix(0.9819 -0.1893 0.1893 0.9819 -39.7234 24.3147)" class="st2" width="0.6" height="0.2"/>
</g>
<g>
	<path class="st2" d="M91.4,195c0,2.9,0.1,5.8,0.2,8.8c0.1,2.7,0.3,5.4,0.5,8.1c0.2,0.1,22.6,2.4,25.8,2.7c0.6,0,1,0.1,1.3,0.1
		c4.7,0.6,7.6-1.4,8.2-7.2c0.1-0.9,0.1-1.9,0.1-2.8c0,0,0-2.2,0-6c0-3,0-7,0.1-11.6c0.1-9.1,0.1-20.6,0.2-31.5c0-3.6,0-7.1,0-10.4
		c0-4,0-7.7,0-11.1c0.2-0.5,0.3-1.1,0.5-1.6c0.5-1.7,0.9-3.5,1.2-5.3c0.7-4.4,1-10-0.6-13.6c-0.5-1.4-1.5-2.5-2.9-3.2
		c-0.4-0.2-0.9-0.4-1.3-0.5c-2-0.3-2.3-0.1-3.7-0.6c-0.5-0.1-0.9-0.1-1.4-0.1c-0.3,0-0.5,0-0.8,0c-1,0-1.9,0.2-2.8,0.5
		c-2.5,0.8-4.7,2.2-6.4,4.1c-0.7,0.8-1.4,1.6-2.1,2.4c-3,4.1-5,9.2-6.3,13.3c-0.1,0.2-0.1,0.4-0.2,0.5c-1.3,4.4-2.5,8.8-3.5,13.2
		C93.3,160.3,91.3,177.6,91.4,195z"/>
</g>
<g>
	<path class="st2" d="M161.2,114.7c-1.3-0.2-2.2-0.3-3.1-0.4l-2.3-0.3l-0.9-0.1c-0.3,0-1.9-0.2-2.2-0.2c0.2,0.1,0.4,0.3,0.5,0.4
		c0.2,0.1,0.3,0.3,0.5,0.5c0.2,0.2,0.2,0.3,0.4,0.4l0.1,0.1l0.2,0.3c0.1,0.2,0.3,0.3,0.4,0.5c0.1,0.1,0.2,0.3,0.3,0.4c0,0,0,0,0,0.1
		l0.1,0.1c0,0.1,0.1,0.2,0.1,0.2c0.1,0.2,0.2,0.4,0.3,0.6l0.1,0.3c0,0.1,0.1,0.2,0.1,0.3c0,0.1,0.1,0.2,0.1,0.3
		c0.1,0.2,0.1,0.4,0.2,0.6c0.1,0.2,0.1,0.4,0.1,0.5c0,0.1,0.1,0.2,0.1,0.3c0,0.2,0.1,0.4,0.1,0.6c0,0,0,0,0,0c0,0.2,0.1,0.4,0.1,0.6
		c0,0.1,0,0.3,0.1,0.4c0,0.1,0,0.3,0,0.5c0,0.2,0,0.3,0,0.4c0,0.1,0,0.3,0,0.5c0,0.2,0,0.2,0,0.4c0,0.1,0,0.2,0,0.2
		c0,0.1,0,0.2,0,0.3c0,0.3,0,0.6,0,0.8s0,0.5,0,0.8c0,0.2,0,0.4,0,0.7c0,0.7-0.1,1.4-0.1,2.1c-0.1,0.7-0.1,1.6-0.2,2.4
		c0,0.8-0.1,1.7-0.2,2.5c0,0.4-0.1,0.9-0.1,1.3c-0.1,0.9-0.1,1.8-0.2,2.7c-0.1,0.9-0.1,1.8-0.2,2.8c0,0.5-0.1,0.9-0.1,1.4
		c-0.1,0.9-0.1,1.9-0.2,2.9c-0.1,1-0.1,1.9-0.2,2.9c-0.1,1-0.1,2-0.2,2.9c0,0.5-0.1,1-0.1,1.5l-0.2,3c-0.1,2.5-0.3,4.9-0.4,7.4
		c0,0,0,0,0,0c-1.3-0.3-2.5-0.9-3.6-1.7h0l0,0l-0.1-0.1l-0.9,3.4l-10.9,40.8c2.8,2,5.5,4.2,8.1,6.6c0.5,0.4,0.9,0.9,1.4,1.3
		c2.2,0.9,3.7,1,4.9,0.6c0.1,0,0.2-0.1,0.3-0.1c0,0.1,0.1,0.2,0.1,0.3c0.2,0.4,0.5,0.8,0.9,1.2c0.4,0.3,0.8,0.5,1.3,0.7
		c0.3,0.1,0.7,0.1,1,0.1c0.7,0-0.3,0-1,0c-0.4,0-0.7,0-0.5,0.1c0.1,0,0.3,0.1,0.4,0.1h0.3h0.8c0.2,0,0.4,0,0.6,0h0.5
		c1,0,1.9,0,2.7,0c2.1-0.1,3.2-0.6,3.2-2.8c0-23.9,2.2-71,2.4-86.4c0-0.9,0-1.6,0-2.3C166.4,119.2,165.3,115.6,161.2,114.7z
		 M150.3,205.9c-0.1,0.2-0.2,0.3-0.4,0.5l0,0l-0.8-0.8c0,0,0,0,0,0c0,0,0-0.1,0.1-0.1c0-0.1,0.1-0.2,0.2-0.4l0.9,0.1l0.3,0
		C150.4,205.5,150.4,205.7,150.3,205.9z"/>
	<path class="st2" d="M160,215.4c-0.3,0-0.6,0-0.9,0c-0.3,0-0.7,0-1,0H156c-0.2,0-0.4-0.1-0.6-0.1l-0.1,0l-0.4-0.2l0.1-0.4
		c-0.2-0.1-0.4-0.2-0.5-0.4c-0.4-0.3-0.7-0.7-0.9-1.2c-1.4,0.4-3.1,0.2-5.1-0.7l-0.2-0.1c-0.5-0.4-0.9-0.9-1.4-1.3
		c-2.5-2.3-5.2-4.5-8-6.5l-0.3-0.2l12.1-45.4l0.9,0.5c0.8,0.6,1.7,1.1,2.7,1.4c0.1-2.2,0.2-4.4,0.4-6.6l0.2-4.5c0.1-1,0.1-2,0.2-2.9
		l0.4-7.2c0.1-0.9,0.1-1.9,0.2-2.8c0.1-0.9,0.1-1.8,0.2-2.7c0-0.2,0-0.3,0-0.5c0-0.3,0-0.5,0-0.8c0.1-0.9,0.1-1.8,0.2-2.6
		c0-0.8,0.1-1.7,0.2-2.4l0-0.2c0-0.6,0.1-1.2,0.1-1.8v-3.2c0-0.1,0-0.2,0-0.3l0-0.5c0-0.1,0-0.2,0-0.3l0-0.1c0-0.1,0-0.2,0-0.3
		c0-0.2,0-0.3-0.1-0.5l0-0.2l0,0c0-0.2-0.1-0.3-0.1-0.4c0-0.1,0-0.2-0.1-0.2c-0.1-0.2-0.1-0.4-0.1-0.6l-0.1-0.2
		c0-0.1-0.1-0.3-0.1-0.4c0-0.1-0.1-0.2-0.1-0.3c-0.1-0.2-0.1-0.2-0.1-0.3l-0.1-0.3c-0.1-0.2-0.2-0.4-0.3-0.6l-0.2-0.4
		c-0.1-0.1-0.1-0.3-0.2-0.4c-0.2-0.2-0.3-0.4-0.4-0.5l-0.3-0.3c-0.2-0.2-0.2-0.3-0.4-0.4c-0.2-0.2-0.3-0.3-0.5-0.4
		c-0.2-0.1-0.3-0.3-0.5-0.4l-1.6-1.2l2,0.1c0.3,0,1.9,0.2,2.2,0.2l3.4,0.5c0.8,0.1,1.7,0.3,3,0.4l0,0c3.8,0.8,5.7,3.8,5.7,9.2v2.3
		c-0.1,5.9-0.5,16.3-0.9,28.4c-0.7,19.3-1.5,43.2-1.5,58c0,2.8-1.8,3.3-3.8,3.4C160.6,215.4,160.3,215.4,160,215.4z M157.8,214.2
		h0.3c0.4,0,0.7,0,1,0c0.6,0,1.1,0,1.6,0c2.1-0.1,2.7-0.5,2.7-2.2c0-14.8,0.8-38.8,1.5-58.1c0.4-12.1,0.8-22.5,0.9-28.4v-2.3
		c0-4.8-1.5-7.4-4.7-8.1c-1.2-0.2-2.1-0.3-3-0.4l-3.4-0.5c-0.1,0-0.2,0-0.4,0c0,0,0.1,0.1,0.1,0.1l0.4,0.4c0.1,0.2,0.3,0.3,0.4,0.5
		c0.1,0.2,0.2,0.3,0.3,0.5l0.3,0.5c0.1,0.2,0.2,0.4,0.3,0.6l0.1,0.3c0,0.1,0.1,0.2,0.1,0.3c0.1,0.1,0.1,0.3,0.1,0.4
		c0,0.1,0.1,0.3,0.1,0.4l0.1,0.2c0.1,0.2,0.1,0.4,0.2,0.6c0,0.1,0.1,0.2,0.1,0.3c0,0.1,0.1,0.3,0.1,0.5l0,0.1l0,0l0,0
		c0,0.2,0.1,0.3,0.1,0.5c0,0.1,0,0.2,0.1,0.4l0,0.1c0,0.1,0,0.2,0,0.4l0,0.5c0,0.1,0,0.3,0,0.4c0,0.1,0,0.2,0,0.3l0,2.9
		c0,0.6,0,1.2-0.1,1.9l0,0.2c0,0.7-0.1,1.6-0.2,2.4c0,0.8-0.1,1.7-0.2,2.5c0,0.3,0,0.6,0,0.9c0,0.2,0,0.3,0,0.5
		c-0.1,0.9-0.1,1.8-0.2,2.7c-0.1,0.9-0.1,1.8-0.2,2.8l-0.4,7.2c-0.1,1-0.1,2-0.2,2.9l-0.2,4.5c-0.1,2.5-0.3,4.9-0.4,7.4l0,0.7
		l-0.7-0.1c-1.2-0.3-2.3-0.7-3.2-1.4l-0.7,2.6l-10.8,40.4c2.7,2,5.4,4.1,7.8,6.4c0.4,0.4,0.9,0.8,1.3,1.3c1.7,0.7,3.2,0.9,4.4,0.5
		c0.1-0.1,0.2-0.1,0.2-0.1l0.5-0.2l0.2,0.5c0,0.1,0,0.1,0.1,0.2c0,0,0,0.1,0,0.1c0.2,0.4,0.4,0.7,0.7,1c0.3,0.3,0.7,0.4,1,0.5
		c0.3,0.1,0.6,0.1,0.8,0.1C157.3,213.9,157.6,213.9,157.8,214.2z M149.9,207.1l-0.4-0.3l-1-0.9l0-0.4l0.1-0.2
		c0.1-0.1,0.1-0.2,0.1-0.3l0.2-0.4l2.1,0.3l0,0.5c0,0.3,0,0.6-0.1,0.9l0,0c-0.1,0.3-0.3,0.5-0.6,0.7L149.9,207.1z"/>
</g>
<g>
	<path class="st3" d="M91.9,203.5c-0.1-2.7-0.2-5.4-0.2-8.2c8,1.1,24.5,3.1,35.4,3.7l0,1.7c0,2.5,0,4,0,4l0,0v0c0,0.8,0,1.6-0.1,2.5
		C116.2,206.6,99.9,204.6,91.9,203.5z"/>
	<path class="st2" d="M127.2,207.5l-0.3,0c-10.8-0.6-26.9-2.5-35.1-3.7l-0.2,0l0-0.2c-0.1-2.6-0.2-5.3-0.2-8.2l0-0.3l0.3,0
		c8,1.1,24.6,3.1,35.3,3.7l0.3,0l0,1.9c0,2.5,0,4,0,4c0,0.8,0,1.7-0.1,2.5L127.2,207.5z M92.2,203.3c8.2,1.1,23.9,3,34.5,3.6
		c0-0.7,0.1-1.4,0-2.1c0-0.1,0-1.5,0-4l0-1.4c-10.6-0.6-26.7-2.5-34.8-3.6C92,198.4,92.1,200.8,92.2,203.3z"/>
</g>
<g>
	<path class="st3" d="M118.5,133.9c0,9.3-6.2,9.5-9.5,9.5h-8.2c1-4.4,2.2-8.8,3.5-13.2c0.1-0.2,0.1-0.4,0.2-0.5c1.3-4.1,2-6.9,5-11
		l5.3-2C120.8,116.6,118.5,124.6,118.5,133.9z"/>
</g>
<g>
	<path class="st3" d="M154.6,111.4l3.9-9.1l-12.2-10.7l-2,1.6l-2.6,2.1l-2.7,2.2c0,0,0.1,0.5,0.1,1.3c0.1,1.5,0,3.9-1,5.5l-7.5,7.3
		l-0.7-0.1c-2.6-0.4,8.7,10.9,15.1,10.8c4.8-0.1,7.2-1.3,7.3-5.4c0.4-0.7,0.6-1.2,1-1.8c0.1-0.1,0.1-0.3,0.2-0.4l-0.4,0l0.6-1.4
		l0.6-1.4L154.6,111.4z"/>
</g>
<g>
	<path class="st6" d="M154,111.1l3.8-8.7l-11.5-10.1l-1.6,1.3l0,0l-2.6,2.1l-2.4,2c0,0,0,0,0,0c0,0.2,0.1,0.6,0.1,1v0
		c0,0.8,0,1.8-0.1,2.8c-0.1,1-0.4,2.1-1,3l0,0.1l-7.7,7.6l-0.5-0.1c0.1,0.1,0.2,0.3,0.4,0.5c0.8,1,2.1,2.3,3.7,3.7
		c1.6,1.4,3.5,2.7,5.4,3.7c1.9,1,3.7,1.6,5.2,1.6c2.4,0,4-0.4,5.1-1.1c1-0.7,1.6-1.8,1.6-3.7l0-0.1l0.1-0.1c0.3-0.6,0.5-1,0.8-1.5
		l-0.3,0l1.5-3.5L154,111.1z M154.4,111.7l-0.6,1.4l-0.6,1.4l0.4,0l-0.2,0.4c0,0-0.1,0.1-0.1,0.1c-0.3,0.6-0.5,1-0.9,1.7
		c0,4.1-2.5,5.4-7.3,5.4c-6.4,0.1-17.8-11.1-15.1-10.8l0.7,0.1l7.5-7.3c1-1.6,1.1-4,1-5.5c-0.1-0.8-0.1-1.3-0.1-1.3l2.7-2.2l2.6-2.1
		l2-1.6l12.2,10.7l-3.9,9.1L154.4,111.7z M129.9,112C129.9,112,129.9,112,129.9,112C129.9,112,129.9,112,129.9,112z"/>
</g>
<g>
	<path class="st3" d="M154.1,371.7h40.5c0.1,0,0.2,0.1,0.2,0.2v6c0,0.1-0.1,0.2-0.2,0.2h-40.5c-0.1,0-0.2-0.1-0.2-0.2v-6
		C153.9,371.8,154,371.7,154.1,371.7z"/>
	<path class="st2" d="M194.6,378.5h-40.5c-0.3,0-0.5-0.2-0.5-0.5v-6c0-0.3,0.2-0.5,0.5-0.5h40.5c0.3,0,0.5,0.2,0.5,0.5v6
		C195.1,378.2,194.9,378.5,194.6,378.5z M154.2,377.9h40.3V372h-40.3V377.9z"/>
</g>
<g>
	<path class="st2" d="M184.7,368.4l0,0.3l0,0l0,0h0h0l0,0l0.1,0c0.1,0,0.2,0,0.4,0c0.3,0,0.8,0,1.3,0c1.1,0,2.4,0,3.8,0
		c1.3,0,2.6,0.2,3.5,0.6c0.9,0.4,1.5,1.1,1.6,2c0,0.1,0,0.2,0,0.3c0,0.4,0,0.8-0.1,1.2c0,0.2-0.1,0.4-0.1,0.6l0,0c0,0,0,0,0,0
		c0,0.1,0,0.1-0.1,0.2l0,0.1l0,0.1c0,0,0,0,0,0c0,0.1-0.1,0.1-0.1,0.2l0,0v0l0,0v0l0,0l0,0l0,0l0,0v0l0,0l0,0l0,0v0l0,0l0,0l0,0v0
		l0,0l0,0l0,0l0,0v0l0,0l0,0l0,0v0l0,0l0,0l0,0v0l0,0l0,0l0,0v0l0,0l0,0l0,0l0,0v0l0,0l0,0l0,0v0l0,0l0,0l0,0v0l0,0l0,0l0,0v0l0,0
		l0,0l0,0v0l0,0l0,0l0,0l0,0v0l0,0l0,0l0,0v0l0,0l0,0l0,0v0l0,0l0,0l0,0v0l0,0l0,0l0,0l0,0v0l0,0l0,0l0,0v0l0,0l0,0l0,0v0l0,0l0,0
		l0,0v0l0,0l0,0l0,0l0,0v0l0,0l0,0l0,0v0l0,0l0,0l0,0v0l0,0l0,0l0,0l0,0v0l0,0l0,0l0,0v0l0,0l0,0l0,0v0l0,0l0,0l0,0l0,0
		c0,0.1-0.1,0.2-0.1,0.2l0,0l0,0l-0.1,0.1c0,0,0,0,0,0l0,0c0,0,0,0,0,0c0,0,0,0.1,0,0.1c0,0,0,0-0.1,0.1l0,0l0,0
		c0,0-0.1,0.1-0.1,0.1c0,0.1-0.1,0.1-0.1,0.2c0,0,0,0,0,0l-0.1,0.1l0,0l0,0c0,0-0.1,0.1-0.1,0.1l0,0l0,0h0c0,0,0,0,0,0c0,0,0,0,0,0
		c0,0,0,0-0.1,0.1H194l-0.1,0.1c0,0-0.1,0-0.1,0.1l-0.1,0l0,0l-0.1,0l0,0l0,0l0,0l0,0h0l0,0l0,0l0,0l0,0h0l0,0l0,0l0,0l0,0l0,0h0
		l0,0l0,0l0,0l0,0h0l0,0l0,0l0,0l0,0l0,0h0l0,0l0,0l0,0l0,0h0l0,0l0,0l0,0l0,0l0,0h0l0,0l0,0l0,0l0,0h0l0,0l0,0l0,0l0,0h0l0,0l0,0
		l0,0l0,0h0l0,0l0,0l0,0l0,0h0l0,0l0,0l0,0l0,0l0,0h0l0,0l0,0l0,0l0,0h0l0,0l0,0l0,0l0,0h0l0,0l0,0l0,0l0,0h0l0,0l0,0l0,0l0,0h0l0,0
		l0,0l0,0l0,0h0l0,0l0,0l0,0l0,0h0l0,0l0,0l0,0h0l0,0l0,0l0,0l0,0h0l0,0l0,0l0,0l0,0h0l0,0l0,0l0,0l0,0h0l0,0l0,0l0,0h0l0,0l0,0l0,0
		l0,0h0l0,0l0,0l0,0l0,0h0l0,0l0,0l0,0h0l0,0l0,0l0,0l0,0h0l0,0l0,0l0,0l0,0h0l0,0l0,0l0,0h0l0,0l0,0l0,0l0,0h0l0,0l0,0l0,0h0l0,0
		l0,0l0,0l0,0h0l0,0l0,0l0,0h0l0,0l0,0l0,0h0l0,0l0,0l0,0l0,0h0l0,0l0,0l0,0h0l0,0l0,0l0,0h0l0,0l0,0h0l0,0c-0.1,0-0.1,0-0.2,0l0,0
		h0c-0.7,0.1-4.2,0.1-7.7,0.1c-1.7,0-3.4,0-4.7,0c-0.6,0-1.1,0-1.5,0l-0.4,0h-0.1h0c-1.1-0.1-2.3-0.1-3.5-0.2c-0.2,0-0.5,0-0.7,0
		c-1.5,0-3-0.1-4.4-0.3c-1.4-0.2-2.6-0.4-3.5-0.5c-0.4-0.1-0.8-0.1-1-0.2l-0.3,0l-0.1,0l0,0l0,0h0h0l0,0l0,0.3L184.7,368.4z
		 M184.7,368.4l-0.2,0.2l0,0h0l0,0l0,0l0,0l-0.1-0.1c-0.1-0.1-0.3-0.3-0.5-0.5c-0.4-0.4-1-0.9-1.7-1.5c-1.3-1.2-2.9-2.8-4.1-4.1l0,0
		l0-0.1l-2-5.5l-1.6,0.1h0l-4.9,0.4h0l-1.8,0.2c0,0.1-0.1,0.3-0.1,0.4c0,1.1-0.4,2.7-1.4,4.1c-1,1.4-2.5,2.6-4.7,2.7l0,0
		c-1.7,0.1-2.8-0.3-3.7-0.9c-0.7-0.5-1.2-1.1-1.5-1.6c-0.1-0.1-0.1-0.1-0.2-0.2c-0.2-0.2-0.3-0.3-0.4-0.3c-0.1,0-0.2,0-0.3,0
		c-0.2,0.1-0.5,0.3-0.6,0.6c-0.4,1.1-1,3.8-1,8.9v0.5v0c0,1.1,0,1.6,0.1,2.9c0.1,0,0.1,0,0.2,0c0.3,0,0.8,0,1.3,0c1.1,0,2.6,0,4,0
		c1.5,0,2.9,0,4,0c0.5,0,1,0,1.3,0l0.4,0l0.1,0h0h0h0l0,0c0,0,0,0,0,0.3L184.7,368.4z M184.7,368.4l-0.2,0.2l0.1,0.1l0.1,0
		L184.7,368.4z M165.4,374.8l0-0.3l0,0h0L165.4,374.8z M153.9,374.8C153.9,374.8,153.9,374.8,153.9,374.8
		C153.9,374.8,153.9,374.8,153.9,374.8L153.9,374.8z"/>
	<path class="st2" d="M184.9,376.1c-1.5,0-2.9,0-4,0l-2,0c-1.1-0.1-2.3-0.1-3.5-0.2l-0.7,0c-1.4,0-3-0.1-4.4-0.3
		c-1.4-0.2-2.6-0.4-3.5-0.5l-1.1-0.2l-0.6,0l-1.5,0c-1.1,0-2.6,0-4,0c-1.5,0-2.9,0-4,0c-0.6,0-1,0-1.3,0l-0.5,0l0-0.3
		c-0.1-1.3-0.1-1.8-0.1-2.9v-0.5c0.1-5.9,0.8-8.3,1-9c0.2-0.4,0.4-0.7,0.8-0.8c0.2-0.1,0.4-0.1,0.5,0c0.2,0.1,0.4,0.2,0.5,0.4
		l0.2,0.2c0.3,0.5,0.8,1.1,1.5,1.6c0.9,0.7,2.1,1,3.5,0.9c2.4-0.2,3.7-1.5,4.5-2.6c1-1.4,1.3-3,1.3-3.9l0-0.1c0-0.1,0.1-0.3,0.1-0.4
		l0-0.2l8.7-0.7l2.1,5.7c1.2,1.3,2.8,2.9,4,4c0.7,0.6,1.2,1.2,1.7,1.5l0.5,0.4l0.5-0.6l0,0.8l1.5,0c1.1,0,2.4,0,3.8,0
		c1.5,0,2.7,0.2,3.6,0.6c1.1,0.5,1.7,1.3,1.8,2.3c0,0.1,0,0.2,0,0.3c0,0.5,0,0.9-0.1,1.3c0,0.2-0.1,0.4-0.1,0.6l0,0.1
		c0,0.1,0,0.1-0.1,0.2l0,0.1l-0.1,0.1c0,0,0,0.1-0.1,0.1l0,0.1c0,0.1-0.1,0.2-0.1,0.3l-0.2,0.3c0,0,0,0.1-0.1,0.1c0,0,0,0.1-0.1,0.1
		c-0.1,0.1-0.1,0.2-0.2,0.2l-0.1,0.1c0,0.1-0.1,0.1-0.1,0.2l-0.2-0.2l0.2,0.3l-0.2,0.1c-0.1,0.1-0.1,0.1-0.2,0.1l-0.3,0.1
		c-0.1,0-0.2,0-0.3,0c-0.7,0.1-4.6,0.1-7.7,0.1C185.3,376.1,185.1,376.1,184.9,376.1z M179,375.5l1.9,0c1.2,0,2.9,0,4.7,0
		c4.4,0,7.1,0,7.7-0.1c0.1,0,0.1,0,0.1,0l0.4-0.1l0.1-0.1l0.1,0l0.3,0.1l-0.2-0.2l0.1-0.1c0,0,0.1-0.1,0.1-0.1c0,0,0-0.1,0.1-0.1
		c0.1-0.1,0.1-0.1,0.1-0.2l0.1-0.2c0-0.1,0.1-0.1,0.1-0.2l0-0.1c0-0.1,0-0.1,0.1-0.2l0,0l0-0.1c0-0.1,0.1-0.1,0.1-0.2
		c0.1-0.2,0.1-0.4,0.1-0.6c0.1-0.4,0.1-0.8,0.1-1.2c0-0.1,0-0.2,0-0.3c-0.1-0.8-0.5-1.4-1.4-1.8c-0.8-0.4-2-0.5-3.4-0.5
		c-1.3,0-2.7,0-3.8,0l-1.5,0v0l-0.4,0l0,0l0,0l-0.1,0l0-0.1l-0.3-0.3l0,0l-0.5-0.4c-0.4-0.4-1-0.9-1.7-1.6c-1.2-1.1-2.9-2.8-4.1-4.1
		l-0.1-0.1l-1.9-5.3l-7.8,0.6c0,0.1,0,0.1,0,0.2c0,1.1-0.4,2.7-1.4,4.2c-0.8,1.2-2.4,2.7-5,2.9c-1.5,0.1-2.8-0.2-3.9-1
		c-0.7-0.5-1.2-1.2-1.6-1.7l-0.2-0.2c-0.1-0.2-0.2-0.2-0.3-0.2c0,0-0.1,0-0.1,0c-0.1,0-0.3,0.2-0.4,0.5c-0.2,0.6-1,3-1,8.7v0.5
		c0,1.1,0,1.5,0.1,2.6c0.3,0,0.8,0,1.3,0c1.1,0,2.6,0,4,0c1.5,0,2.9,0,4,0l2.1,0l0,0l0.1,0l0,0l1.1,0.2c0.9,0.1,2.1,0.3,3.5,0.5
		c1.4,0.2,3,0.3,4.3,0.3l0.7,0c1.2,0,2.4,0.1,3.5,0.2L179,375.5z"/>
</g>
<g>
	<path class="st3" d="M137.8,371.9v6c0,0.1-0.1,0.2-0.2,0.2H96.6c-0.1,0-0.2-0.1-0.2-0.2v-6c0-0.1,0.1-0.2,0.2-0.2h0
		c0,1,0,1.5,0.1,2.6h0c0.3,0,0.8,0,1.3,0c1.1,0,2.6,0,4,0c1.5,0,2.9,0,4,0l2.1,0v0l0.1,0v0l1.1,0.2c0.9,0.1,2.1,0.3,3.5,0.5
		c1.4,0.2,3,0.3,4.3,0.3l0.7,0c1.2,0,2.4,0.1,3.5,0.2h0.1l1.9,0h4.7c4.4,0,7.1,0,7.7-0.1c0.1,0,0.1,0,0.1,0l0.4-0.1l0.2-0.2h0.1
		l0.2-0.2c0,0,0-0.1,0.1-0.1c0,0,0.1-0.1,0.1-0.1l0.1-0.2l0.3,0l-0.3-0.1l0-0.1c0,0,0.1-0.1,0.1-0.2l0-0.1c0-0.1,0.1-0.2,0.1-0.2
		l0.1-0.2l-2-1.6l-0.4-0.3h2.8C137.7,371.7,137.8,371.8,137.8,371.9z"/>
	<path class="st2" d="M137.6,371.4h-3.1l0.4,0.3l0.4,0.3h2.3v5.8H96.7v-3.6h0c-0.1-1.1-0.1-1.5-0.1-2.6v-0.3h0
		c-0.3,0-0.5,0.2-0.5,0.5v6c0,0.3,0.2,0.5,0.5,0.5h41.1c0.1,0,0.2,0,0.2,0c0.2-0.1,0.3-0.2,0.3-0.5v-6
		C138.1,371.7,137.9,371.4,137.6,371.4z M137.5,373.1v1.6c0,0,0-0.1,0.1-0.1c0-0.1,0.1-0.2,0.1-0.3l0-0.1c0,0,0-0.1,0.1-0.1l0-0.1
		v-0.6L137.5,373.1z"/>
</g>
<g>
	<path class="st2" d="M126.5,368.7l0.4,0.3l0.5,0l0-1.4L126.5,368.7z M126.5,368.7l0.4,0.3l0.5,0l0-1.4L126.5,368.7z M109.7,359.6
		c-0.1,0-0.2,0-0.3,0c0,0,0,0,0,0c0,0,0.1,0.1,0.1,0.1c0,0,0,0,0,0.1c0,0,0,0.1,0,0.2c0,0.2,0,0.4,0,0.7c0,0.1,0,0.2,0,0.3
		c0.1-0.3,0.2-0.6,0.3-0.8c0.1-0.1,0.1-0.3,0.1-0.4C109.9,359.6,109.8,359.6,109.7,359.6L109.7,359.6z M137.8,373.3l-0.3-0.2l-1.3-1
		l-0.4-0.3l-0.4-0.3h-1l0.4,0.3l0.4,0.3l2,1.6l-0.1,0.2c0,0.1,0,0.1-0.1,0.2l0,0.1c0,0,0,0.1-0.1,0.2l0,0.1l0.3,0.1l-0.3,0l-0.1,0.2
		c0,0-0.1,0.1-0.1,0.1c0,0,0,0.1-0.1,0.1l-0.2,0.2h-0.1l-0.2,0.2l-0.4,0.1c0,0-0.1,0-0.1,0c-0.5,0-3.2,0.1-7.7,0.1h-4.7l-1.9,0h-0.1
		c-1.1-0.1-2.3-0.1-3.5-0.2l-0.7,0c-1.4,0-2.9-0.1-4.3-0.3c-1.4-0.2-2.6-0.4-3.5-0.5l-1.1-0.2v0l-0.1,0v0l-2.1,0c-1.1,0-2.6,0-4,0
		c-1.5,0-2.9,0-4,0c-0.5,0-1,0-1.3,0h0c-0.1-1.1-0.1-1.5-0.1-2.6v-0.6c0.1-5.8,0.8-8.1,1-8.7c0.1-0.3,0.3-0.4,0.4-0.5
		c0,0,0.1,0,0.1,0c0.1,0,0.2,0.1,0.3,0.2l0.2,0.2c0.1,0.2,0.3,0.4,0.5,0.6c0.1,0.1,0.2,0.2,0.3,0.3c0.1,0.1,0.2,0.2,0.3,0.3
		c0.2,0.2,0.4,0.3,0.6,0.5c1.1,0.8,2.3,1.1,3.9,1c2-0.1,3.7-1.2,4.8-3.1c0.1-0.1,0.1-0.2,0.2-0.3c0.2-0.3,0.3-0.6,0.5-0.9
		c0.1-0.3,0.2-0.6,0.3-0.8c0.1-0.1,0.1-0.3,0.1-0.4c0.1-0.2,0.1-0.4,0.2-0.6c0.1-0.4,0.2-0.7,0.2-1c0-0.1,0-0.2,0.1-0.3l5.9-0.5
		l0.4,0l0.2,0.3c0.1,0,0.1-0.1,0.2-0.2c0,0,0.1,0,0.1-0.1c0,0,0.1-0.1,0.2-0.1l0.1-0.1c0.2-0.2,0.4-0.4,0.6-0.6l-1,0.1l-0.4,0
		l-6.9,0.6l0,0.2c0,0.2-0.1,0.3-0.1,0.5c-0.1,0.3-0.1,0.6-0.2,1c0,0.1-0.1,0.2-0.1,0.3c0,0.1-0.1,0.2-0.1,0.3c0,0,0,0,0,0
		c0,0.1-0.1,0.2-0.1,0.4c-0.2,0.6-0.5,1.2-0.9,1.8c-1.1,1.7-2.5,2.6-4.4,2.8c-1.4,0.1-2.5-0.2-3.5-0.9c-0.3-0.2-0.6-0.5-0.9-0.8
		c-0.1-0.1-0.2-0.2-0.3-0.3c-0.1-0.1-0.2-0.2-0.2-0.3c0-0.1-0.1-0.1-0.1-0.2l-0.2-0.2c-0.2-0.2-0.4-0.4-0.5-0.4
		c-0.2-0.1-0.4-0.1-0.5,0c-0.3,0.1-0.6,0.4-0.8,0.8c-0.2,0.6-1,3.1-1,9v0.5c0,1.1,0,1.6,0.1,2.8c0,0,0,0.1,0,0.2l0,0.3l0,0h0l0.5,0
		h0.1c0.3,0,0.7,0,1.3,0c1.1,0,2.6,0,4,0c1.5,0,2.9,0,4,0l1.5,0l0.6,0l1.1,0.2c0.9,0.1,2.1,0.3,3.5,0.5c1.4,0.2,3,0.3,4.4,0.3l0.7,0
		c1.2,0,2.4,0.1,3.5,0.2l2,0h4.7c3.1,0,7,0,7.7-0.1c0.1,0,0.2,0,0.3,0l0.3-0.1c0.1,0,0.2-0.1,0.2-0.1l0.3-0.2c0.1,0,0.1-0.1,0.1-0.1
		l0.1-0.1c0,0,0.1-0.1,0.1-0.2l0.1-0.2c0,0,0.1-0.1,0.1-0.2l0.1-0.1c0,0,0,0,0,0c0,0,0-0.1,0.1-0.1c0-0.1,0.1-0.2,0.1-0.3l0-0.1
		c0,0,0-0.1,0.1-0.1l0-0.1l0.1-0.5L137.8,373.3z M127.4,369l0-1.4l-0.9,1.1l0.4,0.3L127.4,369z M109.8,359.6L109.8,359.6
		c-0.1,0-0.3,0-0.4,0c0,0,0,0,0,0c0,0,0.1,0.1,0.1,0.1c0,0,0,0,0,0.1c0,0,0,0.1,0,0.2c0,0.2,0,0.4,0,0.7c0,0.1,0,0.2,0,0.3
		c0.1-0.3,0.2-0.6,0.3-0.8c0.1-0.1,0.1-0.3,0.1-0.4C109.9,359.6,109.8,359.6,109.8,359.6z M126.5,368.7l0.4,0.3l0.5,0l0-1.4
		L126.5,368.7z M135.8,371.7l-0.4-0.3h-1l0.4,0.3l0.4,0.3h1L135.8,371.7z M126.5,368.7l0.4,0.3l0.5,0l0-1.4L126.5,368.7z"/>
	<path class="st2" d="M137,374.4L137,374.4c0.1-0.1,0.1-0.2,0.1-0.2l0-0.1c0-0.1,0.1-0.2,0.1-0.2l0.1-0.2l-2-1.6l-0.4-0.3l-0.4-0.3
		h1l-16-12.8l-0.8-2.1l-0.5,0c-0.2,0.2-0.4,0.4-0.6,0.6l-0.1,0.1c-0.1,0-0.1,0.1-0.2,0.1c0,0-0.1,0.1-0.1,0.1
		c-0.1,0.1-0.1,0.1-0.2,0.2c-1.7,1.3-3.8,2-6.1,2c-0.3,0-0.6,0-0.9-0.1c0,0.1-0.1,0.3-0.1,0.4c-0.1,0.3-0.2,0.6-0.3,0.8
		c-0.1,0.3-0.3,0.6-0.5,0.9c0,0.1-0.1,0.2-0.2,0.3c-1.2,1.9-2.8,2.9-4.8,3.1c-1.5,0.1-2.8-0.2-3.9-1c-0.2-0.1-0.4-0.3-0.6-0.5
		c-0.1-0.1-0.2-0.2-0.3-0.3c-0.1-0.1-0.2-0.2-0.3-0.3c-0.2-0.2-0.3-0.4-0.5-0.6l-0.2-0.2c-0.1-0.2-0.2-0.2-0.3-0.2c0,0-0.1,0-0.1,0
		c-0.1,0-0.3,0.2-0.4,0.5c-0.2,0.6-0.9,3-1,8.7v0.6c0,1,0,1.5,0.1,2.6h0c0.3,0,0.8,0,1.3,0c1.1,0,2.6,0,4,0c1.5,0,2.9,0,4,0l2.1,0v0
		l0.1,0v0l1.1,0.2c0.9,0.1,2.1,0.3,3.5,0.5c1.4,0.2,3,0.3,4.3,0.3l0.7,0c1.2,0,2.4,0.1,3.5,0.2h0.1l1.9,0h4.7c4.4,0,7.1,0,7.7-0.1
		c0.1,0,0.1,0,0.1,0l0.4-0.1l0.2-0.2h0.1l0.2-0.2c0,0,0-0.1,0.1-0.1c0,0,0.1-0.1,0.1-0.1L137,374.4l0.3,0.1L137,374.4z M118.9,359
		l0.4,1.1l-1.1-1.7L118.9,359z M118.3,357.2l0.3,0.8l-0.9-0.7L118.3,357.2z M127.4,369l-0.5,0l-0.4-0.3l0.9-1.1L127.4,369z"/>
</g>
<g class="st7">
	<g>
		<path class="st3" d="M127.4,155c-4.2-4-9.9-9.4-13.3-12.4l0,0l0,0c0,0,0,0,0,0l0,0l0,0c-2.5-2.3-4.7-5.3-6.1-8.5
			c-1.4-3.2-2-6.7-1.2-9.9c0.5-1.9,1.5-3.7,2.9-5.1c0,0,0,0,0,0c0.1,0.1,0.3,0.2,0.4,0.3l0,0c0.2,0.1,0.3,0.2,0.5,0.3
			c0.1,0,0.2,0.1,0.2,0.1c0.1,0,0.2,0.1,0.4-0.1l0,0l0,0c1-0.9,2-0.8,3-0.7c0.2,0,0.4,0,0.7,0.1l0,0l0,0c0.7,0,1.2-0.3,1.6-0.5
			c0.1,0,0.1-0.1,0.2-0.1c0.2-0.1,0.3-0.2,0.5-0.2c0.1,0,0.3,0,0.6,0.2c1.5,1.1,2.8,2.5,3.9,4.1l0,0l0,0c1.2,1.2,4.2,3,7.4,4.9
			c-0.3,1.7-0.7,3.4-1.1,5.1c-0.1,0.2-0.1,0.4-0.2,0.6c-0.1,0.3-0.2,0.7-0.3,1l0,0v0v0v0v0v0v0v0v0v0v0v0v0v0v0v0v0v0v0v0v0v0v0v0v0
			v0v0v0v0v0v0v0v0v0v0v0v0v0v0v0v0v0v0v0v0v0v0v0v0v0v0v0v0v0v0v0v0v0v0v0v0v0v0v0v0v0v0v0v0v0v0v0v0v0v0v0v0v0v0v0v0v0v0v0v0v0v0
			v0v0v0v0v0v0v0v0v0v0v0v0v0v0v0v0v0v0v0v0v0v0v0v0v0v0v0v0v0v0v0v0v0v0v0v0v0v0v0v0v0v0v0v0v0v0v0v0v0v0v0v0v0v0v0v0v0v0v0v0v0v0
			v0v0v0v0v0v0v0v0v0v0v0v0v0v0v0v0v0v0v0v0v0v0v0v0v0v0v0v0v0v0v0v0v0v0v0v0v0v0v0v0v0v0v0v0v0v0v0v0v0v0v0v0v0v0v0v0v0v0v0v0v0v0
			v0v0v0v0v0v0v0v0v0v0v0v0v0v0v0v0v0v0v0v0v0v0v0v0v0v0v0v0v0v0v0v0v0v0v0v0v0v0v0v0v0v0v0v0v0v0v0v0v0v0v0v0v0v0v0v0v0v0v0v0v0v0
			v0v0v0v0v0v0v0v0v0v0v0v0v0v0v0v0v0v0v0v0v0v0v0v0v0v0v0v0v0v0v0v0v0v0v0v0v0v0v0v0v0v0v0v0v0v0v0v0v0v0v0v0v0v0v0v0v0v0v0v0v0v0
			v0v0v0v0v0v0v0v0v0v0v0v0v0v0v0v0v0v0v0v0v0v0v0v0v0v0v0v0v0v0v0v0v0v0v0v0v0v0v0v0v0v0v0v0v0v0v0v0v0v0v0v0v0v0v0v0v0v0v0v0v0v0
			v0v0v0v0v0v0v0v0v0v0v0v0v0v0v0v0v0v0v0v0v0v0v0v0v0v0v0v0v0v0v0v0v0v0v0v0v0v0v0v0v0v0v0v0v0v0v0v0v0v0v0v0v0v0v0v0v0v0v0v0v0v0
			v0v0v0v0v0v0v0v0v0v0v0v0v0v0v0v0v0v0v0v0v0v0v0v0v0v0v0v0v0v0v0v0v0v0v0v0v0v0v0v0v0v0v0v0v0v0v0v0v0v0v0v0v0v0v0v0
			C127.4,148.4,127.4,151.6,127.4,155z M109.6,118.9C109.6,118.9,109.6,118.9,109.6,118.9L109.6,118.9z"/>
	</g>
	<g>
		<path class="st2" d="M127.7,155.7l-0.5-0.5c-4.2-4-9.9-9.3-13.3-12.4l-0.1-0.1c-2.6-2.4-4.8-5.5-6.2-8.6c-1.6-3.6-2-7.1-1.2-10.1
			c0.5-2,1.5-3.8,3-5.3l0.2-0.2l0.2,0.1c0.1,0.1,0.3,0.2,0.5,0.3c0.2,0.1,0.3,0.2,0.5,0.3c0,0,0.1,0.1,0.2,0.1c0.1,0,0.1,0,0.1,0
			c1.1-1,2.2-0.9,3.3-0.8c0.2,0,0.4,0,0.7,0.1l0,0c0.6,0,1-0.2,1.4-0.5c0.1,0,0.1-0.1,0.2-0.1c0.2-0.1,0.4-0.2,0.6-0.2
			c0.2,0,0.5,0.1,0.7,0.3c1.5,1.2,2.9,2.6,3.9,4.1c1.1,1,3.5,2.7,7.3,4.9l0.2,0.1l0,0.2c-0.3,1.7-0.7,3.4-1.1,5.1l-0.2,0.7
			c-0.1,0.3-0.2,0.6-0.3,0.9l0,11.1c0,3.1,0,6.4,0,9.7L127.7,155.7z M109.7,119.3c-1.3,1.4-2.2,3-2.7,4.8c-0.7,2.9-0.3,6.3,1.2,9.7
			c1.3,3.1,3.5,6.1,6,8.4l0.1,0.1c3.2,3,8.6,8,12.8,12c0-3.1,0-6.1,0-9l0-11.2c0.1-0.3,0.2-0.6,0.3-0.9l0.2-0.7
			c0.4-1.6,0.8-3.2,1.1-4.8c-3.7-2.2-6.2-3.9-7.3-4.9l-0.1-0.1c-1.1-1.6-2.3-2.9-3.8-4c-0.1-0.1-0.3-0.2-0.4-0.2
			c-0.1,0-0.2,0-0.4,0.1l-0.1,0.1c-0.4,0.2-0.9,0.6-1.7,0.5l0,0c-0.2,0-0.4,0-0.6-0.1c-1.1-0.1-1.9-0.2-2.8,0.6
			c-0.2,0.2-0.4,0.2-0.7,0.1c-0.1,0-0.2-0.1-0.3-0.1c-0.2-0.1-0.3-0.2-0.5-0.3C109.9,119.4,109.8,119.4,109.7,119.3z"/>
	</g>
</g>
<g>
	<path class="st3" d="M138.1,49.5c0.6-2.6,2.6-6.4,8.9-6.9s6.5,4.6,6,5.5c-0.6,0.9-2.3,3-2.3,3l-6,1.3L138.1,49.5z"/>
</g>
<g>
	<path class="st6" d="M150.7,51c0,0,1.8-2.1,2.3-3c0.6-0.9,0.4-6-6-5.5s-8.3,4.3-8.9,6.9l6.6,2.9L150.7,51z M144.8,51.7l5.6-1.3
		c0,0,0.1-0.1,0.2-0.2c0.2-0.2,0.4-0.5,0.7-0.8c0.5-0.6,1.1-1.3,1.3-1.8c0,0,0.1-0.1,0.1-0.3c0-0.2,0-0.4,0-0.7
		c0-0.5-0.2-1.1-0.5-1.7c-0.6-1.1-2-2.2-5-1.9c-3,0.3-5,1.3-6.2,2.5c-1.1,1.1-1.7,2.4-2,3.5L144.8,51.7z"/>
</g>
<g>
	<path class="st3" d="M131.9,69.3c-3.6,4.7-5.6,9.1-4.9,11.8c1,3.6,6.2,2.6,27.4,1.5c21.3-1.1,30.4-7.7,26-18.8
		C177.8,57.1,131.9,69.3,131.9,69.3z"/>
</g>
<g>
	<path class="st6" d="M127.6,80.9c0.1,0.4,0.3,0.7,0.5,0.9c0.2,0.2,0.5,0.4,0.9,0.6c0.8,0.3,2.2,0.5,4.2,0.6c2.8,0,6.8-0.2,12.4-0.5
		c2.6-0.2,5.5-0.3,8.9-0.5c10.6-0.6,18.1-2.5,22.3-5.6c2.1-1.5,3.4-3.3,3.9-5.3c0.5-2,0.3-4.4-0.8-7.1c-0.2-0.5-0.9-1-2.4-1.3
		c-1.4-0.3-3.4-0.4-5.7-0.3c-4.6,0.2-10.6,1.1-16.5,2.2c-5.9,1.1-11.7,2.4-16,3.4c-2.2,0.5-4,1-5.2,1.3c-0.6,0.2-1.1,0.3-1.5,0.4
		c-0.1,0-0.2,0.1-0.3,0.1c-1.7,2.3-3,4.4-3.9,6.4C127.5,78.1,127.3,79.8,127.6,80.9z M131.9,69.3c-3.6,4.7-5.6,9.1-4.9,11.8
		c0.8,3,4.7,2.8,18.6,2c2.6-0.2,5.5-0.3,8.8-0.5c21.3-1.1,30.4-7.7,26-18.8C177.8,57.1,131.9,69.3,131.9,69.3z"/>
</g>
<g>
	<path class="st3" d="M131,81.6c0.9,12.7,4.1,16.1,9,16.1c4.1,0,7.5-5.6,7.3-6.9c-0.2-1.3-1.6-9.1-2.8-9.5S131,81.6,131,81.6z"/>
</g>
<g>
	<path class="st6" d="M136.9,96.5c0.9,0.5,1.9,0.7,3.1,0.7c1.8,0,3.5-1.2,4.8-2.8c0.6-0.7,1.1-1.5,1.5-2.2c0.2-0.3,0.3-0.6,0.4-0.9
		c0.1-0.3,0.1-0.4,0.1-0.4c-0.1-0.6-0.5-2.9-1-5c-0.3-1.1-0.6-2.1-0.8-2.9c-0.1-0.4-0.3-0.7-0.4-0.9c-0.1-0.1-0.1-0.2-0.2-0.2
		c0,0,0,0,0,0c0,0,0,0,0,0c0,0-0.1,0-0.2,0c-0.1,0-0.3,0-0.5,0c-0.4,0-1,0-1.7,0c-1.3,0-3,0.1-4.6,0.1c-1.6,0.1-3.2,0.1-4.4,0.2
		c-0.5,0-1,0.1-1.3,0.1c0.5,6,1.5,9.7,2.9,12C135.2,95.3,136,96,136.9,96.5z M131,82.2c1,12.2,4.1,15.5,9,15.5
		c4.1,0,7.5-5.6,7.3-6.9c-0.2-1.3-1.6-9.1-2.8-9.5c-1-0.4-10.5,0.1-13,0.3c-0.4,0-0.6,0-0.6,0C131,81.8,131,82,131,82.2z"/>
</g>
<g>
	<path class="st3" d="M142.6,95c-0.8-1.6-1.3,3.5-1.3,2.9c-0.2-10.8-9.5-2.8-10.2-14.7c-0.6-10.2-0.7-10.3-1-15.3
		c-0.5-9.9,5.2-20.3,26.3-20.2c11.7,0.1,14.7,4.6,17.4,10.6c4.9,11.1,0.9,25.4,0.9,25.4L142.6,95z"/>
</g>
<g>
	<path class="st6" d="M174.7,83.8c0,0,4-14.3-0.9-25.4c-2.6-6-5.7-10.5-17.4-10.6c-21.1-0.2-26.8,10.3-26.3,20.2
		c0.1,2.2,0.2,3.5,0.3,5.1c0.1,2,0.3,4.5,0.7,10.2c0.4,6.1,3,7,5.5,7.9c2,0.7,3.9,1.4,4.6,4.8c0.1,0.5,0.1,1,0.2,1.6
		c0,0.2,0,0.4,0,0.5c0,0.1,0,0.1,0,0c0,0,0,0,0,0c0-0.1,0-0.2,0.1-0.4c0,0,0-0.1,0-0.1c0.1-0.4,0.2-1,0.3-1.6
		c0.2-0.9,0.5-1.6,0.9-0.8L174.7,83.8z M142.8,94.3l31.4-11c0-0.1,0-0.2,0.1-0.3c0.1-0.4,0.2-1,0.4-1.7c0.3-1.5,0.6-3.6,0.8-6.1
		c0.4-4.9,0.1-11.2-2.3-16.6c-1.3-3-2.7-5.5-5.1-7.3c-2.4-1.8-6-2.9-11.8-3c-10.5-0.1-17,2.5-20.8,6.2c-3.8,3.7-5.1,8.6-4.8,13.4
		c0.1,2.2,0.2,3.5,0.3,5.1c0.1,2,0.3,4.5,0.7,10.2c0.2,2.9,0.9,4.5,1.7,5.5c0.9,1,2,1.4,3.2,1.8c0.1,0,0.1,0,0.2,0.1
		c1.1,0.4,2.4,0.8,3.4,1.8c0.6,0.6,1,1.4,1.3,2.4c0-0.1,0.1-0.1,0.1-0.2c0.1-0.1,0.4-0.5,0.9-0.4C142.6,94.1,142.7,94.2,142.8,94.3z
		"/>
</g>
<g>
	<path class="st3" d="M177.1,90.3l0.9-15.6c0-10.9-8.4-18-18.9-18.1c-4.1-0.1-8.1,1.2-11.3,3.8c-4,3.3-6.4,8.5-6.4,14.7l-0.7,2.1
		c-0.9-0.6-1.9-0.8-2.8-0.7c-2.8,0.5-4.4,3.6-4.1,7.7c0.2,3,1.7,5.5,3.5,6.4c0.2,1.8,0.6,3.6,1.1,5.4c1.5,4.7,11.3,13.6,19.1,15
		c3.8,0.4,6.2,1.5,9.7,0h0.1C173.2,108.5,177.1,95.7,177.1,90.3z"/>
</g>
<g>
	<path class="st6" d="M177.1,90.3l0.9-15.6c0-10.9-8.4-18-18.9-18.1c-4.1-0.1-8.1,1.2-11.3,3.8c-4,3.3-6.4,8.5-6.4,14.7l-0.7,2.1
		c-0.2-0.1-0.4-0.2-0.5-0.3c-0.7-0.4-1.5-0.5-2.3-0.4c-2.8,0.5-4.4,3.6-4.1,7.7c0.2,3,1.7,5.5,3.5,6.4c0.2,1.8,0.6,3.6,1.1,5.4
		c1.5,4.7,11.3,13.6,19.1,15c1,0.1,1.9,0.2,2.7,0.4c2.4,0.4,4.4,0.7,7-0.4h0.1C173.2,108.5,177.1,95.7,177.1,90.3z M167.2,110.6
		c1.3-0.6,2.5-1.8,3.7-3.4c1.2-1.6,2.2-3.6,3-5.7c1.7-4.2,2.6-8.7,2.6-11.3v0l0.9-15.6c0-10.5-8.1-17.4-18.3-17.5l0,0
		c-4-0.1-7.9,1.2-10.9,3.7c-3.8,3.2-6.1,8.2-6.1,14.3v0.1l-0.9,2.9l-0.7-0.4c-0.8-0.5-1.6-0.7-2.4-0.6c-1.2,0.2-2.1,1-2.8,2.2
		c-0.6,1.2-1,2.9-0.8,4.9c0.2,2.9,1.6,5.1,3.2,6l0.3,0.1l0,0.3c0.2,1.8,0.5,3.6,1.1,5.3c0.3,1.1,1.2,2.4,2.4,3.9
		c1.2,1.5,2.8,3.1,4.6,4.5c3.6,3,7.9,5.5,11.6,6.1c1,0.1,1.8,0.2,2.6,0.4l0,0c0.8,0.1,1.5,0.3,2.3,0.3c1.4,0.1,2.8,0,4.5-0.7
		L167.2,110.6L167.2,110.6z"/>
</g>
<g>
	<path class="st3" d="M139.5,73.6c0-2.9,0.6-5.8,1.8-8.4c1.2-2.6,3-5,5.2-6.8c-2.1-2.6-2.8-6.4-2.4-6.8c0.7-0.6,10.2-7.6,21.4-1.2
		c7.7,4.4,11.2,7.4,9.9,10.5c0,0,0,0.1,0,0.1l-0.1-0.1c-1.2,2.8-3.8,4.6-6.2,4.6c-9.8,0-9.6-5.7-16.9-5.2c-2.9,0.2-6.8,0.9-6.8,8.1
		c-0.1,5.7-0.7,11.3-1.7,16.9c-2.3,0.1-2.3-1.3-2.3-1.3c0-4.1-0.6-6.4-3.2-7.6L139.5,73.6z"/>
</g>
<g>
	<path class="st6" d="M140.1,73.8l-1,2.4c1.1,0.7,1.9,1.6,2.4,2.8c0.5,1.3,0.7,3,0.7,5.1c0,0,0,0,0,0c0,0,0,0,0,0.1
		c0,0.1,0.1,0.2,0.1,0.3c0.1,0.1,0.4,0.4,1.1,0.4c1-5.4,1.5-10.8,1.6-16.3c0-3.7,1-5.8,2.5-7.1c1.5-1.2,3.4-1.5,4.8-1.6
		c1.9-0.1,3.4,0.1,4.6,0.6c1.1,0.4,2.1,1.1,3,1.7c0.1,0.1,0.2,0.1,0.3,0.2c1,0.7,2.1,1.3,3.5,1.9c1.4,0.5,3.2,0.9,5.5,0.9
		c2,0,4.4-1.6,5.6-4.2v0l0-0.1c0.3-0.7,0.3-1.3,0.1-1.9c-0.2-0.7-0.7-1.4-1.5-2.2c-1.6-1.6-4.3-3.4-8.2-5.7c-10.4-6-19.3,0.1-20.6,1
		c0,0.1,0,0.2,0,0.4c0,0.4,0.1,1,0.3,1.6c0.4,1.3,1.1,2.8,2,4l0.4,0.5l-0.4,0.4c-2.2,1.8-3.9,4.1-5.1,6.6c-1.2,2.5-1.8,5.3-1.8,8.1
		L140.1,73.8z M175.6,60.4c0,0.2-0.1,0.4-0.2,0.6c0,0,0,0,0,0c0,0,0,0,0,0c0,0,0,0,0,0c0,0,0,0,0,0l-0.1-0.1c0,0,0,0.1-0.1,0.1
		c0,0,0,0.1,0,0.1c0,0,0,0.1-0.1,0.1c-1.2,2.6-3.8,4.3-6,4.3c-5.1,0-7.5-1.6-9.7-3c-2-1.3-3.7-2.5-7.2-2.2c-2.9,0.2-6.8,0.9-6.8,8.1
		c-0.1,5.7-0.7,11.3-1.7,16.9c-2.3,0.1-2.3-1.3-2.3-1.3c0-4.1-0.6-6.4-3.2-7.6l1.2-2.8c0-2.9,0.6-5.8,1.8-8.4c1.2-2.6,3-5,5.2-6.8
		c-2.1-2.6-2.8-6.4-2.4-6.8c0.7-0.6,10.2-7.6,21.4-1.2C172.7,54.6,176.3,57.5,175.6,60.4z"/>
</g>
<g>
	<path class="st2" d="M125.6,67.2c0,0.3,0,0.6,0,0.9c0,1.3,0.1,2.8,0.2,4.2c0.2,2.1,0.4,4.1,0.7,5.6c0.3,1.5,0.6,2.5,0.9,2.5h0.1
		c0.6-1,1.3-1.8,2.1-2.6c0.1-0.1,0.2-0.2,0.3-0.3l0.2-0.2l0.2-0.1l0.4-0.4c0.4-0.3,0.9-0.7,1.4-1c0.4-0.3,0.8-0.5,1.2-0.8l0.5-0.3
		c1.5-0.9,3.1-1.7,4.7-2.4c0.2-0.1,0.4-0.2,0.7-0.3c0.4-0.2,0.9-0.3,1.3-0.5c0.7-0.2,1.4-0.5,2.1-0.7c0.5-0.1,0.9-0.3,1.4-0.4
		c1.4-0.4,2.9-0.8,4.5-1.1c2.6-0.5,5.3-1,8-1.3c1.1-0.1,2.2-0.3,3.3-0.3c0.6-0.1,1.1-0.1,1.7-0.1c2.2-0.2,4.5-0.2,6.8-0.2
		c0.5,0,1,0,1.4,0h0.1c0.4,0,0.8,0,1.2,0h0.5l1.9,0c0.2,0,0.5,0,0.7,0h0l0.7,0h0.2h0.4h0.3c0.1,0,0.2,0,0.3,0h0.4
		c0.8,0,1.7,0.1,2.4,0.3c0.3,0.1,0.7,0.3,1,0.5c0.1,0,0.2-0.1,0.3-0.1c1-0.9,0.9-6-1.5-11.5c-0.1-0.2-0.1-0.3-0.2-0.4
		c-0.1-0.3-0.3-0.6-0.4-0.9c-2.1-4.1-5-7.1-11-9.4l-0.4-0.1c-0.2-0.1-1.2-1.5-3-2.1c-2.6-0.9-4.3-1.1-7.8-1c-0.6,0-1.1,0-1.7,0.1
		c-0.1,0-0.2,0-0.3,0c-1.5,0.1-3,0.3-4.4,0.5c0,0-0.1,0-0.1,0c-0.7,0.1-1.4,0.2-2.1,0.4c-1.2,0.3-2.4,0.6-3.5,0.9
		c-1.5,0.4-2.9,0.9-4.3,1.6c-0.4,0.2-0.9,0.4-1.3,0.7c-2.6,1.4-5,3.2-6.9,5.5l0,0c-2.2,2.6-3.8,5.6-4.7,8.9
		C125.8,63.1,125.6,65.1,125.6,67.2z"/>
</g>
<g>
	<path class="st2" d="M149.4,43.3L149.4,43.3L149.4,43.3c1.4-0.2,2.9-0.4,4.4-0.5c2.2,0.1,4.5,0.6,6.6,1.3c0.2,0.1,0.4,0.1,0.5,0.2
		l0,0l0,0c2.9,1.1,5.5,2.7,7.7,4.8c2.2,2.1,4,4.6,5.2,7.4l0,0l0,0c1,2.3,1.6,4.5,1.9,6.4c0.3,1.9,0.2,3.4,0,4.2
		c-0.1,0.2-0.1,0.4-0.2,0.5c0,0-0.1,0.1-0.1,0.1c-0.6-0.4-1.2-0.6-1.9-0.7c-0.8-0.1-1.9-0.1-3.4,0c-0.1,0-0.3,0-0.5,0
		c-1.5,0-3.3,0.1-5.7,0.1l-4.5-0.1c0.1-0.2,0.2-0.5,0.3-0.7c0.2-0.7,0.2-1.7,0.2-2.9c-0.1-2.3-0.8-5.4-2.2-8.6
		c-0.9-2.1-2.6-4.8-4.6-7.1c-1-1.1-2.1-2.2-3.2-2.9c-0.7-0.5-1.3-0.8-2-1.1c0.6-0.1,1.1-0.2,1.5-0.3
		C149.3,43.3,149.3,43.3,149.4,43.3L149.4,43.3z"/>
	<path class="st2" d="M175.3,68l-0.2-0.1c-0.5-0.4-1.1-0.6-1.8-0.7c-0.8-0.1-1.9-0.1-3.4,0l-0.5,0c-1.5,0-3.3,0.1-5.7,0.1l-5-0.1
		l0.2-0.4c0.1-0.2,0.2-0.4,0.2-0.7c0.2-0.7,0.2-1.7,0.2-2.8c-0.1-1.5-0.5-4.7-2.2-8.5c-1-2.3-2.8-5-4.5-7c-1.1-1.2-2.1-2.2-3.1-2.9
		c-0.7-0.5-1.3-0.8-2-1l-1-0.4l1.1-0.2c0.6-0.1,1.1-0.2,1.5-0.3l0.1,0l0.1,0.3l-0.1-0.3l0,0c1.4-0.2,2.8-0.4,4.4-0.5
		c2.3,0.1,4.6,0.6,6.7,1.3c0.2,0.1,0.4,0.1,0.6,0.2c2.9,1.1,5.5,2.7,7.8,4.8c2.3,2.1,4,4.7,5.3,7.5c1.2,2.7,1.7,5,1.9,6.5
		c0.3,1.8,0.2,3.4,0,4.3c-0.1,0.3-0.2,0.5-0.3,0.6c0,0.1-0.1,0.1-0.1,0.1L175.3,68z M171.9,66.5c0.6,0,1.1,0,1.5,0.1
		c0.6,0.1,1.3,0.3,1.8,0.6c0-0.1,0.1-0.1,0.1-0.3c0.3-0.9,0.3-2.4,0-4.1c-0.2-1.5-0.7-3.7-1.9-6.3c-1.2-2.8-2.9-5.2-5.1-7.3
		c-2.2-2.1-4.7-3.7-7.6-4.7c-0.2-0.1-0.4-0.2-0.6-0.2c-2.1-0.7-4.3-1.1-6.5-1.3c-1.6,0.1-3,0.3-4.3,0.5c0,0-0.1,0-0.2,0
		c-0.1,0-0.3,0.1-0.5,0.1c0.4,0.2,0.8,0.4,1.2,0.7c1.1,0.7,2.2,1.7,3.2,3c1.8,2.1,3.6,4.8,4.6,7.2c1.7,3.9,2.1,7.1,2.2,8.7
		c0.1,1.2,0,2.2-0.2,2.9c0,0.1-0.1,0.3-0.1,0.4l4,0.1c2.4,0,4.3-0.1,5.7-0.1l0.5,0C170.7,66.6,171.3,66.5,171.9,66.5z M149.4,43.5
		C149.4,43.5,149.4,43.5,149.4,43.5L149.4,43.5L149.4,43.5z M149.4,43.3l0.1,0.3l0,0L149.4,43.3z"/>
</g>
<g class="st8">
	<path class="st3" d="M155.7,64c4.7-1.1,11.3-2.1,20.2-2.3v5c-2-0.4-5.1-0.8-9.6-0.8c-2.7,0-6.8,0.7-10.6,1.5V64z"/>
	<path class="st2" d="M155.4,67.7v-4l0.2-0.1c5.8-1.3,12.6-2.1,20.2-2.3l0.3,0V67l-0.4-0.1c-2.5-0.5-5.7-0.8-9.5-0.8
		c-2.3,0-5.8,0.5-10.5,1.5L155.4,67.7z M156,64.2V67c4.5-0.9,8-1.4,10.3-1.4c3.7,0,6.8,0.2,9.3,0.7V62
		C168.3,62.2,161.7,62.9,156,64.2z"/>
</g>
<g>
	<path class="st3" d="M150,68.9c-1.2,0.3-1.7,0.4-1.7,0.4l-7.9,1.8l-7.9,3.5c0,0,15.8-9.1,22.9-10.7c4.8-1.1,11.6-2.2,20.8-2.4
		c1.2,0,2.4,0,3.7,0c8.5,0,12,0.6,12.6,1.4c0.2,0.3,0.1,1.7,0.1,2.1c0.4,1.6-7.2,3.8-11.4,4.8c-0.1,0-0.4,0-0.4,0
		c0,0-4.1-1.5-14.5-1.5C161.3,68.2,155.4,68.3,150,68.9z"/>
</g>
<g>
	<path class="st6" d="M149.9,68.3L149.9,68.3c5.5-0.5,11.4-0.7,16.4-0.7h0c5.2,0,8.9,0.4,11.3,0.8c1.2,0.2,2,0.4,2.6,0.5
		c0.3,0.1,0.5,0.1,0.6,0.2c0,0,0.1,0,0.1,0c0,0,0,0,0,0c0,0,0.1,0,0.1,0l0,0c0,0,0.1,0,0.1,0c2.1-0.5,5-1.3,7.3-2.2
		c1.2-0.4,2.2-0.9,2.9-1.3c0.3-0.2,0.6-0.4,0.7-0.5C192,65,192,65,192,65l0-0.1l0-0.1c0-0.2,0.1-0.7,0.1-1.1c0-0.2,0-0.4,0-0.5
		c0-0.1,0-0.1,0-0.1c-0.1-0.1-0.3-0.2-0.7-0.3c-0.5-0.2-1.2-0.3-2.2-0.4c-2-0.2-4.9-0.4-9.2-0.4c-1.3,0-2.5,0-3.7,0
		c-9.1,0.2-15.9,1.2-20.7,2.4l0,0c-3.4,0.8-8.7,3.3-13.4,5.6l6-1.3l0.1,0c0.1,0,0.2,0,0.3-0.1C148.9,68.5,149.3,68.4,149.9,68.3
		L149.9,68.3z M148.3,69.2l-7.9,1.8l-7.9,3.5c0,0,2.7-1.5,6.3-3.5c5.2-2.8,12.4-6.3,16.6-7.3c4.8-1.1,11.6-2.2,20.8-2.4
		c1.2,0,2.4,0,3.7,0c8.5,0,12,0.6,12.6,1.4c0.2,0.3,0.1,1.7,0.1,2.1c0.4,1.6-7.2,3.8-11.4,4.8c0,0-0.1,0-0.2,0c-0.1,0-0.2,0-0.2,0
		c0,0-4.1-1.5-14.5-1.5c-5,0.1-10.9,0.2-16.3,0.7C148.8,69.1,148.3,69.2,148.3,69.2z M192,65C192,65,192,65,192,65
		C192,65,192,65,192,65z"/>
</g>
<g>
	<path class="st2" d="M177.1,228.1C177.1,228.1,177.1,228.1,177.1,228.1c-0.2,0-0.3-0.2-0.3-0.4l1.6-7c0-0.2,0.2-0.3,0.4-0.2
		c0.2,0,0.3,0.2,0.2,0.4l-1.6,7C177.4,228,177.2,228.1,177.1,228.1z"/>
</g>
<g>
	<path class="st3" d="M172.1,217.2l-0.9,3.8c-0.5,2.1,1.1,3.8,3.5,3.8h8.3c1.1,0,2.1-0.4,3-1.1c0.9-0.7,1.5-1.6,1.7-2.7l0.9-3.8
		H172.1z"/>
</g>
<defs>
	
		<filter id="Adobe_OpacityMaskFilter_00000165215915843143025240000009519109264800400537_" filterUnits="userSpaceOnUse" x="170.5" y="217" width="18.8" height="8.4">
		<feColorMatrix  type="matrix" values="1 0 0 0 0  0 1 0 0 0  0 0 1 0 0  0 0 0 1 0"/>
	</filter>
</defs>
<mask maskUnits="userSpaceOnUse" x="170.5" y="217" width="18.8" height="8.4" id="path-48-inside-3_1663_7319_00000105398123174010977050000014466758701565355686_">
	<path style="fill:#FFFFFF;filter:url(#Adobe_OpacityMaskFilter_00000165215915843143025240000009519109264800400537_);" d="
		M172.1,217.2l-0.9,3.8c-0.5,2.1,1.1,3.8,3.5,3.8h8.3c1.1,0,2.1-0.4,3-1.1c0.9-0.7,1.5-1.6,1.7-2.7l0.9-3.8"/>
</mask>
<g class="st10">
	<path class="st2" d="M171.2,221l0.6,0.1l0,0L171.2,221z M183.1,224.8v0.6h0l0,0L183.1,224.8z M187.8,221l0.6,0.2l0,0l0,0L187.8,221
		z M171.5,217l-0.9,3.8l1.2,0.3l0.9-3.8L171.5,217z M170.6,220.8c-0.3,1.2,0,2.4,0.8,3.2c0.8,0.8,2,1.3,3.3,1.3v-1.2
		c-1.1,0-1.9-0.4-2.4-0.9c-0.5-0.5-0.7-1.3-0.5-2.1L170.6,220.8z M174.8,225.4h8.3v-1.2h-8.3V225.4z M183.1,225.4
		c1.2-0.1,2.4-0.5,3.3-1.3l-0.8-0.9c-0.8,0.6-1.7,1-2.6,1L183.1,225.4z M186.4,224.1c1-0.8,1.6-1.8,2-3l-1.2-0.3
		c-0.2,0.9-0.8,1.8-1.5,2.4L186.4,224.1z M188.4,221.1l0.9-3.8l-1.2-0.3l-0.9,3.8L188.4,221.1z"/>
</g>
<g>
	<path class="st3" d="M196.7,121.9v-6.1h14.2h10.3v6.1h-10.3H196.7z"/>
	<path class="st2" d="M221.5,122.2h-25.1v-6.7h25.1V122.2z M197,121.6h23.9v-5.5H197V121.6z"/>
</g>
<g>
	<path class="st3" d="M196.7,132.8v-6.1h14.2h10.3v6.1h-10.3H196.7z"/>
	<path class="st2" d="M221.5,133.1h-25.1v-6.7h25.1V133.1z M197,132.5h23.9V127H197V132.5z"/>
</g>
<g>
	<path class="st3" d="M218.7,60.2L218.7,60.2L218.7,60.2l2.3-9.6h4.1c0.6,0,1.3,0.4,1.9,1.5v0l4.5,8.1c0,0,0,0,0,0
		c0.6,1,1.1,2.6,1.5,4.2c0.4,1.6,0.6,3.4,0.6,4.8v43.4c0,1.4-0.4,2.6-0.9,3.5c-0.6,0.9-1.3,1.4-2.1,1.4h-11.1
		c-0.8,0-1.5-0.5-2.1-1.4c-0.6-0.9-0.9-2.1-0.9-3.5V69.2c0-1.4,0.2-3.1,0.6-4.8C217.5,62.8,218.1,61.3,218.7,60.2z"/>
	<path class="st2" d="M230.6,117.9h-11.1c-0.9,0-1.7-0.5-2.3-1.5c-0.6-1-1-2.3-1-3.7V69.2c0-1.4,0.2-3.1,0.6-4.9
		c0.4-1.7,1-3.3,1.5-4.3l0,0l2.3-9.7h4.4c0.5,0,1.4,0.2,2.2,1.6l4.5,8.1c0.6,1.1,1.1,2.6,1.5,4.3c0.4,1.7,0.6,3.5,0.6,4.9v43.4
		c0,1.4-0.3,2.7-1,3.7C232.3,117.3,231.5,117.9,230.6,117.9z M221.2,50.9l-2.2,9.4c-0.6,1-1.1,2.5-1.5,4.2c-0.4,1.7-0.6,3.4-0.6,4.7
		v43.4c0,1.3,0.3,2.5,0.9,3.4c0.5,0.8,1.2,1.3,1.8,1.3h11.1c0.7,0,1.3-0.4,1.8-1.3c0.6-0.9,0.9-2.1,0.9-3.4V69.2
		c0-1.3-0.2-3-0.6-4.7c-0.4-1.7-0.9-3.2-1.5-4.2l-4.5-8.1c-0.5-0.8-1.1-1.3-1.7-1.3H221.2z"/>
</g>
<g>
	<path class="st3" d="M218.5,52.1L218.5,52.1c0.6-1,1.3-1.5,1.9-1.5c0.6,0,1.3,0.4,1.9,1.5c0,0,0,0,0,0l4.5,8.1v0
		c0.6,1,1.1,2.6,1.5,4.2c0.4,1.6,0.6,3.4,0.6,4.8v43.4c0,1.4-0.4,2.6-0.9,3.5c-0.6,0.9-1.3,1.4-2.1,1.4h-11.1
		c-0.8,0-1.5-0.5-2.1-1.4c-0.6-0.9-0.9-2.1-0.9-3.5V69.2c0-1.4,0.2-3.1,0.6-4.8c0.4-1.6,0.9-3.2,1.5-4.2c0,0,0,0,0,0L218.5,52.1z"/>
	<path class="st2" d="M226,117.9h-11.1c-0.9,0-1.7-0.5-2.3-1.5c-0.6-1-1-2.3-1-3.7V69.2c0-1.4,0.2-3.1,0.6-4.9
		c0.4-1.7,1-3.3,1.5-4.3l4.5-8.1l0.3,0.1l-0.3-0.1c0.8-1.4,1.7-1.6,2.2-1.6s1.4,0.2,2.2,1.6l4.5,8.1c0.6,1,1.1,2.6,1.5,4.3
		c0.4,1.7,0.6,3.5,0.6,4.9v43.4c0,1.4-0.3,2.7-1,3.7C227.7,117.3,226.9,117.9,226,117.9z M220.5,50.9c-0.6,0-1.2,0.5-1.7,1.3
		l-4.5,8.1c-0.5,1-1.1,2.5-1.5,4.2c-0.4,1.7-0.6,3.4-0.6,4.7v43.4c0,1.3,0.3,2.5,0.9,3.4c0.5,0.8,1.2,1.3,1.8,1.3H226
		c0.7,0,1.3-0.4,1.8-1.3c0.6-0.9,0.9-2.1,0.9-3.4V69.2c0-1.4-0.2-3-0.6-4.7c-0.4-1.7-0.9-3.2-1.5-4.2l-4.5-8.1
		C221.6,51.4,221,50.9,220.5,50.9z"/>
</g>
<g>
	<path class="st3" d="M193.5,70.1h24.7v31.2h-24.7V70.1z"/>
	<path class="st2" d="M218.4,101.6h-25.3V69.8h25.3V101.6z M193.8,101h24.1V70.4h-24.1V101z"/>
</g>
<g>
	<path class="st2" d="M213.4,70.1h12.1c1.2,0,2.2,1,2.2,2.2v26.8c0,1.2-1,2.2-2.2,2.2h-12.1c-1.2,0-2.2-1-2.2-2.2V72.3
		C211.2,71,212.2,70.1,213.4,70.1z"/>
	<path class="st2" d="M225.5,101.6h-12.1c-1.4,0-2.5-1.1-2.5-2.5V72.3c0-1.4,1.1-2.5,2.5-2.5h12.1c1.4,0,2.5,1.1,2.5,2.5v26.8
		C228,100.4,226.9,101.6,225.5,101.6z M213.4,70.4c-1,0-1.9,0.8-1.9,1.9v26.8c0,1,0.8,1.9,1.9,1.9h12.1c1,0,1.9-0.8,1.9-1.9V72.3
		c0-1-0.8-1.9-1.9-1.9H213.4z"/>
</g>
<g>
	<path class="st3" d="M191.9,108.1h29.9v9.5h-29.9V108.1z"/>
	<path class="st2" d="M222.1,117.9h-30.5v-10.1h30.5V117.9z M192.2,117.3h29.3v-8.9h-29.3V117.3z"/>
</g>
<g>
	<path class="st3" d="M230.9,116.5L230.9,116.5L230.9,116.5c0,0.1,0.1,0.3,0,0.4c0,0.1-0.1,0.3-0.2,0.4c-0.1,0.1-0.2,0.2-0.3,0.2
		s-0.3,0.1-0.4,0.1l0,0h0h-17c-0.4,0-0.7-0.1-1-0.4c-0.3-0.2-0.5-0.5-0.6-0.9l-1.9-7.2l0,0l0,0c0-0.1-0.1-0.3,0-0.4
		c0-0.1,0.1-0.3,0.2-0.4c0.1-0.1,0.2-0.2,0.3-0.2c0.1-0.1,0.3-0.1,0.4-0.1l0,0h0h17c0.4,0,0.7,0.1,1,0.4c0.3,0.2,0.5,0.5,0.6,0.9
		L230.9,116.5z"/>
	<path class="st2" d="M230.1,117.9C230.1,117.9,230.1,117.9,230.1,117.9l-17.1,0c-0.4,0-0.8-0.2-1.2-0.4c-0.3-0.3-0.6-0.6-0.7-1
		l-1.9-7.2c-0.1-0.2-0.1-0.4,0-0.5c0-0.2,0.1-0.3,0.2-0.5s0.3-0.3,0.4-0.3c0.2-0.1,0.4-0.1,0.5-0.1l17,0c0.4,0,0.8,0.2,1.2,0.4
		c0.3,0.3,0.6,0.6,0.7,1l1.9,7.2c0.1,0.2,0.1,0.4,0,0.5c0,0.2-0.1,0.3-0.2,0.5c-0.1,0.1-0.3,0.3-0.4,0.3
		C230.4,117.9,230.3,117.9,230.1,117.9z M230.1,117.3c0.1,0,0.2,0,0.3,0c0.1,0,0.1-0.1,0.2-0.1c0.1-0.1,0.1-0.1,0.1-0.2
		c0-0.1,0-0.2,0-0.2l0,0l-1.9-7.2c-0.1-0.3-0.3-0.5-0.5-0.7c-0.2-0.2-0.5-0.3-0.8-0.3h-17c-0.1,0-0.2,0-0.3,0
		c-0.1,0-0.1,0.1-0.2,0.2c0,0.1-0.1,0.1-0.1,0.2c0,0.1,0,0.2,0,0.2l1.9,7.2c0.1,0.3,0.3,0.5,0.5,0.7c0.2,0.2,0.5,0.3,0.8,0.3H230.1z
		"/>
</g>
<g>
	<path class="st3" d="M193,60.2L193,60.2L193,60.2l2.3-9.6h4.1c0.6,0,1.4,0.4,1.9,1.5l0,0l4.5,8.1c0,0,0,0,0,0
		c0.6,1,1.1,2.6,1.5,4.2c0.4,1.6,0.6,3.4,0.6,4.8v43.6c0,1.4-0.4,2.6-0.9,3.5c-0.6,0.9-1.3,1.4-2.1,1.4h-11.1
		c-0.8,0-1.5-0.5-2.1-1.4c-0.6-0.9-0.9-2.1-0.9-3.5V69.2c0-1.4,0.2-3.1,0.6-4.8C191.9,62.8,192.4,61.3,193,60.2z"/>
	<path class="st2" d="M205,118.1h-11.1c-0.9,0-1.7-0.5-2.3-1.5c-0.6-1-1-2.3-1-3.7V69.2c0-1.4,0.2-3.1,0.6-4.9
		c0.4-1.7,1-3.3,1.5-4.3l0,0l2.3-9.7h4.4c0.5,0,1.4,0.2,2.2,1.6l4.5,8.1c0.6,1.1,1.1,2.6,1.5,4.3c0.4,1.7,0.6,3.5,0.6,4.9v43.6
		c0,1.4-0.3,2.7-1,3.7C206.7,117.5,205.9,118.1,205,118.1z M195.5,50.9l-2.3,9.4c-0.6,1-1.1,2.5-1.5,4.2c-0.4,1.7-0.6,3.4-0.6,4.7
		v43.6c0,1.3,0.3,2.5,0.9,3.4c0.5,0.8,1.2,1.3,1.8,1.3H205c0.7,0,1.3-0.4,1.8-1.3c0.6-0.9,0.9-2.1,0.9-3.4V69.2c0-1.3-0.2-3-0.6-4.7
		c-0.4-1.7-0.9-3.2-1.5-4.2l-4.5-8.1c-0.5-0.8-1.1-1.3-1.7-1.3H195.5z"/>
</g>
<g>
	<path class="st3" d="M188.4,60.2L188.4,60.2L188.4,60.2l4.5-8.1c0,0,0,0,0,0c0.6-1,1.3-1.5,1.9-1.5c0.6,0,1.3,0.4,1.9,1.5
		c0,0,0,0,0,0l4.5,8.1c0,0,0,0,0,0c0.6,1,1.1,2.6,1.5,4.2c0.4,1.6,0.6,3.4,0.6,4.8v43.6c0,1.4-0.4,2.6-0.9,3.5
		c-0.6,0.9-1.3,1.4-2.1,1.4h-11.1c-0.8,0-1.5-0.5-2.1-1.4c-0.6-0.9-0.9-2.1-0.9-3.5V69.2c0-1.4,0.2-3.1,0.6-4.8
		C187.3,62.8,187.8,61.3,188.4,60.2z"/>
	<path class="st2" d="M200.3,118.1h-11.1c-0.9,0-1.7-0.5-2.3-1.5c-0.6-1-1-2.3-1-3.7V69.2c0-1.4,0.2-3.1,0.7-4.8
		c0.4-1.7,1-3.3,1.6-4.3l0,0l4.5-8.1c0.8-1.4,1.7-1.6,2.2-1.6c0.5,0,1.4,0.2,2.2,1.6l4.5,8.1c0.6,1.1,1.1,2.6,1.5,4.3
		c0.4,1.7,0.6,3.5,0.6,4.9v43.6c0,1.4-0.3,2.7-1,3.7C202.1,117.5,201.2,118.1,200.3,118.1z M188.4,60.2l0.3,0.1
		c-0.6,1-1.1,2.5-1.5,4.2c-0.4,1.7-0.6,3.4-0.6,4.7v43.6c0,1.3,0.3,2.5,0.9,3.4c0.5,0.8,1.2,1.3,1.8,1.3h11.1c0.7,0,1.3-0.4,1.8-1.3
		c0.6-0.9,0.9-2.1,0.9-3.4V69.2c0-1.3-0.2-3-0.6-4.7c-0.4-1.7-0.9-3.2-1.5-4.2l-4.5-8.1c-0.5-0.8-1.1-1.3-1.7-1.3s-1.2,0.5-1.7,1.3
		l-4.5,8.1L188.4,60.2z"/>
</g>
<g>
	<path class="st3" d="M190.7,117.7L190.7,117.7l-1.5,0c-0.8,0-1.5-0.5-2.1-1.4c-0.6-0.9-0.9-2.1-0.9-3.5V90.6l4.4-0.9l7.8,1.4l0.2,0
		l0.1-0.1c0,0,0.1-0.1,0.2-0.2c-0.1,0.4-0.2,1-0.3,1.6c-0.1,0.7-0.1,1.5-0.1,2.2c0,0.8,0,1.6,0,2.3c0,0.1,0,0.2,0,0.3
		c0,0.6,0,1.1,0,1.5c0,0.3,0,0.7,0,1.3c0.1,1.3,0.2,3.3,0,5.4c-0.1,1.4-0.2,2.9-0.6,4.2c-0.3,1.3-0.8,2.3-1.6,3
		c-1.6,1.5-3,2.8-4.1,3.7c-0.5,0.5-1,0.8-1.3,1.1C190.9,117.6,190.8,117.7,190.7,117.7z M199,90.3C199,90.3,199,90.3,199,90.3
		L199,90.3z"/>
</g>
<g>
	<path class="st3" d="M192.1,86.1c1.2,0,2.3,1.3,2.3,3.1s-1.1,3.1-2.3,3.1h-2.3v-6.2H192.1z"/>
	<path class="st2" d="M194.8,89.2c0,1.9-1.2,3.4-2.6,3.4h-2.6v-6.8 M190.1,92h2c1,0,2-1.1,2-2.8c0-1.7-1.1-2.8-2-2.8h-2V92z"/>
</g>
<g>
	<path class="st3" d="M191.8,89.2c0,1.8-1.1,3.1-2.3,3.1c-1.2,0-2.3-1.3-2.3-3.1c0-1.8,1.1-3.1,2.3-3.1
		C190.7,86.1,191.8,87.4,191.8,89.2z"/>
	<path class="st2" d="M189.5,92.6c-1.5,0-2.6-1.5-2.6-3.4s1.2-3.4,2.6-3.4s2.6,1.5,2.6,3.4S191,92.6,189.5,92.6z M189.5,86.4
		c-1.1,0-2,1.3-2,2.8s0.9,2.8,2,2.8s2-1.3,2-2.8S190.6,86.4,189.5,86.4z"/>
</g>
<g>
	<path class="st2" d="M192.4,127.3v-6.1h19.2h13.9v6.1h-13.9H192.4z"/>
	<path class="st2" d="M225.8,127.6h-33.7v-6.7h33.7V127.6z M192.7,127h32.5v-5.5h-32.5V127z"/>
</g>
<g>
	<path class="st3" d="M225.7,83c0,4.3-2.7,7.7-5.9,7.7c-3.2,0-5.9-3.4-5.9-7.7c0-4.3,2.7-7.7,5.9-7.7C223,75.3,225.7,78.7,225.7,83z
		"/>
	<path class="st2" d="M219.8,91c-3.4,0-6.2-3.6-6.2-8s2.8-8,6.2-8s6.2,3.6,6.2,8S223.2,91,219.8,91z M219.8,75.6
		c-3.1,0-5.6,3.3-5.6,7.4s2.5,7.4,5.6,7.4s5.6-3.3,5.6-7.4S222.9,75.6,219.8,75.6z"/>
</g>
<g>
	<path class="st3" d="M216,81.8c0-3.6,2.3-6.5,4.9-6.5h2.3v12.9h-2.3C218.2,88.2,216,85.4,216,81.8z"/>
	<path class="st2" d="M223.5,88.5h-2.6c-2.9,0-5.2-3-5.2-6.7c0-3.7,2.4-6.8,5.2-6.8h2.6V88.5z M220.9,75.6c-2.6,0-4.6,2.8-4.6,6.2
		c0,3.4,2.1,6.1,4.6,6.1h2V75.6H220.9z"/>
</g>
<g>
	<path class="st3" d="M228.4,81.8c0,3.6-2.3,6.4-4.9,6.4c-2.7,0-4.9-2.8-4.9-6.4c0-3.6,2.3-6.4,4.9-6.4
		C226.2,75.3,228.4,78.1,228.4,81.8z"/>
	<path class="st2" d="M223.5,88.5c-2.9,0-5.2-3-5.2-6.7s2.4-6.7,5.2-6.7s5.2,3,5.2,6.7S226.4,88.5,223.5,88.5z M223.5,75.6
		c-2.6,0-4.6,2.8-4.6,6.1s2.1,6.1,4.6,6.1s4.6-2.8,4.6-6.1S226.1,75.6,223.5,75.6z"/>
</g>
<g>
	<path class="st2" d="M220.1,52.5H219c-0.2,0-0.3-0.1-0.3-0.3s0.1-0.3,0.3-0.3h1.1c0.2,0,0.3,0.1,0.3,0.3S220.3,52.5,220.1,52.5z"/>
</g>
<g>
	<path class="st2" d="M218,52.5h-17.8c-0.2,0-0.3-0.1-0.3-0.3s0.1-0.3,0.3-0.3H218c0.2,0,0.3,0.1,0.3,0.3S218.1,52.5,218,52.5z"/>
</g>
<g>
	<path class="st3" d="M221.7,81.8c0-1.9,1.2-3.2,2.5-3.2h2.1V85h-2.1C222.9,85,221.7,83.6,221.7,81.8z"/>
	<path class="st2" d="M226.5,85.3h-2.4c-1.5,0-2.8-1.6-2.8-3.5c0-2,1.2-3.5,2.8-3.5h2.4V85.3z M224.1,78.8c-1.2,0-2.2,1.3-2.2,2.9
		c0,1.6,1,2.9,2.2,2.9h1.8v-5.9H224.1z"/>
</g>
<g>
	<path class="st3" d="M226.5,85c-1.3,0-2.5-1.4-2.5-3.2c0-0.9,0.3-1.7,0.7-2.3c0.5-0.6,1.1-0.9,1.7-0.9c1.3,0,2.5,1.4,2.5,3.2
		C229,83.6,227.8,85,226.5,85z"/>
	<path class="st2" d="M226.5,85.3c-1.5,0-2.8-1.6-2.8-3.5c0-0.9,0.3-1.8,0.8-2.5c0.5-0.7,1.2-1,1.9-1c1.5,0,2.8,1.6,2.8,3.5
		C229.3,83.7,228.1,85.3,226.5,85.3z M226.5,78.8c-0.5,0-1.1,0.3-1.5,0.8c-0.4,0.6-0.7,1.3-0.7,2.1c0,1.6,1,2.9,2.2,2.9
		s2.2-1.3,2.2-2.9C228.7,80.1,227.7,78.8,226.5,78.8z"/>
</g>
<g>
	<path class="st2" d="M213,110.8L213,110.8L213,110.8c0-0.1,0-0.2,0-0.3c0-0.1,0.1-0.2,0.1-0.3c0.1-0.1,0.1-0.1,0.2-0.2
		c0.1,0,0.2-0.1,0.3,0l0,0h0h12.1c0.3,0,0.6,0.1,0.8,0.3c0.2,0.2,0.4,0.4,0.5,0.7l1,3.9l0,0l0,0c0,0.1,0,0.2,0,0.3
		c0,0.1-0.1,0.2-0.1,0.2c-0.1,0.1-0.1,0.1-0.2,0.2c-0.1,0-0.2,0.1-0.3,0l0,0h0h-12.1c-0.3,0-0.6-0.1-0.8-0.3
		c-0.2-0.2-0.4-0.4-0.5-0.7L213,110.8z"/>
	<path class="st2" d="M227.6,116C227.5,116,227.5,116,227.6,116l-12.2,0c-0.4,0-0.7-0.1-1-0.4c-0.3-0.2-0.5-0.5-0.6-0.9l-1-4
		c0-0.1-0.1-0.3,0-0.4c0-0.1,0.1-0.3,0.2-0.4c0.1-0.1,0.2-0.2,0.3-0.3c0.1-0.1,0.3-0.1,0.4-0.1h12.1c0.4,0,0.7,0.2,1,0.4
		c0.3,0.2,0.5,0.5,0.6,0.9l1,3.9c0,0.1,0.1,0.3,0,0.4c0,0.1-0.1,0.3-0.2,0.4c-0.1,0.1-0.2,0.2-0.3,0.3
		C227.8,116,227.7,116,227.6,116z M227.5,115.4c0.1,0,0.1,0,0.2,0c0,0,0.1,0,0.1-0.1c0,0,0-0.1,0-0.1c0,0,0-0.1,0-0.1l-1-4
		c-0.1-0.2-0.2-0.4-0.4-0.6c-0.2-0.1-0.4-0.2-0.7-0.2l-12.1,0c-0.1,0-0.1,0-0.2,0c0,0-0.1,0-0.1,0.1c0,0,0,0.1-0.1,0.1
		c0,0,0,0.1,0,0.1l-0.3,0.1l0.3-0.1l1,3.9c0.1,0.2,0.2,0.4,0.4,0.6c0.2,0.1,0.4,0.2,0.7,0.2H227.5z"/>
</g>
<g>
	<path class="st3" d="M225.7,110c0.3,0,0.6,0.1,0.9,0.3c0.2,0.2,0.4,0.5,0.5,0.8l1,3.9c0,0.1,0.1,0.2,0,0.3c0,0.1-0.1,0.2-0.1,0.3
		c-0.1,0.1-0.1,0.1-0.2,0.2c-0.1,0-0.2,0.1-0.3,0h-12.2c-0.3,0-0.6-0.1-0.9-0.3c-0.2-0.2-0.4-0.5-0.5-0.7l-1-3.9c0-0.1,0-0.2,0-0.3
		c0-0.1,0.1-0.2,0.1-0.3c0.1-0.1,0.1-0.1,0.2-0.2c0.1,0,0.2-0.1,0.3,0H225.7z M225.7,109.5h-12.2c-0.2,0-0.4,0-0.5,0.1
		c-0.2,0.1-0.3,0.2-0.4,0.3c-0.1,0.1-0.2,0.3-0.2,0.5c0,0.2,0,0.4,0,0.5l1,3.9c0.1,0.4,0.4,0.8,0.7,1c0.3,0.3,0.7,0.4,1.2,0.4h12.2
		c0.2,0,0.4,0,0.5-0.1c0.2-0.1,0.3-0.2,0.4-0.3c0.1-0.1,0.2-0.3,0.2-0.5s0-0.4,0-0.5l-1-3.9c-0.1-0.4-0.4-0.8-0.7-1
		C226.5,109.6,226.1,109.5,225.7,109.5z"/>
</g>
<defs>
	
		<filter id="Adobe_OpacityMaskFilter_00000149374632406182820480000007995296282628967614_" filterUnits="userSpaceOnUse" x="211.8" y="108.9" width="17.5" height="8">
		<feColorMatrix  type="matrix" values="1 0 0 0 0  0 1 0 0 0  0 0 1 0 0  0 0 0 1 0"/>
	</filter>
</defs>
<mask maskUnits="userSpaceOnUse" x="211.8" y="108.9" width="17.5" height="8" id="path-72-inside-4_1663_7319_00000183938382041686580140000005754351807833717384_">
	<path style="fill:#FFFFFF;filter:url(#Adobe_OpacityMaskFilter_00000149374632406182820480000007995296282628967614_);" d="
		M225.7,110c0.3,0,0.6,0.1,0.9,0.3c0.2,0.2,0.4,0.5,0.5,0.8l1,3.9c0,0.1,0.1,0.2,0,0.3c0,0.1-0.1,0.2-0.1,0.3
		c-0.1,0.1-0.1,0.1-0.2,0.2c-0.1,0-0.2,0.1-0.3,0h-12.2c-0.3,0-0.6-0.1-0.9-0.3c-0.2-0.2-0.4-0.5-0.5-0.7l-1-3.9c0-0.1,0-0.2,0-0.3
		c0-0.1,0.1-0.2,0.1-0.3c0.1-0.1,0.1-0.1,0.2-0.2c0.1,0,0.2-0.1,0.3,0H225.7z M225.7,109.5h-12.2c-0.2,0-0.4,0-0.5,0.1
		c-0.2,0.1-0.3,0.2-0.4,0.3c-0.1,0.1-0.2,0.3-0.2,0.5c0,0.2,0,0.4,0,0.5l1,3.9c0.1,0.4,0.4,0.8,0.7,1c0.3,0.3,0.7,0.4,1.2,0.4h12.2
		c0.2,0,0.4,0,0.5-0.1c0.2-0.1,0.3-0.2,0.4-0.3c0.1-0.1,0.2-0.3,0.2-0.5s0-0.4,0-0.5l-1-3.9c-0.1-0.4-0.4-0.8-0.7-1
		C226.5,109.6,226.1,109.5,225.7,109.5z"/>
</mask>
<g class="st12">
	<path class="st2" d="M225.7,110l0-0.6l0,0h0V110z M227.1,111l0.6-0.2l0,0l0,0L227.1,111z M228.1,115l-0.6,0.2l0,0l0,0L228.1,115z
		 M227.5,115.8l0.1-0.6l0,0h0V115.8z M215.3,115.8l0,0.6l0,0h0V115.8z M213.9,114.7l-0.6,0.2l0,0l0,0L213.9,114.7z M212.9,110.8
		l0.6-0.2l0,0l0,0L212.9,110.8z M212.9,110.5l-0.6-0.1L212.9,110.5z M213.6,110l-0.1,0.6l0,0h0V110z M225.7,109.5l0-0.6l0,0h0V109.5
		z M213.6,109.5l0,0.6l0,0h0V109.5z M212.4,110.9l0.6-0.2l0,0l0,0L212.4,110.9z M213.5,114.8l-0.6,0.2l0,0l0,0L213.5,114.8z
		 M215.3,116.3l0,0.6h0h0V116.3z M227.5,116.3l0-0.6l0,0h0V116.3z M228.6,114.8L228,115l0,0l0,0L228.6,114.8z M227.6,110.9l0.6-0.2
		l0,0l0,0L227.6,110.9z M225.7,110.6c0.2,0,0.4,0.1,0.5,0.2l0.7-0.9c-0.3-0.3-0.8-0.4-1.2-0.4L225.7,110.6z M226.2,110.8
		c0.2,0.1,0.3,0.3,0.3,0.5l1.1-0.4c-0.1-0.4-0.4-0.8-0.7-1L226.2,110.8z M226.5,111.2l1,3.9l1.2-0.3l-1-3.9L226.5,111.2z
		 M227.6,115.2L227.6,115.2l1.2,0.2c0-0.2,0-0.4-0.1-0.6L227.6,115.2z M227.6,115.2L227.6,115.2l0.9,0.7c0.1-0.2,0.2-0.4,0.2-0.6
		L227.6,115.2z M227.6,115.2C227.6,115.2,227.6,115.2,227.6,115.2l0.5,1.1c0.2-0.1,0.4-0.2,0.5-0.4L227.6,115.2z M227.6,115.2
		C227.6,115.2,227.6,115.2,227.6,115.2l-0.1,1.2c0.2,0,0.4,0,0.6-0.1L227.6,115.2z M227.5,115.2h-12.2v1.2h12.2V115.2z M215.4,115.2
		c-0.2,0-0.4-0.1-0.5-0.2l-0.7,1c0.3,0.3,0.8,0.4,1.2,0.4L215.4,115.2z M214.8,115c-0.2-0.1-0.3-0.3-0.3-0.5l-1.1,0.4
		c0.1,0.4,0.4,0.8,0.7,1L214.8,115z M214.5,114.6l-1-3.9l-1.2,0.3l1,3.9L214.5,114.6z M213.5,110.6
		C213.5,110.6,213.5,110.6,213.5,110.6l-1.2-0.2c0,0.2,0,0.4,0.1,0.6L213.5,110.6z M213.5,110.6
		C213.5,110.6,213.5,110.6,213.5,110.6l-0.9-0.7c-0.1,0.2-0.2,0.4-0.2,0.6L213.5,110.6z M213.5,110.6
		C213.5,110.6,213.5,110.6,213.5,110.6l-0.5-1.1c-0.2,0.1-0.4,0.2-0.5,0.4L213.5,110.6z M213.5,110.6
		C213.5,110.6,213.5,110.6,213.5,110.6l0.1-1.2c-0.2,0-0.4,0-0.6,0.1L213.5,110.6z M213.6,110.6h12.2v-1.2h-12.2V110.6z
		 M225.7,108.9h-12.2v1.2h12.2V108.9z M213.6,108.9c-0.3,0-0.6,0-0.8,0.1l0.5,1.1c0.1,0,0.2,0,0.2,0L213.6,108.9z M212.8,109
		c-0.3,0.1-0.5,0.3-0.6,0.5l1,0.7c0.1-0.1,0.1-0.1,0.2-0.2L212.8,109z M212.1,109.5c-0.2,0.2-0.3,0.5-0.3,0.8l1.2,0.2
		c0-0.1,0-0.2,0.1-0.2L212.1,109.5z M211.8,110.3c0,0.3,0,0.6,0.1,0.8l1.1-0.4c0-0.1,0-0.2,0-0.2L211.8,110.3z M211.9,111.1l1,3.9
		l1.2-0.3l-1-3.9L211.9,111.1z M212.9,115c0.2,0.5,0.5,1,0.9,1.3l0.7-0.9c-0.2-0.2-0.4-0.4-0.5-0.7L212.9,115z M213.8,116.3
		c0.4,0.3,1,0.5,1.5,0.5l0-1.2c-0.3,0-0.6-0.1-0.8-0.3L213.8,116.3z M215.3,116.9h12.2v-1.2h-12.2V116.9z M227.4,116.9
		c0.3,0,0.6,0,0.8-0.1l-0.5-1.1c-0.1,0-0.2,0-0.2,0L227.4,116.9z M228.3,116.7c0.3-0.1,0.5-0.3,0.6-0.5l-0.9-0.7
		c0,0.1-0.1,0.1-0.2,0.2L228.3,116.7z M228.9,116.2c0.2-0.2,0.3-0.5,0.3-0.8l-1.2-0.2c0,0.1,0,0.2-0.1,0.2L228.9,116.2z
		 M229.2,115.5c0-0.3,0-0.6-0.1-0.8L228,115c0,0.1,0,0.2,0,0.2L229.2,115.5z M229.2,114.7l-1-3.9l-1.2,0.3l1,3.9L229.2,114.7z
		 M228.1,110.7c-0.2-0.5-0.5-1-0.9-1.3l-0.7,0.9c0.2,0.2,0.4,0.4,0.5,0.7L228.1,110.7z M227.2,109.4c-0.4-0.3-1-0.5-1.5-0.6l0,1.2
		c0.3,0,0.6,0.1,0.8,0.3L227.2,109.4z"/>
</g>
<g>
	<path class="st2" d="M223.6,228.1c-0.2,0-0.3-0.1-0.3-0.3l-0.8-7c0-0.2,0.1-0.3,0.3-0.3c0.2,0,0.3,0.1,0.3,0.3l0.8,7
		C223.9,227.9,223.8,228.1,223.6,228.1C223.7,228.1,223.6,228.1,223.6,228.1z"/>
</g>
<g>
	<path class="st3" d="M190.7,134.6L190.7,134.6L190.7,134.6l20.2,1.1c0.6,0,1.5,0,2,0l0,0l14.2-1l0,0h0c0.1,0,0.2,0,0.3,0
		c0.1,0,0.2,0.1,0.2,0.1c0.1,0.1,0.1,0.1,0.1,0.2c0,0.1,0.1,0.2,0,0.2l0,0v0v5c0,0.2-0.1,0.4-0.2,0.5c-0.1,0.1-0.3,0.2-0.5,0.2
		h-36.4c-0.2,0-0.4-0.1-0.5-0.2c-0.1-0.1-0.2-0.3-0.2-0.5v-5l0,0v0c0-0.1,0-0.2,0-0.3c0-0.1,0.1-0.2,0.1-0.2
		c0.1-0.1,0.1-0.1,0.2-0.1C190.6,134.6,190.6,134.6,190.7,134.6z"/>
	<path class="st2" d="M227.1,141.2h-36.4c-0.3,0-0.5-0.1-0.7-0.3c-0.2-0.2-0.3-0.4-0.3-0.7v-5c0-0.1,0-0.3,0.1-0.4
		c0-0.1,0.1-0.2,0.2-0.3c0.1-0.1,0.2-0.2,0.3-0.2c0.1,0,0.3-0.1,0.4-0.1l20.2,1.1c0.5,0,1.4,0,2,0l14.2-1c0.1,0,0.3,0,0.4,0
		c0.1,0,0.2,0.1,0.3,0.2c0.1,0.1,0.2,0.2,0.2,0.3c0,0.1,0.1,0.2,0.1,0.4v5c0,0.3-0.1,0.5-0.3,0.7
		C227.7,141.1,227.4,141.2,227.1,141.2z M190.7,134.9c0,0-0.1,0-0.1,0c0,0-0.1,0-0.1,0.1c0,0-0.1,0.1-0.1,0.1c0,0,0,0.1,0,0.1v5
		c0,0.1,0,0.2,0.1,0.3c0.1,0.1,0.2,0.1,0.3,0.1h36.4c0.1,0,0.2,0,0.3-0.1s0.1-0.2,0.1-0.3v-5c0-0.1,0-0.1,0-0.1c0,0,0-0.1-0.1-0.1
		c0,0-0.1-0.1-0.1-0.1c0,0-0.1,0-0.1,0l-14.2,1c-0.6,0-1.5,0-2.1,0L190.7,134.9C190.7,134.9,190.7,134.9,190.7,134.9z"/>
</g>
<g>
	<path class="st2" d="M190.8,130.9h22.2h14.2c0.2,0,0.4,0.1,0.5,0.2c0.1,0.1,0.2,0.3,0.2,0.5v6.3c0,0.2-0.1,0.4-0.2,0.5
		c-0.1,0.1-0.3,0.2-0.5,0.2h-36.4c-0.2,0-0.4-0.1-0.5-0.2c-0.1-0.1-0.2-0.3-0.2-0.5v-6.3c0-0.2,0.1-0.4,0.2-0.5
		C190.4,131,190.6,130.9,190.8,130.9z"/>
	<path class="st2" d="M227.2,138.8h-36.4c-0.3,0-0.5-0.1-0.7-0.3c-0.2-0.2-0.3-0.4-0.3-0.7v-6.3c0-0.3,0.1-0.5,0.3-0.7
		c0.2-0.2,0.4-0.3,0.7-0.3h36.4c0.3,0,0.5,0.1,0.7,0.3c0.2,0.2,0.3,0.4,0.3,0.7v6.3c0,0.3-0.1,0.5-0.3,0.7
		C227.7,138.7,227.4,138.8,227.2,138.8z M190.8,131.2c-0.1,0-0.2,0-0.3,0.1c-0.1,0.1-0.1,0.2-0.1,0.3v6.3c0,0.1,0,0.2,0.1,0.3
		c0.1,0.1,0.2,0.1,0.3,0.1h36.4c0.1,0,0.2,0,0.3-0.1c0.1-0.1,0.1-0.2,0.1-0.3v-6.3c0-0.1,0-0.2-0.1-0.3c-0.1-0.1-0.2-0.1-0.3-0.1
		H190.8z"/>
</g>
<g>
	<path class="st3" d="M205.8,131.1c0.1,0.1,0.2,0.3,0.2,0.5l0,0.6c0,0,0,0,0,0c0,0.6-0.1,1.3-0.3,1.9l-1.4,4.9
		c-0.1,0.2-0.2,0.4-0.4,0.5c-0.2,0.1-0.4,0.2-0.6,0.2h-12.6c-0.2,0-0.4-0.1-0.5-0.2c-0.1-0.1-0.2-0.3-0.2-0.5v-7.4
		c0-0.2,0.1-0.4,0.2-0.5c0.1-0.1,0.3-0.2,0.5-0.2h14.5C205.5,130.9,205.6,131,205.8,131.1z"/>
	<path class="st2" d="M190.8,139.9c-0.3,0-0.5-0.1-0.7-0.3c-0.2-0.2-0.3-0.4-0.3-0.7v-7.4c0-0.3,0.1-0.5,0.3-0.7
		c0.2-0.2,0.4-0.3,0.7-0.3h14.5c0.3,0,0.5,0.1,0.7,0.3c0.2,0.2,0.3,0.4,0.3,0.7l0,0.6c0,0.7-0.1,1.3-0.3,2l-1.4,4.9
		c-0.1,0.3-0.3,0.5-0.5,0.7c-0.2,0.2-0.5,0.3-0.8,0.3L190.8,139.9z M190.8,131.2c-0.1,0-0.2,0-0.3,0.1c-0.1,0.1-0.1,0.2-0.1,0.3v7.4
		c0,0.1,0,0.2,0.1,0.3c0.1,0.1,0.2,0.1,0.3,0.1h12.6c0.1,0,0.3-0.1,0.4-0.2c0.1-0.1,0.2-0.2,0.3-0.4l1.4-4.8
		c0.2-0.6,0.2-1.2,0.3-1.8l0-0.6c0-0.1,0-0.2-0.1-0.3h0c-0.1-0.1-0.2-0.1-0.3-0.1H190.8z"/>
</g>
<g class="st13">
	<g>
		<path class="st3" d="M216.3,131.9h4.3h2.2c0.2,0,0.4,0.1,0.5,0.2c0.1,0.1,0.2,0.3,0.2,0.5v4.2c0,0.2-0.1,0.4-0.2,0.5
			c-0.1,0.1-0.3,0.2-0.5,0.2h-6.5c-0.2,0-0.4-0.1-0.5-0.2c-0.1-0.1-0.2-0.3-0.2-0.5v-4.2c0-0.2,0.1-0.4,0.2-0.5
			C215.9,132,216.1,131.9,216.3,131.9z"/>
		<path class="st2" d="M222.8,137.8h-6.5c-0.3,0-0.5-0.1-0.7-0.3c-0.2-0.2-0.3-0.4-0.3-0.7v-4.2c0-0.3,0.1-0.5,0.3-0.7
			c0.2-0.2,0.4-0.3,0.7-0.3h6.5c0.3,0,0.5,0.1,0.7,0.3c0.2,0.2,0.3,0.4,0.3,0.7v4.2c0,0.3-0.1,0.5-0.3,0.7
			C223.3,137.7,223.1,137.8,222.8,137.8z M216.3,132.2c-0.1,0-0.2,0-0.3,0.1s-0.1,0.2-0.1,0.3v4.2c0,0.1,0,0.2,0.1,0.3
			c0.1,0.1,0.2,0.1,0.3,0.1h6.5c0.1,0,0.2,0,0.3-0.1c0.1-0.1,0.1-0.2,0.1-0.3v-4.2c0-0.1,0-0.2-0.1-0.3c-0.1-0.1-0.2-0.1-0.3-0.1
			H216.3z"/>
	</g>
</g>
<g>
	<path class="st3" d="M227.2,80.8c-0.1-0.1-0.1-0.1-0.1-0.2c0-0.1,0-0.3,0.1-0.4c0.1-0.1,0.2-0.2,0.3-0.2c0.1,0,0.2,0,0.2,0.1
		c0.1,0,0.1,0.1,0.2,0.2c0,0.1,0.1,0.2,0,0.2c0,0.1,0,0.2-0.1,0.2c-0.1,0.1-0.1,0.1-0.2,0.1c-0.1,0-0.2,0-0.2,0
		C227.3,80.9,227.2,80.9,227.2,80.8z"/>
	<path class="st2" d="M227.5,81.2c0,0-0.1,0-0.1,0c-0.1,0-0.3-0.1-0.4-0.2l0,0c-0.1-0.1-0.2-0.2-0.2-0.3c0-0.3,0-0.5,0.2-0.6
		c0.1-0.2,0.3-0.3,0.5-0.3c0.2,0,0.3,0,0.4,0.1c0.1,0.1,0.2,0.2,0.3,0.3c0.1,0.1,0.1,0.3,0.1,0.4c0,0.1-0.1,0.3-0.2,0.4
		c-0.1,0.1-0.2,0.2-0.3,0.2C227.7,81.2,227.6,81.2,227.5,81.2z M227.4,80.6C227.4,80.6,227.4,80.6,227.4,80.6L227.4,80.6
		c0,0,0.1,0.1,0.1,0.1c0,0,0.1,0,0.1,0c0,0,0.1,0,0.1-0.1c0,0,0,0,0-0.1c0,0,0-0.1,0-0.1c0,0,0,0-0.1-0.1c0,0,0,0-0.1,0
		c0,0-0.1,0-0.1,0.1C227.4,80.5,227.4,80.5,227.4,80.6C227.4,80.6,227.4,80.6,227.4,80.6z"/>
</g>
<g>
	<path class="st3" d="M192.4,127.3v-6.1h9h8.3l-1.7,6.1h-6.6H192.4z"/>
	<path class="st2" d="M208.3,127.6h-16.2v-6.7h18L208.3,127.6z M192.7,127h15.1l1.5-5.5h-16.6V127z"/>
</g>
<g>
	<path class="st3" d="M167,359.7C167,359.7,167,359.7,167,359.7C167,359.7,167,359.7,167,359.7c0,0.1,0,0.1,0.1,0.2
		c0,0.2,0,0.4,0,0.7c0,0.5-0.2,1.2-0.4,2c-0.2,0.7-0.5,1.5-0.9,2.1c-0.4,0.7-0.8,1.2-1.2,1.5c-1,0.7-2.3,1.2-3.7,1.2
		c-1.4,0-2.7-0.3-3.6-1.4c-0.9-1-1.2-2.1-1.2-3.4c0-1,0.1-2.1,0.3-3.5c0-0.3,0.1-0.6,0.1-0.9c0,0,0,0,0.1,0c0.3,0.2,0.7,0.4,1.2,0.7
		c1,0.5,2.4,1.1,3.7,1.4c1.4,0.2,2.8,0,3.8-0.2c0.3-0.1,0.5-0.1,0.7-0.2c0.2-0.1,0.4-0.1,0.6-0.1C166.8,359.8,166.9,359.7,167,359.7
		z"/>
	<path class="st2" d="M160.6,367.8c-1.5,0-2.7-0.5-3.6-1.5c-0.9-1-1.3-2.1-1.3-3.6c0-1,0.1-2.2,0.3-3.5l0.2-1.4l0.5,0.3
		c0.3,0.2,0.7,0.4,1.2,0.7c1.3,0.7,2.6,1.2,3.6,1.3c1.4,0.2,2.8,0,3.7-0.2c0.2,0,0.4-0.1,0.6-0.1l0.2,0c0.2,0,0.4-0.1,0.5-0.1
		c0.2,0,0.3-0.1,0.4-0.1h0.2l0.1,0.2c0,0.1,0.1,0.2,0.1,0.3c0,0.2,0,0.4,0,0.7c0,0.6-0.2,1.3-0.4,2c-0.2,0.8-0.5,1.5-0.9,2.2
		c-0.4,0.7-0.8,1.3-1.3,1.6c-1.1,0.8-2.5,1.2-3.9,1.3C160.8,367.8,160.7,367.8,160.6,367.8z M156.7,358.7l-0.1,0.5
		c-0.2,1.3-0.3,2.4-0.3,3.4c0,1.4,0.4,2.4,1.2,3.3c1,1.1,2.4,1.3,3.3,1.3c1.3,0,2.6-0.5,3.5-1.2c0.4-0.3,0.8-0.8,1.1-1.4
		c0.3-0.6,0.6-1.3,0.8-2.1c0.2-0.7,0.3-1.3,0.4-1.9c0-0.2,0-0.4,0-0.5c0,0,0,0-0.1,0c-0.2,0-0.3,0.1-0.5,0.1l-0.2,0
		c-0.2,0-0.4,0.1-0.6,0.1c-1,0.2-2.5,0.5-3.9,0.2c-1.1-0.2-2.4-0.7-3.8-1.4C157.3,359.1,157,358.9,156.7,358.7z"/>
</g>
<g>
	<path class="st2" d="M125.6,67.2c0,0.3,0,0.6,0,0.9c0,1.3,0.1,2.8,0.2,4.2c0.2,2.1,0.4,4.1,0.7,5.6c-0.2,0.5-0.2,1.1-0.1,1.6
		c0.1,0.5,0.3,1.1,0.6,1.5c0.1-0.2,0.2-0.5,0.4-0.7h0.1c0.6-1,1.3-1.8,2.1-2.6c0.1-0.1,0.2-0.2,0.3-0.3l0.4-0.3l0.4-0.4
		c0.4-0.3,0.9-0.7,1.4-1c0.4-0.3,0.8-0.5,1.2-0.8c-0.1-0.4-0.1-0.8-0.2-1.1c-0.1-0.6-0.2-1.2-0.3-1.8c-0.2-1.3-0.3-2.6-0.5-3.9
		c-0.1-0.4-0.1-0.8-0.1-1.1c-0.2-2.8,0-5.6,0.6-8.3c1.1-4.7,3.3-9.1,6.6-12.7l0.1-0.1c-0.5,0.3-1,0.5-1.4,0.8
		c-2.6,1.5-4.9,3.3-6.9,5.5l0,0c-2.2,2.6-3.8,5.6-4.7,8.9C125.8,63.1,125.6,65.1,125.6,67.2z"/>
</g>
<g>
	<path class="st6" d="M126.2,67.2V68c0,1.3,0.1,2.7,0.2,4.1c0.2,2.1,0.4,4.1,0.7,5.6l0,0.1l0,0.1c-0.1,0.4-0.2,0.9-0.1,1.4
		c0,0.1,0,0.2,0.1,0.3h0c0.6-0.9,1.3-1.7,2-2.4c0.1-0.1,0.2-0.2,0.3-0.3l0,0l0.4-0.3l0.4-0.4l0,0c0.5-0.4,0.9-0.7,1.4-1
		c0.3-0.2,0.6-0.4,0.9-0.6c0-0.2-0.1-0.4-0.1-0.6c0-0.1,0-0.1,0-0.2l0,0c-0.1-0.6-0.2-1.2-0.3-1.8v0c-0.2-1.3-0.3-2.6-0.5-3.9
		c-0.1-0.4-0.1-0.8-0.1-1.2l0,0c-0.2-2.8,0-5.7,0.6-8.5l0,0c0.8-3.8,2.5-7.4,4.7-10.5c-1.9,1.3-3.8,2.8-5.4,4.5l0,0l0,0
		c-2.2,2.5-3.7,5.5-4.5,8.6C126.4,63.2,126.2,65.2,126.2,67.2z M126.4,61.1c0.9-3.3,2.5-6.3,4.7-8.9l0,0c2-2.1,4.3-3.9,6.9-5.4
		c0,0,0.1,0,0.1-0.1c0.4-0.2,0.8-0.5,1.3-0.7c0,0,0,0,0,0c0.1,0,0.1-0.1,0.2-0.1l-0.1,0.1c-0.3,0.4-0.7,0.8-1,1.2c0,0,0,0,0,0
		c-2.7,3.4-4.6,7.3-5.6,11.6c-0.6,2.7-0.8,5.5-0.6,8.3c0,0.4,0.1,0.8,0.1,1.1c0.1,1.2,0.3,2.5,0.5,3.9c0.1,0.6,0.2,1.2,0.3,1.8
		c0,0.1,0,0.1,0,0.2c0.1,0.3,0.1,0.7,0.2,1c-0.4,0.2-0.8,0.5-1.2,0.8c-0.5,0.3-1,0.7-1.4,1l-0.4,0.4l-0.4,0.3l0,0
		c-0.1,0.1-0.2,0.2-0.3,0.3c-0.8,0.7-1.5,1.6-2.1,2.6h-0.1c0,0,0,0,0,0.1c-0.1,0.2-0.2,0.4-0.3,0.6c-0.1-0.2-0.3-0.4-0.4-0.6
		c-0.1-0.3-0.2-0.6-0.3-0.9c-0.1-0.5,0-1.1,0.1-1.6c-0.3-1.5-0.5-3.6-0.7-5.6c-0.1-1.4-0.2-2.9-0.2-4.2v-0.9
		C125.6,65.1,125.8,63.1,126.4,61.1z"/>
</g>
<g>
	<g>
		<path class="st3" d="M199.7,106.2l-1.3,1.4v0l-0.5,0.5l-0.2,0.2c-0.3,0.3-0.6,0.5-0.9,0.7l0,0l0,0c-0.1,0.1-0.2,0.3-0.4,0.4
			l-3.5,2.9c-0.3,0.3-0.7,0.5-1,0.6c-0.3,0.1-0.7,0.2-1,0.2c-0.1,0-0.2,0-0.2,0h-0.1l-0.1,0.1l-3.3,3l-2.8,2.5l0,0l0,0.1l-4.8,9.1
			l-0.2,0.5l-8,15.1L171,144l-4.5,8.4c-0.1,0.2-0.3,0.5-0.5,0.9c-0.4,0.8-1,1.9-1.5,3c-0.4,0.8-0.9,1.6-1.3,2.2
			c-0.2,0.3-0.4,0.6-0.6,0.8c-0.2,0.2-0.3,0.4-0.4,0.5c-0.9,0.6-1.8,1.1-2.8,1.5c-0.3,0.1-0.5,0.2-0.8,0.2c-0.6,0.1-1.2,0.2-1.8,0.2
			c-0.8,0-1.5-0.1-2.2-0.2c-1.3-0.3-2.5-0.9-3.6-1.7h0l0,0l-0.1-0.1l-0.3-0.2l-23-14.6l-0.3-0.2v0l-1.2-0.7l-4.4-2.8l-4-2.6h0
			l-2.2-1.4l-4.2-2.7l-0.2-0.1c-0.1-0.1-0.2-0.2-0.3-0.3c-0.1-0.1-0.2-0.3-0.3-0.6c-0.2-0.4-0.3-1-0.4-1.6c-0.2-1.3-0.1-2.8,0-4.4
			c0.1-0.6,0.1-1.2,0.2-1.7c0.1-1,0.3-1.9,0.5-2.8c0.3-1.3,0.7-2.4,1.1-2.9c0.4-0.5,0.8-1,1.4-1.3h0c1.1-0.7,2.4-0.9,3.6-0.7h0
			c0.2,0,0.4,0.1,0.7,0.2h0l0,0c0.2,0.1,0.3,0.1,0.5,0.2c0.3,0.1,0.5,0.3,0.8,0.5h0l2.4,1.7l8,5.6l5.4,3.8l19.5,13.6l0.2,0.1l0.1,0
			l0.2-0.2l0.7-1l0.9-1.2l2.7-3.8l0.3-0.5l4.2-5.9l5.7-8.1l1.2-1.7l5.5-7.8l0,0l0,0h0v0l0.8-2.6l0,0v0l0.9-13.3
			c0.1-0.3,0.2-0.7,0.3-1l4.7-8.9c0.7-1.3,2.1-2,3.5-1.7c0.4,0,0.7,0.2,1,0.3c0.2,0.1,0.5,0.3,0.7,0.5c0.9,0.8,1.2,1.9,1,3.1
			c0,0.3-0.1,0.5-0.2,0.8l0.5,0.3l0.6-0.6l0.9-0.9l0.1-0.1l1-0.9l1.6-1.5l0.3-0.3l0.5-0.4c1.5-1.4,3.8-1.3,5.1,0.2
			c1.4,1.5,1.3,3.8-0.2,5.1l-0.6,0.5v0l-2.1,2l-0.4,0.3l0.4,0.2c0.5,0.2,1,0.5,1.3,1c0.3,0.3,0.5,0.7,0.7,1.1c0,0,0,0,0,0
			c0.3,0.8,0.3,1.7,0,2.5v0c-0.1,0.2-0.1,0.3-0.2,0.5l-0.2,0.3l0.3,0.1c0,0,0.1,0,0.1,0.1c0.3,0.2,0.7,0.4,0.9,0.6
			c0.1,0.1,0.1,0.1,0.2,0.2C201,102.6,201,104.8,199.7,106.2z"/>
	</g>
	<g>
		<path class="st2" d="M156.6,162c-0.7,0-1.4-0.1-2.1-0.2c-1.3-0.3-2.5-0.8-3.6-1.7h0l-0.1-0.1l-0.3-0.2L111,134.7
			c-0.1-0.1-0.3-0.2-0.4-0.4c-0.1-0.2-0.2-0.4-0.3-0.6c-0.2-0.4-0.3-1-0.4-1.7c-0.2-1.2-0.2-2.7,0-4.5c0.1-0.6,0.1-1.2,0.2-1.8
			c0.1-0.9,0.3-1.9,0.5-2.8c0.3-1,0.7-2.3,1.2-3c0.4-0.5,0.9-1,1.4-1.3l0.1,0c1.1-0.7,2.4-0.9,3.7-0.7c0.2,0,0.4,0.1,0.7,0.2h0.1
			l0.1,0c0.2,0.1,0.3,0.1,0.5,0.2c0.3,0.1,0.5,0.3,0.7,0.4l0.1,0l15.9,11.1l19.5,13.6l21.1-30l0.1-0.2l0.7-2.4l0.9-13.3
			c0.1-0.4,0.2-0.8,0.4-1.1l4.7-8.9c0.7-1.4,2.3-2.1,3.8-1.9c0.4,0.1,0.8,0.2,1.1,0.4c0.3,0.1,0.5,0.4,0.8,0.5
			c1,0.5,2.4,1.1,2.1,2.4c0,0.2-0.1,0.4-0.2,0.6l0.1,0.1l1.2-1.5c1.6-1.5,4.1-1.4,5.6,0.2c1.5,1.6,1.4,4.1-0.2,5.6l-0.1,0.5l0,0
			c0.5,0.2,1.1,0.6,1.5,1c0.3,0.3,0.5,0.7,0.7,1.1l0.2,0.2l-0.1,0.1c0.3,0.8,0.3,1.7,0,2.5l0,0c-0.1,0.2-0.1,0.4-0.2,0.6l0.1,0.1
			c0.4,0.2,0.7,0.4,1,0.7c0.1,0.1,0.2,0.1,0.2,0.2c1.4,1.5,1.4,3.8,0,5.3l-2,2.1c-0.3,0.3-0.6,0.6-1,0.8c-0.1,0.1-0.3,0.3-0.4,0.4
			l-3.5,2.9c-0.3,0.3-0.7,0.5-1.1,0.7c-0.4,0.1-0.7,0.2-1.1,0.3c-0.1,0-0.2,0-0.3,0l-6.1,5.5l-17.8,33.5c-0.1,0.2-0.3,0.5-0.4,0.8
			c-0.4,0.8-1,1.9-1.5,3c-0.5,0.9-0.9,1.7-1.3,2.2c-0.2,0.3-0.4,0.6-0.6,0.8c-0.2,0.2-0.3,0.4-0.5,0.5c-0.9,0.7-1.9,1.2-2.9,1.5
			c-0.3,0.1-0.5,0.2-0.8,0.2c-0.5,0.1-1.1,0.2-1.8,0.2C156.8,162,156.7,162,156.6,162z M151.1,159.5L151.1,159.5l0.1,0.1
			c1,0.8,2.2,1.3,3.4,1.6c0.7,0.2,1.5,0.2,2.2,0.2c0.6,0,1.2-0.1,1.7-0.2c0.3-0.1,0.5-0.1,0.8-0.2c1-0.3,1.9-0.8,2.7-1.4
			c0,0,0.2-0.1,0.3-0.4c0.2-0.2,0.4-0.5,0.6-0.8c0.4-0.6,0.8-1.3,1.3-2.2c0.6-1.1,1.1-2.1,1.5-2.9c0.2-0.4,0.3-0.6,0.4-0.9
			l17.9-33.7l6.3-5.7h0.2c0.1,0,0.1,0,0.2,0c0.3,0,0.7-0.1,1-0.2c0.4-0.1,0.7-0.3,0.9-0.6l3.5-2.9c0.1-0.1,0.2-0.2,0.4-0.4l0.2-0.1
			c0.3-0.2,0.6-0.4,0.8-0.7l2-2.1c1.2-1.3,1.2-3.3,0-4.5c-0.1-0.1-0.1-0.1-0.2-0.2c-0.3-0.2-0.5-0.4-0.9-0.6l-0.7-0.3l0.3-0.6
			c0.1-0.1,0.1-0.3,0.2-0.4l0-0.1c0.3-0.7,0.2-1.6,0-2.3l-0.1-0.2l0,0c-0.1-0.3-0.3-0.6-0.5-0.8c-0.3-0.4-0.8-0.7-1.2-0.9l-0.9-0.4
			l0.8-1.2c1.3-1.2,1.4-3.4,0.2-4.7c-1.2-1.3-3.4-1.4-4.7-0.2l-1.5,1.8l-0.9-0.6l0.1-0.2c0.1-0.2,0.2-0.5,0.2-0.7
			c0.2-1-1.1-1.1-1.9-1.8c-0.2-0.2-0.4-0.3-0.6-0.4c-0.3-0.2-0.6-0.3-1-0.3c-1.3-0.2-2.6,0.4-3.2,1.6l-4.7,8.9
			c-0.1,0.3-0.2,0.6-0.3,0.9l-0.9,13.4l-0.7,2.6v0.3l-0.1,0l-21.5,30.4l-0.5-0.3l-35.4-24.7c-0.2-0.2-0.5-0.3-0.7-0.4
			c-0.2-0.1-0.3-0.1-0.5-0.2l-0.1,0c-0.2-0.1-0.4-0.1-0.6-0.2c-1.2-0.2-2.4,0-3.4,0.6l-0.1,0c-0.5,0.3-0.9,0.7-1.2,1.1
			c-0.4,0.5-0.7,1.5-1.1,2.8c-0.2,0.9-0.4,1.8-0.5,2.8c-0.1,0.6-0.2,1.2-0.2,1.7c-0.1,1.7-0.1,3.2,0,4.3c0.1,0.6,0.2,1.1,0.4,1.5
			c0.1,0.2,0.2,0.4,0.3,0.5c0.1,0.1,0.1,0.2,0.2,0.2l0.2,0.1L151.1,159.5z"/>
	</g>
</g>
<g>
	<path class="st2" d="M122.3,119.5L122.3,119.5L122.3,119.5L122.3,119.5c2.1,1.2,5.5,3.6,8.3,5.7c1.4,1.1,2.7,2,3.6,2.8
		c0.5,0.4,0.8,0.7,1.1,0.9c0.1,0.1,0.1,0.1,0.2,0.2l-9.7,15.6c-0.4-0.3-1-0.7-1.9-1.3c-1-0.6-2.2-1.4-3.9-2.5l0,0
		c-0.3-0.2-0.6-0.4-0.9-0.6c-3.2-2.1-7.6-4.9-10.3-8.3c-1.5-1.8-2.5-3.8-2.5-5.9c-0.1-2.1,0.8-4.4,3-6.8l0,0
		c2.5-2.7,5.7-2.7,8.4-1.9c1.3,0.4,2.5,0.9,3.3,1.3c0.4,0.2,0.8,0.4,1,0.6C122.1,119.3,122.2,119.4,122.3,119.5
		C122.3,119.4,122.3,119.5,122.3,119.5L122.3,119.5L122.3,119.5L122.3,119.5L122.3,119.5z"/>
	<path class="st2" d="M126,145l-6.9-4.5c-3.2-2.1-7.7-4.9-10.4-8.3c-1.7-2.1-2.5-4.1-2.6-6.1c-0.1-2.3,1-4.7,3.1-7
		c2.1-2.3,5.1-3,8.7-2c1.4,0.4,2.6,1,3.4,1.4c0.4,0.2,0.8,0.4,1,0.6c0.1,0.1,0.2,0.1,0.3,0.2l0.1,0l-0.2,0.3l0.2-0.2l0,0
		c1.7,1,4.5,2.9,8.3,5.7c1.4,1.1,2.7,2,3.6,2.8c0.5,0.4,0.8,0.7,1.1,0.9l0.4,0.3L126,145z M114.7,117.2c-2.1,0-3.8,0.8-5.2,2.3
		c-2,2.2-3,4.4-2.9,6.6c0.1,1.9,0.9,3.8,2.5,5.7c2.7,3.3,7.1,6.2,10.3,8.2l6.4,4.2l9.4-15.1c-0.3-0.2-0.6-0.5-1.1-0.8
		c-0.9-0.7-2.2-1.7-3.6-2.8c-3.7-2.8-6.5-4.7-8.2-5.7l0.1-0.3l-0.2,0.2l0,0l0.1-0.3l-0.2,0.3c-0.1,0-0.1-0.1-0.3-0.2
		c-0.2-0.1-0.6-0.3-1-0.6c-0.8-0.4-1.9-1-3.3-1.3C116.6,117.4,115.6,117.2,114.7,117.2z"/>
</g>
<g>
	<path class="st6" d="M199.7,52.2c0-1.6,1.3-2.8,2.8-2.8h17.8c1.6,0,2.8,1.3,2.8,2.8c0,1.6-1.3,2.8-2.8,2.8h-17.8
		C201,55,199.7,53.8,199.7,52.2z"/>
</g>
<g>
	<path class="st1" d="M243.1,221.7c2.2-0.5,4.4,0.8,4.9,3l36.6,150.5c0.5,2.2-0.8,4.4-3,4.9c-2.2,0.5-4.4-0.8-4.9-3l-36.6-150.5
		C239.6,224.4,240.9,222.2,243.1,221.7z"/>
	<path class="st2" d="M280.7,380.7c-2.1,0-3.9-1.4-4.4-3.5l-36.6-150.5c-0.3-1.2-0.1-2.4,0.5-3.4c0.6-1,1.6-1.8,2.8-2.1l0,0
		c1.2-0.3,2.4-0.1,3.4,0.5c1,0.6,1.8,1.6,2.1,2.8l36.6,150.5c0.3,1.2,0.1,2.4-0.5,3.4c-0.6,1-1.6,1.8-2.8,2.1
		C281.4,380.7,281,380.7,280.7,380.7z M244.1,222.1c-0.3,0-0.6,0-0.8,0.1l0,0c-0.9,0.2-1.7,0.8-2.2,1.6c-0.5,0.8-0.6,1.8-0.4,2.7
		L277.2,377c0.5,1.9,2.4,3.1,4.3,2.6c0.9-0.2,1.7-0.8,2.2-1.6c0.5-0.8,0.6-1.8,0.4-2.7l-36.6-150.5c-0.2-0.9-0.8-1.7-1.6-2.2
		C245.4,222.3,244.7,222.1,244.1,222.1z M243.1,221.7L243.1,221.7L243.1,221.7z"/>
</g>
<g>
	<path class="st1" d="M178,223.9c2.2,0.5,3.5,2.7,3,4.9l-37,158.9c-0.5,2.2-2.7,3.5-4.9,3c-2.2-0.5-3.5-2.7-3-4.9l37-158.9
		C173.7,224.7,175.8,223.4,178,223.9z"/>
	<path class="st2" d="M140.1,391.3c-0.3,0-0.7,0-1-0.1c-1.2-0.3-2.2-1-2.8-2c-0.6-1-0.8-2.3-0.6-3.4l37-158.9c0.6-2.4,3-4,5.5-3.4
		c0,0,0,0,0,0c1.2,0.3,2.2,1,2.8,2c0.6,1,0.8,2.3,0.6,3.4l-37,158.9c-0.3,1.2-1,2.2-2,2.8C141.8,391,140.9,391.3,140.1,391.3z
		 M177.1,224.3c-1.6,0-3.1,1.1-3.5,2.8l-37,158.9c-0.2,0.9-0.1,1.9,0.4,2.7c0.5,0.8,1.3,1.4,2.2,1.6c0.9,0.2,1.9,0.1,2.7-0.4
		s1.4-1.3,1.6-2.2l37-158.9c0.4-1.9-0.8-3.8-2.7-4.3C177.6,224.3,177.4,224.3,177.1,224.3z"/>
</g>
<g>
	<path class="st1" d="M223.2,223.8c2.2-0.3,4.2,1.3,4.5,3.6l17.5,168.5c0.3,2.2-1.3,4.2-3.6,4.5c-2.2,0.3-4.2-1.3-4.5-3.6
		l-17.5-168.5C219.3,226.1,220.9,224.1,223.2,223.8z"/>
	<path class="st2" d="M241.1,400.9c-2.3,0-4.3-1.7-4.5-4l-17.5-168.5c-0.1-1.2,0.2-2.4,1-3.3c0.8-1,1.8-1.6,3-1.7l0,0
		c1.2-0.1,2.4,0.2,3.4,0.9c1,0.8,1.6,1.8,1.7,3l17.5,168.5c0.1,1.2-0.2,2.4-1,3.3c-0.8,1-1.8,1.6-3,1.7
		C241.4,400.9,241.3,400.9,241.1,400.9z M223.6,224.3c-0.1,0-0.3,0-0.4,0l0,0c-0.9,0.1-1.8,0.6-2.4,1.3c-0.6,0.7-0.9,1.7-0.7,2.6
		l17.5,168.5c0.2,1.9,2,3.3,4,3.1c0.9-0.1,1.8-0.6,2.4-1.3c0.6-0.7,0.9-1.7,0.7-2.6l-17.5-168.5C227,225.6,225.4,224.3,223.6,224.3z
		 M223.2,223.8L223.2,223.8L223.2,223.8z"/>
</g>
<g>
	<path class="st6" d="M240,208.9c3.1-0.7,6.1,1.1,6.9,4.2l0.9,3.7c0.7,3-1.1,6.1-4.2,6.9c-3.1,0.7-6.1-1.1-6.9-4.2l-0.9-3.7
		C235.1,212.7,237,209.7,240,208.9z"/>
	<path class="st2" d="M242.2,224.3c-2.8,0-5.3-1.9-6-4.7l-0.9-3.7c-0.4-1.6-0.1-3.3,0.7-4.7c0.9-1.4,2.2-2.4,3.8-2.8l0,0
		c3.3-0.8,6.7,1.2,7.5,4.5l0.9,3.7c0.8,3.3-1.2,6.7-4.5,7.5C243.2,224.2,242.7,224.3,242.2,224.3z M241.4,209.3
		c-0.4,0-0.8,0-1.2,0.1l0,0c-1.3,0.3-2.5,1.2-3.2,2.3s-0.9,2.6-0.6,3.9l0.9,3.7c0.7,2.8,3.5,4.5,6.3,3.8c2.8-0.7,4.5-3.5,3.8-6.3
		l-0.9-3.7C245.8,210.8,243.7,209.3,241.4,209.3z M240,208.9L240,208.9L240,208.9z"/>
</g>
<g>
	<path class="st2" d="M172.1,217.2l-0.9,3.8c-0.5,2.1,1.1,3.8,3.5,3.8h8.3c1.1,0,2.1-0.4,3-1.1c0.9-0.7,1.5-1.6,1.7-2.7l0.9-3.8
		H172.1z"/>
</g>
<defs>
	
		<filter id="Adobe_OpacityMaskFilter_00000131332413052352862770000005480401133579246783_" filterUnits="userSpaceOnUse" x="170.1" y="217" width="19.5" height="8.8">
		<feColorMatrix  type="matrix" values="1 0 0 0 0  0 1 0 0 0  0 0 1 0 0  0 0 0 1 0"/>
	</filter>
</defs>
<mask maskUnits="userSpaceOnUse" x="170.1" y="217" width="19.5" height="8.8" id="path-91-inside-5_1663_7319_00000037682438968933443660000013031573087480968582_">
	<path style="fill:#FFFFFF;filter:url(#Adobe_OpacityMaskFilter_00000131332413052352862770000005480401133579246783_);" d="
		M172.1,217.2l-0.9,3.8c-0.5,2.1,1.1,3.8,3.5,3.8h8.3c1.1,0,2.1-0.4,3-1.1c0.9-0.7,1.5-1.6,1.7-2.7l0.9-3.8"/>
</mask>
<g class="st15">
	<path class="st2" d="M171.2,221l1,0.2l0,0L171.2,221z M183.1,224.8v1h0l0,0L183.1,224.8z M187.8,221l1,0.3l0,0l0,0L187.8,221z
		 M171.1,217l-0.9,3.8l1.9,0.5l0.9-3.8L171.1,217z M170.2,220.8c-0.3,1.4,0,2.7,0.9,3.6c0.9,0.9,2.2,1.4,3.6,1.4v-2
		c-1,0-1.7-0.3-2.1-0.8c-0.4-0.4-0.6-1-0.4-1.8L170.2,220.8z M174.8,225.8h8.3v-2h-8.3V225.8z M183.1,225.8c1.3-0.1,2.6-0.5,3.6-1.3
		l-1.3-1.6c-0.7,0.6-1.5,0.9-2.4,0.9L183.1,225.8z M186.7,224.5c1-0.8,1.8-1.9,2.1-3.2l-1.9-0.5c-0.2,0.9-0.7,1.6-1.4,2.2
		L186.7,224.5z M188.8,221.2l0.9-3.8l-1.9-0.5l-0.9,3.8L188.8,221.2z"/>
</g>
<g>
	<path class="st2" d="M213.1,219.8c0,0,0.2,1.7,0.4,3.8c0.2,2.1,2.8,3.8,5.8,3.8h9.2c0.5,0,1-0.1,1.4-0.3c0.4-0.2,0.8-0.5,1.2-0.8
		c0.3-0.4,0.6-0.8,0.7-1.3s0.2-1,0.1-1.4c-0.2-2.1-0.4-3.8-0.4-3.8H213.1z"/>
</g>
<defs>
	
		<filter id="Adobe_OpacityMaskFilter_00000145022358988357642850000009184304697336342927_" filterUnits="userSpaceOnUse" x="212.2" y="219.7" width="20.8" height="8.7">
		<feColorMatrix  type="matrix" values="1 0 0 0 0  0 1 0 0 0  0 0 1 0 0  0 0 0 1 0"/>
	</filter>
</defs>
<mask maskUnits="userSpaceOnUse" x="212.2" y="219.7" width="20.8" height="8.7" id="path-93-inside-6_1663_7319_00000055698231535824112880000007090758301119775873_">
	<path style="fill:#FFFFFF;filter:url(#Adobe_OpacityMaskFilter_00000145022358988357642850000009184304697336342927_);" d="
		M213.1,219.8c0,0,0.2,1.7,0.4,3.8c0.2,2.1,2.8,3.8,5.8,3.8h9.2c0.5,0,1-0.1,1.4-0.3c0.4-0.2,0.8-0.5,1.2-0.8
		c0.3-0.4,0.6-0.8,0.7-1.3s0.2-1,0.1-1.4c-0.2-2.1-0.4-3.8-0.4-3.8"/>
</mask>
<g class="st17">
	<path class="st2" d="M228.5,227.4l0-1h0h0V227.4z M231.9,223.6l-1,0.1l0,0l0,0L231.9,223.6z M213.1,219.8c-1,0.1-1,0.1-1,0.1l0,0
		c0,0,0,0,0,0c0,0,0,0,0,0c0,0,0,0,0,0c0,0,0,0,0,0c0,0,0,0,0,0.1c0,0.1,0,0.1,0,0.2c0,0.2,0.1,0.5,0.1,0.8c0.1,0.7,0.2,1.6,0.3,2.7
		l2-0.2c-0.1-1-0.2-2-0.3-2.7c0-0.3-0.1-0.6-0.1-0.8c0-0.1,0-0.2,0-0.2c0,0,0,0,0-0.1c0,0,0,0,0,0c0,0,0,0,0,0c0,0,0,0,0,0
		c0,0,0,0,0,0l0,0C214.1,219.7,214.1,219.7,213.1,219.8z M212.6,223.8c0.2,1.4,1.1,2.6,2.3,3.4c1.2,0.8,2.8,1.3,4.4,1.3v-2
		c-1.3,0-2.5-0.4-3.3-1c-0.9-0.6-1.4-1.3-1.4-2L212.6,223.8z M219.3,228.4h9.2v-2h-9.2V228.4z M228.5,228.4c0.6,0,1.3-0.1,1.8-0.3
		l-0.8-1.8c-0.3,0.1-0.7,0.2-1,0.2L228.5,228.4z M230.3,228.1c0.6-0.2,1.1-0.6,1.5-1.1l-1.5-1.3c-0.2,0.3-0.5,0.5-0.8,0.6
		L230.3,228.1z M231.9,227c0.4-0.5,0.7-1,0.9-1.6l-1.9-0.6c-0.1,0.3-0.3,0.6-0.5,0.9L231.9,227z M232.8,225.4
		c0.2-0.6,0.2-1.2,0.1-1.9l-2,0.3c0,0.3,0,0.7-0.1,1L232.8,225.4z M232.9,223.5c-0.1-1-0.2-2-0.3-2.7c0-0.3-0.1-0.6-0.1-0.8
		c0-0.1,0-0.2,0-0.2c0,0,0,0,0-0.1c0,0,0,0,0,0c0,0,0,0,0,0c0,0,0,0,0,0l0,0l0,0c0,0,0,0-1,0.1c-1,0.1-1,0.1-1,0.1l0,0c0,0,0,0,0,0
		c0,0,0,0,0,0c0,0,0,0,0,0c0,0,0,0,0,0c0,0,0,0,0,0.1c0,0.1,0,0.1,0,0.2c0,0.2,0.1,0.5,0.1,0.8c0.1,0.7,0.2,1.6,0.3,2.7L232.9,223.5
		z"/>
</g>
<path class="st3" d="M113.5,366.3c0,0-3.4,3.6-0.1,3.4c4.1-0.2,7.4-3.1,7.4-3.1s-6.3,5.9-9.7,4.6c-3.4-1.3-0.8-5.3-0.4-5.3
	S113.5,366.3,113.5,366.3z"/>
<path class="st3" d="M168.4,367.8c0,0-2.9,4.1,1.1,3.1c4-1,7.4-3.1,7.4-3.1s-6.3,5.9-9.7,4.6s-0.8-5.3-0.4-5.3
	C167.1,367.1,168.4,367.8,168.4,367.8z"/>
<path class="st3" d="M173.7,370.4"/>
</svg>
