<svg width="1027" height="764" viewBox="0 0 1027 764" fill="none" xmlns="http://www.w3.org/2000/svg">
<path d="M1027 534.002V527.61H1017.88V508.113C1017.88 507.176 1017.52 506.263 1016.85 505.506C1016.18 504.748 1015.24 504.184 1014.15 503.894C1012.21 503.367 1010.27 502.871 1008.32 502.376V502.2H1007.64C973.038 493.453 937.301 488.089 901.171 486.219C900.528 486.134 899.879 486.086 899.227 486.075H898.975C889.037 485.574 879.04 485.324 868.985 485.324C862.688 485.324 856.539 485.42 850.54 485.612L850.385 364.907C850.38 363.872 849.876 362.88 848.983 362.149C848.091 361.418 846.882 361.008 845.623 361.008H837.013V356.517H809.938V361.024H757.578C756.953 361.036 756.338 361.15 755.767 361.359C755.196 361.567 754.681 361.867 754.251 362.239C753.821 362.612 753.485 363.051 753.262 363.531C753.039 364.011 752.934 364.522 752.952 365.035L753.127 496.351C741.329 498.668 732.427 500.842 726.946 502.28H719.911V67.1342C719.911 65.664 717.442 64.4814 714.41 64.4814H701.33V638.981H714.41C715.294 638.982 716.173 638.869 717.015 638.645V654.626H705.703V661.019H717.015V680.084H705.703V686.476H717.015V705.43H705.703V711.822H717.015V730.871H705.703V737.264H717.015V758.391C717.015 760.484 718.453 764 727.996 764H1006.9C1016.45 764 1017.88 760.484 1017.88 758.391V737.248H1027V730.855H1017.88V711.822H1027V705.43H1017.88V686.428H1027V680.036H1017.88V661.019H1027V654.626H1017.88V635.625H1027V629.233H1017.88V610.215H1027V603.823H1017.88V584.806H1027V578.413H1017.88V559.396H1027V553.003H1017.88V534.002H1027ZM849.743 711.822H885.272V730.871H849.743V711.822ZM849.743 705.43V686.428H885.272V705.43H849.743ZM849.743 680.02V676.009C850.393 675.336 850.749 674.503 850.754 673.644V660.955H885.292V680.02H849.743ZM850.715 654.61V635.625H885.292V654.674L850.715 654.61ZM850.715 629.201V610.151H885.331V629.201H850.715ZM850.715 603.791V584.806H885.35V603.855L850.715 603.791ZM850.715 578.397V559.396H885.389V578.461L850.715 578.397ZM850.715 552.987V533.938H885.428V552.987H850.715ZM850.715 527.578V508.528H885.467V527.578H850.715ZM795.905 584.806V600.451H789.725V584.806H795.905ZM810.347 508.592V520.786H804.185V508.592H810.347ZM795.847 537.358H789.667V533.97H795.847V537.358ZM810.405 567.834H804.244V559.364H810.424L810.405 567.834ZM804.224 553.019V552.14H810.405V553.035L804.224 553.019ZM789.647 527.61V521.649H795.828V527.61H789.647ZM786.401 711.822H821.93V730.871H786.401V711.822ZM786.401 705.43V686.428H821.93V705.43H786.401ZM786.401 680.02V677.607H821.93V680.052L786.401 680.02ZM810.23 426.802H804.049V411.092H810.23V426.802ZM810.23 379.306V395.016H804.049V379.418L810.23 379.306ZM795.711 488.712H789.531V473.019H795.711V488.712ZM795.711 457.725H789.531V442.032H795.711V457.725ZM795.711 411.108V426.802H789.55V411.092L795.711 411.108ZM783.369 395.127V410.837H777.189V395.127H783.369ZM727.938 511.197C730.387 510.542 734.099 509.599 738.919 508.464H753.088V527.514H727.899L727.938 511.197ZM727.938 533.874H753.205V552.923H727.938V533.874ZM727.938 559.268H753.205V578.333H727.938V559.268ZM727.938 584.678H753.205V603.727H727.938V584.678ZM727.938 610.087H753.205V629.137H727.938V610.087ZM727.938 635.497H753.205V654.546H727.938V635.497ZM727.938 660.891H753.205V673.676C753.21 674.711 753.714 675.703 754.606 676.434C755.499 677.165 756.707 677.575 757.966 677.575H758.53V679.972H727.899L727.938 660.891ZM727.938 686.301H758.588V705.43H727.899L727.938 686.301ZM727.938 711.71H758.588V730.76H727.899L727.938 711.71ZM728.093 754.971H727.938V737.248H758.588V752.494C758.588 753.372 758.719 754.247 758.977 755.099L728.093 754.971ZM786.071 754.971C786.313 754.117 786.437 753.243 786.44 752.366V737.12H821.969V752.366C821.979 753.243 822.109 754.117 822.358 754.971H786.071ZM849.413 754.971C849.655 754.117 849.779 753.243 849.782 752.366V737.12H885.311V752.366C885.321 753.243 885.451 754.117 885.7 754.971H849.413ZM885.311 497.374V502.168H850.521V494.481C856.526 494.289 862.668 494.177 868.966 494.177C874.602 494.177 880.219 494.257 885.817 494.417C885.464 495.42 885.281 496.458 885.272 497.502L885.311 497.374ZM912.716 755.099C912.958 754.245 913.082 753.371 913.085 752.494V737.248H948.614V752.494C948.624 753.371 948.754 754.245 949.003 755.099H912.716ZM948.614 534.002V553.051H913.085V534.002H948.614ZM913.085 527.61V508.592H948.614V527.642L913.085 527.61ZM948.614 559.364V578.429H913.085V559.396L948.614 559.364ZM948.614 584.774V603.823H913.085V584.806L948.614 584.774ZM948.614 610.183V629.233H913.085V610.215L948.614 610.183ZM948.614 635.593V654.642H913.085V635.625L948.614 635.593ZM948.614 660.987V680.052H913.085V661.019L948.614 660.987ZM948.614 686.396V705.43H913.085V686.428L948.614 686.396ZM948.614 711.806V730.855H913.085V711.822L948.614 711.806ZM949.081 502.2H913.085V497.406C913.081 496.871 913.029 496.336 912.93 495.808C925.486 496.756 937.886 498.114 950.13 499.883C949.675 500.631 949.323 501.419 949.081 502.232V502.2ZM1007.08 755.067H975.98C976.223 754.213 976.347 753.339 976.35 752.462V737.216H1007L1007.08 755.067ZM1007.08 730.855H976.466V711.822H1007.12L1007.08 730.855ZM1007.08 705.462H976.466V686.428H1007.12L1007.08 705.462ZM1007.08 680.052H976.466V661.019H1007.12L1007.08 680.052ZM1007.08 654.642H976.466V635.625H1007.12L1007.08 654.642ZM1007.08 629.233H976.466V610.215H1007.12L1007.08 629.233ZM1007.08 603.823H976.466V584.806H1007.12L1007.08 603.823ZM1007.08 578.429H976.466V559.396H1007.12L1007.08 578.429ZM1007.08 553.019H976.466V534.002H1007.12L1007.08 553.019ZM1007.08 527.61H976.466V508.592H995.786C999.673 509.487 1003.35 510.398 1007.12 511.389L1007.08 527.61ZM558.708 64.4814V638.981H578.455V64.4814H558.708ZM576.861 144.386H560.166V123.867H576.861V144.386ZM652.953 64.4814V638.981H674.022V64.4814H652.953ZM671.651 207.783H654.936V187.199H671.651V207.783ZM582.245 64.4814V638.981H601.992V64.4814H582.245ZM600.437 541.13H583.858V520.546H600.573L600.437 541.13ZM600.437 378.315H583.858V357.732H600.573L600.437 378.315ZM600.437 333.329H583.858V312.762H600.573L600.437 333.329ZM600.437 144.434H583.858V123.867H600.573L600.437 144.434ZM534.608 64.5293V638.981H554.899V64.4814L534.608 64.5293ZM552.877 185.281H536.182V164.65H552.877V185.281ZM629.358 64.5293V638.981H649.105V64.4814L629.358 64.5293ZM630.738 187.247H647.434V207.783H630.738V187.247ZM647.511 474.073H630.796V453.442H647.511V474.073ZM439.274 64.4814C436.222 64.4814 433.754 65.664 433.754 67.1342V207.383H369.246V201.151H331.734V207.383H319.8C318.051 207.383 316.373 207.953 315.135 208.969C313.896 209.984 313.197 211.362 313.192 212.801L313.076 308.846H178.539V301.591H188.257V286.345H96.5971V301.591H107.52V308.846H88.4534C86.601 308.859 84.8304 309.475 83.5297 310.559C82.229 311.644 81.5043 313.108 81.5147 314.631V401.472H57.1419V405.979H4.8007C3.55283 405.966 2.34905 406.358 1.45038 407.07C0.551708 407.782 0.0305888 408.756 0 409.782L0.40814 718.582C0.413281 719.618 0.917242 720.609 1.8097 721.34C2.70216 722.071 3.91041 722.481 5.16996 722.481L93.1375 722.402C94.397 722.402 95.6053 721.991 96.4977 721.26C97.3902 720.53 97.8941 719.538 97.8993 718.502V689.736H338.323C340.175 689.724 341.946 689.108 343.247 688.023C344.547 686.939 345.272 685.474 345.262 683.951V646.476H441.315C443.06 646.476 444.735 645.908 445.974 644.896C447.212 643.884 447.912 642.51 447.923 641.074V638.901H460.187V64.4814H439.274ZM307.867 315.99H313.017V338.203H307.867V315.99ZM307.867 350.652H312.978V372.418H307.867V350.652ZM307.867 384.852H312.94V407.657H307.867V384.852ZM307.867 420.106H312.881V440.881H307.867V420.106ZM307.867 453.266H312.842V474.041H307.867V453.266ZM307.867 486.491H312.803V507.266H307.867V486.491ZM307.867 519.651H312.765V541.417H307.867V519.651ZM307.867 553.866H312.706V574.642H307.867V553.866ZM307.867 587.027H312.667V607.802H307.867V587.027ZM307.867 620.203H312.629V640.979H307.867V620.203ZM111.718 301.479H174.322V308.734H111.718V301.479ZM132.69 607.722V586.947H159.162V607.722H132.69ZM159.162 620.155V640.931H132.69V620.155H159.162ZM132.69 574.546V553.77H159.162V574.546H132.69ZM132.69 541.369V519.603H159.162V541.369H132.69ZM132.69 507.17V486.491H159.162V507.266L132.69 507.17ZM132.69 473.993V453.218H159.162V473.993H132.69ZM132.69 440.833V420.058H159.162V440.833H132.69ZM132.69 372.418V350.652H159.162V372.418H132.69ZM132.69 338.203V315.99H159.162V338.203H132.69ZM24.295 440.146H30.4757V455.839H24.295V440.146ZM24.5671 644.191V628.481H30.7284V644.175L24.5671 644.191ZM36.6369 456.063H42.8176V471.756H36.6369V456.063ZM36.6369 486.986H42.8176V502.679H36.6175L36.6369 486.986ZM36.6369 517.909H42.7981V533.618H36.6175L36.6369 517.909ZM36.6369 566.571H42.8176V582.28H36.6369V566.571ZM36.7341 645.341V629.632H42.9147V645.341H36.7341ZM51.1362 424.165H57.3168V439.858H51.1362V424.165ZM51.1362 455.935H57.3168V471.644H51.1362V455.935ZM51.3111 549.935H57.4918V565.644H51.3111V549.935ZM51.3111 612.74V597.047H57.4918V612.74H51.3111ZM100.931 682.497H97.7632V653.364H100.97L100.931 682.497ZM113.526 682.497H104.702V653.332H113.526V682.497ZM116.208 640.947H97.7049V620.171H116.227L116.208 640.947ZM116.208 607.786H97.6661V587.011H116.227L116.208 607.786ZM116.208 574.61H97.6272V553.834H116.247L116.208 574.61ZM116.208 541.433H97.5883V519.667H116.247L116.208 541.433ZM116.208 507.234H97.53V486.491H116.227L116.208 507.234ZM116.208 474.057H97.5689V453.282H116.305L116.208 474.057ZM116.208 440.897H97.4523V420.122H116.247L116.208 440.897ZM116.208 407.72H96.7331C96.3032 407.168 95.7113 406.713 95.0117 406.397C94.3121 406.082 93.5272 405.916 92.7293 405.915H90.3387V384.852H116.286L116.208 407.72ZM116.208 372.482H90.3387V350.652H116.286L116.208 372.482ZM116.208 338.267H90.3387V316.054H116.286L116.208 338.267ZM126.14 682.529H117.394V653.332H126.218L126.14 682.529ZM138.734 682.529H129.91V653.332H138.773L138.734 682.529ZM151.348 682.529H142.66V653.332H151.484L151.348 682.529ZM163.962 682.529H155.138V653.332H164.04L163.962 682.529ZM176.557 682.529H167.733V653.332H176.557V682.529ZM189.171 682.529H180.347V653.332H189.307L189.171 682.529ZM203.204 682.529H192.961V653.332H203.204V682.529ZM203.204 640.979H175.546V620.203H203.281L203.204 640.979ZM203.204 607.818H175.546V587.043H203.281L203.204 607.818ZM203.204 574.642H175.546V553.866H203.281L203.204 574.642ZM203.204 541.465H175.546V519.603H203.281L203.204 541.465ZM203.204 474.089H175.546V453.314H203.281L203.204 474.089ZM203.204 440.929H175.546V420.154H203.281L203.204 440.929ZM203.204 407.752H175.546V384.852H203.281L203.204 407.752ZM203.204 372.514H175.546V350.652H203.281L203.204 372.514ZM203.204 338.299H175.546V316.086H203.281L203.204 338.299ZM247.324 682.561H219.666V653.332H247.401L247.324 682.561ZM247.324 641.011H219.666V620.235H247.401L247.324 641.011ZM247.324 607.85H219.666V587.075H247.401L247.324 607.85ZM247.324 574.674H219.666V553.898H247.401L247.324 574.674ZM247.324 541.497H219.666V519.603H247.401L247.324 541.497ZM247.324 507.298H219.666V486.491H247.401L247.324 507.298ZM247.324 474.121H219.666V453.346H247.401L247.324 474.121ZM247.324 440.961H219.666V420.186H247.401L247.324 440.961ZM247.324 407.784H219.666V384.852H247.401L247.324 407.784ZM247.324 372.546H219.666V350.652H247.401L247.324 372.546ZM247.324 338.331H219.666V316.118H247.401L247.324 338.331ZM291.443 682.593H263.786V653.332H291.521L291.443 682.593ZM291.443 641.043H263.786V620.267H291.521L291.443 641.043ZM291.443 607.882H263.786V587.107H291.521L291.443 607.882ZM291.443 574.706H263.786V553.93H291.521L291.443 574.706ZM291.443 541.529H263.786V519.603H291.521L291.443 541.529ZM291.443 507.33H263.786V486.491H291.521L291.443 507.33ZM291.443 474.153H263.786V453.378H291.521L291.443 474.153ZM291.443 407.816H263.786V384.852H291.521L291.443 407.816ZM291.443 372.578H263.786V350.652H291.521L291.443 372.578ZM291.443 338.363H263.786V316.15H291.521L291.443 338.363ZM336.321 682.625H307.867V653.332H336.341L336.321 682.625ZM377.137 494.385H368.565V472.443H377.137V494.385ZM377.137 429.071H368.565V407.289H377.137V429.071ZM377.312 298.794H368.74V276.836H377.331L377.312 298.794ZM377.312 254.719H368.74V232.761H377.312V254.719ZM397.273 539.42H388.701V517.637H397.273V539.42ZM397.389 451.94H388.818V430.158H397.389V451.94ZM397.389 384.436H388.818V362.654H397.389V384.436ZM397.389 341.543H388.818V319.745H397.409L397.389 341.543ZM397.389 298.65H388.818V276.852H397.389V298.65ZM414.182 537.821H405.611V516.023H414.182V537.821ZM414.765 276.581H406.213V254.767H414.765V276.581ZM605.899 64.4814V638.981H625.646V64.4814H605.899ZM607.182 453.442H623.877V474.025H607.182V453.442ZM623.955 567.45H607.24V546.867H623.955V567.45ZM623.955 295.135H607.24V274.551H623.955V295.135ZM623.955 272.122H607.24V251.57H623.955V272.122ZM530.837 64.4814V638.981H511.09V64.4814H530.837ZM507.28 64.4814V638.981H487.533V64.4814H507.28ZM692.7 64.4814V9.10734C693.887 8.63363 694.844 7.84292 695.413 6.86443C695.983 5.88593 696.132 4.77749 695.837 3.72023C695.541 2.66296 694.818 1.71938 693.786 1.04365C692.754 0.367924 691.473 0 690.154 0C688.835 0 687.554 0.367924 686.522 1.04365C685.49 1.71938 684.767 2.66296 684.471 3.72023C684.176 4.77749 684.325 5.88593 684.895 6.86443C685.465 7.84292 686.421 8.63363 687.608 9.10734V64.4814H677.89V638.981H697.637V64.4814H692.7ZM695.81 333.329H679.095V312.762H695.791L695.81 333.329ZM695.81 207.783H679.095V187.199H695.791L695.81 207.783ZM463.957 64.4814V638.981H483.705V64.4814H463.957ZM482.189 120.047H465.493V99.4637H482.189V120.047ZM482.189 97.0346H465.493V76.4511H482.189V97.0346ZM556.803 62.8993C556.539 62.9042 556.278 62.9535 556.038 63.0442C555.797 63.1349 555.581 63.265 555.404 63.4266H534.394V55.2284H506.931V48.9639H647.181V55.2284H617.308V63.4266H605.335C605.158 63.265 604.942 63.1349 604.702 63.0442C604.461 62.9535 604.2 62.9042 603.936 62.8993C603.668 62.902 603.404 62.9503 603.159 63.041C602.915 63.1318 602.697 63.2631 602.517 63.4266H581.779C581.597 63.2695 581.379 63.1443 581.136 63.0588C580.894 62.9733 580.633 62.9292 580.37 62.9292C580.106 62.9292 579.845 62.9733 579.603 63.0588C579.361 63.1443 579.142 63.2695 578.961 63.4266H558.222C558.043 63.2631 557.824 63.1318 557.58 63.041C557.336 62.9503 557.071 62.902 556.803 62.8993ZM701.388 64.4973H697.501C697.501 64.0735 697.706 63.667 698.07 63.3673C698.435 63.0676 698.929 62.8993 699.444 62.8993C699.96 62.8993 700.454 63.0676 700.819 63.3673C701.183 63.667 701.388 64.0735 701.388 64.4973ZM697.501 638.997H701.388C701.388 639.421 701.183 639.827 700.819 640.127C700.454 640.427 699.96 640.595 699.444 640.595C698.929 640.595 698.435 640.427 698.07 640.127C697.706 639.827 697.501 639.421 697.501 638.997ZM677.832 64.4814H673.944C673.944 64.0575 674.149 63.6511 674.514 63.3514C674.878 63.0517 675.372 62.8833 675.888 62.8833C676.403 62.8833 676.898 63.0517 677.262 63.3514C677.627 63.6511 677.832 64.0575 677.832 64.4814ZM673.944 638.981H677.832C677.832 639.405 677.627 639.811 677.262 640.111C676.898 640.411 676.403 640.579 675.888 640.579C675.372 640.579 674.878 640.411 674.514 640.111C674.149 639.811 673.944 639.405 673.944 638.981ZM649.066 638.981H652.953C652.953 639.405 652.749 639.811 652.384 640.111C652.02 640.411 651.525 640.579 651.01 640.579C650.494 640.579 650 640.411 649.636 640.111C649.271 639.811 649.066 639.405 649.066 638.981ZM652.953 64.4814H649.066C649.066 64.0575 649.271 63.6511 649.636 63.3514C650 63.0517 650.494 62.8833 651.01 62.8833C651.525 62.8833 652.02 63.0517 652.384 63.3514C652.749 63.6511 652.953 64.0575 652.953 64.4814ZM629.397 64.4814H625.51C625.51 64.0575 625.715 63.6511 626.079 63.3514C626.444 63.0517 626.938 62.8833 627.453 62.8833C627.969 62.8833 628.463 63.0517 628.828 63.3514C629.192 63.6511 629.397 64.0575 629.397 64.4814ZM625.51 638.981H629.397C629.397 639.405 629.192 639.811 628.828 640.111C628.463 640.411 627.969 640.579 627.453 640.579C626.938 640.579 626.444 640.411 626.079 640.111C625.715 639.811 625.51 639.405 625.51 638.981ZM601.953 638.981H605.841C605.841 639.405 605.636 639.811 605.271 640.111C604.907 640.411 604.412 640.579 603.897 640.579C603.381 640.579 602.887 640.411 602.523 640.111C602.158 639.811 601.953 639.405 601.953 638.981ZM602.439 63.4266H605.257C605.577 63.7156 605.757 64.0908 605.763 64.4814H601.876C601.918 64.0754 602.147 63.6981 602.517 63.4266H602.439ZM581.701 63.4266C582.021 63.7156 582.2 64.0908 582.206 64.4814H578.319C578.325 64.0908 578.505 63.7156 578.824 63.4266H581.701ZM578.377 638.981H582.265C582.265 639.405 582.06 639.811 581.695 640.111C581.331 640.411 580.836 640.579 580.321 640.579C579.806 640.579 579.311 640.411 578.947 640.111C578.582 639.811 578.377 639.405 578.377 638.981ZM558.708 64.4814H554.821C554.827 64.0908 555.007 63.7156 555.326 63.4266H558.145C558.485 63.7084 558.686 64.0844 558.708 64.4814ZM554.821 638.981H558.708C558.708 639.405 558.503 639.811 558.139 640.111C557.774 640.411 557.28 640.579 556.765 640.579C556.249 640.579 555.755 640.411 555.39 640.111C555.026 639.811 554.821 639.405 554.821 638.981ZM530.759 638.981H534.646C534.646 639.405 534.442 639.811 534.077 640.111C533.713 640.411 533.218 640.579 532.703 640.579C532.187 640.579 531.693 640.411 531.328 640.111C530.964 639.811 530.759 639.405 530.759 638.981ZM534.646 64.4814H530.759C530.759 64.0575 530.964 63.6511 531.328 63.3514C531.693 63.0517 532.187 62.8833 532.703 62.8833C533.218 62.8833 533.713 63.0517 534.077 63.3514C534.442 63.6511 534.646 64.0575 534.646 64.4814ZM511.09 64.4814H507.203C507.203 64.0575 507.407 63.6511 507.772 63.3514C508.136 63.0517 508.631 62.8833 509.146 62.8833C509.662 62.8833 510.156 63.0517 510.521 63.3514C510.885 63.6511 511.09 64.0575 511.09 64.4814ZM507.203 638.981H511.09C511.09 639.405 510.885 639.811 510.521 640.111C510.156 640.411 509.662 640.579 509.146 640.579C508.631 640.579 508.136 640.411 507.772 640.111C507.407 639.811 507.203 639.405 507.203 638.981ZM487.533 64.4814H483.646C483.646 64.0575 483.851 63.6511 484.215 63.3514C484.58 63.0517 485.074 62.8833 485.59 62.8833C486.105 62.8833 486.6 63.0517 486.964 63.3514C487.329 63.6511 487.533 64.0575 487.533 64.4814ZM483.646 638.981H487.533C487.533 639.405 487.329 639.811 486.964 640.111C486.6 640.411 486.105 640.579 485.59 640.579C485.074 640.579 484.58 640.411 484.215 640.111C483.851 639.811 483.646 639.405 483.646 638.981ZM463.957 64.4814H460.07C460.07 64.0575 460.275 63.6511 460.64 63.3514C461.004 63.0517 461.498 62.8833 462.014 62.8833C462.529 62.8833 463.024 63.0517 463.388 63.3514C463.753 63.6511 463.957 64.0575 463.957 64.4814ZM460.07 638.981H463.957C463.957 639.405 463.753 639.811 463.388 640.111C463.024 640.411 462.529 640.579 462.014 640.579C461.498 640.579 461.004 640.411 460.64 640.111C460.275 639.811 460.07 639.405 460.07 638.981Z" fill="url(#paint0_linear_1537_10712)"/>
<defs>
<linearGradient id="paint0_linear_1537_10712" x1="513.5" y1="763.984" x2="513.5" y2="0.174003" gradientUnits="userSpaceOnUse">
<stop stop-color="#101010"/>
<stop offset="1" stop-color="#383838"/>
</linearGradient>
</defs>
</svg>
