<svg width="290" height="613" viewBox="0 0 290 613" fill="none" xmlns="http://www.w3.org/2000/svg">
<path d="M286.308 0.967285H3.79428C3.02207 0.987682 2.28898 1.3115 1.75379 1.86867C1.2186 2.42585 0.924341 3.17151 0.934842 3.94411V609.406C0.924341 610.179 1.2186 610.925 1.75379 611.482C2.28898 612.039 3.02207 612.363 3.79428 612.383H286.308C287.079 612.363 287.81 612.038 288.342 611.481C288.874 610.923 289.164 610.177 289.148 609.406V3.94411C289.164 3.17333 288.874 2.42766 288.342 1.86992C287.81 1.31218 287.079 0.987684 286.308 0.967285ZM90.3536 180.413H53.3957V143.446H90.3536V180.413ZM190.159 273.434H153.201V236.467H190.159V273.434ZM238.788 135.664H201.83V98.6965H238.788V135.664Z" fill="url(#paint0_linear_1537_10709)"/>
<defs>
<linearGradient id="paint0_linear_1537_10709" x1="145.042" y1="612.371" x2="145.042" y2="1.10654" gradientUnits="userSpaceOnUse">
<stop stop-color="#101010"/>
<stop offset="1" stop-color="#383838"/>
</linearGradient>
</defs>
</svg>
