<svg width="101" height="593" viewBox="0 0 101 593" fill="none" xmlns="http://www.w3.org/2000/svg">
<path d="M18.0816 2.93018V590.67H2.63705C2.12116 590.67 1.62643 590.465 1.26164 590.1C0.896858 589.735 0.691895 589.24 0.691895 588.724V4.83693C0.691895 4.32091 0.896858 3.826 1.26164 3.46112C1.62643 3.09625 2.12116 2.89129 2.63705 2.89129L18.0816 2.93018ZM19.0153 2.93018V590.67H24.1699V2.93018H19.0153ZM100.556 4.87582V588.744C100.556 589.26 100.351 589.755 99.9863 590.12C99.6215 590.485 99.1268 590.69 98.6109 590.69H27.8657V2.93018H98.6303C99.1362 2.93514 99.6202 3.13704 99.9797 3.49301C100.339 3.84898 100.546 4.33104 100.556 4.83693V4.87582ZM48.0369 292.305H41.3067V313.142H48.0369V292.305ZM48.0369 229.811H41.3067V250.649H48.0369V229.811ZM63.8899 335.459H57.2375V356.297H63.9677L63.8899 335.459ZM63.8899 251.796H57.2375V272.654H63.9677L63.8899 251.796ZM63.8899 187.201H57.2375V208.02H63.9677L63.8899 187.201ZM63.8899 146.168H57.2375V167.006H63.9677L63.8899 146.168ZM63.8899 105.115H57.2375V125.953H63.9677L63.8899 105.115ZM77.3504 333.961H70.6007V354.798H77.3504V333.961ZM77.3504 83.9854H70.6007V104.823H77.3504V83.9854ZM18.5484 591.195C18.6722 591.195 18.791 591.146 18.8785 591.059C18.9661 590.971 19.0153 590.852 19.0153 590.729H18.0816C18.0816 590.852 18.1308 590.971 18.2183 591.059C18.3059 591.146 18.4246 591.195 18.5484 591.195ZM19.0153 2.93018C19.0153 2.80634 18.9661 2.68756 18.8785 2.59999C18.791 2.51242 18.6722 2.46325 18.5484 2.46325C18.4246 2.46325 18.3059 2.51242 18.2183 2.59999C18.1308 2.68756 18.0816 2.80634 18.0816 2.93018H19.0153ZM25.9984 592.596C26.5142 592.596 27.009 592.391 27.3738 592.026C27.7386 591.662 27.9435 591.167 27.9435 590.651H24.1699C24.1836 591.137 24.379 591.6 24.7174 591.95C25.0559 592.299 25.5129 592.509 25.9984 592.538V592.596ZM27.9435 2.93018C28.0339 2.639 28.0546 2.33065 28.004 2.02998C27.9534 1.72931 27.8328 1.44475 27.6521 1.19925C27.4713 0.953753 27.2353 0.754189 26.9633 0.616652C26.6912 0.479116 26.3907 0.407471 26.0859 0.407471C25.7811 0.407471 25.4805 0.479116 25.2085 0.616652C24.9364 0.754189 24.7005 0.953753 24.5197 1.19925C24.3389 1.44475 24.2184 1.72931 24.1677 2.02998C24.1171 2.33065 24.1378 2.639 24.2283 2.93018H27.9435Z" fill="url(#paint0_linear_1537_10708)"/>
<defs>
<linearGradient id="paint0_linear_1537_10708" x1="50.624" y1="592.583" x2="50.624" y2="-39.4485" gradientUnits="userSpaceOnUse">
<stop stop-color="#101010"/>
<stop offset="1" stop-color="#383838"/>
</linearGradient>
</defs>
</svg>
