<svg width="201" height="592" viewBox="0 0 201 592" fill="none" xmlns="http://www.w3.org/2000/svg">
<path d="M197.116 0H3.88443C1.748 0 0 0.829926 0 1.86734V590.133C0 591.17 1.72857 592 3.88443 592H197.116C199.252 592 201 591.17 201 590.133V1.86734C200.981 0.829926 199.252 0 197.116 0ZM67.3949 131.272H79.0482V145.764H67.3949V131.272ZM67.3949 147.424H79.0482V161.788H67.3949V147.424ZM28.706 188.681H17.0527V174.237H28.706V188.681ZM28.706 100.565H17.0527V86.121H28.706V100.565ZM45.6809 100.565H34.0276V86.121H45.6809V100.565ZM62.5976 287.411H50.9443V272.967H62.5976V287.411ZM62.5976 100.565H50.9443V86.121H62.5976V100.565ZM79.0871 352.959H67.4338V338.515H79.0871V352.959ZM79.0871 287.411H67.4338V272.967H79.0871V287.411ZM95.5765 334.493H83.9232V320.049H95.5765V334.493ZM95.5765 220.234H83.9232V205.79H95.5765V220.234ZM95.5765 188.681H83.9232V174.237H95.5765V188.681ZM95.5765 56.1159H83.9232V41.672H95.5765V56.1159ZM112.144 56.1159H100.49V41.672H112.144V56.1159ZM128.963 84.7485H117.31V70.3045H128.963V84.7485ZM178.626 38.9907H166.972V24.6265H178.626V38.9907ZM178.626 22.839H166.972V8.47484H178.626V22.839Z" fill="url(#paint0_linear_1537_10711)"/>
<defs>
<linearGradient id="paint0_linear_1537_10711" x1="100.5" y1="591.986" x2="100.5" y2="-98.2793" gradientUnits="userSpaceOnUse">
<stop stop-color="#101010"/>
<stop offset="1" stop-color="#383838"/>
</linearGradient>
</defs>
</svg>
