<svg width="20" height="20" viewBox="0 0 20 20" fill="none" xmlns="http://www.w3.org/2000/svg">
<g clip-path="url(#clip0_1096_17157)">
<path d="M15.7196 4.70588L17.4053 4.16841C17.3733 4.17488 17.3409 4.18377 17.309 4.18377C17.1245 4.18377 18.6463 3.12661 18.6463 3.12661L17.1299 0C17.1299 0 15.2463 0.520092 15.3547 0.400071L13.9404 1.05877C14.0475 1.01513 14.156 1.48632 14.2059 1.58856L15.3196 4.18417C15.3687 4.28641 15.8191 4.66426 15.7196 4.70588Z" fill="#3F3F3F"/>
<path d="M9.03143 7.05887L10.7443 6.46926C12.5935 5.6604 14.4437 4.85356 16.2949 4.04873L14.863 1.17651C14.863 1.17651 9.56076 3.22077 9.64578 3.18036L10.3979 2.82409L8.05957 3.90997L9.03143 7.05887Z" fill="#9B9B9A"/>
<path d="M3.35391 7.78916L4.04549 9.41169C4.04549 9.41169 7.61341 8.38446 7.56233 8.40385L7.1128 8.57464L9.23587 7.79493L8.27709 4.70581L6.69589 5.58783C6.78901 5.54657 3.35352 7.78916 3.35352 7.78916H3.35391Z" fill="#9B9B9A"/>
<path d="M3.59575 18.5532L9.03065 10.2537H10.0551L15.1345 18.5508M9.57414 10.5362V20M1 8.85969L1.86387 8.51239M15.8539 0.651548L17.166 0L18.6471 3.30483L17.3312 3.76401M8.06743 3.76844L9.52902 8.37113" stroke="#CECECE" stroke-width="0.555556" stroke-miterlimit="10" stroke-linecap="round" stroke-linejoin="round"/>
<path d="M9.82359 9.4117C10.1485 9.4117 10.4118 9.14834 10.4118 8.82346C10.4118 8.49859 10.1485 8.23523 9.82359 8.23523C9.49871 8.23523 9.23535 8.49859 9.23535 8.82346C9.23535 9.14834 9.49871 9.4117 9.82359 9.4117Z" fill="#CECECE"/>
<path d="M7.73929 7.91919L4.00404 9.41181L3.35352 7.75168L7.11245 5.59744M10.2323 3.8356L14.9721 1.17651L16.2947 4.54902L10.9657 6.65753" stroke="#CECECE" stroke-width="0.555556" stroke-miterlimit="10" stroke-linecap="round" stroke-linejoin="round"/>
</g>
<defs>
<clipPath id="clip0_1096_17157">
<rect width="20" height="20" fill="white"/>
</clipPath>
</defs>
</svg>
