<svg width="21" height="20" viewBox="0 0 21 20" fill="none" xmlns="http://www.w3.org/2000/svg">
<g clip-path="url(#clip0_1096_17335)">
<path d="M19.4287 14.375H18.8037V4.52343L19.5592 4.36093C19.6412 4.34556 19.7193 4.31392 19.7888 4.26789C19.8584 4.22186 19.9181 4.16236 19.9643 4.09291C20.0105 4.02346 20.0423 3.94546 20.0579 3.86351C20.0735 3.78156 20.0726 3.69731 20.0551 3.61574C20.0376 3.53417 20.004 3.45692 19.9562 3.38855C19.9084 3.32017 19.8474 3.26206 19.7768 3.21764C19.7062 3.17321 19.6274 3.14337 19.5451 3.12988C19.4628 3.11638 19.3786 3.1195 19.2975 3.13906L1.79746 6.88906C1.6467 6.92159 1.51329 7.00872 1.42289 7.13368C1.3325 7.25865 1.2915 7.41263 1.30779 7.566C1.32408 7.71937 1.3965 7.8613 1.51112 7.96449C1.62575 8.06768 1.77448 8.12485 1.92871 8.125C1.97309 8.12492 2.01734 8.1202 2.06074 8.11093L2.55371 8.00546V14.375H1.92871C1.76295 14.375 1.60398 14.4408 1.48677 14.5581C1.36956 14.6753 1.30371 14.8342 1.30371 15C1.30371 15.1658 1.36956 15.3247 1.48677 15.4419C1.60398 15.5591 1.76295 15.625 1.92871 15.625H19.4287C19.5945 15.625 19.7534 15.5591 19.8707 15.4419C19.9879 15.3247 20.0537 15.1658 20.0537 15C20.0537 14.8342 19.9879 14.6753 19.8707 14.5581C19.7534 14.4408 19.5945 14.375 19.4287 14.375ZM3.80371 7.73437L17.5537 4.7914V14.375H15.6787V10C15.6787 9.83423 15.6129 9.67526 15.4957 9.55805C15.3784 9.44084 15.2195 9.375 15.0537 9.375H6.30371C6.13795 9.375 5.97898 9.44084 5.86177 9.55805C5.74456 9.67526 5.67871 9.83423 5.67871 10V14.375H3.80371V7.73437ZM14.4287 11.875H6.92871V10.625H14.4287V11.875ZM6.92871 13.125H14.4287V14.375H6.92871V13.125Z" fill="#CECECE"/>
</g>
<defs>
<clipPath id="clip0_1096_17335">
<rect width="20" height="20" fill="white" transform="translate(0.678711)"/>
</clipPath>
</defs>
</svg>
