<svg width="494" height="384" viewBox="0 0 494 384" fill="none" xmlns="http://www.w3.org/2000/svg">
<path d="M229.92 217.253L176.759 142.006L123.596 217.253H144.563V382.5H208.953V217.253H229.92Z" fill="white"/>
<path d="M60.6553 142.506H175.794L123.337 216.753H1.04266L60.6553 142.506Z" stroke="white"/>
<path d="M26.9199 216.753H26.4199V217.253V382.5V383H26.9199H144.563H145.063V382.5V217.253V216.753H144.563H26.9199Z" stroke="white"/>
<path d="M37.4844 238.485H53.4738V254.496H37.4844V238.485Z" stroke="white"/>
<path d="M64.4336 238.485H80.423V254.496H64.4336V238.485Z" stroke="white"/>
<path d="M91.3799 238.485H107.369V254.496H91.3799V238.485Z" stroke="white"/>
<path d="M118.01 238.485H133.999V254.496H118.01V238.485Z" stroke="white"/>
<path d="M37.4844 263.212H53.4738V279.223H37.4844V263.212Z" stroke="white"/>
<path d="M64.4336 263.212H80.423V279.223H64.4336V263.212Z" stroke="white"/>
<path d="M91.3799 263.212H107.369V279.223H91.3799V263.212Z" stroke="white"/>
<path d="M118.01 263.212H133.999V279.223H118.01V263.212Z" stroke="white"/>
<path d="M37.4844 287.94H53.4738V303.95H37.4844V287.94Z" stroke="white"/>
<path d="M64.4336 287.939H80.423V303.95H64.4336V287.939Z" stroke="white"/>
<path d="M91.3799 287.939H107.369V303.95H91.3799V287.939Z" stroke="white"/>
<path d="M118.01 287.94H133.999V303.95H118.01V287.94Z" stroke="white"/>
<path d="M37.4844 312.667H53.4738V328.678H37.4844V312.667Z" stroke="white"/>
<path d="M64.4336 312.667H80.423V328.678H64.4336V312.667Z" stroke="white"/>
<path d="M91.3799 312.667H107.369V328.678H91.3799V312.667Z" stroke="white"/>
<path d="M118.01 312.667H133.999V328.678H118.01V312.667Z" stroke="white"/>
<path d="M37.4844 337.394H53.4738V353.405H37.4844V337.394Z" stroke="white"/>
<path d="M64.4336 337.394H80.423V353.405H64.4336V337.394Z" stroke="white"/>
<path d="M91.3799 337.394H107.369V353.405H91.3799V337.394Z" stroke="white"/>
<path d="M118.01 337.394H133.999V353.405H118.01V337.394Z" stroke="white"/>
<path d="M324.392 260.323V259.823H323.892H309.352L347.694 205.552L386.036 259.823H371.499H370.999V260.323V382H324.392V260.323Z" fill="white" stroke="white"/>
<path d="M261.912 205.185H346.728L308.127 259.823H218.047L261.912 205.185Z" stroke="white"/>
<path d="M236.908 259.823H236.408V260.323V382.5V383H236.908H323.889H324.389V382.5V260.323V259.823H323.889H236.908Z" stroke="white"/>
<path d="M244.852 276.149H256.411V287.725H244.852V276.149Z" stroke="white"/>
<path d="M264.773 276.149H276.333V287.725H264.773V276.149Z" stroke="white"/>
<path d="M284.697 276.149H296.257V287.725H284.697V276.149Z" stroke="white"/>
<path d="M304.389 276.149H315.948V287.725H304.389V276.149Z" stroke="white"/>
<path d="M244.852 294.432H256.411V306.007H244.852V294.432Z" stroke="white"/>
<path d="M264.773 294.432H276.333V306.007H264.773V294.432Z" stroke="white"/>
<path d="M284.697 294.432H296.257V306.007H284.697V294.432Z" stroke="white"/>
<path d="M304.389 294.432H315.948V306.007H304.389V294.432Z" stroke="white"/>
<path d="M244.852 312.717H256.411V324.292H244.852V312.717Z" stroke="white"/>
<path d="M264.773 312.717H276.333V324.292H264.773V312.717Z" stroke="white"/>
<path d="M284.697 312.717H296.257V324.292H284.697V312.717Z" stroke="white"/>
<path d="M304.389 312.717H315.948V324.292H304.389V312.717Z" stroke="white"/>
<path d="M244.852 330.999H256.411V342.575H244.852V330.999Z" stroke="white"/>
<path d="M264.773 330.999H276.333V342.575H264.773V330.999Z" stroke="white"/>
<path d="M284.697 330.999H296.257V342.575H284.697V330.999Z" stroke="white"/>
<path d="M304.389 330.999H315.948V342.575H304.389V330.999Z" stroke="white"/>
<path d="M244.852 349.282H256.411V360.857H244.852V349.282Z" stroke="white"/>
<path d="M264.773 349.282H276.333V360.857H264.773V349.282Z" stroke="white"/>
<path d="M284.697 349.282H296.257V360.857H284.697V349.282Z" stroke="white"/>
<path d="M304.389 349.282H315.948V360.857H304.389V349.282Z" stroke="white"/>
<path d="M494 300.557L467.636 263.243L441.275 300.557H451.671V382.5H483.601V300.557H494Z" fill="white"/>
<path d="M410.184 263.743H466.671L441.016 300.057H381.027L410.184 263.743Z" stroke="white"/>
<path d="M393.336 300.057H392.836V300.557V382.5V383H393.336H451.674H452.174V382.5V300.557V300.057H451.674H393.336Z" stroke="white"/>
<path d="M398.825 311.338H406.251V318.774H398.825V311.338Z" stroke="white"/>
<path d="M412.188 311.338H419.613V318.774H412.188V311.338Z" stroke="white"/>
<path d="M425.552 311.338H432.977V318.774H425.552V311.338Z" stroke="white"/>
<path d="M438.757 311.338H446.182V318.774H438.757V311.338Z" stroke="white"/>
<path d="M398.825 323.599H406.251V331.035H398.825V323.599Z" stroke="white"/>
<path d="M412.188 323.599H419.613V331.035H412.188V323.599Z" stroke="white"/>
<path d="M425.552 323.599H432.977V331.035H425.552V323.599Z" stroke="white"/>
<path d="M438.757 323.599H446.182V331.035H438.757V323.599Z" stroke="white"/>
<path d="M398.825 335.861H406.251V343.297H398.825V335.861Z" stroke="white"/>
<path d="M412.188 335.861H419.613V343.297H412.188V335.861Z" stroke="white"/>
<path d="M425.552 335.861H432.977V343.297H425.552V335.861Z" stroke="white"/>
<path d="M438.757 335.861H446.182V343.297H438.757V335.861Z" stroke="white"/>
<path d="M398.825 348.123H406.251V355.559H398.825V348.123Z" stroke="white"/>
<path d="M412.188 348.123H419.613V355.559H412.188V348.123Z" stroke="white"/>
<path d="M425.552 348.123H432.977V355.559H425.552V348.123Z" stroke="white"/>
<path d="M438.757 348.123H446.182V355.559H438.757V348.123Z" stroke="white"/>
<path d="M398.825 360.384H406.251V367.82H398.825V360.384Z" stroke="white"/>
<path d="M412.188 360.384H419.613V367.82H412.188V360.384Z" stroke="white"/>
<path d="M425.552 360.384H432.977V367.82H425.552V360.384Z" stroke="white"/>
<path d="M438.757 360.384H446.182V367.82H438.757V360.384Z" stroke="white"/>
<path d="M314.02 125.928L314.032 126.293C314.05 126.833 314.075 127.625 314.108 128.634C314.173 130.651 314.264 133.532 314.369 136.988C314.581 143.9 314.849 153.113 315.08 162.316C315.311 171.519 315.503 180.71 315.561 187.578C315.59 191.014 315.586 193.863 315.536 195.842C315.511 196.833 315.475 197.596 315.428 198.101C315.419 198.195 315.41 198.277 315.401 198.348C315.1 198.305 314.745 198.272 314.37 198.247C313.766 198.206 313.072 198.181 312.396 198.165C311.755 198.149 311.14 198.142 310.626 198.135C310.251 198.13 309.929 198.126 309.689 198.12C309.675 198.044 309.659 197.952 309.642 197.843C309.574 197.412 309.497 196.772 309.411 195.947C309.239 194.3 309.035 191.945 308.806 189.114C308.591 186.465 308.354 183.402 308.1 180.117L308.048 179.443C307.774 175.904 307.481 172.128 307.175 168.349C306.564 160.793 305.9 153.223 305.236 147.52C304.904 144.671 304.57 142.277 304.24 140.581C304.076 139.737 303.909 139.046 303.738 138.554C303.654 138.311 303.56 138.091 303.451 137.92C303.361 137.779 303.174 137.531 302.856 137.493C302.499 137.45 302.265 137.698 302.161 137.833C302.037 137.993 301.93 138.205 301.835 138.437C301.641 138.907 301.444 139.581 301.243 140.413C300.839 142.083 300.399 144.472 299.936 147.331C299.011 153.053 297.991 160.703 296.994 168.349C296.823 169.659 296.653 170.969 296.484 172.269C295.667 178.561 294.88 184.623 294.189 189.365C293.772 192.227 293.391 194.599 293.061 196.247C292.895 197.073 292.746 197.702 292.615 198.114C292.575 198.238 292.54 198.334 292.511 198.404C291.806 198.356 290.811 198.368 289.841 198.379C289.524 198.383 289.21 198.386 288.909 198.388C288.224 198.391 287.607 198.384 287.152 198.347C286.987 198.333 286.855 198.317 286.755 198.298C286.759 198.191 286.766 198.055 286.775 197.891C286.8 197.44 286.843 196.792 286.901 195.971C287.018 194.331 287.196 192.014 287.414 189.243C287.64 186.37 287.908 183.012 288.195 179.42C288.462 176.084 288.745 172.545 289.025 169.004C289.606 161.653 290.175 154.296 290.559 148.736C290.751 145.957 290.897 143.624 290.975 141.964C291.014 141.135 291.036 140.468 291.039 139.996C291.04 139.761 291.037 139.565 291.027 139.418C291.022 139.345 291.014 139.272 291.002 139.206C290.996 139.174 290.986 139.131 290.97 139.086C290.958 139.052 290.924 138.96 290.84 138.875C290.843 138.878 290.845 138.88 290.845 138.88C290.846 138.88 290.826 138.854 290.788 138.783C290.745 138.703 290.694 138.592 290.635 138.448C290.518 138.161 290.381 137.768 290.238 137.287C289.952 136.328 289.65 135.043 289.435 133.604C289.021 130.827 288.945 127.554 289.879 124.944L314.02 125.928Z" stroke="white"/>
<path d="M314.523 125.958C314.523 125.958 307.075 129.948 300.489 130.066C296.463 130.116 292.468 129.35 288.745 127.813C288.652 128.851 288.627 129.894 288.669 130.935C292.54 132.042 296.592 132.364 300.588 131.882C307.049 131.053 314.523 126.665 314.523 126.665V125.958Z" fill="#203B51"/>
<path d="M285.875 102.777L285.542 102.404L285.307 102.614L285.395 102.917L285.875 102.777ZM285.875 102.777C285.395 102.917 285.395 102.917 285.395 102.917L285.395 102.917L285.396 102.919L285.398 102.928L285.407 102.96L285.444 103.086L285.584 103.566L286.083 105.283C286.497 106.706 287.051 108.606 287.61 110.52C288.169 112.434 288.733 114.361 289.168 115.835C289.386 116.572 289.571 117.197 289.708 117.651C289.798 117.951 289.872 118.195 289.92 118.343C289.917 118.35 289.914 118.357 289.911 118.364C289.864 118.465 289.781 118.609 289.662 118.789C289.425 119.146 289.079 119.595 288.693 120.035C288.307 120.476 287.895 120.894 287.53 121.194C287.348 121.345 287.188 121.457 287.058 121.528C287.022 121.547 286.992 121.561 286.968 121.572C286.883 121.477 286.769 121.327 286.628 121.117C286.337 120.687 285.965 120.061 285.534 119.287C284.674 117.743 283.603 115.653 282.523 113.47C280.362 109.099 278.189 104.398 277.637 103.015C277.616 102.962 277.595 102.837 277.635 102.601C277.674 102.372 277.763 102.084 277.905 101.737C278.19 101.043 278.662 100.178 279.276 99.1961C280.501 97.2352 282.245 94.87 284.034 92.5803C285.82 90.2933 287.643 88.0923 289.02 86.4625C289.662 85.7014 290.208 85.0653 290.606 84.6036C290.63 84.774 290.655 84.9611 290.683 85.1625C290.82 86.1602 290.999 87.5082 291.171 88.9111C291.343 90.3147 291.507 91.7693 291.611 92.9812C291.664 93.5874 291.701 94.1286 291.718 94.5702C291.735 95.0217 291.729 95.338 291.704 95.5112C291.687 95.6313 291.607 95.8399 291.426 96.1425C291.252 96.4339 291.009 96.7717 290.715 97.1411C290.125 97.8792 289.356 98.7093 288.586 99.4931C287.818 100.275 287.056 101.003 286.486 101.537C286.202 101.803 285.965 102.02 285.8 102.171C285.717 102.246 285.652 102.305 285.609 102.344L285.559 102.389L285.546 102.401L285.543 102.403L285.542 102.404L285.542 102.404L285.875 102.777ZM287.048 121.652C287.047 121.652 287.046 121.651 287.045 121.65C287.052 121.654 287.052 121.656 287.048 121.652Z" stroke="white"/>
<path d="M310.503 91.962L308.052 80.8384C308.085 80.8471 308.119 80.856 308.154 80.8651C308.723 81.0147 309.536 81.2275 310.513 81.4802C312.466 81.9857 315.073 82.6513 317.688 83.2916C320.301 83.9316 322.928 84.5477 324.919 84.9531C325.913 85.1554 326.759 85.3076 327.37 85.3832C327.672 85.4206 327.937 85.442 328.14 85.4368C328.238 85.4343 328.353 85.4252 328.46 85.394C328.532 85.3733 328.797 85.2875 328.882 84.9946C328.914 84.8838 328.911 84.7681 328.909 84.7071C328.905 84.6275 328.896 84.5356 328.884 84.4371C328.859 84.2389 328.816 83.982 328.76 83.6801C328.647 83.0744 328.474 82.2589 328.263 81.309C327.938 79.8442 327.521 78.0461 327.087 76.1813C326.959 75.6266 326.828 75.0661 326.699 74.5066C326.133 72.0629 325.58 69.6404 325.205 67.8078C325.017 66.89 324.876 66.1295 324.8 65.5916C324.768 65.3626 324.749 65.1851 324.742 65.0578C324.897 64.986 325.123 64.8909 325.4 64.7856C325.828 64.623 326.348 64.4485 326.856 64.314C327.372 64.1776 327.847 64.0906 328.197 64.0859C328.374 64.0835 328.483 64.1031 328.539 64.1239C328.54 64.1241 328.541 64.1243 328.541 64.1245C328.558 64.169 328.583 64.2319 328.614 64.3122C329.069 65.4864 330.965 70.3802 332.569 75.7876C333.447 78.7498 334.233 81.8516 334.647 84.5705C334.854 85.9299 334.966 87.1829 334.953 88.2685C334.939 89.3601 334.799 90.2492 334.526 90.9006C334.278 91.4936 333.764 91.9909 332.98 92.3946C332.195 92.7992 331.173 93.0913 329.976 93.2854C327.582 93.6735 324.591 93.6545 321.646 93.4495C318.706 93.245 315.84 92.8574 313.707 92.5204C312.641 92.352 311.759 92.1965 311.144 92.0831C310.878 92.034 310.662 91.9929 310.503 91.962Z" stroke="white"/>
<path d="M307.835 65.4662C307.453 65.5215 307.143 65.5661 306.916 65.5988L306.703 64.7911C306.926 64.7158 307.23 64.6135 307.604 64.4878C308.461 64.2002 309.684 63.7902 311.153 63.3006C314.09 62.3213 318.009 61.0234 321.935 59.7492C325.861 58.4747 329.791 57.2248 332.751 56.3409C334.233 55.8985 335.465 55.5499 336.331 55.3356C336.719 55.2395 337.023 55.1731 337.238 55.1367C337.383 55.7657 337.636 57.0093 337.877 58.2266C338.026 58.9798 338.168 59.7096 338.273 60.2513C338.307 60.4253 338.336 60.5799 338.361 60.7095C338.352 60.7118 338.342 60.7142 338.331 60.7166C338.068 60.7787 337.697 60.8551 337.231 60.9439C336.299 61.1213 335.005 61.3444 333.47 61.5969C330.401 62.1017 326.379 62.7216 322.379 63.324C318.379 63.9263 314.403 64.5109 311.427 64.9448C309.939 65.1618 308.701 65.3411 307.835 65.4662ZM338.696 60.6156C338.696 60.6156 338.695 60.6162 338.692 60.6175C338.695 60.6162 338.696 60.6156 338.696 60.6156Z" fill="white" stroke="white"/>
<path d="M336.506 54.1624L336.998 54.0721C336.998 54.0721 336.998 54.0721 336.998 54.0722L336.506 54.1624ZM336.911 54.3319C336.911 54.3319 336.911 54.3315 336.913 54.3306C336.912 54.3315 336.911 54.3319 336.911 54.3319ZM337.037 54.2827C337.089 54.2677 337.155 54.2525 337.237 54.2388C337.417 54.2084 337.614 54.1948 337.772 54.1901C337.829 54.3831 337.898 54.6632 337.976 55.0105C338.135 55.7218 338.32 56.6754 338.497 57.6405C338.674 58.6042 338.841 59.574 338.964 60.3154C339.026 60.6862 339.076 60.9989 339.111 61.2246C339.114 61.243 339.117 61.2607 339.119 61.2778C339.09 61.2844 339.059 61.2909 339.025 61.2973C338.872 61.3261 338.712 61.3443 338.579 61.3527C338.578 61.3507 338.578 61.3488 338.577 61.3468C338.51 61.1552 338.428 60.8703 338.336 60.5127C338.154 59.8016 337.945 58.8504 337.746 57.893C337.547 56.9373 337.36 55.9819 337.223 55.2651C337.154 54.9068 337.098 54.6083 337.058 54.3995L337.037 54.2827ZM338.652 61.5291C338.652 61.5291 338.651 61.5285 338.65 61.5271C338.651 61.5284 338.652 61.5291 338.652 61.5291ZM339.323 61.2155C339.323 61.2155 339.322 61.2157 339.321 61.2162L339.323 61.2155Z" stroke="white"/>
<path d="M301.845 77.7493L302.552 81.6378L298.128 82.1633C297.808 79.8431 297.406 77.6349 297.038 75.6092L297.038 75.608C296.643 73.4338 296.288 71.4805 296.104 69.8013C295.8 66.8867 296.225 64.1991 297.133 62.2147C298.046 60.2181 299.398 59.0206 300.915 58.862C302.431 58.7034 304.002 59.597 305.309 61.3625C306.608 63.1173 307.58 65.6584 307.884 68.5668L307.884 68.5677C307.975 69.4163 308.003 70.2705 307.968 71.1232C307.902 72.6453 307.292 74.0927 306.249 75.2014C305.205 76.3102 303.799 77.0062 302.285 77.1625L301.748 77.218L301.845 77.7493Z" stroke="white"/>
<path d="M306.194 62.5502L306.69 62.6141L306.194 62.5503L306.194 62.5506L306.194 62.5518L306.193 62.5568L306.191 62.5769L306.18 62.6561C306.171 62.7257 306.157 62.8282 306.14 62.9592C306.104 63.2213 306.052 63.5973 305.986 64.0525C305.855 64.9633 305.668 66.1894 305.448 67.4528C305.228 68.7181 304.975 70.0126 304.712 71.0634C304.581 71.5893 304.449 72.0451 304.32 72.4018C304.184 72.7771 304.072 72.9821 304.004 73.06C303.934 73.1397 303.779 73.2542 303.506 73.3881C303.244 73.5172 302.909 73.6461 302.521 73.7718C301.745 74.023 300.795 74.2482 299.854 74.4353C298.915 74.622 297.997 74.7685 297.291 74.8637C296.938 74.9113 296.641 74.9457 296.424 74.9659C296.358 74.972 296.301 74.9767 296.252 74.98C296.226 74.9432 296.194 74.8976 296.158 74.8426C296.019 74.6312 295.834 74.3176 295.618 73.9182C295.187 73.1213 294.65 72.0074 294.134 70.7376C293.095 68.1769 292.185 65.0701 292.363 62.6587C292.532 60.371 294.141 58.8136 295.975 57.7953C296.837 57.3172 297.721 56.9738 298.475 56.7406L298.716 57.447C298.716 57.4486 298.716 57.4486 298.716 57.4486L298.717 57.4486L298.717 57.4485L298.717 57.4484L298.719 57.4478L298.73 57.4447L298.776 57.4322C298.817 57.4211 298.879 57.4049 298.958 57.3846C299.118 57.344 299.35 57.2872 299.639 57.2233C300.217 57.0953 301.017 56.9397 301.909 56.8283C303.626 56.6135 305.57 56.579 306.93 57.1281C306.915 57.1267 306.901 57.1254 306.891 57.1244L306.869 57.1223L306.864 57.1218L306.863 57.1217L306.863 57.1216L306.863 57.1216L306.863 57.1216L305.146 56.9398L306.5 58.0109L306.5 58.0109L306.5 58.011L306.501 58.0119L306.507 58.0164L306.531 58.036C306.553 58.0537 306.585 58.0804 306.627 58.1154C306.711 58.1855 306.832 58.2887 306.978 58.419C307.27 58.6804 307.659 59.0481 308.049 59.4752C308.439 59.904 308.82 60.3823 309.105 60.8646C309.393 61.3531 309.558 61.8055 309.569 62.1913C309.575 62.3756 309.539 62.4737 309.509 62.5238C309.482 62.5701 309.441 62.6087 309.367 62.6409C309.191 62.7172 308.887 62.7301 308.484 62.662C308.101 62.5972 307.705 62.473 307.398 62.3609C307.246 62.3055 307.119 62.2544 307.031 62.2175C306.988 62.199 306.954 62.1842 306.931 62.1742L306.906 62.1631L306.901 62.1605L306.9 62.1602L306.9 62.1601L306.9 62.1601L306.9 62.1601L306.281 61.8743L306.194 62.5502Z" stroke="white"/>
<path d="M306.097 68.3237C306.097 68.3237 306.201 65.6102 304.382 65.6521C302.563 65.694 303.86 70.3202 305.689 70.3202L306.097 68.3237Z" fill="white"/>
<path d="M310.025 83.7709L310.028 83.7781L310.03 83.7852C310.52 85.0756 310.707 86.5331 310.901 88.0485C310.948 88.4158 310.996 88.7865 311.048 89.1591L311.048 89.1623C311.536 92.475 312.006 95.7833 312.459 99.0872C312.512 99.4764 312.565 99.8656 312.618 100.255C313.529 106.937 314.441 113.624 314.825 120.327L314.825 120.327C314.837 120.535 314.87 120.831 314.906 121.161C314.918 121.271 314.93 121.385 314.943 121.501C314.993 121.977 315.044 122.512 315.063 123.036C315.083 123.564 315.07 124.06 315.002 124.462C314.93 124.884 314.814 125.101 314.712 125.189L314.71 125.19C314.276 125.565 313.484 126.028 312.427 126.516C311.38 127 310.106 127.493 308.735 127.938C305.985 128.832 302.887 129.518 300.468 129.566C298.044 129.615 294.983 129.097 292.383 128.43C291.086 128.098 289.917 127.731 289.013 127.387C288.561 127.214 288.181 127.049 287.887 126.9C287.615 126.761 287.448 126.65 287.363 126.576C287.351 126.544 287.335 126.488 287.319 126.403C287.287 126.231 287.262 125.986 287.249 125.669C287.221 125.038 287.237 124.176 287.288 123.15C287.389 121.102 287.625 118.447 287.903 115.771C288.459 110.414 289.177 105.023 289.304 104.318L289.304 104.318L289.305 104.314C289.535 102.962 289.519 101.529 289.457 100.13C289.44 99.7496 289.419 99.3731 289.4 99.0008C289.345 97.9866 289.292 97.0043 289.312 96.0603C289.321 95.6625 289.326 95.2511 289.332 94.8292C289.362 92.6993 289.396 90.3029 289.804 88.0556C290.292 85.3654 291.299 83.0056 293.371 81.6213L293.371 81.6211C295.475 80.2134 298.144 79.6934 300.72 79.5619C302.925 79.4514 305.221 79.6663 307.164 80.5968L307.164 80.5968L307.169 80.5989C307.833 80.9089 308.428 81.3494 308.918 81.8943C309.409 82.4392 309.786 83.0774 310.025 83.7709ZM287.371 126.597C287.371 126.597 287.371 126.596 287.37 126.594C287.371 126.596 287.371 126.597 287.371 126.597Z" stroke="white"/>
<path d="M324.288 64.7179C324.288 64.7179 322.443 63.9329 322.595 63.7969C322.746 63.6608 324.803 63.4646 324.868 63.4541C324.934 63.4436 325.992 62.1929 326.086 61.4236C326.18 60.6543 326.491 58.3464 326.679 58.2365C326.868 58.1266 327.343 57.3285 328.025 57.2736C328.707 57.2186 330.074 58.0586 330.116 58.4746C330.158 58.8907 329.703 63.1244 328.66 63.632C327.929 63.6634 327.203 63.7598 326.489 63.9199C325.757 64.1397 324.288 64.7179 324.288 64.7179Z" fill="white"/>
<path d="M312.679 100.736C312.2 99.7559 311.652 98.684 311.106 97.6345C310.453 96.3804 309.8 95.1538 309.264 94.1491C309.196 94.0214 309.13 93.8974 309.066 93.7773C308.782 93.2439 308.541 92.7902 308.363 92.4486C308.347 92.4176 308.332 92.3875 308.317 92.3585C308.674 92.404 309.139 92.4976 309.63 92.6115C310.198 92.7436 310.777 92.8974 311.215 93.0186C311.378 93.0637 311.521 93.1041 311.636 93.1371C311.692 93.5424 311.795 94.2927 311.923 95.2251C312.093 96.4705 312.309 98.0408 312.516 99.5476C312.571 99.9508 312.626 100.349 312.679 100.736Z" stroke="white"/>
<path d="M312.995 93.4064C313.039 93.5155 313.096 93.6575 313.164 93.8291C313.338 94.267 313.586 94.8978 313.885 95.6683C314.483 97.2097 315.28 99.3094 316.079 101.544C316.879 103.78 317.679 106.145 318.282 108.219C318.891 110.313 319.283 112.052 319.299 113.064C319.334 115.23 319.202 116.344 319.054 116.888C319.05 116.904 319.046 116.919 319.042 116.934C318.965 116.853 318.877 116.761 318.781 116.657C318.443 116.292 318.007 115.807 317.571 115.306C317.134 114.805 316.701 114.292 316.366 113.87C316.198 113.659 316.059 113.476 315.957 113.33C315.855 113.186 315.818 113.116 315.811 113.104C315.81 113.102 315.81 113.101 315.81 113.102C315.81 113.102 315.81 113.101 315.809 113.098C315.806 113.086 315.794 113.038 315.774 112.935C315.751 112.823 315.723 112.672 315.691 112.485C315.625 112.111 315.542 111.604 315.446 111.007C315.319 110.212 315.17 109.259 315.012 108.248C314.932 107.741 314.851 107.219 314.768 106.695C314.522 105.127 314.269 103.542 314.054 102.279C313.946 101.648 313.847 101.094 313.762 100.663C313.688 100.287 313.619 99.9709 313.559 99.7818L312.675 93.3528L312.995 93.4064Z" stroke="white"/>
<path d="M314.216 199.264C314.187 199.483 314.153 199.745 314.123 200.011C314.086 200.34 314.053 200.683 314.042 200.957C314.036 201.092 314.034 201.225 314.043 201.337C314.047 201.392 314.055 201.46 314.073 201.528L314.073 201.529C314.084 201.57 314.128 201.735 314.283 201.852C314.322 201.88 314.363 201.903 314.377 201.91L314.379 201.911C314.402 201.923 314.429 201.937 314.457 201.951C314.514 201.979 314.59 202.016 314.68 202.058C314.794 202.113 314.937 202.18 315.1 202.256C315.192 202.3 315.291 202.346 315.395 202.395C315.974 202.668 316.729 203.026 317.483 203.406C318.24 203.787 318.986 204.183 319.551 204.532C319.577 204.549 319.604 204.565 319.629 204.581C319.474 204.592 319.306 204.603 319.127 204.615C318.112 204.684 316.759 204.765 315.401 204.82C314.04 204.874 312.686 204.901 311.667 204.861C311.155 204.84 310.747 204.804 310.472 204.751C310.411 204.74 310.362 204.728 310.323 204.718C310.302 204.49 310.288 204.112 310.281 203.622C310.273 202.991 310.279 202.227 310.289 201.488C310.3 200.749 310.317 200.037 310.33 199.51C310.334 199.374 310.337 199.25 310.34 199.141L314.216 199.264ZM310.204 204.674C310.204 204.674 310.209 204.676 310.215 204.681C310.207 204.677 310.204 204.674 310.204 204.674Z" stroke="white"/>
<path d="M291.115 199.264C291.086 199.483 291.053 199.746 291.023 200.012C290.986 200.341 290.954 200.684 290.942 200.958C290.936 201.092 290.935 201.226 290.943 201.338C290.948 201.392 290.956 201.46 290.974 201.528L290.974 201.529C290.985 201.57 291.029 201.735 291.184 201.852C291.222 201.88 291.264 201.903 291.278 201.91L291.28 201.911C291.303 201.923 291.329 201.937 291.358 201.951C291.415 201.979 291.491 202.016 291.58 202.058C291.695 202.113 291.837 202.18 292.001 202.257C292.093 202.3 292.191 202.346 292.295 202.395C292.874 202.668 293.629 203.026 294.383 203.406C295.139 203.787 295.885 204.183 296.45 204.532C296.477 204.549 296.503 204.565 296.529 204.581C296.374 204.592 296.206 204.604 296.028 204.615C295.014 204.684 293.66 204.765 292.303 204.82C290.942 204.874 289.589 204.901 288.57 204.861C288.058 204.84 287.65 204.804 287.375 204.751C287.314 204.74 287.265 204.728 287.226 204.718C287.205 204.49 287.191 204.112 287.185 203.622C287.176 202.991 287.182 202.227 287.193 201.488C287.204 200.749 287.22 200.037 287.234 199.51C287.237 199.374 287.241 199.25 287.244 199.141L291.115 199.264ZM287.107 204.674C287.108 204.674 287.112 204.676 287.119 204.681C287.11 204.677 287.107 204.674 287.107 204.674Z" stroke="white"/>
<path d="M285.366 24.5982L285.366 24.5981L285.359 24.6046C284.34 25.5956 282.973 26.146 281.553 26.1378C272.552 25.9009 263.667 25.9729 254.792 26.0448L254.788 26.0449C245.907 26.1168 237.036 26.1887 228.052 25.9521C224.754 25.8654 221.641 25.936 218.541 26.0062C218.119 26.0158 217.697 26.0254 217.275 26.0345C213.749 26.111 210.203 26.1596 206.354 25.9527C206.008 25.9339 205.43 25.927 204.718 25.9184C204.267 25.9129 203.762 25.9068 203.227 25.8967C201.83 25.8701 200.201 25.8158 198.686 25.6757C197.159 25.5344 195.799 25.3097 194.918 24.962C194.47 24.7857 194.217 24.6045 194.103 24.4499C194.053 24.381 194.034 24.323 194.029 24.2699C194.025 24.2148 194.034 24.1321 194.09 24.0127L194.164 23.8539L194.123 23.6835C193.988 23.1268 194.143 22.509 194.372 21.8091C195.498 18.5151 197.519 15.0967 200.105 12.764L200.105 12.7639C204.493 8.80497 211.562 11.8001 211.681 17.8034L212.669 17.9015C213.991 11.9273 218.733 7.16758 224.111 4.00559L223.858 3.57457L224.111 4.00558C226.584 2.55121 229.239 1.37608 232.013 1.07561C236.19 0.627174 240.506 2.26151 243.567 5.1868C246.627 8.11144 248.453 12.2447 248.864 16.4888L248.989 17.7865L249.764 16.7376C252.342 13.2454 255.661 10.3686 259.482 8.31411L259.482 8.31408C261.011 7.49167 262.594 6.83285 264.219 6.80366L264.22 6.80363C266.377 6.76001 268.487 7.83693 270.112 9.3855C271.478 10.7106 272.525 12.3297 273.173 14.1202C273.822 15.9114 274.054 17.8269 273.853 19.7215L273.718 20.9899L274.679 20.1509C276.297 18.7376 277.927 17.4019 279.844 16.718C281.759 16.0349 283.984 16.127 285.469 17.3314L285.47 17.3324C286.802 18.4057 287.271 19.7297 287.178 21.016C287.083 22.3224 286.403 23.6267 285.366 24.5982Z" stroke="white"/>
<path d="M162.91 77.1912L162.935 77.1937C163.024 77.2026 163.113 77.1939 163.198 77.1681C163.268 77.1468 163.334 77.1142 163.393 77.0717C163.395 77.0666 163.396 77.0586 163.396 77.0473C163.399 76.9985 163.388 76.9113 163.339 76.7788C163.241 76.5119 163.033 76.1763 162.755 75.8175C162.198 75.0991 161.474 74.4303 161.183 74.232L161.182 74.2319C160.718 73.9158 160.176 73.7333 159.616 73.7044C159.055 73.6754 158.497 73.8011 158.003 74.0676L157.372 74.4083L157.271 73.6978C156.983 71.6715 156.357 69.6797 154.85 68.626L154.85 68.6257C153.889 67.9516 152.64 67.7227 151.373 67.7403C148.874 67.7782 146.213 68.8184 145.079 70.8636L144.142 70.6151C144.168 68.392 142.839 66.24 140.958 64.9263C139.077 63.6129 136.718 63.0595 134.358 62.983L134.344 62.9825L134.331 62.9814C132.438 62.8185 130.555 63.3925 129.074 64.5841L129.065 64.591L129.056 64.5976C127.503 65.738 126.136 67.1135 125.005 68.6746L124.584 69.2556L124.184 68.6594C123.339 67.3964 122.046 66.4591 120.661 65.6193C119.651 65.0089 118.653 64.4989 117.608 64.448L162.91 77.1912ZM162.91 77.1912H162.885M162.91 77.1912H162.885M162.885 77.1912C157.93 77.1912 152.947 77.1432 147.959 77.0951C142.471 77.0422 136.977 76.9893 131.509 77.0002C126.396 77.0107 121.285 77.1067 116.175 77.2884L116.174 77.2884M162.885 77.1912L116.174 77.2884M116.174 77.2884C114.956 77.3326 113.713 77.426 112.469 77.5201L112.411 77.5245C111.183 77.6173 109.955 77.7103 108.731 77.7594C106.244 77.8594 103.807 77.7765 101.513 77.1562L101.513 77.1562M116.174 77.2884L101.513 77.1562M101.513 77.1562C101.485 77.1485 101.467 77.1413 101.458 77.1362C101.455 77.1165 101.453 77.0687 101.474 76.9796C101.54 76.7011 101.762 76.2968 102.095 75.8321C102.75 74.9188 103.664 74.0039 103.904 73.8088L103.904 73.8088M101.513 77.1562L103.904 73.8088M103.904 73.8088L103.909 73.8049M103.904 73.8088L103.909 73.8049M103.909 73.8049C104.539 73.2794 105.271 72.891 106.059 72.6642C106.847 72.4375 107.674 72.3773 108.487 72.4876L108.901 72.5438M103.909 73.8049L108.901 72.5438M108.901 72.5438L109.029 72.1464M108.901 72.5438L109.029 72.1464M109.029 72.1464C109.974 69.235 111.983 66.789 114.653 65.299M109.029 72.1464L114.653 65.299M114.653 65.299C115.611 64.7703 116.613 64.3997 117.608 64.448L114.653 65.299ZM101.446 77.1285C101.446 77.1284 101.448 77.1295 101.45 77.132C101.447 77.1299 101.446 77.1286 101.446 77.1285Z" stroke="white"/>
<path d="M437.792 114.612C441.49 111.374 445.752 108.845 450.365 107.153C451.572 106.712 452.864 106.354 454.105 106.276C455.342 106.198 456.496 106.401 457.464 107.05L457.465 107.05C458.57 107.788 459.217 108.942 459.597 110.32C459.979 111.704 460.077 113.266 460.117 114.759L460.133 115.349L460.713 115.236C461.57 115.07 462.367 114.75 463.121 114.411C463.366 114.301 463.604 114.19 463.838 114.081C464.341 113.846 464.828 113.619 465.337 113.422C466.813 112.851 468.425 112.665 469.575 113.422C470.137 113.831 470.594 114.367 470.91 114.986L470.914 114.995L470.919 115.003C471.541 116.114 471.708 116.939 471.623 117.545C471.541 118.13 471.213 118.592 470.651 118.97C469.957 119.42 468.944 119.716 467.725 119.891C466.513 120.066 465.144 120.114 463.777 120.099C462.411 120.083 461.059 120.005 459.881 119.93C459.716 119.92 459.554 119.909 459.396 119.899C458.433 119.836 457.598 119.783 457.024 119.783C447.745 119.783 438.444 119.915 429.147 120.046C420.832 120.164 412.521 120.282 404.233 120.306C403.179 120.306 402.467 120.155 402.007 119.925C401.569 119.706 401.358 119.415 401.274 119.069C401.184 118.696 401.229 118.202 401.433 117.58C401.636 116.964 401.981 116.267 402.433 115.514C403.24 114.172 405.033 113.021 406.806 112.739C407.683 112.599 408.514 112.679 409.196 113.014C409.867 113.344 410.438 113.941 410.778 114.927L411.287 116.402L411.73 114.906C413.42 109.209 418.894 105.027 424.815 104.04L424.816 104.04C428.765 103.379 433.228 104.312 435.306 107.496C436.555 109.41 436.777 111.823 436.964 114.274L437.04 115.27L437.792 114.612Z" stroke="white"/>
</svg>
