<svg width="364" height="383" viewBox="0 0 364 383" fill="none" xmlns="http://www.w3.org/2000/svg">
<g clip-path="url(#clip0_1096_17237)">
<path d="M31.4308 219.843C31.882 220.197 32.3644 220.551 32.8273 220.89C33.2101 221.171 33.5795 221.442 33.9069 221.695C34.3668 222.051 34.7535 222.378 35.0319 222.675C35.323 222.987 35.4325 223.201 35.451 223.328C35.4806 223.531 35.4598 223.838 35.3896 224.221C35.3214 224.593 35.2142 224.997 35.0992 225.375C35.0192 225.638 34.9366 225.884 34.8628 226.094L33.9512 225.334C34.0352 223.327 33.0009 222.107 32.4394 221.444C32.3057 221.286 32.1988 221.16 32.1402 221.062C32.1263 221.039 32.111 221.013 32.0944 220.986C31.9378 220.726 31.6728 220.285 31.4308 219.843Z" fill="#191919" stroke="#626262"/>
<path d="M17.3131 252.44C25.7202 246.508 29.4765 239.471 31.1144 233.832C31.962 230.914 32.2414 228.375 32.3085 226.562C32.3373 225.784 32.327 225.139 32.3057 224.654L36.4053 227.237C38.5444 236.511 38.1238 243.94 37.1691 249.052C36.6882 251.626 36.0716 253.614 35.5775 254.954C35.3305 255.624 35.114 256.132 34.9606 256.47C34.9351 256.526 34.9114 256.578 34.8895 256.624L17.3131 252.44Z" fill="#191919" stroke="#626262"/>
<path d="M353.364 366.515H316.94L321.808 116.612L353.364 103.193V366.515Z" fill="#191919" stroke="#626262"/>
<path d="M208.169 289.054H349.747V351.029H208.169V289.054Z" fill="#191919" stroke="#626262"/>
<path d="M178.207 279.761H359.047V290.634H178.207V279.761Z" fill="#191919" stroke="#626262"/>
<path d="M178.207 220.916H359.047V233.337H178.207V220.916Z" fill="#191919" stroke="#626262"/>
<path d="M178.207 162.586H359.047V173.975H178.207V162.586Z" fill="#191919" stroke="#626262"/>
<path d="M176.933 107.971L176.934 107.971L200.97 103.051V366.515H161.676V111.073L176.933 107.971Z" fill="#191919" stroke="#626262"/>
<path d="M201.97 103.74H210.785V366.513H201.97V103.74Z" fill="#191919" stroke="#626262"/>
<path d="M240.714 103.74H249.53V366.513H240.714V103.74Z" fill="#191919" stroke="#626262"/>
<path d="M239.714 366.515H231.416V105.29L239.714 103.087V366.515Z" fill="#191919" stroke="#626262"/>
<path d="M279.458 103.74H287.24V366.513H279.458V103.74Z" fill="#191919" stroke="#626262"/>
<path d="M278.458 366.515H269.644V106.088L278.458 103.132V366.515Z" fill="#191919" stroke="#626262"/>
<path d="M317.169 105.289H324.951V361.868H317.169V105.289Z" fill="#191919" stroke="#626262"/>
<path d="M316.169 361.869H306.837V107.823L316.169 105.113V361.869Z" fill="#191919" stroke="#626262"/>
<path d="M201.97 350.48H363.178V366.515H201.97V350.48Z" fill="#191919" stroke="#626262"/>
<path d="M179.424 284.953C190.344 327.301 187.523 353.137 182.259 366.522H161.676V111.072L176.44 108.045C181.75 116.131 185.927 130.029 183.982 153.898C182.829 168.044 180.647 178.147 178.352 186.631C177.524 189.693 176.677 192.555 175.858 195.327C174.412 200.215 173.051 204.819 172.023 209.728C168.786 225.192 168.819 243.82 179.424 284.953Z" fill="#191919" stroke="#626262"/>
<path d="M354.364 103.74H363.18V366.513H354.364V103.74Z" fill="#191919" stroke="#626262"/>
<path d="M191.671 366.515H155.562L160.274 116.612L191.671 103.194V366.515Z" fill="#191919" stroke="#626262"/>
<path d="M46.4766 289.054H187.539V351.029H46.4766V289.054Z" fill="#191919" stroke="#626262"/>
<path d="M17.0312 279.761H197.354V290.634H17.0312V279.761Z" fill="#191919" stroke="#626262"/>
<path d="M17.0312 220.916H197.354V233.337H17.0312V220.916Z" fill="#191919" stroke="#626262"/>
<path d="M17.0312 162.586H197.354V173.975H17.0312V162.586Z" fill="#191919" stroke="#626262"/>
<path d="M15.7573 107.971L15.758 107.971L39.794 103.051V366.515H0.5V111.073L15.7573 107.971Z" fill="#191919" stroke="#626262"/>
<path d="M40.7939 103.74H48.5758V366.513H40.7939V103.74Z" fill="#191919" stroke="#626262"/>
<path d="M79.5381 103.74H88.8701V366.513H79.5381V103.74Z" fill="#191919" stroke="#626262"/>
<path d="M78.5383 366.515H70.2402V105.29L78.5383 103.087V366.515Z" fill="#191919" stroke="#626262"/>
<path d="M117.766 103.74H125.547V366.513H117.766V103.74Z" fill="#191919" stroke="#626262"/>
<path d="M116.765 366.515H107.951V106.088L116.765 103.132V366.515Z" fill="#191919" stroke="#626262"/>
<path d="M155.993 105.289H164.291V361.868H155.993V105.289Z" fill="#191919" stroke="#626262"/>
<path d="M154.993 361.869H145.661V107.823L154.993 105.113V361.869Z" fill="#191919" stroke="#626262"/>
<path d="M40.7939 350.48H202.002V366.515H40.7939V350.48Z" fill="#191919" stroke="#626262"/>
<path d="M18.0725 284.953C28.9928 327.3 26.1466 353.136 20.8818 366.522H0.5V111.071L15.1631 108.045C20.4732 116.13 24.6018 130.028 22.6544 153.898C21.5015 168.044 19.3179 178.147 17.0212 186.631C16.1913 189.696 15.3427 192.562 14.521 195.337C13.075 200.221 11.7126 204.822 10.684 209.727C7.44093 225.192 7.46717 243.82 18.0725 284.953Z" fill="#191919" stroke="#626262"/>
<path d="M192.672 103.74H202.004V366.513H192.672V103.74Z" fill="#191919" stroke="#626262"/>
<path d="M260.103 85.8394C259.329 85.8394 258.812 85.2131 258.812 84.4402V4.13806C258.812 3.36508 259.329 2.73883 260.103 2.73883C260.876 2.73883 261.394 3.36508 261.394 4.13806V84.4402C261.394 85.2101 260.876 85.8394 260.103 85.8394Z" fill="white"/>
<path d="M241.705 112.792L239.831 114.872L273.431 145.092L275.305 143.012L241.705 112.792Z" fill="white"/>
<path d="M273.435 112.801L239.829 143.015L241.702 145.095L275.308 114.881L273.435 112.801Z" fill="white"/>
<path d="M241.705 143.85L239.831 145.93L273.431 176.15L275.305 174.07L241.705 143.85Z" fill="white"/>
<path d="M273.434 143.86L239.828 174.074L241.701 176.154L275.307 145.94L273.434 143.86Z" fill="white"/>
<path d="M242.544 174.629L240.67 176.709L274.27 206.929L276.144 204.849L242.544 174.629Z" fill="white"/>
<path d="M274.272 174.64L240.667 204.854L242.54 206.934L276.146 176.72L274.272 174.64Z" fill="white"/>
<path d="M242.544 206.809L240.67 208.889L274.27 239.109L276.144 237.029L242.544 206.809Z" fill="white"/>
<path d="M274.271 206.818L240.665 237.032L242.538 239.112L276.144 208.898L274.271 206.818Z" fill="white"/>
<path d="M242.543 239.266L240.669 241.346L274.269 271.566L276.143 269.486L242.543 239.266Z" fill="white"/>
<path d="M274.27 239.276L240.664 269.49L242.537 271.57L276.143 241.356L274.27 239.276Z" fill="white"/>
<path d="M242.541 270.326L240.667 272.406L274.267 302.626L276.141 300.546L242.541 270.326Z" fill="white"/>
<path d="M274.269 270.337L240.663 300.551L242.536 302.631L276.142 272.417L274.269 270.337Z" fill="white"/>
<path d="M276.375 142.471H240.729V145.568H276.375V142.471Z" fill="white"/>
<path d="M276.375 173.959H240.729V177.055H276.375V173.959Z" fill="white"/>
<path d="M276.375 205.963H240.729V209.577H276.375V205.963Z" fill="white"/>
<path d="M276.375 206.994H240.729V208.543H276.375V206.994Z" fill="white"/>
<path d="M276.375 237.967H240.729V240.547H276.375V237.967Z" fill="white"/>
<path d="M276.375 268.939H240.729V272.035H276.375V268.939Z" fill="white"/>
<path d="M242.54 301.78L240.666 303.86L274.266 334.08L276.14 332L242.54 301.78Z" fill="white"/>
<path d="M274.266 301.793L240.66 332.007L242.533 334.087L276.139 303.873L274.266 301.793Z" fill="white"/>
<path d="M276.375 299.909H240.729V302.49H276.375V299.909Z" fill="white"/>
<path d="M276.375 331.913H240.729V335.009H276.375V331.913Z" fill="white"/>
<path d="M242.54 333.44L240.666 335.52L274.266 365.74L276.14 363.66L242.54 333.44Z" fill="white"/>
<path d="M274.265 333.451L240.659 363.665L242.532 365.745L276.138 335.531L274.265 333.451Z" fill="white"/>
<path d="M276.375 363.401H240.729V366.497H276.375V363.401Z" fill="white"/>
<path d="M241.705 112.792L239.831 114.872L273.431 145.092L275.305 143.012L241.705 112.792Z" fill="white"/>
<path d="M242.28 110.467H239.182V365.982H242.28V110.467Z" fill="white"/>
<path d="M277.925 110.467H274.309V365.982H277.925V110.467Z" fill="white"/>
<path d="M281.542 63.494V114.449C281.542 116.113 280.331 117.171 278.666 117.171H238.201C236.535 117.171 235.566 116.102 235.566 114.449V63.494H281.542Z" fill="white"/>
<path d="M270.948 74.8497H245.641C243.785 74.8497 242.28 76.3532 242.28 78.2079V90.0748C242.28 91.9295 243.785 93.433 245.641 93.433H270.948C272.804 93.433 274.309 91.9295 274.309 90.0748V78.2079C274.309 76.3532 272.804 74.8497 270.948 74.8497Z" fill="#191919"/>
<g style="mix-blend-mode:multiply" opacity="0.2">
<path d="M281.542 112.467V114.449C281.542 116.113 280.331 117.172 278.666 117.172H238.201C236.535 117.172 235.566 116.102 235.566 114.449V64.2399L241.502 65.1066C241.502 65.1066 238.352 76.2914 242.562 81.6614C243.364 82.7025 244.448 83.4924 245.685 83.938C252.005 86.2463 261.714 87.3007 266.909 93.2168C268.782 95.3511 270.185 98.1239 270.507 101.813C271.349 111.38 276.891 110.824 281.542 112.467Z" fill="white"/>
</g>
<path d="M291.044 362.885H226.224C225.269 362.885 224.71 363.625 224.71 364.579V372.692H292.9V364.579C292.906 363.625 291.999 362.885 291.044 362.885Z" fill="white"/>
<path d="M297.053 372.692H220.215C219.99 372.691 219.768 372.734 219.56 372.82C219.353 372.906 219.165 373.033 219.007 373.192C218.849 373.351 218.724 373.541 218.64 373.749C218.556 373.957 218.515 374.18 218.518 374.404V382.5H298.59V374.404C298.59 373.45 298.008 372.692 297.053 372.692Z" fill="white"/>
<path d="M90.8906 140.821C90.9844 140.821 91.0753 140.922 91.1646 140.922H91.3977C92.8071 140.922 94.2407 140.054 95.4351 138.662C97.1004 136.721 97.9088 133.985 97.5424 131.603C97.4877 131.233 97.2892 130.9 96.9901 130.676C96.6911 130.452 96.3156 130.355 95.9453 130.406C95.7642 130.433 95.5902 130.495 95.4332 130.589C95.2762 130.683 95.1393 130.807 95.0304 130.954C94.9216 131.101 94.8428 131.268 94.7987 131.445C94.7547 131.623 94.7461 131.807 94.7736 131.988C95.0158 133.563 94.4421 135.38 93.3097 136.697C92.6845 137.426 91.9472 137.826 91.3977 137.826H91.157C89.6659 137.826 87.6252 137.88 86.5352 136.794C85.9297 136.189 85.6103 135.219 85.6103 133.885C85.6103 129.33 91.7005 126.927 91.7625 126.901C92.0218 126.802 92.2455 126.627 92.4049 126.4C92.5643 126.173 92.6521 125.903 92.6572 125.626L92.798 117.539C92.8023 117.357 92.7698 117.175 92.7024 117.005C92.6349 116.835 92.534 116.681 92.4056 116.551C92.2772 116.421 92.124 116.318 91.955 116.249C91.786 116.179 91.6047 116.144 91.4219 116.146H91.3977C91.0331 116.14 90.681 116.278 90.4185 116.531C90.156 116.784 90.0046 117.131 89.9974 117.495L89.8733 124.706C87.8023 125.714 82.8066 128.672 82.8066 133.918C82.8066 136.023 83.394 137.723 84.5536 138.878C86.3793 140.691 89.0285 140.821 90.8906 140.821Z" fill="white"/>
<path d="M96.6012 68.2121V91.3682H94.0186V68.2121C94.0186 67.4376 94.5363 66.8129 95.3099 66.8129C96.0834 66.8129 96.6012 67.4376 96.6012 68.2121Z" fill="white"/>
<path d="M237.692 67.7931C237.528 67.7931 237.366 67.764 237.212 67.7069C236.863 67.5794 236.58 67.3188 236.423 66.9824C236.267 66.646 236.251 66.2613 236.378 65.9128L259.952 1.41823C260.053 1.14084 260.24 0.902655 260.485 0.73779C260.73 0.572925 261.021 0.489832 261.317 0.50041C261.612 0.510987 261.897 0.614693 262.13 0.796676C262.362 0.978659 262.532 1.22959 262.613 1.51352L281.092 66.0081C281.148 66.1863 281.168 66.3738 281.15 66.5596C281.132 66.7455 281.078 66.9259 280.989 67.0903C280.9 67.2546 280.78 67.3996 280.634 67.5167C280.489 67.6337 280.321 67.7205 280.142 67.7719C279.962 67.8233 279.774 67.8382 279.588 67.8158C279.403 67.7935 279.224 67.7342 279.062 67.6416C278.899 67.549 278.757 67.4249 278.644 67.2766C278.53 67.1283 278.448 66.9588 278.401 66.7781L261.105 6.42217L239.003 66.8779C238.904 67.1459 238.725 67.3773 238.491 67.5409C238.257 67.7045 237.978 67.7925 237.692 67.7931Z" fill="white"/>
<path d="M260.391 42.6099C260.074 42.6111 259.765 42.5045 259.516 42.3074L248.314 33.3523C248.031 33.1181 247.852 32.7823 247.815 32.4173C247.778 32.0523 247.885 31.6873 248.115 31.4009C248.344 31.1145 248.677 30.9295 249.042 30.886C249.406 30.8424 249.773 30.9437 250.064 31.168L260.358 39.397L269.217 31.7776C269.5 31.5531 269.859 31.4466 270.219 31.4806C270.579 31.5146 270.912 31.6864 271.148 31.96C271.384 32.2336 271.505 32.5878 271.486 32.9486C271.467 33.3093 271.308 33.6486 271.044 33.8954L261.304 42.2711C261.051 42.4898 260.727 42.61 260.391 42.6099Z" fill="white"/>
<path d="M260.392 59.3977C260.212 59.3981 260.034 59.3637 259.868 59.2963L242.762 52.394C242.586 52.3287 242.426 52.2289 242.29 52.1007C242.154 51.9725 242.045 51.8183 241.97 51.6473C241.894 51.4763 241.854 51.2919 241.851 51.1051C241.848 50.9182 241.882 50.7327 241.952 50.5594C242.022 50.3861 242.126 50.2285 242.258 50.0961C242.39 49.9636 242.547 49.8588 242.72 49.788C242.893 49.7172 243.079 49.6818 243.266 49.6838C243.453 49.6858 243.638 49.7252 243.809 49.7997L260.461 56.516L275.559 51.857C275.911 51.7578 276.287 51.8 276.608 51.9744C276.929 52.1488 277.169 52.4417 277.277 52.7905C277.385 53.1394 277.352 53.5165 277.186 53.8415C277.019 54.1664 276.732 54.4135 276.386 54.5299L260.805 59.3432C260.671 59.3823 260.532 59.4006 260.392 59.3977Z" fill="white"/>
<path d="M343.898 63.1703C343.675 63.4688 343.343 63.6667 342.974 63.7209C342.605 63.775 342.23 63.681 341.93 63.4592L261.173 3.47242L88.8531 67.368V91.3682H86.2705V66.3954C86.2705 65.8099 86.4703 65.285 87.0168 65.0808L260.938 0.589258C261.15 0.507619 261.379 0.482126 261.603 0.515262C261.828 0.548397 262.04 0.639032 262.219 0.778343L343.623 61.2114C343.918 61.4352 344.113 61.7669 344.165 62.134C344.217 62.5011 344.121 62.8737 343.898 63.1703Z" fill="white"/>
<path d="M349.262 66.7554H82.0317C80.3697 66.7554 79.0225 67.3225 79.0225 68.0221V68.9678C79.0225 69.6674 80.3697 70.2345 82.0317 70.2345H349.262C350.924 70.2345 352.272 69.6674 352.272 68.9678V68.0221C352.272 67.3225 350.924 66.7554 349.262 66.7554Z" fill="white"/>
<path d="M349.214 70.2043H318.735V108.403H349.214V70.2043Z" fill="white"/>
<path d="M325.45 72.269H321.317V103.241H325.45V72.269Z" fill="#191919"/>
<path d="M332.683 72.269H327.518V103.241H332.683V72.269Z" fill="#191919"/>
<path d="M339.916 72.269H335.267V103.241H339.916V72.269Z" fill="#191919"/>
<path d="M347.147 72.269H342.498V103.241H347.147V72.269Z" fill="#191919"/>
<path d="M93.7014 119.201L93.7007 119.203C93.6951 119.214 93.6912 119.218 93.69 119.22L93.6893 119.221L93.6892 119.221L93.6891 119.221L93.6891 119.221L93.6878 119.222C93.6868 119.222 93.6851 119.223 93.6825 119.224C93.6771 119.227 93.6676 119.23 93.6525 119.234C93.6203 119.242 93.5734 119.249 93.5024 119.252C93.4382 119.255 93.3708 119.255 93.2869 119.255C93.2759 119.255 93.2645 119.255 93.2529 119.255H89.5606C89.5334 119.255 89.5088 119.255 89.4862 119.255C89.4225 119.256 89.3746 119.256 89.3279 119.254C89.2796 119.252 89.2535 119.248 89.24 119.245C89.2354 119.239 89.2285 119.229 89.2198 119.213C89.2197 119.213 89.2197 119.213 89.2196 119.213L84.3928 110.344C84.3928 110.344 84.3928 110.344 84.3928 110.344C84.1815 109.954 84.1834 109.526 84.1862 108.927C84.1865 108.857 84.1869 108.784 84.1869 108.708V91.4726C84.1869 91.0965 84.2461 90.7781 84.356 90.5721C84.4482 90.3994 84.5608 90.3192 84.7617 90.3192H97.7354C97.9691 90.3192 98.2001 90.4369 98.3861 90.6599C98.574 90.885 98.6865 91.1862 98.6871 91.473C98.6871 91.4732 98.6871 91.4734 98.6871 91.4735L98.6871 108.884H98.6871L98.6872 108.889C98.6932 109.398 98.5696 109.899 98.3279 110.346L98.3279 110.346L98.3246 110.352L93.7014 119.201Z" fill="#191919" stroke="white"/>
<g style="mix-blend-mode:multiply" opacity="0.9">
<path d="M89.6312 93.4172H93.758C95.3383 93.4172 96.6187 94.6972 96.6187 96.2754V102.98C96.6187 104.558 95.3383 105.838 93.758 105.838H89.6312C88.0509 105.838 86.7705 104.558 86.7705 102.98V96.2754C86.7705 94.6972 88.0509 93.4172 89.6312 93.4172Z" fill="#191919"/>
<path d="M89.6312 93.4172H93.758C95.3383 93.4172 96.6187 94.6972 96.6187 96.2754V102.98C96.6187 104.558 95.3383 105.838 93.758 105.838H89.6312C88.0509 105.838 86.7705 104.558 86.7705 102.98V96.2754C86.7705 94.6972 88.0509 93.4172 89.6312 93.4172Z" stroke="white"/>
</g>
<path d="M90.0741 137.245L90.0752 137.244C90.1436 137.182 90.2329 137.147 90.3256 137.147C90.4178 137.147 90.5067 137.182 90.575 137.243C90.5753 137.244 90.5757 137.244 90.576 137.244L140.432 183.107L140.432 183.107C140.505 183.173 140.548 183.266 140.552 183.364C140.556 183.462 140.521 183.557 140.454 183.63C140.388 183.702 140.295 183.745 140.197 183.749C140.098 183.753 140.002 183.718 139.93 183.652L90.6557 138.329L90.3204 138.02L89.9822 138.326L32.8512 189.908L32.8476 189.911C32.7808 189.973 32.6932 190.007 32.6022 190.008C32.5277 190.007 32.4551 189.985 32.3938 189.942C32.3323 189.9 32.285 189.84 32.2582 189.771C32.2314 189.701 32.2262 189.626 32.2433 189.553C32.2603 189.481 32.2987 189.415 32.3535 189.365C32.3537 189.365 32.3539 189.365 32.3542 189.365L90.0741 137.245Z" fill="#191919" stroke="white"/>
<path d="M149.578 230.427C149.578 265.672 122.007 293.376 86.7751 292.294C50.0795 291.168 19.1973 259.489 19.1973 221.577C19.1973 183.693 50.0355 156.211 86.7079 160.025C121.971 163.701 149.578 195.165 149.578 230.427Z" fill="#191919" stroke="white"/>
<path d="M159.177 227.37C159.177 262.616 131.606 290.318 96.3747 289.238C59.6791 288.112 28.7969 256.433 28.7969 218.52C28.7969 180.634 59.6352 153.154 96.3076 156.97L96.3594 156.472L96.3076 156.97C131.57 160.638 159.177 192.104 159.177 227.37Z" fill="#191919" stroke="white"/>
<path d="M156.389 227.183C156.389 260.864 130.019 287.291 96.3756 286.202C61.3964 285.071 32.0078 254.849 32.0078 218.736C32.0078 182.651 61.3527 156.427 96.3085 160.004C129.983 163.452 156.389 193.479 156.389 227.183Z" fill="#191919" stroke="white"/>
<path d="M96.3759 284.03L96.3591 284.53L96.3759 284.03C62.6213 282.897 34.2949 253.708 34.2949 218.879C34.2949 184.079 62.5776 158.749 96.3086 162.163C128.847 165.466 154.392 194.465 154.392 227.048C154.392 259.601 128.881 285.124 96.3759 284.03Z" fill="#191919" stroke="white"/>
<path d="M114.642 206.545V211.182C114.642 211.606 114.506 211.955 114.235 212.227C113.963 212.5 113.616 212.636 113.194 212.636H105.591C104.897 217 102.95 220.545 99.7522 223.273C96.5539 226 92.3901 227.667 87.2608 228.273C92.2996 233.667 99.2241 241.788 108.034 252.636C108.457 253.121 108.517 253.636 108.216 254.182C107.974 254.727 107.537 255 106.903 255H98.0776C97.5948 255 97.2177 254.818 96.9461 254.455C87.7134 243.333 80.2004 234.682 74.4073 228.5C74.1358 228.227 74 227.894 74 227.5V221.727C74 221.333 74.1433 220.992 74.43 220.705C74.7166 220.417 75.056 220.273 75.4483 220.273H80.5172C84.5 220.273 87.7058 219.621 90.1347 218.318C92.5636 217.015 94.1099 215.121 94.7737 212.636H75.4483C75.0259 212.636 74.6789 212.5 74.4073 212.227C74.1358 211.955 74 211.606 74 211.182V206.545C74 206.121 74.1358 205.773 74.4073 205.5C74.6789 205.227 75.0259 205.091 75.4483 205.091H94.1401C92.4203 201.667 88.3772 199.955 82.0108 199.955H75.4483C75.056 199.955 74.7166 199.811 74.43 199.523C74.1433 199.235 74 198.894 74 198.5V192.455C74 192.03 74.1358 191.682 74.4073 191.409C74.6789 191.136 75.0259 191 75.4483 191H113.103C113.526 191 113.873 191.136 114.144 191.409C114.416 191.682 114.552 192.03 114.552 192.455V197.091C114.552 197.515 114.416 197.864 114.144 198.136C113.873 198.409 113.526 198.545 113.103 198.545H102.558C103.976 200.394 104.942 202.576 105.455 205.091H113.194C113.616 205.091 113.963 205.227 114.235 205.5C114.506 205.773 114.642 206.121 114.642 206.545Z" fill="white"/>
<path d="M51.9219 22.9215L52.197 22.898L52.3236 22.6528L52.3237 22.6527L52.3238 22.6525L52.3248 22.6506L52.3297 22.6413L52.3506 22.6018C52.3695 22.5664 52.3984 22.513 52.4371 22.443C52.5144 22.3032 52.6311 22.0973 52.7863 21.8369C53.0968 21.3161 53.5612 20.5781 54.1736 19.7154C55.3997 17.9882 57.2122 15.7709 59.5626 13.7956C64.2529 9.85379 71.0463 6.89607 79.6516 10.6678C88.503 14.5475 92.5784 15.4961 96.0045 15.6436C97.1674 15.6937 98.2629 15.6506 99.4246 15.6049C99.9489 15.5843 100.487 15.5631 101.05 15.5498C102.878 15.5065 105.051 15.5404 108.09 15.9217C114.157 16.6832 120.95 19.1717 124.98 21.6654C125.985 22.2872 126.803 22.8999 127.39 23.4747C127.989 24.0598 128.299 24.5582 128.381 24.945C128.42 25.1277 128.407 25.2801 128.355 25.4146C128.302 25.5514 128.195 25.7022 127.997 25.8584C127.588 26.1812 126.843 26.4833 125.636 26.6925C123.204 27.1145 116.553 27.5573 107.895 27.9827C99.2555 28.4072 88.6603 28.8126 78.3719 29.1646C68.0838 29.5165 58.1043 29.8149 50.6967 30.0253C46.9929 30.1305 43.9322 30.2137 41.7974 30.2706C40.7301 30.2991 39.8942 30.321 39.3252 30.3357L39.123 30.3409C39.1687 30.2061 39.2262 30.0517 39.298 29.8813C39.5778 29.2177 40.0749 28.3121 40.9405 27.3711C42.6631 25.4986 45.8931 23.4351 51.9219 22.9215Z" stroke="white"/>
</g>
<defs>
<clipPath id="clip0_1096_17237">
<rect width="363.679" height="382" fill="white" transform="translate(0 0.5)"/>
</clipPath>
</defs>
</svg>
