<svg width="2415" height="293" viewBox="0 0 2415 293" fill="none" xmlns="http://www.w3.org/2000/svg">
<path fill-rule="evenodd" clip-rule="evenodd" d="M0 292.289H91.7732V183.133H265.409V131.531H91.7732V66.0417H280.711V1.53626H85.4753C50.6856 1.53626 1.35027 51.7269 1.35027 94.3212L0 292.289ZM398.613 4.71486C368.408 4.71486 317.687 58.0897 317.687 88.0696V208.067C317.687 240.086 368.519 292.289 393.101 292.289H574.642C594.785 292.289 648.166 245.099 648.166 208.067V93.4543C648.166 57.5562 601.955 4.7093 570.389 4.7093L398.613 4.71486ZM408.533 68.2701H560.469C560.469 68.2701 561.653 225.066 560.469 229.945C559.285 234.824 408.533 229.945 408.533 229.945V68.2701ZM673.877 0.547119H778.241L835.824 76.9556L899.705 0.547119H1008.57L891.603 147.413L1004.97 292.283H901.504L835.824 211.913L775.545 292.289H667.579L783.642 147.413L673.877 0.547119ZM1306.37 70.0094H1115.63V230.762H1306.36V292.294H1115.63C1096.25 292.294 1028.35 243.987 1028.35 206.956V86.8804C1028.35 61.3016 1082.94 3.52566 1115.63 3.52566H1307.26L1306.37 70.0094ZM1717.53 292.289H1810.2V69.0091H1958.65V292.289H2048.25V98.7835C2048.89 60.3069 2004.17 1.33065 1961.8 2.03639H1719.33L1717.53 292.289Z" fill="#0165B0"/>
<path fill-rule="evenodd" clip-rule="evenodd" d="M1428.5 4.71489C1398.29 4.71489 1347.57 58.0897 1347.57 88.0696V208.067C1347.57 240.086 1398.41 292.289 1423 292.289H1604.53C1624.68 292.289 1678.06 245.099 1678.06 208.067V93.4543C1678.06 57.5562 1631.85 4.70934 1600.28 4.70934L1428.5 4.71489ZM1438.42 68.2701H1590.36C1590.36 68.2701 1591.54 225.066 1590.36 229.945C1589.18 234.824 1438.42 229.945 1438.42 229.945V68.2701ZM2084.16 292.289H2176.83V69.0092H2325.28V292.289H2414.87V98.7835C2415.51 60.307 2370.79 1.33069 2328.42 2.03643H2085.96L2084.16 292.289Z" fill="#0165B0"/>
</svg>
