<svg width="160" height="22" viewBox="0 0 160 22" fill="none" xmlns="http://www.w3.org/2000/svg">
<g clip-path="url(#clip0_434_3)">
<path fill-rule="evenodd" clip-rule="evenodd" d="M0 20.97H6.06381L6.06381 13.3687L17.5366 13.3687V9.77521L6.06381 9.77521V5.21469L18.5476 5.21469V0.72269L5.64768 0.72269C3.34899 0.72269 0.0892175 4.21785 0.0892175 7.18401L0 20.97ZM26.3379 0.94404C24.3421 0.94404 20.9908 4.66094 20.9908 6.74866V15.105C20.9908 17.3347 24.3495 20.97 25.9737 20.97H37.9688C39.2997 20.97 42.8268 17.6838 42.8268 15.105V7.12364C42.8268 4.62378 39.7735 0.943653 37.6878 0.943653L26.3379 0.94404ZM26.9933 5.36987L37.0323 5.36987C37.0323 5.36987 37.1106 16.2888 37.0323 16.6285C36.9541 16.9683 26.9933 16.6285 26.9933 16.6285L26.9933 5.36987ZM44.5256 0.653809L51.4214 0.653809L55.2261 5.97471L59.447 0.653809L66.6401 0.653809L58.9116 10.8812L66.4022 20.9696H59.5658L55.2261 15.3728L51.2432 20.97H44.1095L51.7782 10.8812L44.5256 0.653809ZM86.3169 5.491L73.7139 5.491V16.6854H86.3162V20.9704H73.7139C72.4334 20.9704 67.947 17.6064 67.947 15.0276V6.66585C67.947 4.88461 71.554 0.861227 73.7139 0.861227L86.3757 0.861227L86.3169 5.491ZM113.484 20.97H119.607V5.42134L129.415 5.42134V20.97L135.336 20.97V7.49475C135.378 4.81534 132.423 0.708372 129.624 0.757518L113.603 0.757518L113.484 20.97Z" fill="#0165B0"/>
<path fill-rule="evenodd" clip-rule="evenodd" d="M94.3884 0.943795C92.3923 0.943795 89.041 4.66069 89.041 6.74842V15.1047C89.041 17.3345 92.4002 20.9698 94.025 20.9698L106.019 20.9698C107.351 20.9698 110.878 17.6836 110.878 15.1047V7.1234C110.878 4.62354 107.824 0.943408 105.739 0.943408L94.3884 0.943795ZM95.0438 5.36963L105.083 5.36963C105.083 5.36963 105.161 16.2885 105.083 16.6283C105.005 16.968 95.0438 16.6283 95.0438 16.6283V5.36963ZM137.71 20.9698H143.833V5.4211L153.642 5.4211V20.9698H159.562V7.49451C159.604 4.8151 156.649 0.708127 153.85 0.757273L137.829 0.757273L137.71 20.9698Z" fill="#0165B0"/>
</g>
<defs>
<clipPath id="clip0_434_3">
<rect width="159.568" height="20.4038" fill="white" transform="translate(0 0.615723)"/>
</clipPath>
</defs>
</svg>
