<svg width="1294" height="300" viewBox="0 0 1294 300" fill="none" xmlns="http://www.w3.org/2000/svg">
<g clip-path="url(#clip0_8621_6286)">
<path d="M750.438 269.777C750.438 272.235 751.214 273.658 752.637 273.658C753.801 273.528 754.836 273.011 755.741 272.364L1158.9 10.7067C1165.71 5.94524 1173.87 3.49693 1182.18 3.72225H1270.78C1284.36 3.72225 1293.54 12.7761 1293.54 26.357V195.535C1293.54 215.971 1289.02 227.871 1270.91 238.735L1163.43 303.406C1162.35 304.15 1161.1 304.596 1159.8 304.7C1158.51 304.7 1157.22 303.665 1157.22 299.914V102.539C1157.22 100.211 1156.57 98.6588 1155.02 98.6588C1153.88 98.7894 1152.81 99.2377 1151.91 99.9522L857.274 291.377C850.549 295.904 842.659 298.362 834.64 298.232H639.334C625.624 298.232 616.57 289.179 616.57 275.468V31.66C616.57 29.8492 615.794 28.1678 614.242 28.1678C613.11 28.3115 612.037 28.7584 611.138 29.4612L416.738 146.127C414.798 147.42 414.28 148.326 414.28 149.231C414.28 150.007 414.668 150.783 415.962 152.206L554.874 290.989C556.685 292.8 557.978 294.223 557.978 295.775C557.978 297.068 555.909 298.103 553.452 298.103H427.99C418.161 298.103 410.529 296.68 405.226 291.377L321.025 207.305C320.706 206.924 320.312 206.612 319.866 206.389C319.421 206.167 318.935 206.038 318.438 206.012C317.525 206.054 316.637 206.321 315.852 206.788L175.128 291.377C166.592 296.551 160.771 297.974 152.364 297.974H22.8934C9.05389 298.103 0 288.92 0 275.339V109.394C0 88.8288 4.52695 77.0588 22.7641 66.1941L130.893 1.26476C131.742 0.709224 132.726 0.396142 133.739 0.359375C135.42 0.359375 136.326 2.04081 136.326 5.79171V228C136.326 230.328 136.843 231.363 138.525 231.363C139.689 231.234 140.723 230.716 141.758 230.07L507.018 10.3187C514.002 5.53303 522.539 3.20488 531.076 3.59291H727.674C741.255 3.59291 750.438 12.6468 750.438 26.2276L750.309 269.777H750.438Z" fill="white"/>
</g>
<defs>
<clipPath id="clip0_8621_6286">
<rect width="1293.41" height="300" fill="white"/>
</clipPath>
</defs>
</svg>
