<?xml version="1.0" encoding="utf-8"?>
<!-- Generator: Adobe Illustrator 26.1.0, SVG Export Plug-In . SVG Version: 6.00 Build 0)  -->
<svg version="1.1" id="Layer_1" xmlns="http://www.w3.org/2000/svg" xmlns:xlink="http://www.w3.org/1999/xlink" x="0px" y="0px"
	 viewBox="0 0 499 256.5" style="enable-background:new 0 0 499 256.5;" xml:space="preserve">
<style type="text/css">
	.st0{fill:#DC0000;}
	.st1{fill:#201F75;}
</style>
<g>
	<g id="XMLID_1_">
		<path id="XMLID_3_" class="st0" d="M197.4,121c-6.9-7.4-12.2-17.2-8.1-27.2c3.6-7.6,6.9-15.5,8.6-24.6c0.7,9.3,6.2,17.7,8.8,26.5
			c1,4.3,1.2,8.8-0.5,13.1c-1.7,4.8-4.5,9.1-8.1,12.7L197.4,121"/>
		<path id="XMLID_5_" class="st1" d="M248,113.1c-4.3,3.1-9.8,3.6-14.1,1.7c0,0-1.2-0.5-2.1-1.7c-1-1.2-22-28.6-22-28.6
			c7.4,1.4,12.7-2.1,16.7-8.8c4.1-6.2,4.1-15,0-21.2c-4.5-6.7-13.8-9.1-21.5-7.9c-13.4,1.9-22.9,13.8-25.8,26.5
			c-3.1,14.3-1,27.9,3.8,40.6c1.2,2.6,2.6,5.5,4.3,7.9c-14.1-6.2-26.3-17.7-32.9-32.9c-7.2-16.7-6.9-37.5,1.4-54.4
			C162.6,21.2,174.5,9,189.1,4c15.5-6.4,36-5,51.1,3.6c18.1,9.3,32,32.2,32,52.8C273.3,81.3,264,100.7,248,113.1"/>
		<path id="XMLID_6_" class="st0" d="M149.2,206.2V101.4c6,9.5,13.8,17.4,22.9,23.2v81.6H149.2"/>
		<path id="XMLID_9_" class="st0" d="M23.4,172.5v33.7H0v-99.8c9.8-0.5,19.6-0.7,29.4-0.7c23.2,0,36.3,9.5,36.3,29.4
			c0,7.6-2.4,14.1-7.4,19.3c-3.8,4.3-8.6,7.2-14.3,8.6c2.1,2.9,3.8,5,5,6.9l25.3,36H45.6L23.4,172.5z M27.5,126.2
			c-1.7,0-3.1,0-4.3,0.2v22.2c1.2,0,2.4,0,3.8,0c7.4,0,14.6-3.1,14.6-11.7C41.5,130,37.7,126.2,27.5,126.2"/>
		<path id="XMLID_12_" class="st0" d="M137.5,172.1l-0.2,2.4H95.5c0.7,9.3,5.7,13.6,16,13.6c8.6,0,14.6-2.1,22.2-5.7l2.4,19.8
			c-9.3,3.8-17.2,5.5-27.5,5.5c-24.1,0-36.5-13.1-36.5-38.2c0-11.5,2.9-21,9.1-28.4c6.2-7.6,14.8-11.2,25.5-11.2
			c10,0,18.1,3.3,23.9,10c5,6.2,7.4,14.1,7.4,23.6C138,166.3,137.7,169.2,137.5,172.1z M112.9,151.1c-1.4-1.9-3.6-2.9-6.7-2.9
			c-5.3,0-8.6,3.3-10,8.4h18.9C114.8,154.2,113.9,152.5,112.9,151.1"/>
		<rect id="XMLID_13_" x="186.4" y="131.2" class="st0" width="22.9" height="75"/>
		<path id="XMLID_16_" class="st0" d="M259.2,200.7c-1,1-2.4,1.9-3.6,2.9c-4.3,2.6-9.3,4.1-14.8,4.1c-6.7,0-12.2-1.7-16.2-5.7
			c-4.1-3.8-6-9.1-6-15.5c0-9.1,4.3-16.5,12.2-21.5c6.9-4.3,16.2-6.4,27-6.7v-1c0-5.3-2.6-8.4-10.5-8.4c-9.1,0-14.8,2.9-22.4,7.2
			l-2.1-21.5c9.3-3.3,17.4-5.3,27.5-5.3c10.7,0,19.1,2.1,24.1,7.2c4.5,4.5,6.7,11.2,6.7,19.8v28.9c0,6.9,0.2,13.8,0.5,20.8h-22.2
			v-2.9C259.2,202.4,259.2,201.7,259.2,200.7z M257.8,175.4c-13.4,0.5-17.2,4.1-17.2,8.1c0,3.1,1.2,4.5,5.3,4.5
			c3.3,0,6.2-1.4,8.4-4.3C256.6,181.6,257.8,178.7,257.8,175.4"/>
		<path id="XMLID_17_" class="st0" d="M316.5,138.9c3.1-6,10.5-9.1,19.8-9.1c15.3,0,22.9,8.8,22.9,25.1v51.6h-22.9v-47.3
			c0-6.9-2.4-8.8-5.7-8.8c-3.3,0-6.2,1.7-9.1,5.5c-2.6,3.8-4.1,8.6-4.1,14.1v36.3h-22.9v-75h22v2.9
			C316.8,135.8,316.8,137.2,316.5,138.9"/>
		<path id="XMLID_18_" class="st0" d="M404.4,207.4c-22.2,0-33.4-12.7-33.4-36.5c0-11.9,3.1-21.7,9.3-29.1
			c6.7-8.1,16.5-11.9,28.6-11.9c6.2,0,11.2,1,16.9,2.6l-2.4,21.5c-4.8-1.7-9.5-3.6-14.6-3.6c-11,0-14.1,9.1-14.1,18.6
			c0,12.4,4.5,17.2,13.4,17.2c6.9,0,10-1.4,15.8-4.5l1.9,21.5C418.5,206.2,412.5,207.4,404.4,207.4"/>
		<path id="XMLID_21_" class="st0" d="M498.4,172.1l-0.2,2.4h-41.8c0.7,9.3,5.7,13.6,16,13.6c8.6,0,14.6-2.1,22.2-5.7l2.4,19.8
			c-9.3,3.8-17.2,5.5-27.5,5.5c-24.1,0-36.5-13.1-36.5-38.2c0-11.5,2.9-21,9.1-28.4c6.2-7.6,14.8-11.2,25.5-11.2
			c10,0,18.1,3.3,23.9,10c5,6.2,7.4,14.1,7.4,23.6C499.1,166.3,498.9,169.2,498.4,172.1z M473.8,151.1c-1.4-1.9-3.6-2.9-6.7-2.9
			c-5.3,0-8.6,3.3-10,8.4H476C475.8,154.2,475,152.5,473.8,151.1"/>
	</g>
	<rect y="236.6" class="st1" width="354.6" height="13.9"/>
	<g>
		<path class="st1" d="M372.3,244.3h-1.9v8.8c0,1.2-0.3,2-0.8,2.6c-0.5,0.5-1.2,0.8-2,0.8c-0.9,0-1.6-0.3-2.1-0.9
			c-0.5-0.6-0.7-1.4-0.7-2.5V232c0-1.2,0.3-2.1,0.8-2.6c0.5-0.5,1.4-0.8,2.6-0.8h9c1.2,0,2.3,0.1,3.2,0.2c0.9,0.1,1.7,0.3,2.4,0.6
			c0.9,0.4,1.6,0.9,2.3,1.6c0.7,0.7,1.2,1.5,1.5,2.3c0.3,0.9,0.5,1.8,0.5,2.8c0,2-0.6,3.7-1.7,4.9c-1.2,1.2-2.9,2.1-5.2,2.6
			c1,0.5,1.9,1.3,2.8,2.3c0.9,1,1.7,2.1,2.4,3.3c0.7,1.2,1.3,2.2,1.6,3.1s0.6,1.6,0.6,1.9c0,0.4-0.1,0.7-0.3,1.1
			c-0.2,0.4-0.5,0.6-0.9,0.8c-0.4,0.2-0.9,0.3-1.4,0.3c-0.6,0-1.1-0.1-1.6-0.4c-0.4-0.3-0.8-0.7-1.1-1.1c-0.3-0.4-0.7-1.1-1.2-2
			l-2.2-3.7c-0.8-1.4-1.5-2.4-2.1-3.1c-0.6-0.7-1.3-1.2-1.9-1.5C374.1,244.4,373.2,244.3,372.3,244.3z M375.4,232.8h-5.1v7.5h5
			c1.3,0,2.5-0.1,3.4-0.3c0.9-0.2,1.6-0.6,2.1-1.2c0.5-0.6,0.7-1.3,0.7-2.3c0-0.8-0.2-1.4-0.6-2c-0.4-0.6-0.9-1-1.6-1.3
			C378.6,232.9,377.3,232.8,375.4,232.8z"/>
		<path class="st1" d="M410.4,232.9h-12.5v6.7h11.5c0.8,0,1.5,0.2,1.9,0.6c0.4,0.4,0.6,0.9,0.6,1.5c0,0.6-0.2,1.1-0.6,1.5
			c-0.4,0.4-1,0.6-1.9,0.6h-11.5v7.8h12.9c0.9,0,1.5,0.2,2,0.6c0.4,0.4,0.7,0.9,0.7,1.6c0,0.6-0.2,1.2-0.7,1.6
			c-0.4,0.4-1.1,0.6-2,0.6h-15.1c-1.2,0-2.1-0.3-2.6-0.8c-0.5-0.5-0.8-1.4-0.8-2.6V232c0-0.8,0.1-1.4,0.4-2c0.2-0.5,0.6-0.9,1.1-1.1
			c0.5-0.2,1.1-0.3,1.9-0.3h14.7c0.9,0,1.5,0.2,2,0.6c0.4,0.4,0.6,0.9,0.6,1.5c0,0.6-0.2,1.2-0.6,1.6
			C411.9,232.7,411.3,232.9,410.4,232.9z"/>
		<path class="st1" d="M435.6,233.2h-6.1v19.9c0,1.1-0.3,2-0.8,2.6c-0.5,0.6-1.2,0.8-2,0.8c-0.8,0-1.5-0.3-2-0.8
			c-0.5-0.6-0.8-1.4-0.8-2.5v-19.9H418c-0.9,0-1.7-0.2-2.1-0.6c-0.5-0.4-0.7-1-0.7-1.7c0-0.7,0.2-1.3,0.7-1.7
			c0.5-0.4,1.2-0.6,2.1-0.6h17.6c1,0,1.7,0.2,2.1,0.6c0.5,0.4,0.7,1,0.7,1.7c0,0.7-0.2,1.2-0.7,1.7
			C437.3,233,436.6,233.2,435.6,233.2z"/>
		<path class="st1" d="M456.9,252.9l-1.3-3.4h-11.1l-1.3,3.5c-0.5,1.4-0.9,2.3-1.3,2.8c-0.4,0.5-1,0.7-1.8,0.7
			c-0.7,0-1.3-0.3-1.8-0.8c-0.5-0.5-0.8-1.1-0.8-1.7c0-0.4,0.1-0.8,0.2-1.2c0.1-0.4,0.3-1,0.6-1.7l7-17.8c0.2-0.5,0.4-1.1,0.7-1.8
			c0.3-0.7,0.6-1.3,0.9-1.8c0.3-0.5,0.7-0.9,1.3-1.1c0.5-0.3,1.2-0.4,1.9-0.4c0.8,0,1.4,0.1,1.9,0.4c0.5,0.3,0.9,0.7,1.3,1.1
			c0.3,0.5,0.6,1,0.8,1.5c0.2,0.5,0.5,1.2,0.8,2.1L462,251c0.6,1.3,0.8,2.3,0.8,2.9c0,0.6-0.3,1.2-0.8,1.7c-0.5,0.5-1.2,0.8-1.9,0.8
			c-0.4,0-0.8-0.1-1.1-0.2c-0.3-0.2-0.6-0.4-0.8-0.6c-0.2-0.3-0.4-0.7-0.7-1.2C457.3,253.8,457.1,253.3,456.9,252.9z M445.9,245.3
			h8.2L450,234L445.9,245.3z"/>
		<path class="st1" d="M467.1,253.1v-21.6c0-1.1,0.3-2,0.8-2.5c0.5-0.6,1.2-0.8,2-0.8c0.8,0,1.5,0.3,2,0.8c0.5,0.6,0.8,1.4,0.8,2.5
			v21.6c0,1.1-0.3,2-0.8,2.5c-0.5,0.6-1.2,0.8-2,0.8c-0.8,0-1.5-0.3-2-0.9C467.4,255.1,467.1,254.2,467.1,253.1z"/>
		<path class="st1" d="M484.3,231.5v19.9h11.3c0.9,0,1.6,0.2,2.1,0.7c0.5,0.4,0.7,1,0.7,1.6c0,0.7-0.2,1.2-0.7,1.6
			c-0.5,0.4-1.2,0.6-2.1,0.6h-13.4c-1.2,0-2.1-0.3-2.6-0.8c-0.5-0.5-0.8-1.4-0.8-2.6v-21.1c0-1.1,0.3-2,0.8-2.5
			c0.5-0.6,1.2-0.8,2-0.8c0.8,0,1.5,0.3,2,0.8S484.3,230.4,484.3,231.5z"/>
	</g>
</g>
</svg>
