<svg width="2110" height="302" viewBox="0 0 2110 302" fill="none" xmlns="http://www.w3.org/2000/svg">
<g clip-path="url(#clip0_8621_6268)">
<path d="M448.726 55.9359C448.753 56.2943 448.805 56.6504 448.881 57.0015C448.951 57.2315 449.079 57.4395 449.253 57.6053C449.427 57.7711 449.64 57.889 449.873 57.9475C451.071 58.02 452.269 58.107 453.471 58.107C488.181 58.107 522.891 58.107 557.601 58.107C558.444 58.107 559.291 58.107 560.135 58.0816C560.496 58.0816 560.858 58.0164 561.22 57.9729C561.453 57.9203 561.664 57.7976 561.825 57.6214C561.986 57.4452 562.09 57.2238 562.122 56.987C562.158 56.0229 562.19 55.0588 562.19 54.0874C562.19 37.6807 562.19 21.2728 562.19 4.86368C562.19 4.01918 562.19 3.17468 562.161 2.32656C562.174 2.08552 562.131 1.84481 562.035 1.62342C561.93 1.42407 561.709 1.16673 561.524 1.15224C560.326 1.06162 559.121 0.989136 557.905 0.989136C540.55 0.989136 523.195 0.989136 505.84 0.989136C488.364 0.989136 470.889 0.989136 453.413 0.989136C452.208 0.989136 451.006 1.03625 449.794 1.08337C449.555 1.1146 449.333 1.2221 449.16 1.38992C448.987 1.55774 448.873 1.77691 448.834 2.01486C448.776 3.21818 448.711 4.4215 448.711 5.63932C448.711 21.5652 448.711 37.4898 448.711 53.4133C448.708 54.2433 448.7 55.0878 448.726 55.9323V55.9359ZM556.953 101.637C428.519 101.62 300.083 101.62 171.647 101.637C170.441 101.637 169.236 101.637 168.027 101.669C167.666 101.65 167.305 101.712 166.97 101.851C166.815 101.926 166.677 102.032 166.564 102.161C166.45 102.291 166.363 102.441 166.308 102.604C166.181 103.315 166.122 104.036 166.13 104.757C166.13 112.006 166.13 119.249 166.13 126.486C166.13 127.088 166.148 127.693 166.181 128.298C166.242 129.498 166.717 129.947 168.031 129.976C169.598 130.009 171.165 130.005 172.736 130.005H442.268C443.477 130.005 444.683 130.005 445.888 130.005C446.369 130.005 446.851 130.038 447.336 130.078C447.697 130.11 448.033 130.278 448.276 130.546C448.52 130.814 448.655 131.165 448.653 131.528C448.693 132.735 448.704 133.942 448.704 135.152V223.506C448.704 228.94 448.704 234.376 448.704 239.816C448.704 240.78 448.661 241.744 448.61 242.715C448.582 243.017 448.448 243.3 448.232 243.513C448.016 243.725 447.732 243.855 447.43 243.879C446.105 243.933 444.78 243.969 443.448 243.973C369.161 243.973 294.875 243.973 220.588 243.973C204.063 243.973 187.542 243.973 171.024 243.973C169.822 243.973 168.617 244.027 167.404 244.121C167.164 244.158 166.939 244.262 166.756 244.422C166.573 244.582 166.438 244.791 166.369 245.024C166.241 245.36 166.168 245.715 166.156 246.075C166.123 247.282 166.123 248.489 166.119 249.699C166.094 257.909 166.206 266.118 166.004 274.324C165.819 281.935 165.953 289.547 165.837 297.136C165.837 298.097 165.913 299.061 165.971 300.036C166.037 300.266 166.166 300.473 166.343 300.633C166.521 300.794 166.739 300.902 166.974 300.946C168.421 300.978 169.869 301.025 171.317 301.025H555.19C556.518 301.025 557.843 301.025 559.172 301.025C562.151 300.996 562.151 300.993 562.18 298.013C562.18 297.289 562.18 296.564 562.18 295.839C562.18 232.824 562.18 169.81 562.18 106.798C562.169 100.839 562.99 101.633 556.967 101.633L556.953 101.637ZM2.67853 200.78C3.40245 200.78 4.12638 200.78 4.85031 200.78H390.877C392.082 200.78 393.288 200.78 394.496 200.733C394.859 200.734 395.218 200.665 395.553 200.53C395.726 200.476 395.881 200.373 395.998 200.235C396.115 200.096 396.191 199.927 396.216 199.747C396.263 199.022 396.342 198.297 396.342 197.572C396.342 190.208 396.342 182.844 396.342 175.481C396.342 174.876 396.343 174.274 396.306 173.669C396.266 172.817 395.8 172.256 395.01 172.219C393.563 172.154 392.115 172.122 390.667 172.122C361.485 172.122 332.302 172.122 303.115 172.122H119.69C118.243 172.122 116.795 172.122 115.347 172.064C114.858 172.058 114.391 171.863 114.044 171.52C113.696 171.176 113.495 170.711 113.483 170.222C113.439 169.258 113.436 168.294 113.439 167.323C113.468 132.557 113.502 97.7912 113.541 63.0254C113.541 62.0613 113.541 61.0935 113.599 60.1258C113.624 59.7657 113.711 59.4127 113.856 59.0819C113.927 58.8485 114.063 58.6399 114.248 58.4798C114.432 58.3197 114.657 58.2144 114.898 58.1758C116.346 58.0925 117.794 58.0707 119.242 58.0707H389.136C390.464 58.0707 391.789 58.0707 393.117 58.0707C393.718 58.0707 394.323 58.0454 394.927 58.0055C395.771 57.9475 396.292 57.4437 396.321 56.6681C396.346 56.0628 396.353 55.4611 396.353 54.8558C396.353 37.9538 396.353 21.0541 396.353 4.15691C396.353 3.43202 396.317 2.70713 396.288 1.98224C396.261 1.74527 396.151 1.52561 395.977 1.36235C395.804 1.19908 395.578 1.1028 395.34 1.09062C393.773 1.04713 392.209 0.996385 390.634 0.996385H6.77233C5.56699 0.996385 4.36166 0.996385 3.1527 0.996385C2.55184 1.00001 1.95098 1.03625 1.35012 1.06887C1.05132 1.06523 0.762336 1.17558 0.541835 1.37753C0.321334 1.57947 0.185848 1.85788 0.162883 2.15621C0.133926 3.00433 0.112209 3.84883 0.108589 4.69333C0.0916974 12.4255 0.0784254 20.1504 0.068773 27.8681C0.0518814 47.4257 0.039816 66.9821 0.0325767 86.5372C0.0108589 122.753 0 158.968 0 195.184C0 196.148 0 197.112 0 198.084C0 200.345 0.155644 200.802 2.67853 200.78ZM113.294 245.191C113.221 244.898 113.064 244.633 112.844 244.428C112.624 244.222 112.349 244.084 112.053 244.031C110.851 243.995 109.646 243.969 108.433 243.969H4.28926C3.32282 243.969 2.36 243.969 1.39356 243.995C0.633436 244.009 0.115828 244.564 0.0615338 245.397C0.0253374 245.999 0.00361963 246.601 0.00361963 247.209C0.00361963 264.22 0.00361963 281.232 0.00361963 298.245C0.00361963 298.843 0.0506748 299.445 0.0941104 300.058C0.139179 300.292 0.261396 300.504 0.441205 300.661C0.621014 300.817 0.848018 300.908 1.08589 300.92C2.29123 300.96 3.49295 300.996 4.70552 300.996H108.842C109.928 300.996 111.014 300.982 112.1 300.953C112.4 300.926 112.683 300.801 112.904 300.596C113.125 300.391 113.273 300.119 113.323 299.822C113.389 298.735 113.447 297.647 113.447 296.56C113.447 280.634 113.447 264.708 113.447 248.782C113.447 247.938 113.447 247.093 113.421 246.245C113.402 245.891 113.359 245.539 113.294 245.191Z" fill="#FDFCFC"/>
<path d="M396.35 175.496C396.35 182.856 396.35 190.22 396.35 197.587C396.35 198.312 396.27 199.037 396.223 199.762C396.198 199.941 396.122 200.111 396.005 200.249C395.888 200.388 395.734 200.49 395.561 200.545C395.225 200.68 394.866 200.749 394.504 200.747C393.298 200.784 392.093 200.795 390.884 200.795H4.84669C4.12276 200.795 3.39883 200.795 2.67491 200.795C0.155644 200.802 0 200.345 0 198.08C0 197.112 0 196.148 0 195.18C0 158.967 0.0108589 122.753 0.0325767 86.5372C0.0325767 66.9845 0.0446421 47.4281 0.068773 27.8681C0.068773 20.1359 0.082045 12.411 0.108589 4.69332C0.108589 3.84882 0.133926 3.00433 0.162883 2.1562C0.185848 1.85787 0.321334 1.57946 0.541835 1.37752C0.762336 1.17557 1.05132 1.06522 1.35012 1.06886C1.95098 1.03624 2.55184 1 3.15632 1C4.36166 1 5.56699 1 6.77595 1H390.631C392.198 1 393.762 1.05074 395.336 1.09424C395.574 1.10641 395.8 1.2027 395.974 1.36596C396.147 1.52923 396.257 1.74888 396.285 1.98585C396.314 2.71074 396.35 3.43564 396.35 4.16053C396.35 21.0602 396.35 37.9598 396.35 54.8594C396.35 55.4647 396.35 56.0664 396.317 56.6717C396.288 57.4473 395.767 57.9511 394.924 58.0091C394.323 58.049 393.718 58.0671 393.114 58.0743C391.785 58.0743 390.461 58.0743 389.132 58.0743H119.238C117.79 58.0743 116.342 58.0961 114.894 58.1794C114.653 58.218 114.428 58.3233 114.244 58.4834C114.06 58.6435 113.924 58.8521 113.852 59.0856C113.708 59.4163 113.621 59.7694 113.595 60.1294C113.544 61.0899 113.537 62.0576 113.537 63.029C113.501 97.7948 113.467 132.561 113.436 167.326C113.436 168.294 113.436 169.258 113.479 170.226C113.491 170.715 113.692 171.18 114.04 171.523C114.388 171.867 114.855 172.062 115.343 172.067C116.791 172.118 118.239 172.125 119.687 172.125H303.119C332.305 172.125 361.489 172.125 390.671 172.125C392.118 172.125 393.566 172.158 395.014 172.223C395.803 172.259 396.27 172.821 396.31 173.673C396.35 174.289 396.35 174.891 396.35 175.496Z" fill="#F15A25"/>
<path d="M562.18 295.802C562.18 296.527 562.18 297.252 562.18 297.977C562.151 300.956 562.151 300.96 559.172 300.989C557.843 300.989 556.518 300.989 555.19 300.989H171.332C169.884 300.989 168.436 300.942 166.988 300.909C166.753 300.866 166.535 300.758 166.358 300.597C166.181 300.436 166.052 300.229 165.985 300C165.928 299.039 165.837 298.075 165.852 297.1C165.967 289.489 165.833 281.877 166.018 274.288C166.221 266.082 166.109 257.873 166.134 249.663C166.134 248.456 166.134 247.249 166.17 246.039C166.183 245.679 166.255 245.324 166.384 244.988C166.453 244.754 166.587 244.546 166.77 244.386C166.954 244.226 167.179 244.122 167.419 244.085C168.617 243.991 169.822 243.937 171.038 243.937C187.558 243.937 204.08 243.937 220.602 243.937C294.887 243.937 369.174 243.937 443.463 243.937C444.788 243.937 446.112 243.897 447.444 243.842C447.747 243.819 448.031 243.689 448.247 243.476C448.463 243.263 448.596 242.981 448.624 242.679C448.675 241.715 448.719 240.751 448.719 239.779C448.719 234.35 448.719 228.913 448.719 223.469V135.141C448.719 133.934 448.719 132.727 448.668 131.517C448.669 131.154 448.535 130.803 448.291 130.535C448.047 130.267 447.711 130.1 447.35 130.067C446.873 130.027 446.391 130.002 445.902 129.994C444.697 129.994 443.492 129.994 442.283 129.994H172.747C171.18 129.994 169.612 129.994 168.041 129.965C166.727 129.936 166.253 129.487 166.192 128.287C166.159 127.686 166.141 127.08 166.141 126.475C166.141 119.226 166.141 111.983 166.141 104.746C166.133 104.025 166.192 103.304 166.318 102.594C166.374 102.43 166.461 102.28 166.575 102.15C166.688 102.021 166.826 101.915 166.981 101.84C167.315 101.701 167.676 101.64 168.038 101.658C169.243 101.629 170.448 101.626 171.657 101.626C300.094 101.626 428.529 101.626 556.964 101.626C562.987 101.626 562.165 100.832 562.165 106.754C562.187 169.774 562.192 232.79 562.18 295.802Z" fill="#FAA71B"/>
<path d="M2109.97 152.52C2109.97 195.929 2109.97 239.337 2109.97 282.745C2109.97 284.823 2109.87 286.906 2109.78 289.006C2109.71 289.475 2109.49 289.91 2109.16 290.251C2108.83 290.592 2108.4 290.822 2107.94 290.908C2106.8 290.959 2105.66 290.993 2104.52 290.993H2032.8C2032.04 290.993 2031.28 290.953 2030.52 290.993C2028.45 291.09 2026.94 290.179 2025.61 288.648C2021.17 283.521 2016.69 278.419 2012.17 273.342C2003.19 263.175 1994.17 253.043 1985.2 242.86C1972.87 228.858 1960.6 214.792 1948.23 200.818C1938.11 189.383 1927.91 178.021 1918.13 166.295C1911.25 158.053 1904.47 149.729 1897.8 141.324C1897.73 141.248 1897.66 141.186 1897.57 141.144C1897.48 141.102 1897.38 141.08 1897.29 141.08C1897.19 141.08 1897.09 141.102 1897 141.144C1896.91 141.186 1896.84 141.248 1896.78 141.324C1896.64 141.443 1896.45 141.546 1896.4 141.694C1896.26 142.046 1896.18 142.416 1896.15 142.792C1896.11 143.737 1896.1 144.688 1896.15 145.638C1896.88 165.532 1896.87 185.438 1897.01 205.338C1897.2 231.521 1897.21 257.654 1897.29 283.809C1897.32 291.352 1897.52 290.993 1890.21 290.987C1862.33 290.987 1834.44 290.987 1806.55 290.987C1804.84 290.987 1803.13 290.959 1801.42 290.896C1800.44 290.856 1799.26 289.65 1799.14 288.619C1799.08 288.052 1799.04 287.482 1799.03 286.912C1799.03 285.204 1799 283.496 1799 281.789C1799 194.972 1799 108.158 1799 21.3449C1799 19.4494 1799 17.5539 1799.11 15.6527C1799.19 14.9915 1799.5 14.3791 1799.98 13.9165C1800.46 13.454 1801.09 13.1689 1801.75 13.1083C1802.89 13.0343 1804.03 13.0173 1805.17 13.0173C1828.71 13.0173 1852.24 13.0173 1875.75 13.0173C1881.8 13.0173 1880.73 12.4993 1884.99 17.1384C1892.4 25.1871 1899.66 33.361 1907 41.4723C1915.98 51.388 1924.97 61.298 1933.97 71.2023C1939.04 76.792 1944.01 82.4671 1949.15 87.9941C1959.14 98.7694 1968.89 109.767 1978.84 120.582C1988.55 131.135 1997.58 142.257 2006.37 153.596C2008.12 155.833 2009.79 158.15 2011.5 160.392C2011.67 160.612 2011.91 160.769 2012.18 160.842C2012.45 160.915 2012.73 160.899 2012.99 160.797C2013.64 160.506 2013.65 159.948 2013.71 159.419C2013.75 158.851 2013.76 158.281 2013.73 157.711C2013.31 139.332 2012.82 120.952 2012.47 102.572C2012.26 91.5802 2012.24 80.583 2012.21 69.5915C2012.17 52.8945 2012.17 36.2146 2012.21 19.5518C2012.21 18.0434 2012.32 16.535 2012.46 15.038C2012.6 14.5856 2012.86 14.1762 2013.2 13.8471C2013.54 13.5181 2013.96 13.2798 2014.42 13.1539C2016.13 13.0856 2017.83 13.0286 2019.54 13.0286C2035.67 13.0286 2051.8 13.0286 2067.92 13.0286H2103.23C2104.75 13.0286 2106.27 13.0287 2107.79 13.1311C2108.76 13.1766 2109.9 14.4175 2109.94 15.4592C2109.99 17.1668 2110 18.8745 2110 20.5821C2109.98 64.571 2109.97 108.55 2109.97 152.52Z" fill="white"/>
<path d="M1754.36 140.362C1754.02 137.731 1753.83 135.084 1753.61 132.436C1753.4 129.984 1753.05 127.547 1752.56 125.136C1751.8 121.252 1751.49 117.284 1750.08 113.52C1749.51 111.942 1749.38 110.194 1748.88 108.577C1748.21 106.419 1747.98 104.102 1746.7 102.149C1746.51 99.6431 1745.15 97.5419 1744.38 95.2358C1742.33 89.1317 1739.4 83.4204 1736.35 77.8003C1734.08 73.6908 1731.58 69.7154 1728.85 65.8938C1726.14 62.0463 1723.23 58.3527 1720.11 54.83C1711.14 44.6451 1700.64 35.9081 1689 28.9273C1682.37 24.9414 1675.35 21.8096 1668.32 18.638C1666.27 17.7098 1663.89 17.5902 1662.07 16.0528C1659.97 15.825 1658.05 15.0393 1656.11 14.2762C1652.08 12.6876 1647.69 12.2434 1643.71 10.4725C1643.35 10.3342 1642.98 10.2609 1642.6 10.2562C1638.79 10.1195 1635.27 8.30307 1631.43 8.30876C1630.86 8.29281 1630.3 8.15703 1629.78 7.91017C1627.31 6.77134 1624.67 6.69162 1622.01 6.48093C1620.31 6.40768 1618.61 6.19246 1616.95 5.8375C1613.45 4.99476 1609.87 4.53463 1606.27 4.4652C1604 4.38549 1601.72 4.22605 1599.48 3.92995C1594.21 3.28658 1588.91 2.98037 1583.61 3.01319C1575.08 2.97903 1566.55 3.01319 1558.02 3.09291C1553.85 3.07409 1549.69 3.34618 1545.56 3.90718C1543.12 4.22263 1540.66 4.40132 1538.2 4.44242C1534.41 4.50067 1530.64 4.96067 1526.95 5.81472C1525.1 6.19735 1523.21 6.4259 1521.32 6.49802C1519.24 6.65745 1517.19 6.82828 1515.22 7.63685C1514.15 8.02618 1513.04 8.27129 1511.91 8.3657C1510.03 8.59044 1508.17 8.9559 1506.35 9.45899C1503.45 10.2562 1500.35 10.2562 1497.63 11.7822C1497.01 12.1295 1496.15 12.0384 1495.41 12.1694C1494.65 12.2279 1493.91 12.3869 1493.19 12.642C1488.94 14.6805 1484.09 15.0848 1479.99 17.5162C1470.16 21.1035 1468.43 22.0089 1459.98 26.587C1448.22 32.9521 1437.45 40.9968 1428 50.4683C1421.23 57.2764 1415.24 64.827 1410.14 72.9773C1406.25 79.1954 1402.61 85.607 1400.19 92.5994C1398.48 94.7461 1398.12 97.4508 1397.25 99.9107C1396.32 102.558 1394.91 105.092 1394.77 108.019C1394.72 108.919 1394.12 109.784 1393.83 110.678C1393.49 111.557 1393.23 112.469 1393.07 113.4C1392.66 116.976 1391.11 120.33 1391.09 123.986C1391.03 124.743 1390.83 125.484 1390.52 126.178C1389.72 128.347 1389.57 130.614 1389.43 132.886C1389.24 135.733 1389.15 138.58 1388.82 141.387C1387.73 150.429 1387.73 159.569 1388.82 168.611C1389.02 170.308 1389.17 172.016 1389.26 173.735C1389.47 177.516 1389.4 181.332 1390.94 184.913C1391.07 185.269 1391.14 185.644 1391.16 186.023C1391.62 192.116 1394.04 197.736 1395.39 203.613C1397.31 207.285 1398 211.493 1400.31 215.001C1403.4 222.552 1407.73 229.373 1412.39 236.03C1422.2 250.083 1433.94 262.154 1448.4 271.459C1454.54 275.472 1460.95 279.033 1467.6 282.112C1468.79 282.653 1469.87 283.439 1471.11 283.821C1472.54 284.305 1473.9 284.908 1475.28 285.529C1478.69 287.066 1482.47 287.738 1485.83 289.475C1487.94 289.6 1489.81 290.494 1491.82 291.121C1494.33 291.944 1496.89 292.63 1499.47 293.176C1501.33 293.541 1503.17 293.808 1504.94 294.594C1505.94 295.038 1507.14 295.084 1508.25 295.283C1509.74 295.551 1511.23 295.796 1512.72 296.04L1518.31 296.974C1519.8 297.219 1521.32 297.361 1522.77 297.743C1525.72 298.446 1528.73 298.839 1531.76 298.916C1534.6 298.977 1537.43 299.19 1540.25 299.554C1545.87 300.405 1551.55 300.826 1557.23 300.812C1561.59 300.812 1565.94 300.812 1570.31 300.812V301C1576.75 300.909 1583.19 300.869 1589.65 300.704C1592.49 300.662 1595.32 300.439 1598.13 300.038C1602.64 299.343 1607.16 299.053 1611.7 298.808C1613.78 298.739 1615.85 298.491 1617.89 298.067C1620.46 297.454 1623.08 297.026 1625.72 296.786C1627.03 296.622 1628.34 296.39 1629.62 296.092C1630.92 295.847 1632.21 295.522 1633.52 295.34C1635.21 295.186 1636.88 294.789 1638.46 294.161C1639.53 293.778 1640.63 293.501 1641.74 293.336C1642.88 293.091 1644.02 292.96 1645.08 292.658C1646.72 292.208 1648.33 291.662 1649.94 291.138C1651.37 290.676 1652.78 289.999 1654.23 289.782C1656.01 289.555 1657.31 288.376 1658.92 287.915C1663.65 286.565 1668.02 284.356 1672.46 282.34C1689.15 274.427 1704.28 263.556 1717.1 250.254C1723.37 243.468 1728.98 236.099 1733.85 228.246C1736.91 223.377 1741.56 214.517 1743.52 209.136C1744.55 206.323 1746.37 203.778 1746.55 200.663C1746.64 200.295 1746.79 199.943 1746.99 199.621C1749.36 194.422 1749.73 188.654 1751.61 183.313C1751.77 182.573 1751.86 181.82 1751.88 181.064C1752.14 179.356 1752.45 177.704 1752.71 176.019C1752.99 174.151 1753.31 172.283 1753.52 170.399C1753.83 167.552 1754.02 164.739 1754.31 161.914C1755.11 154.728 1755.32 147.548 1754.36 140.362ZM1651.81 167.814C1651.72 169.137 1651.47 170.446 1651.08 171.714C1650.5 173.515 1650.09 175.366 1649.86 177.243C1649.66 178.724 1648.93 180.147 1648.79 181.628C1648.51 184.52 1646.98 186.974 1646.2 189.691C1645.43 192.407 1644.11 194.923 1642.95 197.492C1638.9 206.641 1632.97 214.836 1625.56 221.544C1622.36 224.48 1618.81 227.009 1614.99 229.071C1611.16 231.098 1607.34 233.057 1603.2 234.43C1601.97 234.894 1600.68 235.228 1599.38 235.426C1598.62 235.439 1597.87 235.589 1597.17 235.87C1594.37 237.345 1591.33 237.339 1588.31 237.539C1586.6 237.647 1584.9 237.818 1583.23 238.028C1576.82 238.761 1570.35 238.776 1563.95 238.074C1561.49 237.84 1559.05 237.595 1556.59 237.419C1554.51 237.271 1552.45 237.18 1550.52 236.183C1549.86 235.818 1549.12 235.607 1548.36 235.568C1545.83 235.517 1543.56 234.481 1541.26 233.649C1535.77 231.752 1530.51 229.218 1525.6 226.099C1518.18 221.263 1511.73 215.083 1506.58 207.878C1501.75 201.085 1498.37 193.563 1495.42 185.819C1495.06 182.22 1493.18 179.048 1492.68 175.438C1492.18 171.828 1491.29 168.394 1491.15 164.784C1491.09 163.458 1490.9 162.142 1490.74 160.827C1489.96 154.802 1489.98 148.701 1490.78 142.68C1491.04 140.806 1491.2 138.916 1491.35 137.025C1491.44 135.131 1491.74 133.252 1492.26 131.428C1492.57 130.334 1492.78 129.216 1492.9 128.085C1493.11 126.377 1493.3 124.669 1494.21 123.183C1494.42 122.868 1494.56 122.513 1494.63 122.141C1495.11 117.733 1497.58 113.998 1498.78 109.836C1505.11 97.0522 1511.46 87.3608 1524.98 77.9996C1530.08 74.4173 1535.72 71.6884 1541.7 69.9196C1542.41 69.6889 1543.11 69.4131 1543.78 69.0939C1544.28 68.807 1544.79 68.5686 1545.33 68.3821C1548.85 67.6647 1552.36 66.9131 1555.9 66.3664C1558.52 65.9621 1561.18 65.8767 1563.82 65.6091C1571.99 64.772 1580.09 65.6091 1588.19 66.5372C1591.37 66.9017 1594.5 67.7216 1597.66 68.3309C1600.82 70.0391 1604.48 70.3922 1607.68 72.0321C1611.53 74.0023 1615.41 75.8984 1619.06 78.2957C1622.22 80.336 1625.15 82.7005 1627.82 85.3507C1634.89 92.514 1640.73 100.571 1644.47 110.041C1645.36 112.318 1646.52 114.465 1646.95 116.874C1648.57 118.889 1648.26 121.577 1649.33 123.809C1649.8 124.8 1649.8 126.018 1650 127.134C1650.16 128.068 1650.15 129.07 1650.5 129.919C1651.84 133.153 1651.91 136.558 1652.08 139.969C1652.28 144.132 1652.58 148.288 1652.79 151.659C1652.43 157.598 1652.15 162.712 1651.81 167.814Z" fill="white"/>
<path d="M981.492 209.682C981.304 211.397 980.963 213.071 980.821 214.775C980.622 217.061 980.486 219.347 979.428 221.427C979.251 221.765 979.139 222.134 979.098 222.513C978.786 225.794 977.688 228.84 976.472 231.835C975.977 233.058 975.465 234.27 974.976 235.482C972.382 241.763 969.027 247.698 964.987 253.154L964.282 254.114C956.146 265.053 945.895 273.438 933.847 279.719C931.18 281.925 927.593 282.337 924.841 284.383C921.589 285.378 918.49 286.772 915.357 288.075C912.441 288.155 910.121 290.116 907.307 290.601C904.713 291.098 902.148 291.73 899.62 292.493C896.521 293.373 893.456 294.345 890.199 294.402C890.004 294.394 889.81 294.429 889.63 294.505C884.672 296.723 879.146 295.871 874.074 297.437C867.445 297.711 860.901 298.855 854.311 299.506C852.429 299.695 850.53 299.689 848.625 299.729C833.843 300.038 819.06 300.112 804.312 299.798C799.195 299.689 794.078 299.615 789.069 298.42C787.772 298.144 786.454 297.987 785.129 297.952C781.909 297.866 778.705 297.459 775.566 296.734C774.268 296.457 772.954 296.266 771.631 296.163C770.867 296.166 770.105 296.087 769.357 295.928C766.139 294.785 762.745 294.391 759.447 293.608C755.416 292.648 751.533 291.093 747.445 290.299C744.096 288.538 740.252 287.978 736.978 286.149C734.828 284.949 732.236 284.749 730.382 282.983C719.426 278.039 710.096 270.809 701.954 262.07C696.655 256.389 692.567 249.81 688.934 242.946C688.747 241.363 687.445 240.288 687.001 238.877C685.984 235.625 684.579 232.515 683.59 229.258C683.391 228.527 683.239 227.784 683.135 227.034C682.999 226.286 683.067 225.44 682.737 224.8C680.599 220.593 681.236 215.838 680.042 211.448C679.972 210.878 679.989 210.299 680.093 209.734C680.164 209.469 680.3 209.225 680.487 209.026C680.675 208.826 680.909 208.677 681.168 208.591C682.112 208.493 683.05 208.362 684.011 208.345C687.604 208.271 691.203 208.191 694.813 208.191C706.372 208.191 717.908 207.659 729.438 206.79C734.556 206.665 739.673 206.499 744.79 206.419C754.266 206.27 763.742 206.146 773.218 206.047C774.166 206.019 775.115 206.046 776.06 206.127C776.341 206.111 776.619 206.183 776.857 206.334C777.094 206.485 777.279 206.706 777.385 206.967C777.834 208.219 778.363 209.442 778.795 210.694C780.615 216.032 783.872 220.319 788.068 223.994C788.677 224.525 789.296 225.034 789.927 225.514C792.266 227.329 794.808 228.864 797.501 230.086C802.452 232.382 807.62 234.174 812.926 235.436C813.287 235.548 813.656 235.636 814.029 235.699C819.146 236.139 824.16 237.054 829.226 237.614C833.724 238.105 838.323 237.837 842.872 237.831C844.387 237.851 845.9 237.726 847.392 237.459C847.892 237.362 848.387 237.271 848.887 237.185C851.935 236.653 855.005 236.328 858.041 235.83C861.361 235.287 864.75 234.687 867.706 232.813C871.118 231.995 873.75 229.829 876.417 227.72C879.76 225.068 881.858 221.473 883.842 217.798C884.099 217.293 884.272 216.748 884.354 216.186C884.922 212.809 885.286 209.482 884.814 205.996C884.325 202.372 882.608 199.583 880.368 196.983C878.205 194.594 875.562 192.694 872.613 191.41C870.561 190.45 868.451 189.604 866.33 188.815C865.099 188.34 863.82 188.001 862.515 187.804C860.81 187.569 859.144 187.381 857.614 186.512C857.122 186.223 856.569 186.056 856 186.026C852.173 185.923 848.608 184.311 844.85 183.968C843.915 183.834 842.992 183.62 842.093 183.328C841.359 183.128 840.666 182.7 839.932 182.643C835.583 182.277 831.404 180.899 827.145 180.248C823.035 179.619 819.038 178.316 814.847 178.173C814.102 178.048 813.375 177.833 812.681 177.533C811.771 177.264 810.868 176.801 809.952 176.784C804.977 176.698 800.332 174.835 795.454 174.189C792.469 173.801 789.569 172.829 786.527 172.618C785.612 172.549 784.731 172.075 783.832 171.795C783.136 171.504 782.412 171.284 781.672 171.137C776.555 170.623 771.682 169.114 766.787 167.708C765.707 167.394 764.513 167.388 763.433 167.137C762.526 166.9 761.634 166.612 760.76 166.273C759.873 165.965 759.055 165.542 758.122 165.325C753.113 164.107 748.929 162.501 743.186 160.232C739.851 158.952 736.587 157.492 733.407 155.86C722.604 150.179 713.252 142.674 706.048 132.712C702.5 127.809 699.441 122.573 697.73 116.709C697.201 114.897 695.956 113.423 695.797 111.411C695.638 109.399 694.842 107.359 694.506 105.301C694.199 103.432 694.171 101.512 693.938 99.6257C693.132 92.8099 693.287 85.9139 694.398 79.1416C695.063 75.0836 695.376 70.837 697.508 67.1391C698.077 63.5156 699.856 60.3606 701.409 57.1371C705.086 49.6708 709.88 42.8147 715.622 36.8073C723.628 28.6628 732.679 21.9814 743.209 17.4491C746.529 15.2086 750.532 14.4885 753.978 12.5395C756.604 12.1052 758.924 10.7277 761.454 10.0362C763.819 9.38461 766.224 8.89308 768.607 8.32154C769.704 8.04719 770.778 7.69283 771.859 7.3499C772.362 7.09423 772.895 6.90225 773.445 6.77836C778.562 6.59546 783.338 4.14354 788.512 4.25213C794.47 2.98331 800.52 2.72611 806.575 2.46892C808.281 2.39462 809.946 1.98311 811.641 1.7945C816.156 1.27274 820.696 1.0075 825.241 1.00006C829.977 1.02863 834.713 1.00006 839.455 1.00006C844.188 0.995298 848.917 1.29693 853.612 1.90309C856.796 2.32603 860.019 2.53179 863.226 2.68039C867.775 2.88614 872.323 2.96617 876.786 3.90921C878.094 4.12977 879.413 4.2729 880.738 4.33787C881.69 4.35818 882.639 4.44027 883.581 4.58363C887.99 5.66722 892.486 6.35765 897.016 6.64691C900.359 8.06434 904.015 8.19579 907.454 9.21885C909.08 9.69895 910.775 9.95044 912.435 10.3048C914.539 12.1737 917.444 11.8022 919.826 13.0082C922.208 14.2142 924.858 14.6771 927.217 15.8145C931.288 17.7634 935.331 19.8153 939.203 22.1015C944.184 25.1724 948.813 28.7854 953.007 32.8751C956.756 36.3725 960.097 40.2859 962.968 44.5403C968.12 52.2904 970.877 57.943 973.282 66.4247C973.799 68.2479 975.079 69.774 975.13 71.7687C975.181 73.7633 975.778 75.4951 976.312 77.3298C976.78 78.7858 976.916 80.3289 976.71 81.845C976.628 82.1093 976.481 82.3484 976.282 82.5403C976.083 82.7321 975.839 82.8704 975.573 82.9423L973.868 83.0452C969.524 83.3653 965.174 83.5653 960.848 84.034C956.299 84.5198 951.796 84.8341 947.248 84.9027C939.481 85.0113 931.732 85.3085 923.994 86.0858C919.098 86.5831 914.163 86.6117 909.245 86.9089C903.958 87.2289 898.67 87.6519 893.377 87.9605C889.602 88.1834 885.815 88.3263 882.006 88.4349C880.721 88.4749 879.498 87.4061 879.089 86.1144C879.026 85.9315 878.987 85.7429 878.935 85.5429C876.849 78.1128 873.437 73.9119 866.859 69.8826C864.585 68.552 862.176 67.4695 859.673 66.6533C855.949 65.3502 852.156 64.0528 848.08 64.2014C846.942 64.1908 845.81 64.0431 844.708 63.7613C838.721 62.4982 832.66 62.6182 826.599 62.7554C825.274 62.7377 823.951 62.868 822.654 63.144C819.515 63.9442 816.297 64.0871 813.119 64.5443C808.423 65.2245 798.427 68.4994 794.214 72.8431C790.382 76.7982 788.716 81.4163 789.183 86.7431C789.484 90.1724 790.632 93.4416 793.242 95.9164C795.015 97.6221 797.064 99.01 799.303 100.02C802.39 101.38 805.25 103.324 808.696 103.798C813.159 106.433 818.486 106.479 823.109 108.65C823.821 108.914 824.572 109.057 825.332 109.073C827.034 109.2 828.706 109.6 830.284 110.256C830.966 110.585 831.698 110.795 832.45 110.879C836.248 111.125 839.767 112.834 843.594 112.966C844.498 112.994 845.385 113.537 846.283 113.794C846.983 114.081 847.708 114.301 848.449 114.452C854.101 115.097 859.548 116.738 865.063 117.995C866.166 118.247 867.337 118.281 868.44 118.424C869.197 118.438 869.948 118.555 870.674 118.772C873.132 119.761 875.723 120.375 878.361 120.596C880.789 120.893 883.171 121.579 885.565 122.116C886.855 122.407 888.14 122.739 889.42 123.059C890.5 123.393 891.6 123.664 892.712 123.871C894.986 124.139 897.26 124.294 899.301 125.414C899.813 125.672 900.378 125.805 900.95 125.802C904.589 125.86 907.96 127.328 911.525 127.786C912.452 127.964 913.362 128.224 914.243 128.563C915.112 128.936 916.009 129.238 916.926 129.466C921.827 130.175 926.194 132.655 930.998 133.678C934.592 135.747 938.623 136.828 942.318 138.714C949.073 142.143 955.395 146.144 960.893 151.402C966.139 156.299 970.555 162.023 973.97 168.348C975.676 171.583 978.098 177.304 978.791 180.413C978.801 180.606 978.83 180.798 978.877 180.985C980.531 184.894 980.747 189.095 981.395 193.21C982.168 198.671 982.2 204.212 981.492 209.682Z" fill="white"/>
<path d="M1366.71 205.077C1364.87 209.009 1363.78 213.23 1362.06 217.219C1360.08 221.893 1357.81 226.441 1355.26 230.836C1350.81 238.498 1345.52 245.645 1339.5 252.15C1332.72 259.511 1325.02 265.974 1316.6 271.379C1310.13 275.629 1303.32 279.323 1296.23 282.421C1292.77 283.902 1289.25 285.269 1285.79 286.734C1283.36 287.788 1280.51 287.645 1278.38 289.463C1275.68 289.588 1273.3 290.961 1270.7 291.468C1267.36 292.112 1264.23 293.707 1260.75 293.747C1257.8 295.274 1254.48 295.154 1251.37 295.85C1248.4 296.507 1245.4 296.958 1242.37 297.2C1241.61 297.248 1240.86 297.368 1240.12 297.559C1235.88 298.75 1231.51 298.892 1227.15 299.074C1224.49 299.183 1221.85 299.513 1219.22 299.798C1212.23 300.557 1205.2 300.907 1198.17 300.846H1195.32V301C1189.44 300.801 1183.55 300.618 1177.64 300.396C1176.12 300.365 1174.6 300.242 1173.08 300.026C1168.57 299.378 1164.02 299.016 1159.46 298.943C1156.61 298.846 1153.76 298.693 1151.02 297.804C1150.48 297.635 1149.92 297.528 1149.35 297.485C1145.36 297.092 1141.47 296.408 1137.56 295.622C1135.15 295.143 1132.65 295.132 1130.41 293.912C1130.06 293.745 1129.69 293.645 1129.31 293.616C1124.75 293.098 1120.47 291.588 1116.16 290.124C1113.19 290.232 1110.86 288.283 1108.13 287.56C1105.54 286.969 1103.06 285.95 1100.81 284.546C1089.74 280.375 1080.14 274.9 1071.38 268.975C1066.2 265.471 1061.28 261.608 1056.65 257.414C1052.59 253.743 1048.75 249.831 1045.16 245.7C1041.18 241.137 1037.53 236.293 1034.24 231.206C1032.1 227.903 1030.14 224.491 1028.35 220.985C1026.64 217.64 1024.62 214.398 1023.79 210.661C1021.36 206.98 1021.03 202.462 1019.02 198.611C1018.75 197.901 1018.59 197.157 1018.53 196.4C1018.39 195.654 1018.47 194.805 1018.14 194.167C1016.43 190.885 1016.57 187.159 1015.49 183.729C1015.19 182.633 1015.01 181.505 1014.97 180.367C1014.78 177.531 1014.36 174.713 1013.74 171.941C1013.28 169.903 1013.05 167.823 1013.04 165.736C1012.97 157.008 1013.01 148.285 1013.04 139.528C1013.01 138.957 1013.04 138.385 1013.12 137.819C1014.09 132.605 1014.77 127.352 1015.56 122.116C1015.85 120.259 1016.38 118.43 1016.66 116.55C1016.89 115.438 1017.19 114.345 1017.58 113.28C1017.89 112.589 1018.13 111.872 1018.3 111.137C1018.87 106.18 1021.51 101.862 1022.47 97.036C1023.79 95.549 1023.94 93.6175 1024.6 91.8399C1025.27 90.0623 1026.28 88.4556 1027.03 86.7122C1031.18 77.1518 1036.95 68.5714 1043.32 60.4069C1050.06 51.7612 1057.94 44.068 1066.74 37.5373C1074.04 32.119 1081.6 27.1622 1089.8 23.191C1094.21 21.0545 1098.49 18.633 1103.25 17.2998C1105.29 15.357 1108.2 15.5906 1110.56 14.4055C1112.58 13.3701 1114.75 12.6277 1116.98 12.2006C1119.07 11.8018 1120.93 10.93 1122.9 10.309C1125.6 9.4544 1128.42 8.9986 1131.19 8.37757C1131.57 8.30843 1131.95 8.26276 1132.33 8.24083C1134.8 8.00723 1136.89 6.34927 1139.46 6.38915C1141.94 6.38925 1144.39 5.91743 1146.69 4.99897C1147.23 4.81435 1147.8 4.7088 1148.37 4.6856C1154.99 4.22411 1161.48 2.6573 1168.18 2.62881C1171.21 2.62881 1174.23 2.13883 1177.26 1.91093C1181.42 1.59187 1185.58 1.12468 1189.75 1.05062C1196.77 0.930971 1203.8 1.05062 1210.85 1.13038C1213.31 1.17792 1215.78 1.36816 1218.22 1.70013C1222.37 2.23569 1226.53 2.54905 1230.72 2.6687C1234.89 2.72937 1239.06 3.11032 1243.18 3.80819C1244.68 4.05428 1246.19 4.21785 1247.71 4.29818C1249.79 4.41029 1251.86 4.7679 1253.86 5.3636C1254.76 5.68244 1255.68 5.90775 1256.62 6.03591C1259.64 6.36067 1262.68 6.56007 1265.49 7.88189C1268.95 7.98444 1272.09 9.62531 1275.5 9.97286C1276.07 9.96734 1276.63 10.088 1277.15 10.3261C1279.6 11.9328 1282.59 11.8473 1285.2 12.9982C1287.81 14.1491 1290.67 14.5821 1293.24 15.7216C1295.3 16.6332 1297.44 17.391 1299.44 18.4222C1302.11 19.7953 1304.94 20.855 1307.53 22.4105C1309.97 23.8462 1312.5 25.0997 1314.94 26.5126C1322.52 30.8826 1329.16 36.3864 1335.43 42.4086C1341.63 48.4798 1346.98 55.36 1351.34 62.8626C1354.47 68.2567 1357.14 73.9059 1359.32 79.7499C1359.72 80.7982 1359.92 81.8921 1360.55 82.8892C1361.59 84.5244 1361.79 86.433 1361.74 88.3474C1361.74 88.9171 1360.92 89.9654 1360.4 90.0566C1359.65 90.1762 1358.89 90.2446 1358.12 90.3643C1356.25 90.6605 1354.38 90.9644 1352.52 91.2759C1351.21 91.4981 1349.91 91.8114 1348.6 91.9653C1346.51 92.1214 1344.45 92.5269 1342.47 93.1731C1342.12 93.3267 1341.75 93.4321 1341.38 93.4865C1336.82 93.9081 1332.41 94.8938 1327.97 95.8338C1323.52 96.7739 1318.98 97.2012 1314.49 97.9077C1313.56 98.1108 1312.65 98.3695 1311.75 98.6826C1311.05 98.9686 1310.31 99.1601 1309.56 99.2523C1304.19 99.2523 1299.15 101.252 1293.87 101.867C1290.5 102.261 1287.2 103.252 1283.77 103.48C1282.64 103.624 1281.53 103.923 1280.48 104.369C1277.56 105.406 1274.5 105.246 1271.49 105.406C1271.3 105.389 1271.12 105.336 1270.96 105.249C1270.8 105.162 1270.65 105.043 1270.54 104.899C1269.52 103.539 1268.64 102.081 1267.91 100.546C1265.53 95.8346 1262.52 91.4699 1258.97 87.5725C1254.96 83.3017 1250.35 79.6394 1245.28 76.7017C1241.05 74.2327 1236.59 72.1869 1231.95 70.594C1230.36 70.0243 1228.53 70.0243 1227.04 69.2779C1225.17 68.3911 1223.13 67.8949 1221.06 67.8193C1220.48 67.7725 1219.91 67.685 1219.35 67.5573C1208.84 65.1985 1198.22 65.5119 1187.61 66.4178C1183.84 66.7425 1180.13 67.6484 1176.39 68.2923C1172.48 70.2294 1168.07 70.7194 1164.09 72.5483C1159.6 74.5121 1155.28 76.8426 1151.17 79.5163C1142.5 85.3961 1135.11 92.5407 1129.73 101.662C1128.39 103.941 1127.11 106.22 1125.81 108.499C1124.58 110.642 1124.23 113.183 1122.66 115.137C1121.44 119.125 1120.19 123.085 1119.02 127.102C1118.82 128.029 1118.7 128.97 1118.64 129.916C1118.45 131.42 1118.43 132.976 1117.99 134.406C1117.09 137.702 1116.66 141.112 1116.72 144.53C1116.68 148.894 1116.64 153.259 1116.67 157.634C1116.71 161.429 1116.76 165.229 1118.07 168.87C1118.26 169.409 1118.36 169.974 1118.38 170.545C1118.55 176.527 1121.23 181.883 1122.59 187.569C1124.26 189.905 1124.68 192.805 1126.07 195.278C1127.84 198.383 1129.5 201.545 1131.43 204.547C1132.86 206.762 1134.43 208.884 1136.13 210.9C1142.81 218.757 1150.64 225.184 1160.07 229.531C1164.35 231.508 1168.68 233.371 1173.31 234.471C1174.95 234.928 1176.61 235.273 1178.3 235.502C1180 235.64 1181.69 235.932 1183.34 236.374C1185.91 237.08 1188.56 237.431 1191.22 237.416C1195.02 237.445 1198.81 237.416 1202.62 237.416C1205.86 237.502 1209.08 237.103 1212.2 236.231C1213.11 235.964 1214.04 235.764 1214.98 235.633C1222.77 234.453 1226.13 233.308 1233.98 230.237C1238.86 228.244 1243.53 225.762 1247.92 222.831C1254.08 218.842 1262.21 211.145 1266.16 205.225C1267.77 202.912 1269.12 200.428 1270.19 197.819C1270.94 195.853 1272.17 194.155 1272.82 192.178C1273.11 191.318 1273.9 191.113 1274.66 191.158C1276.36 191.236 1278.06 191.411 1279.74 191.683C1283.1 192.285 1286.5 192.682 1289.91 192.873C1292.76 193.027 1295.56 193.483 1298.4 193.751C1301.23 194.018 1304.07 194.32 1306.91 194.457C1309.94 194.591 1312.96 194.945 1315.94 195.517C1318.36 195.98 1320.81 196.275 1323.27 196.4C1327.45 196.639 1331.62 196.793 1335.73 197.642C1337.23 197.911 1338.74 198.081 1340.25 198.149C1344.61 198.457 1348.95 198.878 1353.27 199.556C1356.26 200.024 1359.33 199.989 1362.36 200.183C1363.31 200.246 1364.25 200.303 1365.21 200.388C1365.68 200.457 1366.11 200.683 1366.44 201.028C1366.76 201.374 1366.96 201.819 1367 202.291C1366.97 203.226 1367.09 204.28 1366.71 205.077Z" fill="white"/>
<path d="M562.18 4.87821C562.18 21.2873 562.18 37.6953 562.18 54.102C562.18 55.0624 562.147 56.0266 562.111 57.0015C562.079 57.2383 561.976 57.4597 561.814 57.6359C561.653 57.8121 561.442 57.9348 561.21 57.9874C560.848 58.0309 560.486 58.0889 560.124 58.0961C559.28 58.1179 558.433 58.1215 557.59 58.1215C522.88 58.1215 488.17 58.1215 453.46 58.1215C452.259 58.1215 451.06 58.0345 449.862 57.962C449.63 57.9035 449.416 57.7856 449.242 57.6198C449.068 57.4541 448.94 57.246 448.871 57.016C448.794 56.6649 448.742 56.3088 448.715 55.9504C448.69 55.1059 448.715 54.2614 448.715 53.4133C448.715 37.4875 448.715 21.5628 448.715 5.63934C448.715 4.43602 448.78 3.2327 448.838 2.01489C448.88 1.77798 448.997 1.56088 449.172 1.39572C449.346 1.23057 449.569 1.12614 449.808 1.0979C451.01 1.05078 452.212 1.00366 453.428 1.00366C470.903 1.00366 488.379 1.00366 505.855 1.00366C523.212 1.00366 540.567 1.00366 557.919 1.00366C559.121 1.00366 560.326 1.07615 561.539 1.16676C561.724 1.16676 561.944 1.4386 562.049 1.63794C562.145 1.85934 562.189 2.10004 562.176 2.34109C562.172 3.17471 562.18 4.03371 562.18 4.87821Z" fill="#FAA71B"/>
<path d="M113.439 248.797C113.439 264.723 113.439 280.649 113.439 296.575C113.439 297.662 113.381 298.749 113.316 299.837C113.266 300.134 113.118 300.406 112.897 300.611C112.675 300.815 112.393 300.941 112.093 300.967C111.009 300.996 109.923 301.011 108.835 301.011H4.70556C3.50023 301.011 2.29851 300.975 1.08593 300.935C0.846011 300.922 0.617419 300.829 0.437346 300.669C0.257272 300.51 0.136315 300.295 0.0941529 300.058C0.0507173 299.456 0.00366211 298.854 0.00366211 298.245C0.00366211 281.232 0.00366211 264.22 0.00366211 247.209C0.00366211 246.604 0.0253799 246.003 0.0615762 245.397C0.115871 244.564 0.633478 244.009 1.39722 243.991C2.36004 243.966 3.32286 243.966 4.29293 243.966H108.43C109.635 243.966 110.84 243.991 112.049 244.027C112.346 244.081 112.62 244.219 112.841 244.424C113.061 244.63 113.217 244.895 113.291 245.187C113.36 245.546 113.404 245.909 113.425 246.274C113.439 247.101 113.439 247.952 113.439 248.797Z" fill="#F15B25"/>
</g>
<defs>
<clipPath id="clip0_8621_6268">
<rect width="2110" height="302" fill="white"/>
</clipPath>
</defs>
</svg>
